%TF.GenerationSoftware,KiCad,Pcbnew,8.0.5*%
%TF.CreationDate,2024-10-04T10:44:53+02:00*%
%TF.ProjectId,8-bit computer,382d6269-7420-4636-9f6d-70757465722e,rev?*%
%TF.SameCoordinates,Original*%
%TF.FileFunction,Legend,Top*%
%TF.FilePolarity,Positive*%
%FSLAX46Y46*%
G04 Gerber Fmt 4.6, Leading zero omitted, Abs format (unit mm)*
G04 Created by KiCad (PCBNEW 8.0.5) date 2024-10-04 10:44:53*
%MOMM*%
%LPD*%
G01*
G04 APERTURE LIST*
%ADD10C,0.100000*%
%ADD11C,0.150000*%
%ADD12C,0.127000*%
%ADD13C,0.120000*%
G04 APERTURE END LIST*
D10*
X157212360Y-86883419D02*
X157402836Y-86883419D01*
X157402836Y-86883419D02*
X157498074Y-86931038D01*
X157498074Y-86931038D02*
X157593312Y-87026276D01*
X157593312Y-87026276D02*
X157640931Y-87216752D01*
X157640931Y-87216752D02*
X157640931Y-87550085D01*
X157640931Y-87550085D02*
X157593312Y-87740561D01*
X157593312Y-87740561D02*
X157498074Y-87835800D01*
X157498074Y-87835800D02*
X157402836Y-87883419D01*
X157402836Y-87883419D02*
X157212360Y-87883419D01*
X157212360Y-87883419D02*
X157117122Y-87835800D01*
X157117122Y-87835800D02*
X157021884Y-87740561D01*
X157021884Y-87740561D02*
X156974265Y-87550085D01*
X156974265Y-87550085D02*
X156974265Y-87216752D01*
X156974265Y-87216752D02*
X157021884Y-87026276D01*
X157021884Y-87026276D02*
X157117122Y-86931038D01*
X157117122Y-86931038D02*
X157212360Y-86883419D01*
X158069503Y-87216752D02*
X158069503Y-88216752D01*
X158069503Y-87264371D02*
X158164741Y-87216752D01*
X158164741Y-87216752D02*
X158355217Y-87216752D01*
X158355217Y-87216752D02*
X158450455Y-87264371D01*
X158450455Y-87264371D02*
X158498074Y-87311990D01*
X158498074Y-87311990D02*
X158545693Y-87407228D01*
X158545693Y-87407228D02*
X158545693Y-87692942D01*
X158545693Y-87692942D02*
X158498074Y-87788180D01*
X158498074Y-87788180D02*
X158450455Y-87835800D01*
X158450455Y-87835800D02*
X158355217Y-87883419D01*
X158355217Y-87883419D02*
X158164741Y-87883419D01*
X158164741Y-87883419D02*
X158069503Y-87835800D01*
X159355217Y-87835800D02*
X159259979Y-87883419D01*
X159259979Y-87883419D02*
X159069503Y-87883419D01*
X159069503Y-87883419D02*
X158974265Y-87835800D01*
X158974265Y-87835800D02*
X158926646Y-87740561D01*
X158926646Y-87740561D02*
X158926646Y-87359609D01*
X158926646Y-87359609D02*
X158974265Y-87264371D01*
X158974265Y-87264371D02*
X159069503Y-87216752D01*
X159069503Y-87216752D02*
X159259979Y-87216752D01*
X159259979Y-87216752D02*
X159355217Y-87264371D01*
X159355217Y-87264371D02*
X159402836Y-87359609D01*
X159402836Y-87359609D02*
X159402836Y-87454847D01*
X159402836Y-87454847D02*
X158926646Y-87550085D01*
X159831408Y-87883419D02*
X159831408Y-87216752D01*
X159831408Y-87407228D02*
X159879027Y-87311990D01*
X159879027Y-87311990D02*
X159926646Y-87264371D01*
X159926646Y-87264371D02*
X160021884Y-87216752D01*
X160021884Y-87216752D02*
X160117122Y-87216752D01*
X160879027Y-87883419D02*
X160879027Y-87359609D01*
X160879027Y-87359609D02*
X160831408Y-87264371D01*
X160831408Y-87264371D02*
X160736170Y-87216752D01*
X160736170Y-87216752D02*
X160545694Y-87216752D01*
X160545694Y-87216752D02*
X160450456Y-87264371D01*
X160879027Y-87835800D02*
X160783789Y-87883419D01*
X160783789Y-87883419D02*
X160545694Y-87883419D01*
X160545694Y-87883419D02*
X160450456Y-87835800D01*
X160450456Y-87835800D02*
X160402837Y-87740561D01*
X160402837Y-87740561D02*
X160402837Y-87645323D01*
X160402837Y-87645323D02*
X160450456Y-87550085D01*
X160450456Y-87550085D02*
X160545694Y-87502466D01*
X160545694Y-87502466D02*
X160783789Y-87502466D01*
X160783789Y-87502466D02*
X160879027Y-87454847D01*
X161212361Y-87216752D02*
X161593313Y-87216752D01*
X161355218Y-86883419D02*
X161355218Y-87740561D01*
X161355218Y-87740561D02*
X161402837Y-87835800D01*
X161402837Y-87835800D02*
X161498075Y-87883419D01*
X161498075Y-87883419D02*
X161593313Y-87883419D01*
X161926647Y-87883419D02*
X161926647Y-87216752D01*
X161926647Y-86883419D02*
X161879028Y-86931038D01*
X161879028Y-86931038D02*
X161926647Y-86978657D01*
X161926647Y-86978657D02*
X161974266Y-86931038D01*
X161974266Y-86931038D02*
X161926647Y-86883419D01*
X161926647Y-86883419D02*
X161926647Y-86978657D01*
X162545694Y-87883419D02*
X162450456Y-87835800D01*
X162450456Y-87835800D02*
X162402837Y-87788180D01*
X162402837Y-87788180D02*
X162355218Y-87692942D01*
X162355218Y-87692942D02*
X162355218Y-87407228D01*
X162355218Y-87407228D02*
X162402837Y-87311990D01*
X162402837Y-87311990D02*
X162450456Y-87264371D01*
X162450456Y-87264371D02*
X162545694Y-87216752D01*
X162545694Y-87216752D02*
X162688551Y-87216752D01*
X162688551Y-87216752D02*
X162783789Y-87264371D01*
X162783789Y-87264371D02*
X162831408Y-87311990D01*
X162831408Y-87311990D02*
X162879027Y-87407228D01*
X162879027Y-87407228D02*
X162879027Y-87692942D01*
X162879027Y-87692942D02*
X162831408Y-87788180D01*
X162831408Y-87788180D02*
X162783789Y-87835800D01*
X162783789Y-87835800D02*
X162688551Y-87883419D01*
X162688551Y-87883419D02*
X162545694Y-87883419D01*
X163307599Y-87216752D02*
X163307599Y-87883419D01*
X163307599Y-87311990D02*
X163355218Y-87264371D01*
X163355218Y-87264371D02*
X163450456Y-87216752D01*
X163450456Y-87216752D02*
X163593313Y-87216752D01*
X163593313Y-87216752D02*
X163688551Y-87264371D01*
X163688551Y-87264371D02*
X163736170Y-87359609D01*
X163736170Y-87359609D02*
X163736170Y-87883419D01*
X164926647Y-87835800D02*
X165069504Y-87883419D01*
X165069504Y-87883419D02*
X165307599Y-87883419D01*
X165307599Y-87883419D02*
X165402837Y-87835800D01*
X165402837Y-87835800D02*
X165450456Y-87788180D01*
X165450456Y-87788180D02*
X165498075Y-87692942D01*
X165498075Y-87692942D02*
X165498075Y-87597704D01*
X165498075Y-87597704D02*
X165450456Y-87502466D01*
X165450456Y-87502466D02*
X165402837Y-87454847D01*
X165402837Y-87454847D02*
X165307599Y-87407228D01*
X165307599Y-87407228D02*
X165117123Y-87359609D01*
X165117123Y-87359609D02*
X165021885Y-87311990D01*
X165021885Y-87311990D02*
X164974266Y-87264371D01*
X164974266Y-87264371D02*
X164926647Y-87169133D01*
X164926647Y-87169133D02*
X164926647Y-87073895D01*
X164926647Y-87073895D02*
X164974266Y-86978657D01*
X164974266Y-86978657D02*
X165021885Y-86931038D01*
X165021885Y-86931038D02*
X165117123Y-86883419D01*
X165117123Y-86883419D02*
X165355218Y-86883419D01*
X165355218Y-86883419D02*
X165498075Y-86931038D01*
X166307599Y-87835800D02*
X166212361Y-87883419D01*
X166212361Y-87883419D02*
X166021885Y-87883419D01*
X166021885Y-87883419D02*
X165926647Y-87835800D01*
X165926647Y-87835800D02*
X165879028Y-87740561D01*
X165879028Y-87740561D02*
X165879028Y-87359609D01*
X165879028Y-87359609D02*
X165926647Y-87264371D01*
X165926647Y-87264371D02*
X166021885Y-87216752D01*
X166021885Y-87216752D02*
X166212361Y-87216752D01*
X166212361Y-87216752D02*
X166307599Y-87264371D01*
X166307599Y-87264371D02*
X166355218Y-87359609D01*
X166355218Y-87359609D02*
X166355218Y-87454847D01*
X166355218Y-87454847D02*
X165879028Y-87550085D01*
X166926647Y-87883419D02*
X166831409Y-87835800D01*
X166831409Y-87835800D02*
X166783790Y-87740561D01*
X166783790Y-87740561D02*
X166783790Y-86883419D01*
X167688552Y-87835800D02*
X167593314Y-87883419D01*
X167593314Y-87883419D02*
X167402838Y-87883419D01*
X167402838Y-87883419D02*
X167307600Y-87835800D01*
X167307600Y-87835800D02*
X167259981Y-87740561D01*
X167259981Y-87740561D02*
X167259981Y-87359609D01*
X167259981Y-87359609D02*
X167307600Y-87264371D01*
X167307600Y-87264371D02*
X167402838Y-87216752D01*
X167402838Y-87216752D02*
X167593314Y-87216752D01*
X167593314Y-87216752D02*
X167688552Y-87264371D01*
X167688552Y-87264371D02*
X167736171Y-87359609D01*
X167736171Y-87359609D02*
X167736171Y-87454847D01*
X167736171Y-87454847D02*
X167259981Y-87550085D01*
X168593314Y-87835800D02*
X168498076Y-87883419D01*
X168498076Y-87883419D02*
X168307600Y-87883419D01*
X168307600Y-87883419D02*
X168212362Y-87835800D01*
X168212362Y-87835800D02*
X168164743Y-87788180D01*
X168164743Y-87788180D02*
X168117124Y-87692942D01*
X168117124Y-87692942D02*
X168117124Y-87407228D01*
X168117124Y-87407228D02*
X168164743Y-87311990D01*
X168164743Y-87311990D02*
X168212362Y-87264371D01*
X168212362Y-87264371D02*
X168307600Y-87216752D01*
X168307600Y-87216752D02*
X168498076Y-87216752D01*
X168498076Y-87216752D02*
X168593314Y-87264371D01*
X168879029Y-87216752D02*
X169259981Y-87216752D01*
X169021886Y-86883419D02*
X169021886Y-87740561D01*
X169021886Y-87740561D02*
X169069505Y-87835800D01*
X169069505Y-87835800D02*
X169164743Y-87883419D01*
X169164743Y-87883419D02*
X169259981Y-87883419D01*
X140715419Y-87199115D02*
X139715419Y-87199115D01*
X139715419Y-87199115D02*
X140429704Y-86865782D01*
X140429704Y-86865782D02*
X139715419Y-86532449D01*
X139715419Y-86532449D02*
X140715419Y-86532449D01*
X140715419Y-85627687D02*
X140191609Y-85627687D01*
X140191609Y-85627687D02*
X140096371Y-85675306D01*
X140096371Y-85675306D02*
X140048752Y-85770544D01*
X140048752Y-85770544D02*
X140048752Y-85961020D01*
X140048752Y-85961020D02*
X140096371Y-86056258D01*
X140667800Y-85627687D02*
X140715419Y-85722925D01*
X140715419Y-85722925D02*
X140715419Y-85961020D01*
X140715419Y-85961020D02*
X140667800Y-86056258D01*
X140667800Y-86056258D02*
X140572561Y-86103877D01*
X140572561Y-86103877D02*
X140477323Y-86103877D01*
X140477323Y-86103877D02*
X140382085Y-86056258D01*
X140382085Y-86056258D02*
X140334466Y-85961020D01*
X140334466Y-85961020D02*
X140334466Y-85722925D01*
X140334466Y-85722925D02*
X140286847Y-85627687D01*
X140048752Y-85151496D02*
X140715419Y-85151496D01*
X140143990Y-85151496D02*
X140096371Y-85103877D01*
X140096371Y-85103877D02*
X140048752Y-85008639D01*
X140048752Y-85008639D02*
X140048752Y-84865782D01*
X140048752Y-84865782D02*
X140096371Y-84770544D01*
X140096371Y-84770544D02*
X140191609Y-84722925D01*
X140191609Y-84722925D02*
X140715419Y-84722925D01*
X140048752Y-83818163D02*
X140715419Y-83818163D01*
X140048752Y-84246734D02*
X140572561Y-84246734D01*
X140572561Y-84246734D02*
X140667800Y-84199115D01*
X140667800Y-84199115D02*
X140715419Y-84103877D01*
X140715419Y-84103877D02*
X140715419Y-83961020D01*
X140715419Y-83961020D02*
X140667800Y-83865782D01*
X140667800Y-83865782D02*
X140620180Y-83818163D01*
X140715419Y-82913401D02*
X140191609Y-82913401D01*
X140191609Y-82913401D02*
X140096371Y-82961020D01*
X140096371Y-82961020D02*
X140048752Y-83056258D01*
X140048752Y-83056258D02*
X140048752Y-83246734D01*
X140048752Y-83246734D02*
X140096371Y-83341972D01*
X140667800Y-82913401D02*
X140715419Y-83008639D01*
X140715419Y-83008639D02*
X140715419Y-83246734D01*
X140715419Y-83246734D02*
X140667800Y-83341972D01*
X140667800Y-83341972D02*
X140572561Y-83389591D01*
X140572561Y-83389591D02*
X140477323Y-83389591D01*
X140477323Y-83389591D02*
X140382085Y-83341972D01*
X140382085Y-83341972D02*
X140334466Y-83246734D01*
X140334466Y-83246734D02*
X140334466Y-83008639D01*
X140334466Y-83008639D02*
X140286847Y-82913401D01*
X140715419Y-82294353D02*
X140667800Y-82389591D01*
X140667800Y-82389591D02*
X140572561Y-82437210D01*
X140572561Y-82437210D02*
X139715419Y-82437210D01*
X140715419Y-81151495D02*
X139715419Y-81151495D01*
X139715419Y-81151495D02*
X139715419Y-80770543D01*
X139715419Y-80770543D02*
X139763038Y-80675305D01*
X139763038Y-80675305D02*
X139810657Y-80627686D01*
X139810657Y-80627686D02*
X139905895Y-80580067D01*
X139905895Y-80580067D02*
X140048752Y-80580067D01*
X140048752Y-80580067D02*
X140143990Y-80627686D01*
X140143990Y-80627686D02*
X140191609Y-80675305D01*
X140191609Y-80675305D02*
X140239228Y-80770543D01*
X140239228Y-80770543D02*
X140239228Y-81151495D01*
X140715419Y-80008638D02*
X140667800Y-80103876D01*
X140667800Y-80103876D02*
X140572561Y-80151495D01*
X140572561Y-80151495D02*
X139715419Y-80151495D01*
X140048752Y-79199114D02*
X140715419Y-79199114D01*
X140048752Y-79627685D02*
X140572561Y-79627685D01*
X140572561Y-79627685D02*
X140667800Y-79580066D01*
X140667800Y-79580066D02*
X140715419Y-79484828D01*
X140715419Y-79484828D02*
X140715419Y-79341971D01*
X140715419Y-79341971D02*
X140667800Y-79246733D01*
X140667800Y-79246733D02*
X140620180Y-79199114D01*
X140667800Y-78770542D02*
X140715419Y-78675304D01*
X140715419Y-78675304D02*
X140715419Y-78484828D01*
X140715419Y-78484828D02*
X140667800Y-78389590D01*
X140667800Y-78389590D02*
X140572561Y-78341971D01*
X140572561Y-78341971D02*
X140524942Y-78341971D01*
X140524942Y-78341971D02*
X140429704Y-78389590D01*
X140429704Y-78389590D02*
X140382085Y-78484828D01*
X140382085Y-78484828D02*
X140382085Y-78627685D01*
X140382085Y-78627685D02*
X140334466Y-78722923D01*
X140334466Y-78722923D02*
X140239228Y-78770542D01*
X140239228Y-78770542D02*
X140191609Y-78770542D01*
X140191609Y-78770542D02*
X140096371Y-78722923D01*
X140096371Y-78722923D02*
X140048752Y-78627685D01*
X140048752Y-78627685D02*
X140048752Y-78484828D01*
X140048752Y-78484828D02*
X140096371Y-78389590D01*
X140667800Y-77532447D02*
X140715419Y-77627685D01*
X140715419Y-77627685D02*
X140715419Y-77818161D01*
X140715419Y-77818161D02*
X140667800Y-77913399D01*
X140667800Y-77913399D02*
X140572561Y-77961018D01*
X140572561Y-77961018D02*
X140191609Y-77961018D01*
X140191609Y-77961018D02*
X140096371Y-77913399D01*
X140096371Y-77913399D02*
X140048752Y-77818161D01*
X140048752Y-77818161D02*
X140048752Y-77627685D01*
X140048752Y-77627685D02*
X140096371Y-77532447D01*
X140096371Y-77532447D02*
X140191609Y-77484828D01*
X140191609Y-77484828D02*
X140286847Y-77484828D01*
X140286847Y-77484828D02*
X140382085Y-77961018D01*
X106457180Y-96279687D02*
X106504800Y-96327306D01*
X106504800Y-96327306D02*
X106552419Y-96470163D01*
X106552419Y-96470163D02*
X106552419Y-96565401D01*
X106552419Y-96565401D02*
X106504800Y-96708258D01*
X106504800Y-96708258D02*
X106409561Y-96803496D01*
X106409561Y-96803496D02*
X106314323Y-96851115D01*
X106314323Y-96851115D02*
X106123847Y-96898734D01*
X106123847Y-96898734D02*
X105980990Y-96898734D01*
X105980990Y-96898734D02*
X105790514Y-96851115D01*
X105790514Y-96851115D02*
X105695276Y-96803496D01*
X105695276Y-96803496D02*
X105600038Y-96708258D01*
X105600038Y-96708258D02*
X105552419Y-96565401D01*
X105552419Y-96565401D02*
X105552419Y-96470163D01*
X105552419Y-96470163D02*
X105600038Y-96327306D01*
X105600038Y-96327306D02*
X105647657Y-96279687D01*
X106552419Y-95708258D02*
X106504800Y-95803496D01*
X106504800Y-95803496D02*
X106409561Y-95851115D01*
X106409561Y-95851115D02*
X105552419Y-95851115D01*
X106552419Y-95184448D02*
X106504800Y-95279686D01*
X106504800Y-95279686D02*
X106457180Y-95327305D01*
X106457180Y-95327305D02*
X106361942Y-95374924D01*
X106361942Y-95374924D02*
X106076228Y-95374924D01*
X106076228Y-95374924D02*
X105980990Y-95327305D01*
X105980990Y-95327305D02*
X105933371Y-95279686D01*
X105933371Y-95279686D02*
X105885752Y-95184448D01*
X105885752Y-95184448D02*
X105885752Y-95041591D01*
X105885752Y-95041591D02*
X105933371Y-94946353D01*
X105933371Y-94946353D02*
X105980990Y-94898734D01*
X105980990Y-94898734D02*
X106076228Y-94851115D01*
X106076228Y-94851115D02*
X106361942Y-94851115D01*
X106361942Y-94851115D02*
X106457180Y-94898734D01*
X106457180Y-94898734D02*
X106504800Y-94946353D01*
X106504800Y-94946353D02*
X106552419Y-95041591D01*
X106552419Y-95041591D02*
X106552419Y-95184448D01*
X106504800Y-93993972D02*
X106552419Y-94089210D01*
X106552419Y-94089210D02*
X106552419Y-94279686D01*
X106552419Y-94279686D02*
X106504800Y-94374924D01*
X106504800Y-94374924D02*
X106457180Y-94422543D01*
X106457180Y-94422543D02*
X106361942Y-94470162D01*
X106361942Y-94470162D02*
X106076228Y-94470162D01*
X106076228Y-94470162D02*
X105980990Y-94422543D01*
X105980990Y-94422543D02*
X105933371Y-94374924D01*
X105933371Y-94374924D02*
X105885752Y-94279686D01*
X105885752Y-94279686D02*
X105885752Y-94089210D01*
X105885752Y-94089210D02*
X105933371Y-93993972D01*
X106552419Y-93565400D02*
X105552419Y-93565400D01*
X106171466Y-93470162D02*
X106552419Y-93184448D01*
X105885752Y-93184448D02*
X106266704Y-93565400D01*
X106028609Y-91660638D02*
X106028609Y-91993971D01*
X106552419Y-91993971D02*
X105552419Y-91993971D01*
X105552419Y-91993971D02*
X105552419Y-91517781D01*
X106552419Y-91136828D02*
X105885752Y-91136828D01*
X106076228Y-91136828D02*
X105980990Y-91089209D01*
X105980990Y-91089209D02*
X105933371Y-91041590D01*
X105933371Y-91041590D02*
X105885752Y-90946352D01*
X105885752Y-90946352D02*
X105885752Y-90851114D01*
X106504800Y-90136828D02*
X106552419Y-90232066D01*
X106552419Y-90232066D02*
X106552419Y-90422542D01*
X106552419Y-90422542D02*
X106504800Y-90517780D01*
X106504800Y-90517780D02*
X106409561Y-90565399D01*
X106409561Y-90565399D02*
X106028609Y-90565399D01*
X106028609Y-90565399D02*
X105933371Y-90517780D01*
X105933371Y-90517780D02*
X105885752Y-90422542D01*
X105885752Y-90422542D02*
X105885752Y-90232066D01*
X105885752Y-90232066D02*
X105933371Y-90136828D01*
X105933371Y-90136828D02*
X106028609Y-90089209D01*
X106028609Y-90089209D02*
X106123847Y-90089209D01*
X106123847Y-90089209D02*
X106219085Y-90565399D01*
X105885752Y-89232066D02*
X106885752Y-89232066D01*
X106504800Y-89232066D02*
X106552419Y-89327304D01*
X106552419Y-89327304D02*
X106552419Y-89517780D01*
X106552419Y-89517780D02*
X106504800Y-89613018D01*
X106504800Y-89613018D02*
X106457180Y-89660637D01*
X106457180Y-89660637D02*
X106361942Y-89708256D01*
X106361942Y-89708256D02*
X106076228Y-89708256D01*
X106076228Y-89708256D02*
X105980990Y-89660637D01*
X105980990Y-89660637D02*
X105933371Y-89613018D01*
X105933371Y-89613018D02*
X105885752Y-89517780D01*
X105885752Y-89517780D02*
X105885752Y-89327304D01*
X105885752Y-89327304D02*
X105933371Y-89232066D01*
X105885752Y-88327304D02*
X106552419Y-88327304D01*
X105885752Y-88755875D02*
X106409561Y-88755875D01*
X106409561Y-88755875D02*
X106504800Y-88708256D01*
X106504800Y-88708256D02*
X106552419Y-88613018D01*
X106552419Y-88613018D02*
X106552419Y-88470161D01*
X106552419Y-88470161D02*
X106504800Y-88374923D01*
X106504800Y-88374923D02*
X106457180Y-88327304D01*
X106504800Y-87470161D02*
X106552419Y-87565399D01*
X106552419Y-87565399D02*
X106552419Y-87755875D01*
X106552419Y-87755875D02*
X106504800Y-87851113D01*
X106504800Y-87851113D02*
X106409561Y-87898732D01*
X106409561Y-87898732D02*
X106028609Y-87898732D01*
X106028609Y-87898732D02*
X105933371Y-87851113D01*
X105933371Y-87851113D02*
X105885752Y-87755875D01*
X105885752Y-87755875D02*
X105885752Y-87565399D01*
X105885752Y-87565399D02*
X105933371Y-87470161D01*
X105933371Y-87470161D02*
X106028609Y-87422542D01*
X106028609Y-87422542D02*
X106123847Y-87422542D01*
X106123847Y-87422542D02*
X106219085Y-87898732D01*
X105885752Y-86993970D02*
X106552419Y-86993970D01*
X105980990Y-86993970D02*
X105933371Y-86946351D01*
X105933371Y-86946351D02*
X105885752Y-86851113D01*
X105885752Y-86851113D02*
X105885752Y-86708256D01*
X105885752Y-86708256D02*
X105933371Y-86613018D01*
X105933371Y-86613018D02*
X106028609Y-86565399D01*
X106028609Y-86565399D02*
X106552419Y-86565399D01*
X106504800Y-85660637D02*
X106552419Y-85755875D01*
X106552419Y-85755875D02*
X106552419Y-85946351D01*
X106552419Y-85946351D02*
X106504800Y-86041589D01*
X106504800Y-86041589D02*
X106457180Y-86089208D01*
X106457180Y-86089208D02*
X106361942Y-86136827D01*
X106361942Y-86136827D02*
X106076228Y-86136827D01*
X106076228Y-86136827D02*
X105980990Y-86089208D01*
X105980990Y-86089208D02*
X105933371Y-86041589D01*
X105933371Y-86041589D02*
X105885752Y-85946351D01*
X105885752Y-85946351D02*
X105885752Y-85755875D01*
X105885752Y-85755875D02*
X105933371Y-85660637D01*
X105885752Y-85327303D02*
X106552419Y-85089208D01*
X105885752Y-84851113D02*
X106552419Y-85089208D01*
X106552419Y-85089208D02*
X106790514Y-85184446D01*
X106790514Y-85184446D02*
X106838133Y-85232065D01*
X106838133Y-85232065D02*
X106885752Y-85327303D01*
X133653884Y-54736419D02*
X133653884Y-53736419D01*
X133653884Y-53736419D02*
X133987217Y-54450704D01*
X133987217Y-54450704D02*
X134320550Y-53736419D01*
X134320550Y-53736419D02*
X134320550Y-54736419D01*
X134939598Y-54736419D02*
X134844360Y-54688800D01*
X134844360Y-54688800D02*
X134796741Y-54641180D01*
X134796741Y-54641180D02*
X134749122Y-54545942D01*
X134749122Y-54545942D02*
X134749122Y-54260228D01*
X134749122Y-54260228D02*
X134796741Y-54164990D01*
X134796741Y-54164990D02*
X134844360Y-54117371D01*
X134844360Y-54117371D02*
X134939598Y-54069752D01*
X134939598Y-54069752D02*
X135082455Y-54069752D01*
X135082455Y-54069752D02*
X135177693Y-54117371D01*
X135177693Y-54117371D02*
X135225312Y-54164990D01*
X135225312Y-54164990D02*
X135272931Y-54260228D01*
X135272931Y-54260228D02*
X135272931Y-54545942D01*
X135272931Y-54545942D02*
X135225312Y-54641180D01*
X135225312Y-54641180D02*
X135177693Y-54688800D01*
X135177693Y-54688800D02*
X135082455Y-54736419D01*
X135082455Y-54736419D02*
X134939598Y-54736419D01*
X135701503Y-54069752D02*
X135701503Y-54736419D01*
X135701503Y-54164990D02*
X135749122Y-54117371D01*
X135749122Y-54117371D02*
X135844360Y-54069752D01*
X135844360Y-54069752D02*
X135987217Y-54069752D01*
X135987217Y-54069752D02*
X136082455Y-54117371D01*
X136082455Y-54117371D02*
X136130074Y-54212609D01*
X136130074Y-54212609D02*
X136130074Y-54736419D01*
X136749122Y-54736419D02*
X136653884Y-54688800D01*
X136653884Y-54688800D02*
X136606265Y-54641180D01*
X136606265Y-54641180D02*
X136558646Y-54545942D01*
X136558646Y-54545942D02*
X136558646Y-54260228D01*
X136558646Y-54260228D02*
X136606265Y-54164990D01*
X136606265Y-54164990D02*
X136653884Y-54117371D01*
X136653884Y-54117371D02*
X136749122Y-54069752D01*
X136749122Y-54069752D02*
X136891979Y-54069752D01*
X136891979Y-54069752D02*
X136987217Y-54117371D01*
X136987217Y-54117371D02*
X137034836Y-54164990D01*
X137034836Y-54164990D02*
X137082455Y-54260228D01*
X137082455Y-54260228D02*
X137082455Y-54545942D01*
X137082455Y-54545942D02*
X137034836Y-54641180D01*
X137034836Y-54641180D02*
X136987217Y-54688800D01*
X136987217Y-54688800D02*
X136891979Y-54736419D01*
X136891979Y-54736419D02*
X136749122Y-54736419D01*
X137463408Y-54688800D02*
X137558646Y-54736419D01*
X137558646Y-54736419D02*
X137749122Y-54736419D01*
X137749122Y-54736419D02*
X137844360Y-54688800D01*
X137844360Y-54688800D02*
X137891979Y-54593561D01*
X137891979Y-54593561D02*
X137891979Y-54545942D01*
X137891979Y-54545942D02*
X137844360Y-54450704D01*
X137844360Y-54450704D02*
X137749122Y-54403085D01*
X137749122Y-54403085D02*
X137606265Y-54403085D01*
X137606265Y-54403085D02*
X137511027Y-54355466D01*
X137511027Y-54355466D02*
X137463408Y-54260228D01*
X137463408Y-54260228D02*
X137463408Y-54212609D01*
X137463408Y-54212609D02*
X137511027Y-54117371D01*
X137511027Y-54117371D02*
X137606265Y-54069752D01*
X137606265Y-54069752D02*
X137749122Y-54069752D01*
X137749122Y-54069752D02*
X137844360Y-54117371D01*
X138177694Y-54069752D02*
X138558646Y-54069752D01*
X138320551Y-53736419D02*
X138320551Y-54593561D01*
X138320551Y-54593561D02*
X138368170Y-54688800D01*
X138368170Y-54688800D02*
X138463408Y-54736419D01*
X138463408Y-54736419D02*
X138558646Y-54736419D01*
X139320551Y-54736419D02*
X139320551Y-54212609D01*
X139320551Y-54212609D02*
X139272932Y-54117371D01*
X139272932Y-54117371D02*
X139177694Y-54069752D01*
X139177694Y-54069752D02*
X138987218Y-54069752D01*
X138987218Y-54069752D02*
X138891980Y-54117371D01*
X139320551Y-54688800D02*
X139225313Y-54736419D01*
X139225313Y-54736419D02*
X138987218Y-54736419D01*
X138987218Y-54736419D02*
X138891980Y-54688800D01*
X138891980Y-54688800D02*
X138844361Y-54593561D01*
X138844361Y-54593561D02*
X138844361Y-54498323D01*
X138844361Y-54498323D02*
X138891980Y-54403085D01*
X138891980Y-54403085D02*
X138987218Y-54355466D01*
X138987218Y-54355466D02*
X139225313Y-54355466D01*
X139225313Y-54355466D02*
X139320551Y-54307847D01*
X139796742Y-54736419D02*
X139796742Y-53736419D01*
X139796742Y-54117371D02*
X139891980Y-54069752D01*
X139891980Y-54069752D02*
X140082456Y-54069752D01*
X140082456Y-54069752D02*
X140177694Y-54117371D01*
X140177694Y-54117371D02*
X140225313Y-54164990D01*
X140225313Y-54164990D02*
X140272932Y-54260228D01*
X140272932Y-54260228D02*
X140272932Y-54545942D01*
X140272932Y-54545942D02*
X140225313Y-54641180D01*
X140225313Y-54641180D02*
X140177694Y-54688800D01*
X140177694Y-54688800D02*
X140082456Y-54736419D01*
X140082456Y-54736419D02*
X139891980Y-54736419D01*
X139891980Y-54736419D02*
X139796742Y-54688800D01*
X140844361Y-54736419D02*
X140749123Y-54688800D01*
X140749123Y-54688800D02*
X140701504Y-54593561D01*
X140701504Y-54593561D02*
X140701504Y-53736419D01*
X141606266Y-54688800D02*
X141511028Y-54736419D01*
X141511028Y-54736419D02*
X141320552Y-54736419D01*
X141320552Y-54736419D02*
X141225314Y-54688800D01*
X141225314Y-54688800D02*
X141177695Y-54593561D01*
X141177695Y-54593561D02*
X141177695Y-54212609D01*
X141177695Y-54212609D02*
X141225314Y-54117371D01*
X141225314Y-54117371D02*
X141320552Y-54069752D01*
X141320552Y-54069752D02*
X141511028Y-54069752D01*
X141511028Y-54069752D02*
X141606266Y-54117371D01*
X141606266Y-54117371D02*
X141653885Y-54212609D01*
X141653885Y-54212609D02*
X141653885Y-54307847D01*
X141653885Y-54307847D02*
X141177695Y-54403085D01*
X143320552Y-53736419D02*
X142844362Y-53736419D01*
X142844362Y-53736419D02*
X142796743Y-54212609D01*
X142796743Y-54212609D02*
X142844362Y-54164990D01*
X142844362Y-54164990D02*
X142939600Y-54117371D01*
X142939600Y-54117371D02*
X143177695Y-54117371D01*
X143177695Y-54117371D02*
X143272933Y-54164990D01*
X143272933Y-54164990D02*
X143320552Y-54212609D01*
X143320552Y-54212609D02*
X143368171Y-54307847D01*
X143368171Y-54307847D02*
X143368171Y-54545942D01*
X143368171Y-54545942D02*
X143320552Y-54641180D01*
X143320552Y-54641180D02*
X143272933Y-54688800D01*
X143272933Y-54688800D02*
X143177695Y-54736419D01*
X143177695Y-54736419D02*
X142939600Y-54736419D01*
X142939600Y-54736419D02*
X142844362Y-54688800D01*
X142844362Y-54688800D02*
X142796743Y-54641180D01*
X144272933Y-53736419D02*
X143796743Y-53736419D01*
X143796743Y-53736419D02*
X143749124Y-54212609D01*
X143749124Y-54212609D02*
X143796743Y-54164990D01*
X143796743Y-54164990D02*
X143891981Y-54117371D01*
X143891981Y-54117371D02*
X144130076Y-54117371D01*
X144130076Y-54117371D02*
X144225314Y-54164990D01*
X144225314Y-54164990D02*
X144272933Y-54212609D01*
X144272933Y-54212609D02*
X144320552Y-54307847D01*
X144320552Y-54307847D02*
X144320552Y-54545942D01*
X144320552Y-54545942D02*
X144272933Y-54641180D01*
X144272933Y-54641180D02*
X144225314Y-54688800D01*
X144225314Y-54688800D02*
X144130076Y-54736419D01*
X144130076Y-54736419D02*
X143891981Y-54736419D01*
X143891981Y-54736419D02*
X143796743Y-54688800D01*
X143796743Y-54688800D02*
X143749124Y-54641180D01*
X145225314Y-53736419D02*
X144749124Y-53736419D01*
X144749124Y-53736419D02*
X144701505Y-54212609D01*
X144701505Y-54212609D02*
X144749124Y-54164990D01*
X144749124Y-54164990D02*
X144844362Y-54117371D01*
X144844362Y-54117371D02*
X145082457Y-54117371D01*
X145082457Y-54117371D02*
X145177695Y-54164990D01*
X145177695Y-54164990D02*
X145225314Y-54212609D01*
X145225314Y-54212609D02*
X145272933Y-54307847D01*
X145272933Y-54307847D02*
X145272933Y-54545942D01*
X145272933Y-54545942D02*
X145225314Y-54641180D01*
X145225314Y-54641180D02*
X145177695Y-54688800D01*
X145177695Y-54688800D02*
X145082457Y-54736419D01*
X145082457Y-54736419D02*
X144844362Y-54736419D01*
X144844362Y-54736419D02*
X144749124Y-54688800D01*
X144749124Y-54688800D02*
X144701505Y-54641180D01*
X101094265Y-54831704D02*
X101570455Y-54831704D01*
X100999027Y-55117419D02*
X101332360Y-54117419D01*
X101332360Y-54117419D02*
X101665693Y-55117419D01*
X101951408Y-55069800D02*
X102046646Y-55117419D01*
X102046646Y-55117419D02*
X102237122Y-55117419D01*
X102237122Y-55117419D02*
X102332360Y-55069800D01*
X102332360Y-55069800D02*
X102379979Y-54974561D01*
X102379979Y-54974561D02*
X102379979Y-54926942D01*
X102379979Y-54926942D02*
X102332360Y-54831704D01*
X102332360Y-54831704D02*
X102237122Y-54784085D01*
X102237122Y-54784085D02*
X102094265Y-54784085D01*
X102094265Y-54784085D02*
X101999027Y-54736466D01*
X101999027Y-54736466D02*
X101951408Y-54641228D01*
X101951408Y-54641228D02*
X101951408Y-54593609D01*
X101951408Y-54593609D02*
X101999027Y-54498371D01*
X101999027Y-54498371D02*
X102094265Y-54450752D01*
X102094265Y-54450752D02*
X102237122Y-54450752D01*
X102237122Y-54450752D02*
X102332360Y-54498371D01*
X102665694Y-54450752D02*
X103046646Y-54450752D01*
X102808551Y-54117419D02*
X102808551Y-54974561D01*
X102808551Y-54974561D02*
X102856170Y-55069800D01*
X102856170Y-55069800D02*
X102951408Y-55117419D01*
X102951408Y-55117419D02*
X103046646Y-55117419D01*
X103808551Y-55117419D02*
X103808551Y-54593609D01*
X103808551Y-54593609D02*
X103760932Y-54498371D01*
X103760932Y-54498371D02*
X103665694Y-54450752D01*
X103665694Y-54450752D02*
X103475218Y-54450752D01*
X103475218Y-54450752D02*
X103379980Y-54498371D01*
X103808551Y-55069800D02*
X103713313Y-55117419D01*
X103713313Y-55117419D02*
X103475218Y-55117419D01*
X103475218Y-55117419D02*
X103379980Y-55069800D01*
X103379980Y-55069800D02*
X103332361Y-54974561D01*
X103332361Y-54974561D02*
X103332361Y-54879323D01*
X103332361Y-54879323D02*
X103379980Y-54784085D01*
X103379980Y-54784085D02*
X103475218Y-54736466D01*
X103475218Y-54736466D02*
X103713313Y-54736466D01*
X103713313Y-54736466D02*
X103808551Y-54688847D01*
X104284742Y-55117419D02*
X104284742Y-54117419D01*
X104284742Y-54498371D02*
X104379980Y-54450752D01*
X104379980Y-54450752D02*
X104570456Y-54450752D01*
X104570456Y-54450752D02*
X104665694Y-54498371D01*
X104665694Y-54498371D02*
X104713313Y-54545990D01*
X104713313Y-54545990D02*
X104760932Y-54641228D01*
X104760932Y-54641228D02*
X104760932Y-54926942D01*
X104760932Y-54926942D02*
X104713313Y-55022180D01*
X104713313Y-55022180D02*
X104665694Y-55069800D01*
X104665694Y-55069800D02*
X104570456Y-55117419D01*
X104570456Y-55117419D02*
X104379980Y-55117419D01*
X104379980Y-55117419D02*
X104284742Y-55069800D01*
X105332361Y-55117419D02*
X105237123Y-55069800D01*
X105237123Y-55069800D02*
X105189504Y-54974561D01*
X105189504Y-54974561D02*
X105189504Y-54117419D01*
X106094266Y-55069800D02*
X105999028Y-55117419D01*
X105999028Y-55117419D02*
X105808552Y-55117419D01*
X105808552Y-55117419D02*
X105713314Y-55069800D01*
X105713314Y-55069800D02*
X105665695Y-54974561D01*
X105665695Y-54974561D02*
X105665695Y-54593609D01*
X105665695Y-54593609D02*
X105713314Y-54498371D01*
X105713314Y-54498371D02*
X105808552Y-54450752D01*
X105808552Y-54450752D02*
X105999028Y-54450752D01*
X105999028Y-54450752D02*
X106094266Y-54498371D01*
X106094266Y-54498371D02*
X106141885Y-54593609D01*
X106141885Y-54593609D02*
X106141885Y-54688847D01*
X106141885Y-54688847D02*
X105665695Y-54784085D01*
X107808552Y-54117419D02*
X107332362Y-54117419D01*
X107332362Y-54117419D02*
X107284743Y-54593609D01*
X107284743Y-54593609D02*
X107332362Y-54545990D01*
X107332362Y-54545990D02*
X107427600Y-54498371D01*
X107427600Y-54498371D02*
X107665695Y-54498371D01*
X107665695Y-54498371D02*
X107760933Y-54545990D01*
X107760933Y-54545990D02*
X107808552Y-54593609D01*
X107808552Y-54593609D02*
X107856171Y-54688847D01*
X107856171Y-54688847D02*
X107856171Y-54926942D01*
X107856171Y-54926942D02*
X107808552Y-55022180D01*
X107808552Y-55022180D02*
X107760933Y-55069800D01*
X107760933Y-55069800D02*
X107665695Y-55117419D01*
X107665695Y-55117419D02*
X107427600Y-55117419D01*
X107427600Y-55117419D02*
X107332362Y-55069800D01*
X107332362Y-55069800D02*
X107284743Y-55022180D01*
X108760933Y-54117419D02*
X108284743Y-54117419D01*
X108284743Y-54117419D02*
X108237124Y-54593609D01*
X108237124Y-54593609D02*
X108284743Y-54545990D01*
X108284743Y-54545990D02*
X108379981Y-54498371D01*
X108379981Y-54498371D02*
X108618076Y-54498371D01*
X108618076Y-54498371D02*
X108713314Y-54545990D01*
X108713314Y-54545990D02*
X108760933Y-54593609D01*
X108760933Y-54593609D02*
X108808552Y-54688847D01*
X108808552Y-54688847D02*
X108808552Y-54926942D01*
X108808552Y-54926942D02*
X108760933Y-55022180D01*
X108760933Y-55022180D02*
X108713314Y-55069800D01*
X108713314Y-55069800D02*
X108618076Y-55117419D01*
X108618076Y-55117419D02*
X108379981Y-55117419D01*
X108379981Y-55117419D02*
X108284743Y-55069800D01*
X108284743Y-55069800D02*
X108237124Y-55022180D01*
X109713314Y-54117419D02*
X109237124Y-54117419D01*
X109237124Y-54117419D02*
X109189505Y-54593609D01*
X109189505Y-54593609D02*
X109237124Y-54545990D01*
X109237124Y-54545990D02*
X109332362Y-54498371D01*
X109332362Y-54498371D02*
X109570457Y-54498371D01*
X109570457Y-54498371D02*
X109665695Y-54545990D01*
X109665695Y-54545990D02*
X109713314Y-54593609D01*
X109713314Y-54593609D02*
X109760933Y-54688847D01*
X109760933Y-54688847D02*
X109760933Y-54926942D01*
X109760933Y-54926942D02*
X109713314Y-55022180D01*
X109713314Y-55022180D02*
X109665695Y-55069800D01*
X109665695Y-55069800D02*
X109570457Y-55117419D01*
X109570457Y-55117419D02*
X109332362Y-55117419D01*
X109332362Y-55117419D02*
X109237124Y-55069800D01*
X109237124Y-55069800D02*
X109189505Y-55022180D01*
X88900000Y-52070000D02*
X123190000Y-52070000D01*
X123190000Y-97790000D01*
X88900000Y-97790000D01*
X88900000Y-52070000D01*
X123190000Y-52070000D02*
X156210000Y-52070000D01*
X156210000Y-97790000D01*
X123190000Y-97790000D01*
X123190000Y-52070000D01*
X156210000Y-52070000D02*
X200660000Y-52070000D01*
X200660000Y-97790000D01*
X156210000Y-97790000D01*
X156210000Y-52070000D01*
D11*
X195758819Y-86334143D02*
X195758819Y-86810333D01*
X195758819Y-86810333D02*
X194758819Y-86810333D01*
X195235009Y-86000809D02*
X195235009Y-85667476D01*
X195758819Y-85524619D02*
X195758819Y-86000809D01*
X195758819Y-86000809D02*
X194758819Y-86000809D01*
X194758819Y-86000809D02*
X194758819Y-85524619D01*
X195758819Y-85096047D02*
X194758819Y-85096047D01*
X194758819Y-85096047D02*
X194758819Y-84857952D01*
X194758819Y-84857952D02*
X194806438Y-84715095D01*
X194806438Y-84715095D02*
X194901676Y-84619857D01*
X194901676Y-84619857D02*
X194996914Y-84572238D01*
X194996914Y-84572238D02*
X195187390Y-84524619D01*
X195187390Y-84524619D02*
X195330247Y-84524619D01*
X195330247Y-84524619D02*
X195520723Y-84572238D01*
X195520723Y-84572238D02*
X195615961Y-84619857D01*
X195615961Y-84619857D02*
X195711200Y-84715095D01*
X195711200Y-84715095D02*
X195758819Y-84857952D01*
X195758819Y-84857952D02*
X195758819Y-85096047D01*
X195854057Y-84334143D02*
X195854057Y-83572238D01*
X195711200Y-83381761D02*
X195758819Y-83238904D01*
X195758819Y-83238904D02*
X195758819Y-83000809D01*
X195758819Y-83000809D02*
X195711200Y-82905571D01*
X195711200Y-82905571D02*
X195663580Y-82857952D01*
X195663580Y-82857952D02*
X195568342Y-82810333D01*
X195568342Y-82810333D02*
X195473104Y-82810333D01*
X195473104Y-82810333D02*
X195377866Y-82857952D01*
X195377866Y-82857952D02*
X195330247Y-82905571D01*
X195330247Y-82905571D02*
X195282628Y-83000809D01*
X195282628Y-83000809D02*
X195235009Y-83191285D01*
X195235009Y-83191285D02*
X195187390Y-83286523D01*
X195187390Y-83286523D02*
X195139771Y-83334142D01*
X195139771Y-83334142D02*
X195044533Y-83381761D01*
X195044533Y-83381761D02*
X194949295Y-83381761D01*
X194949295Y-83381761D02*
X194854057Y-83334142D01*
X194854057Y-83334142D02*
X194806438Y-83286523D01*
X194806438Y-83286523D02*
X194758819Y-83191285D01*
X194758819Y-83191285D02*
X194758819Y-82953190D01*
X194758819Y-82953190D02*
X194806438Y-82810333D01*
X195235009Y-82381761D02*
X195235009Y-82048428D01*
X195758819Y-81905571D02*
X195758819Y-82381761D01*
X195758819Y-82381761D02*
X194758819Y-82381761D01*
X194758819Y-82381761D02*
X194758819Y-81905571D01*
X195758819Y-81000809D02*
X195758819Y-81476999D01*
X195758819Y-81476999D02*
X194758819Y-81476999D01*
D12*
X199804338Y-86739250D02*
X199842438Y-86777350D01*
X199842438Y-86777350D02*
X199880538Y-86891650D01*
X199880538Y-86891650D02*
X199880538Y-86967850D01*
X199880538Y-86967850D02*
X199842438Y-87082150D01*
X199842438Y-87082150D02*
X199766238Y-87158350D01*
X199766238Y-87158350D02*
X199690038Y-87196450D01*
X199690038Y-87196450D02*
X199537638Y-87234550D01*
X199537638Y-87234550D02*
X199423338Y-87234550D01*
X199423338Y-87234550D02*
X199270938Y-87196450D01*
X199270938Y-87196450D02*
X199194738Y-87158350D01*
X199194738Y-87158350D02*
X199118538Y-87082150D01*
X199118538Y-87082150D02*
X199080438Y-86967850D01*
X199080438Y-86967850D02*
X199080438Y-86891650D01*
X199080438Y-86891650D02*
X199118538Y-86777350D01*
X199118538Y-86777350D02*
X199156638Y-86739250D01*
X199880538Y-86015350D02*
X199880538Y-86396350D01*
X199880538Y-86396350D02*
X199080438Y-86396350D01*
X199880538Y-85748650D02*
X199080438Y-85748650D01*
X199880538Y-85291450D02*
X199423338Y-85634350D01*
X199080438Y-85291450D02*
X199537638Y-85748650D01*
X198858315Y-87306940D02*
X198858315Y-85219060D01*
X200147238Y-84758050D02*
X199004238Y-84758050D01*
X199804338Y-83729350D02*
X199842438Y-83767450D01*
X199842438Y-83767450D02*
X199880538Y-83881750D01*
X199880538Y-83881750D02*
X199880538Y-83957950D01*
X199880538Y-83957950D02*
X199842438Y-84072250D01*
X199842438Y-84072250D02*
X199766238Y-84148450D01*
X199766238Y-84148450D02*
X199690038Y-84186550D01*
X199690038Y-84186550D02*
X199537638Y-84224650D01*
X199537638Y-84224650D02*
X199423338Y-84224650D01*
X199423338Y-84224650D02*
X199270938Y-84186550D01*
X199270938Y-84186550D02*
X199194738Y-84148450D01*
X199194738Y-84148450D02*
X199118538Y-84072250D01*
X199118538Y-84072250D02*
X199080438Y-83957950D01*
X199080438Y-83957950D02*
X199080438Y-83881750D01*
X199080438Y-83881750D02*
X199118538Y-83767450D01*
X199118538Y-83767450D02*
X199156638Y-83729350D01*
X200147238Y-83195950D02*
X199004238Y-83195950D01*
X199804338Y-82167250D02*
X199842438Y-82205350D01*
X199842438Y-82205350D02*
X199880538Y-82319650D01*
X199880538Y-82319650D02*
X199880538Y-82395850D01*
X199880538Y-82395850D02*
X199842438Y-82510150D01*
X199842438Y-82510150D02*
X199766238Y-82586350D01*
X199766238Y-82586350D02*
X199690038Y-82624450D01*
X199690038Y-82624450D02*
X199537638Y-82662550D01*
X199537638Y-82662550D02*
X199423338Y-82662550D01*
X199423338Y-82662550D02*
X199270938Y-82624450D01*
X199270938Y-82624450D02*
X199194738Y-82586350D01*
X199194738Y-82586350D02*
X199118538Y-82510150D01*
X199118538Y-82510150D02*
X199080438Y-82395850D01*
X199080438Y-82395850D02*
X199080438Y-82319650D01*
X199080438Y-82319650D02*
X199118538Y-82205350D01*
X199118538Y-82205350D02*
X199156638Y-82167250D01*
X199880538Y-81443350D02*
X199880538Y-81824350D01*
X199880538Y-81824350D02*
X199080438Y-81824350D01*
X199880538Y-81176650D02*
X199080438Y-81176650D01*
X199880538Y-80719450D02*
X199423338Y-81062350D01*
X199080438Y-80719450D02*
X199537638Y-81176650D01*
D11*
X185433095Y-75864819D02*
X185433095Y-76674342D01*
X185433095Y-76674342D02*
X185480714Y-76769580D01*
X185480714Y-76769580D02*
X185528333Y-76817200D01*
X185528333Y-76817200D02*
X185623571Y-76864819D01*
X185623571Y-76864819D02*
X185814047Y-76864819D01*
X185814047Y-76864819D02*
X185909285Y-76817200D01*
X185909285Y-76817200D02*
X185956904Y-76769580D01*
X185956904Y-76769580D02*
X186004523Y-76674342D01*
X186004523Y-76674342D02*
X186004523Y-75864819D01*
X186956904Y-75864819D02*
X186480714Y-75864819D01*
X186480714Y-75864819D02*
X186433095Y-76341009D01*
X186433095Y-76341009D02*
X186480714Y-76293390D01*
X186480714Y-76293390D02*
X186575952Y-76245771D01*
X186575952Y-76245771D02*
X186814047Y-76245771D01*
X186814047Y-76245771D02*
X186909285Y-76293390D01*
X186909285Y-76293390D02*
X186956904Y-76341009D01*
X186956904Y-76341009D02*
X187004523Y-76436247D01*
X187004523Y-76436247D02*
X187004523Y-76674342D01*
X187004523Y-76674342D02*
X186956904Y-76769580D01*
X186956904Y-76769580D02*
X186909285Y-76817200D01*
X186909285Y-76817200D02*
X186814047Y-76864819D01*
X186814047Y-76864819D02*
X186575952Y-76864819D01*
X186575952Y-76864819D02*
X186480714Y-76817200D01*
X186480714Y-76817200D02*
X186433095Y-76769580D01*
X183028333Y-95764819D02*
X183694999Y-95764819D01*
X183694999Y-95764819D02*
X183266428Y-96764819D01*
X184504523Y-96098152D02*
X184504523Y-96764819D01*
X184266428Y-95717200D02*
X184028333Y-96431485D01*
X184028333Y-96431485D02*
X184647380Y-96431485D01*
X185028333Y-96764819D02*
X185028333Y-95764819D01*
X185028333Y-96241009D02*
X185599761Y-96241009D01*
X185599761Y-96764819D02*
X185599761Y-95764819D01*
X186647380Y-96669580D02*
X186599761Y-96717200D01*
X186599761Y-96717200D02*
X186456904Y-96764819D01*
X186456904Y-96764819D02*
X186361666Y-96764819D01*
X186361666Y-96764819D02*
X186218809Y-96717200D01*
X186218809Y-96717200D02*
X186123571Y-96621961D01*
X186123571Y-96621961D02*
X186075952Y-96526723D01*
X186075952Y-96526723D02*
X186028333Y-96336247D01*
X186028333Y-96336247D02*
X186028333Y-96193390D01*
X186028333Y-96193390D02*
X186075952Y-96002914D01*
X186075952Y-96002914D02*
X186123571Y-95907676D01*
X186123571Y-95907676D02*
X186218809Y-95812438D01*
X186218809Y-95812438D02*
X186361666Y-95764819D01*
X186361666Y-95764819D02*
X186456904Y-95764819D01*
X186456904Y-95764819D02*
X186599761Y-95812438D01*
X186599761Y-95812438D02*
X186647380Y-95860057D01*
X186933095Y-95764819D02*
X187504523Y-95764819D01*
X187218809Y-96764819D02*
X187218809Y-95764819D01*
X188028333Y-95764819D02*
X188123571Y-95764819D01*
X188123571Y-95764819D02*
X188218809Y-95812438D01*
X188218809Y-95812438D02*
X188266428Y-95860057D01*
X188266428Y-95860057D02*
X188314047Y-95955295D01*
X188314047Y-95955295D02*
X188361666Y-96145771D01*
X188361666Y-96145771D02*
X188361666Y-96383866D01*
X188361666Y-96383866D02*
X188314047Y-96574342D01*
X188314047Y-96574342D02*
X188266428Y-96669580D01*
X188266428Y-96669580D02*
X188218809Y-96717200D01*
X188218809Y-96717200D02*
X188123571Y-96764819D01*
X188123571Y-96764819D02*
X188028333Y-96764819D01*
X188028333Y-96764819D02*
X187933095Y-96717200D01*
X187933095Y-96717200D02*
X187885476Y-96669580D01*
X187885476Y-96669580D02*
X187837857Y-96574342D01*
X187837857Y-96574342D02*
X187790238Y-96383866D01*
X187790238Y-96383866D02*
X187790238Y-96145771D01*
X187790238Y-96145771D02*
X187837857Y-95955295D01*
X187837857Y-95955295D02*
X187885476Y-95860057D01*
X187885476Y-95860057D02*
X187933095Y-95812438D01*
X187933095Y-95812438D02*
X188028333Y-95764819D01*
X188742619Y-95860057D02*
X188790238Y-95812438D01*
X188790238Y-95812438D02*
X188885476Y-95764819D01*
X188885476Y-95764819D02*
X189123571Y-95764819D01*
X189123571Y-95764819D02*
X189218809Y-95812438D01*
X189218809Y-95812438D02*
X189266428Y-95860057D01*
X189266428Y-95860057D02*
X189314047Y-95955295D01*
X189314047Y-95955295D02*
X189314047Y-96050533D01*
X189314047Y-96050533D02*
X189266428Y-96193390D01*
X189266428Y-96193390D02*
X188695000Y-96764819D01*
X188695000Y-96764819D02*
X189314047Y-96764819D01*
X169844819Y-68071904D02*
X170654342Y-68071904D01*
X170654342Y-68071904D02*
X170749580Y-68024285D01*
X170749580Y-68024285D02*
X170797200Y-67976666D01*
X170797200Y-67976666D02*
X170844819Y-67881428D01*
X170844819Y-67881428D02*
X170844819Y-67690952D01*
X170844819Y-67690952D02*
X170797200Y-67595714D01*
X170797200Y-67595714D02*
X170749580Y-67548095D01*
X170749580Y-67548095D02*
X170654342Y-67500476D01*
X170654342Y-67500476D02*
X169844819Y-67500476D01*
X169844819Y-67119523D02*
X169844819Y-66500476D01*
X169844819Y-66500476D02*
X170225771Y-66833809D01*
X170225771Y-66833809D02*
X170225771Y-66690952D01*
X170225771Y-66690952D02*
X170273390Y-66595714D01*
X170273390Y-66595714D02*
X170321009Y-66548095D01*
X170321009Y-66548095D02*
X170416247Y-66500476D01*
X170416247Y-66500476D02*
X170654342Y-66500476D01*
X170654342Y-66500476D02*
X170749580Y-66548095D01*
X170749580Y-66548095D02*
X170797200Y-66595714D01*
X170797200Y-66595714D02*
X170844819Y-66690952D01*
X170844819Y-66690952D02*
X170844819Y-66976666D01*
X170844819Y-66976666D02*
X170797200Y-67071904D01*
X170797200Y-67071904D02*
X170749580Y-67119523D01*
X130484819Y-68061904D02*
X131294342Y-68061904D01*
X131294342Y-68061904D02*
X131389580Y-68014285D01*
X131389580Y-68014285D02*
X131437200Y-67966666D01*
X131437200Y-67966666D02*
X131484819Y-67871428D01*
X131484819Y-67871428D02*
X131484819Y-67680952D01*
X131484819Y-67680952D02*
X131437200Y-67585714D01*
X131437200Y-67585714D02*
X131389580Y-67538095D01*
X131389580Y-67538095D02*
X131294342Y-67490476D01*
X131294342Y-67490476D02*
X130484819Y-67490476D01*
X130580057Y-67061904D02*
X130532438Y-67014285D01*
X130532438Y-67014285D02*
X130484819Y-66919047D01*
X130484819Y-66919047D02*
X130484819Y-66680952D01*
X130484819Y-66680952D02*
X130532438Y-66585714D01*
X130532438Y-66585714D02*
X130580057Y-66538095D01*
X130580057Y-66538095D02*
X130675295Y-66490476D01*
X130675295Y-66490476D02*
X130770533Y-66490476D01*
X130770533Y-66490476D02*
X130913390Y-66538095D01*
X130913390Y-66538095D02*
X131484819Y-67109523D01*
X131484819Y-67109523D02*
X131484819Y-66490476D01*
X98724819Y-68071904D02*
X99534342Y-68071904D01*
X99534342Y-68071904D02*
X99629580Y-68024285D01*
X99629580Y-68024285D02*
X99677200Y-67976666D01*
X99677200Y-67976666D02*
X99724819Y-67881428D01*
X99724819Y-67881428D02*
X99724819Y-67690952D01*
X99724819Y-67690952D02*
X99677200Y-67595714D01*
X99677200Y-67595714D02*
X99629580Y-67548095D01*
X99629580Y-67548095D02*
X99534342Y-67500476D01*
X99534342Y-67500476D02*
X98724819Y-67500476D01*
X99724819Y-66500476D02*
X99724819Y-67071904D01*
X99724819Y-66786190D02*
X98724819Y-66786190D01*
X98724819Y-66786190D02*
X98867676Y-66881428D01*
X98867676Y-66881428D02*
X98962914Y-66976666D01*
X98962914Y-66976666D02*
X99010533Y-67071904D01*
X167653200Y-82319332D02*
X167700819Y-82176475D01*
X167700819Y-82176475D02*
X167700819Y-81938380D01*
X167700819Y-81938380D02*
X167653200Y-81843142D01*
X167653200Y-81843142D02*
X167605580Y-81795523D01*
X167605580Y-81795523D02*
X167510342Y-81747904D01*
X167510342Y-81747904D02*
X167415104Y-81747904D01*
X167415104Y-81747904D02*
X167319866Y-81795523D01*
X167319866Y-81795523D02*
X167272247Y-81843142D01*
X167272247Y-81843142D02*
X167224628Y-81938380D01*
X167224628Y-81938380D02*
X167177009Y-82128856D01*
X167177009Y-82128856D02*
X167129390Y-82224094D01*
X167129390Y-82224094D02*
X167081771Y-82271713D01*
X167081771Y-82271713D02*
X166986533Y-82319332D01*
X166986533Y-82319332D02*
X166891295Y-82319332D01*
X166891295Y-82319332D02*
X166796057Y-82271713D01*
X166796057Y-82271713D02*
X166748438Y-82224094D01*
X166748438Y-82224094D02*
X166700819Y-82128856D01*
X166700819Y-82128856D02*
X166700819Y-81890761D01*
X166700819Y-81890761D02*
X166748438Y-81747904D01*
X166700819Y-81414570D02*
X167700819Y-81176475D01*
X167700819Y-81176475D02*
X166986533Y-80985999D01*
X166986533Y-80985999D02*
X167700819Y-80795523D01*
X167700819Y-80795523D02*
X166700819Y-80557428D01*
X166796057Y-80224094D02*
X166748438Y-80176475D01*
X166748438Y-80176475D02*
X166700819Y-80081237D01*
X166700819Y-80081237D02*
X166700819Y-79843142D01*
X166700819Y-79843142D02*
X166748438Y-79747904D01*
X166748438Y-79747904D02*
X166796057Y-79700285D01*
X166796057Y-79700285D02*
X166891295Y-79652666D01*
X166891295Y-79652666D02*
X166986533Y-79652666D01*
X166986533Y-79652666D02*
X167129390Y-79700285D01*
X167129390Y-79700285D02*
X167700819Y-80271713D01*
X167700819Y-80271713D02*
X167700819Y-79652666D01*
X131067200Y-83323332D02*
X131114819Y-83180475D01*
X131114819Y-83180475D02*
X131114819Y-82942380D01*
X131114819Y-82942380D02*
X131067200Y-82847142D01*
X131067200Y-82847142D02*
X131019580Y-82799523D01*
X131019580Y-82799523D02*
X130924342Y-82751904D01*
X130924342Y-82751904D02*
X130829104Y-82751904D01*
X130829104Y-82751904D02*
X130733866Y-82799523D01*
X130733866Y-82799523D02*
X130686247Y-82847142D01*
X130686247Y-82847142D02*
X130638628Y-82942380D01*
X130638628Y-82942380D02*
X130591009Y-83132856D01*
X130591009Y-83132856D02*
X130543390Y-83228094D01*
X130543390Y-83228094D02*
X130495771Y-83275713D01*
X130495771Y-83275713D02*
X130400533Y-83323332D01*
X130400533Y-83323332D02*
X130305295Y-83323332D01*
X130305295Y-83323332D02*
X130210057Y-83275713D01*
X130210057Y-83275713D02*
X130162438Y-83228094D01*
X130162438Y-83228094D02*
X130114819Y-83132856D01*
X130114819Y-83132856D02*
X130114819Y-82894761D01*
X130114819Y-82894761D02*
X130162438Y-82751904D01*
X130114819Y-82418570D02*
X131114819Y-82180475D01*
X131114819Y-82180475D02*
X130400533Y-81989999D01*
X130400533Y-81989999D02*
X131114819Y-81799523D01*
X131114819Y-81799523D02*
X130114819Y-81561428D01*
X131114819Y-80656666D02*
X131114819Y-81228094D01*
X131114819Y-80942380D02*
X130114819Y-80942380D01*
X130114819Y-80942380D02*
X130257676Y-81037618D01*
X130257676Y-81037618D02*
X130352914Y-81132856D01*
X130352914Y-81132856D02*
X130400533Y-81228094D01*
X104624819Y-91085238D02*
X104148628Y-91418571D01*
X104624819Y-91656666D02*
X103624819Y-91656666D01*
X103624819Y-91656666D02*
X103624819Y-91275714D01*
X103624819Y-91275714D02*
X103672438Y-91180476D01*
X103672438Y-91180476D02*
X103720057Y-91132857D01*
X103720057Y-91132857D02*
X103815295Y-91085238D01*
X103815295Y-91085238D02*
X103958152Y-91085238D01*
X103958152Y-91085238D02*
X104053390Y-91132857D01*
X104053390Y-91132857D02*
X104101009Y-91180476D01*
X104101009Y-91180476D02*
X104148628Y-91275714D01*
X104148628Y-91275714D02*
X104148628Y-91656666D01*
X103624819Y-90799523D02*
X104624819Y-90466190D01*
X104624819Y-90466190D02*
X103624819Y-90132857D01*
X104624819Y-89275714D02*
X104624819Y-89847142D01*
X104624819Y-89561428D02*
X103624819Y-89561428D01*
X103624819Y-89561428D02*
X103767676Y-89656666D01*
X103767676Y-89656666D02*
X103862914Y-89751904D01*
X103862914Y-89751904D02*
X103910533Y-89847142D01*
X192873333Y-68854819D02*
X192540000Y-68378628D01*
X192301905Y-68854819D02*
X192301905Y-67854819D01*
X192301905Y-67854819D02*
X192682857Y-67854819D01*
X192682857Y-67854819D02*
X192778095Y-67902438D01*
X192778095Y-67902438D02*
X192825714Y-67950057D01*
X192825714Y-67950057D02*
X192873333Y-68045295D01*
X192873333Y-68045295D02*
X192873333Y-68188152D01*
X192873333Y-68188152D02*
X192825714Y-68283390D01*
X192825714Y-68283390D02*
X192778095Y-68331009D01*
X192778095Y-68331009D02*
X192682857Y-68378628D01*
X192682857Y-68378628D02*
X192301905Y-68378628D01*
X193206667Y-67854819D02*
X193873333Y-67854819D01*
X193873333Y-67854819D02*
X193444762Y-68854819D01*
X102703333Y-73934819D02*
X102370000Y-73458628D01*
X102131905Y-73934819D02*
X102131905Y-72934819D01*
X102131905Y-72934819D02*
X102512857Y-72934819D01*
X102512857Y-72934819D02*
X102608095Y-72982438D01*
X102608095Y-72982438D02*
X102655714Y-73030057D01*
X102655714Y-73030057D02*
X102703333Y-73125295D01*
X102703333Y-73125295D02*
X102703333Y-73268152D01*
X102703333Y-73268152D02*
X102655714Y-73363390D01*
X102655714Y-73363390D02*
X102608095Y-73411009D01*
X102608095Y-73411009D02*
X102512857Y-73458628D01*
X102512857Y-73458628D02*
X102131905Y-73458628D01*
X103560476Y-72934819D02*
X103370000Y-72934819D01*
X103370000Y-72934819D02*
X103274762Y-72982438D01*
X103274762Y-72982438D02*
X103227143Y-73030057D01*
X103227143Y-73030057D02*
X103131905Y-73172914D01*
X103131905Y-73172914D02*
X103084286Y-73363390D01*
X103084286Y-73363390D02*
X103084286Y-73744342D01*
X103084286Y-73744342D02*
X103131905Y-73839580D01*
X103131905Y-73839580D02*
X103179524Y-73887200D01*
X103179524Y-73887200D02*
X103274762Y-73934819D01*
X103274762Y-73934819D02*
X103465238Y-73934819D01*
X103465238Y-73934819D02*
X103560476Y-73887200D01*
X103560476Y-73887200D02*
X103608095Y-73839580D01*
X103608095Y-73839580D02*
X103655714Y-73744342D01*
X103655714Y-73744342D02*
X103655714Y-73506247D01*
X103655714Y-73506247D02*
X103608095Y-73411009D01*
X103608095Y-73411009D02*
X103560476Y-73363390D01*
X103560476Y-73363390D02*
X103465238Y-73315771D01*
X103465238Y-73315771D02*
X103274762Y-73315771D01*
X103274762Y-73315771D02*
X103179524Y-73363390D01*
X103179524Y-73363390D02*
X103131905Y-73411009D01*
X103131905Y-73411009D02*
X103084286Y-73506247D01*
X102830333Y-84528819D02*
X102497000Y-84052628D01*
X102258905Y-84528819D02*
X102258905Y-83528819D01*
X102258905Y-83528819D02*
X102639857Y-83528819D01*
X102639857Y-83528819D02*
X102735095Y-83576438D01*
X102735095Y-83576438D02*
X102782714Y-83624057D01*
X102782714Y-83624057D02*
X102830333Y-83719295D01*
X102830333Y-83719295D02*
X102830333Y-83862152D01*
X102830333Y-83862152D02*
X102782714Y-83957390D01*
X102782714Y-83957390D02*
X102735095Y-84005009D01*
X102735095Y-84005009D02*
X102639857Y-84052628D01*
X102639857Y-84052628D02*
X102258905Y-84052628D01*
X103735095Y-83528819D02*
X103258905Y-83528819D01*
X103258905Y-83528819D02*
X103211286Y-84005009D01*
X103211286Y-84005009D02*
X103258905Y-83957390D01*
X103258905Y-83957390D02*
X103354143Y-83909771D01*
X103354143Y-83909771D02*
X103592238Y-83909771D01*
X103592238Y-83909771D02*
X103687476Y-83957390D01*
X103687476Y-83957390D02*
X103735095Y-84005009D01*
X103735095Y-84005009D02*
X103782714Y-84100247D01*
X103782714Y-84100247D02*
X103782714Y-84338342D01*
X103782714Y-84338342D02*
X103735095Y-84433580D01*
X103735095Y-84433580D02*
X103687476Y-84481200D01*
X103687476Y-84481200D02*
X103592238Y-84528819D01*
X103592238Y-84528819D02*
X103354143Y-84528819D01*
X103354143Y-84528819D02*
X103258905Y-84481200D01*
X103258905Y-84481200D02*
X103211286Y-84433580D01*
X150494819Y-62396666D02*
X150018628Y-62729999D01*
X150494819Y-62968094D02*
X149494819Y-62968094D01*
X149494819Y-62968094D02*
X149494819Y-62587142D01*
X149494819Y-62587142D02*
X149542438Y-62491904D01*
X149542438Y-62491904D02*
X149590057Y-62444285D01*
X149590057Y-62444285D02*
X149685295Y-62396666D01*
X149685295Y-62396666D02*
X149828152Y-62396666D01*
X149828152Y-62396666D02*
X149923390Y-62444285D01*
X149923390Y-62444285D02*
X149971009Y-62491904D01*
X149971009Y-62491904D02*
X150018628Y-62587142D01*
X150018628Y-62587142D02*
X150018628Y-62968094D01*
X149828152Y-61539523D02*
X150494819Y-61539523D01*
X149447200Y-61777618D02*
X150161485Y-62015713D01*
X150161485Y-62015713D02*
X150161485Y-61396666D01*
X130174819Y-62396666D02*
X129698628Y-62729999D01*
X130174819Y-62968094D02*
X129174819Y-62968094D01*
X129174819Y-62968094D02*
X129174819Y-62587142D01*
X129174819Y-62587142D02*
X129222438Y-62491904D01*
X129222438Y-62491904D02*
X129270057Y-62444285D01*
X129270057Y-62444285D02*
X129365295Y-62396666D01*
X129365295Y-62396666D02*
X129508152Y-62396666D01*
X129508152Y-62396666D02*
X129603390Y-62444285D01*
X129603390Y-62444285D02*
X129651009Y-62491904D01*
X129651009Y-62491904D02*
X129698628Y-62587142D01*
X129698628Y-62587142D02*
X129698628Y-62968094D01*
X129174819Y-62063332D02*
X129174819Y-61444285D01*
X129174819Y-61444285D02*
X129555771Y-61777618D01*
X129555771Y-61777618D02*
X129555771Y-61634761D01*
X129555771Y-61634761D02*
X129603390Y-61539523D01*
X129603390Y-61539523D02*
X129651009Y-61491904D01*
X129651009Y-61491904D02*
X129746247Y-61444285D01*
X129746247Y-61444285D02*
X129984342Y-61444285D01*
X129984342Y-61444285D02*
X130079580Y-61491904D01*
X130079580Y-61491904D02*
X130127200Y-61539523D01*
X130127200Y-61539523D02*
X130174819Y-61634761D01*
X130174819Y-61634761D02*
X130174819Y-61920475D01*
X130174819Y-61920475D02*
X130127200Y-62015713D01*
X130127200Y-62015713D02*
X130079580Y-62063332D01*
X165734819Y-62396666D02*
X165258628Y-62729999D01*
X165734819Y-62968094D02*
X164734819Y-62968094D01*
X164734819Y-62968094D02*
X164734819Y-62587142D01*
X164734819Y-62587142D02*
X164782438Y-62491904D01*
X164782438Y-62491904D02*
X164830057Y-62444285D01*
X164830057Y-62444285D02*
X164925295Y-62396666D01*
X164925295Y-62396666D02*
X165068152Y-62396666D01*
X165068152Y-62396666D02*
X165163390Y-62444285D01*
X165163390Y-62444285D02*
X165211009Y-62491904D01*
X165211009Y-62491904D02*
X165258628Y-62587142D01*
X165258628Y-62587142D02*
X165258628Y-62968094D01*
X164830057Y-62015713D02*
X164782438Y-61968094D01*
X164782438Y-61968094D02*
X164734819Y-61872856D01*
X164734819Y-61872856D02*
X164734819Y-61634761D01*
X164734819Y-61634761D02*
X164782438Y-61539523D01*
X164782438Y-61539523D02*
X164830057Y-61491904D01*
X164830057Y-61491904D02*
X164925295Y-61444285D01*
X164925295Y-61444285D02*
X165020533Y-61444285D01*
X165020533Y-61444285D02*
X165163390Y-61491904D01*
X165163390Y-61491904D02*
X165734819Y-62063332D01*
X165734819Y-62063332D02*
X165734819Y-61444285D01*
X170814819Y-62396666D02*
X170338628Y-62729999D01*
X170814819Y-62968094D02*
X169814819Y-62968094D01*
X169814819Y-62968094D02*
X169814819Y-62587142D01*
X169814819Y-62587142D02*
X169862438Y-62491904D01*
X169862438Y-62491904D02*
X169910057Y-62444285D01*
X169910057Y-62444285D02*
X170005295Y-62396666D01*
X170005295Y-62396666D02*
X170148152Y-62396666D01*
X170148152Y-62396666D02*
X170243390Y-62444285D01*
X170243390Y-62444285D02*
X170291009Y-62491904D01*
X170291009Y-62491904D02*
X170338628Y-62587142D01*
X170338628Y-62587142D02*
X170338628Y-62968094D01*
X170814819Y-61444285D02*
X170814819Y-62015713D01*
X170814819Y-61729999D02*
X169814819Y-61729999D01*
X169814819Y-61729999D02*
X169957676Y-61825237D01*
X169957676Y-61825237D02*
X170052914Y-61920475D01*
X170052914Y-61920475D02*
X170100533Y-62015713D01*
X199994819Y-78208094D02*
X198994819Y-78208094D01*
X198994819Y-78208094D02*
X198994819Y-77969999D01*
X198994819Y-77969999D02*
X199042438Y-77827142D01*
X199042438Y-77827142D02*
X199137676Y-77731904D01*
X199137676Y-77731904D02*
X199232914Y-77684285D01*
X199232914Y-77684285D02*
X199423390Y-77636666D01*
X199423390Y-77636666D02*
X199566247Y-77636666D01*
X199566247Y-77636666D02*
X199756723Y-77684285D01*
X199756723Y-77684285D02*
X199851961Y-77731904D01*
X199851961Y-77731904D02*
X199947200Y-77827142D01*
X199947200Y-77827142D02*
X199994819Y-77969999D01*
X199994819Y-77969999D02*
X199994819Y-78208094D01*
X199994819Y-76684285D02*
X199994819Y-77255713D01*
X199994819Y-76969999D02*
X198994819Y-76969999D01*
X198994819Y-76969999D02*
X199137676Y-77065237D01*
X199137676Y-77065237D02*
X199232914Y-77160475D01*
X199232914Y-77160475D02*
X199280533Y-77255713D01*
X93129580Y-70286666D02*
X93177200Y-70334285D01*
X93177200Y-70334285D02*
X93224819Y-70477142D01*
X93224819Y-70477142D02*
X93224819Y-70572380D01*
X93224819Y-70572380D02*
X93177200Y-70715237D01*
X93177200Y-70715237D02*
X93081961Y-70810475D01*
X93081961Y-70810475D02*
X92986723Y-70858094D01*
X92986723Y-70858094D02*
X92796247Y-70905713D01*
X92796247Y-70905713D02*
X92653390Y-70905713D01*
X92653390Y-70905713D02*
X92462914Y-70858094D01*
X92462914Y-70858094D02*
X92367676Y-70810475D01*
X92367676Y-70810475D02*
X92272438Y-70715237D01*
X92272438Y-70715237D02*
X92224819Y-70572380D01*
X92224819Y-70572380D02*
X92224819Y-70477142D01*
X92224819Y-70477142D02*
X92272438Y-70334285D01*
X92272438Y-70334285D02*
X92320057Y-70286666D01*
X92224819Y-69953332D02*
X92224819Y-69286666D01*
X92224819Y-69286666D02*
X93224819Y-69715237D01*
X116633333Y-61359580D02*
X116585714Y-61407200D01*
X116585714Y-61407200D02*
X116442857Y-61454819D01*
X116442857Y-61454819D02*
X116347619Y-61454819D01*
X116347619Y-61454819D02*
X116204762Y-61407200D01*
X116204762Y-61407200D02*
X116109524Y-61311961D01*
X116109524Y-61311961D02*
X116061905Y-61216723D01*
X116061905Y-61216723D02*
X116014286Y-61026247D01*
X116014286Y-61026247D02*
X116014286Y-60883390D01*
X116014286Y-60883390D02*
X116061905Y-60692914D01*
X116061905Y-60692914D02*
X116109524Y-60597676D01*
X116109524Y-60597676D02*
X116204762Y-60502438D01*
X116204762Y-60502438D02*
X116347619Y-60454819D01*
X116347619Y-60454819D02*
X116442857Y-60454819D01*
X116442857Y-60454819D02*
X116585714Y-60502438D01*
X116585714Y-60502438D02*
X116633333Y-60550057D01*
X117490476Y-60454819D02*
X117300000Y-60454819D01*
X117300000Y-60454819D02*
X117204762Y-60502438D01*
X117204762Y-60502438D02*
X117157143Y-60550057D01*
X117157143Y-60550057D02*
X117061905Y-60692914D01*
X117061905Y-60692914D02*
X117014286Y-60883390D01*
X117014286Y-60883390D02*
X117014286Y-61264342D01*
X117014286Y-61264342D02*
X117061905Y-61359580D01*
X117061905Y-61359580D02*
X117109524Y-61407200D01*
X117109524Y-61407200D02*
X117204762Y-61454819D01*
X117204762Y-61454819D02*
X117395238Y-61454819D01*
X117395238Y-61454819D02*
X117490476Y-61407200D01*
X117490476Y-61407200D02*
X117538095Y-61359580D01*
X117538095Y-61359580D02*
X117585714Y-61264342D01*
X117585714Y-61264342D02*
X117585714Y-61026247D01*
X117585714Y-61026247D02*
X117538095Y-60931009D01*
X117538095Y-60931009D02*
X117490476Y-60883390D01*
X117490476Y-60883390D02*
X117395238Y-60835771D01*
X117395238Y-60835771D02*
X117204762Y-60835771D01*
X117204762Y-60835771D02*
X117109524Y-60883390D01*
X117109524Y-60883390D02*
X117061905Y-60931009D01*
X117061905Y-60931009D02*
X117014286Y-61026247D01*
X155259580Y-73866666D02*
X155307200Y-73914285D01*
X155307200Y-73914285D02*
X155354819Y-74057142D01*
X155354819Y-74057142D02*
X155354819Y-74152380D01*
X155354819Y-74152380D02*
X155307200Y-74295237D01*
X155307200Y-74295237D02*
X155211961Y-74390475D01*
X155211961Y-74390475D02*
X155116723Y-74438094D01*
X155116723Y-74438094D02*
X154926247Y-74485713D01*
X154926247Y-74485713D02*
X154783390Y-74485713D01*
X154783390Y-74485713D02*
X154592914Y-74438094D01*
X154592914Y-74438094D02*
X154497676Y-74390475D01*
X154497676Y-74390475D02*
X154402438Y-74295237D01*
X154402438Y-74295237D02*
X154354819Y-74152380D01*
X154354819Y-74152380D02*
X154354819Y-74057142D01*
X154354819Y-74057142D02*
X154402438Y-73914285D01*
X154402438Y-73914285D02*
X154450057Y-73866666D01*
X154354819Y-72961904D02*
X154354819Y-73438094D01*
X154354819Y-73438094D02*
X154831009Y-73485713D01*
X154831009Y-73485713D02*
X154783390Y-73438094D01*
X154783390Y-73438094D02*
X154735771Y-73342856D01*
X154735771Y-73342856D02*
X154735771Y-73104761D01*
X154735771Y-73104761D02*
X154783390Y-73009523D01*
X154783390Y-73009523D02*
X154831009Y-72961904D01*
X154831009Y-72961904D02*
X154926247Y-72914285D01*
X154926247Y-72914285D02*
X155164342Y-72914285D01*
X155164342Y-72914285D02*
X155259580Y-72961904D01*
X155259580Y-72961904D02*
X155307200Y-73009523D01*
X155307200Y-73009523D02*
X155354819Y-73104761D01*
X155354819Y-73104761D02*
X155354819Y-73342856D01*
X155354819Y-73342856D02*
X155307200Y-73438094D01*
X155307200Y-73438094D02*
X155259580Y-73485713D01*
X150179580Y-73866666D02*
X150227200Y-73914285D01*
X150227200Y-73914285D02*
X150274819Y-74057142D01*
X150274819Y-74057142D02*
X150274819Y-74152380D01*
X150274819Y-74152380D02*
X150227200Y-74295237D01*
X150227200Y-74295237D02*
X150131961Y-74390475D01*
X150131961Y-74390475D02*
X150036723Y-74438094D01*
X150036723Y-74438094D02*
X149846247Y-74485713D01*
X149846247Y-74485713D02*
X149703390Y-74485713D01*
X149703390Y-74485713D02*
X149512914Y-74438094D01*
X149512914Y-74438094D02*
X149417676Y-74390475D01*
X149417676Y-74390475D02*
X149322438Y-74295237D01*
X149322438Y-74295237D02*
X149274819Y-74152380D01*
X149274819Y-74152380D02*
X149274819Y-74057142D01*
X149274819Y-74057142D02*
X149322438Y-73914285D01*
X149322438Y-73914285D02*
X149370057Y-73866666D01*
X149608152Y-73009523D02*
X150274819Y-73009523D01*
X149227200Y-73247618D02*
X149941485Y-73485713D01*
X149941485Y-73485713D02*
X149941485Y-72866666D01*
X196723333Y-63899580D02*
X196675714Y-63947200D01*
X196675714Y-63947200D02*
X196532857Y-63994819D01*
X196532857Y-63994819D02*
X196437619Y-63994819D01*
X196437619Y-63994819D02*
X196294762Y-63947200D01*
X196294762Y-63947200D02*
X196199524Y-63851961D01*
X196199524Y-63851961D02*
X196151905Y-63756723D01*
X196151905Y-63756723D02*
X196104286Y-63566247D01*
X196104286Y-63566247D02*
X196104286Y-63423390D01*
X196104286Y-63423390D02*
X196151905Y-63232914D01*
X196151905Y-63232914D02*
X196199524Y-63137676D01*
X196199524Y-63137676D02*
X196294762Y-63042438D01*
X196294762Y-63042438D02*
X196437619Y-62994819D01*
X196437619Y-62994819D02*
X196532857Y-62994819D01*
X196532857Y-62994819D02*
X196675714Y-63042438D01*
X196675714Y-63042438D02*
X196723333Y-63090057D01*
X197056667Y-62994819D02*
X197675714Y-62994819D01*
X197675714Y-62994819D02*
X197342381Y-63375771D01*
X197342381Y-63375771D02*
X197485238Y-63375771D01*
X197485238Y-63375771D02*
X197580476Y-63423390D01*
X197580476Y-63423390D02*
X197628095Y-63471009D01*
X197628095Y-63471009D02*
X197675714Y-63566247D01*
X197675714Y-63566247D02*
X197675714Y-63804342D01*
X197675714Y-63804342D02*
X197628095Y-63899580D01*
X197628095Y-63899580D02*
X197580476Y-63947200D01*
X197580476Y-63947200D02*
X197485238Y-63994819D01*
X197485238Y-63994819D02*
X197199524Y-63994819D01*
X197199524Y-63994819D02*
X197104286Y-63947200D01*
X197104286Y-63947200D02*
X197056667Y-63899580D01*
X190899580Y-57361666D02*
X190947200Y-57409285D01*
X190947200Y-57409285D02*
X190994819Y-57552142D01*
X190994819Y-57552142D02*
X190994819Y-57647380D01*
X190994819Y-57647380D02*
X190947200Y-57790237D01*
X190947200Y-57790237D02*
X190851961Y-57885475D01*
X190851961Y-57885475D02*
X190756723Y-57933094D01*
X190756723Y-57933094D02*
X190566247Y-57980713D01*
X190566247Y-57980713D02*
X190423390Y-57980713D01*
X190423390Y-57980713D02*
X190232914Y-57933094D01*
X190232914Y-57933094D02*
X190137676Y-57885475D01*
X190137676Y-57885475D02*
X190042438Y-57790237D01*
X190042438Y-57790237D02*
X189994819Y-57647380D01*
X189994819Y-57647380D02*
X189994819Y-57552142D01*
X189994819Y-57552142D02*
X190042438Y-57409285D01*
X190042438Y-57409285D02*
X190090057Y-57361666D01*
X190090057Y-56980713D02*
X190042438Y-56933094D01*
X190042438Y-56933094D02*
X189994819Y-56837856D01*
X189994819Y-56837856D02*
X189994819Y-56599761D01*
X189994819Y-56599761D02*
X190042438Y-56504523D01*
X190042438Y-56504523D02*
X190090057Y-56456904D01*
X190090057Y-56456904D02*
X190185295Y-56409285D01*
X190185295Y-56409285D02*
X190280533Y-56409285D01*
X190280533Y-56409285D02*
X190423390Y-56456904D01*
X190423390Y-56456904D02*
X190994819Y-57028332D01*
X190994819Y-57028332D02*
X190994819Y-56409285D01*
X185779580Y-57321666D02*
X185827200Y-57369285D01*
X185827200Y-57369285D02*
X185874819Y-57512142D01*
X185874819Y-57512142D02*
X185874819Y-57607380D01*
X185874819Y-57607380D02*
X185827200Y-57750237D01*
X185827200Y-57750237D02*
X185731961Y-57845475D01*
X185731961Y-57845475D02*
X185636723Y-57893094D01*
X185636723Y-57893094D02*
X185446247Y-57940713D01*
X185446247Y-57940713D02*
X185303390Y-57940713D01*
X185303390Y-57940713D02*
X185112914Y-57893094D01*
X185112914Y-57893094D02*
X185017676Y-57845475D01*
X185017676Y-57845475D02*
X184922438Y-57750237D01*
X184922438Y-57750237D02*
X184874819Y-57607380D01*
X184874819Y-57607380D02*
X184874819Y-57512142D01*
X184874819Y-57512142D02*
X184922438Y-57369285D01*
X184922438Y-57369285D02*
X184970057Y-57321666D01*
X185874819Y-56369285D02*
X185874819Y-56940713D01*
X185874819Y-56654999D02*
X184874819Y-56654999D01*
X184874819Y-56654999D02*
X185017676Y-56750237D01*
X185017676Y-56750237D02*
X185112914Y-56845475D01*
X185112914Y-56845475D02*
X185160533Y-56940713D01*
X195304580Y-96860858D02*
X195352200Y-96908477D01*
X195352200Y-96908477D02*
X195399819Y-97051334D01*
X195399819Y-97051334D02*
X195399819Y-97146572D01*
X195399819Y-97146572D02*
X195352200Y-97289429D01*
X195352200Y-97289429D02*
X195256961Y-97384667D01*
X195256961Y-97384667D02*
X195161723Y-97432286D01*
X195161723Y-97432286D02*
X194971247Y-97479905D01*
X194971247Y-97479905D02*
X194828390Y-97479905D01*
X194828390Y-97479905D02*
X194637914Y-97432286D01*
X194637914Y-97432286D02*
X194542676Y-97384667D01*
X194542676Y-97384667D02*
X194447438Y-97289429D01*
X194447438Y-97289429D02*
X194399819Y-97146572D01*
X194399819Y-97146572D02*
X194399819Y-97051334D01*
X194399819Y-97051334D02*
X194447438Y-96908477D01*
X194447438Y-96908477D02*
X194495057Y-96860858D01*
X195399819Y-96289429D02*
X195352200Y-96384667D01*
X195352200Y-96384667D02*
X195304580Y-96432286D01*
X195304580Y-96432286D02*
X195209342Y-96479905D01*
X195209342Y-96479905D02*
X194923628Y-96479905D01*
X194923628Y-96479905D02*
X194828390Y-96432286D01*
X194828390Y-96432286D02*
X194780771Y-96384667D01*
X194780771Y-96384667D02*
X194733152Y-96289429D01*
X194733152Y-96289429D02*
X194733152Y-96146572D01*
X194733152Y-96146572D02*
X194780771Y-96051334D01*
X194780771Y-96051334D02*
X194828390Y-96003715D01*
X194828390Y-96003715D02*
X194923628Y-95956096D01*
X194923628Y-95956096D02*
X195209342Y-95956096D01*
X195209342Y-95956096D02*
X195304580Y-96003715D01*
X195304580Y-96003715D02*
X195352200Y-96051334D01*
X195352200Y-96051334D02*
X195399819Y-96146572D01*
X195399819Y-96146572D02*
X195399819Y-96289429D01*
X194733152Y-95527524D02*
X195399819Y-95527524D01*
X194828390Y-95527524D02*
X194780771Y-95479905D01*
X194780771Y-95479905D02*
X194733152Y-95384667D01*
X194733152Y-95384667D02*
X194733152Y-95241810D01*
X194733152Y-95241810D02*
X194780771Y-95146572D01*
X194780771Y-95146572D02*
X194876009Y-95098953D01*
X194876009Y-95098953D02*
X195399819Y-95098953D01*
X194733152Y-94765619D02*
X194733152Y-94384667D01*
X194399819Y-94622762D02*
X195256961Y-94622762D01*
X195256961Y-94622762D02*
X195352200Y-94575143D01*
X195352200Y-94575143D02*
X195399819Y-94479905D01*
X195399819Y-94479905D02*
X195399819Y-94384667D01*
X195399819Y-94051333D02*
X194733152Y-94051333D01*
X194923628Y-94051333D02*
X194828390Y-94003714D01*
X194828390Y-94003714D02*
X194780771Y-93956095D01*
X194780771Y-93956095D02*
X194733152Y-93860857D01*
X194733152Y-93860857D02*
X194733152Y-93765619D01*
X195399819Y-93289428D02*
X195352200Y-93384666D01*
X195352200Y-93384666D02*
X195304580Y-93432285D01*
X195304580Y-93432285D02*
X195209342Y-93479904D01*
X195209342Y-93479904D02*
X194923628Y-93479904D01*
X194923628Y-93479904D02*
X194828390Y-93432285D01*
X194828390Y-93432285D02*
X194780771Y-93384666D01*
X194780771Y-93384666D02*
X194733152Y-93289428D01*
X194733152Y-93289428D02*
X194733152Y-93146571D01*
X194733152Y-93146571D02*
X194780771Y-93051333D01*
X194780771Y-93051333D02*
X194828390Y-93003714D01*
X194828390Y-93003714D02*
X194923628Y-92956095D01*
X194923628Y-92956095D02*
X195209342Y-92956095D01*
X195209342Y-92956095D02*
X195304580Y-93003714D01*
X195304580Y-93003714D02*
X195352200Y-93051333D01*
X195352200Y-93051333D02*
X195399819Y-93146571D01*
X195399819Y-93146571D02*
X195399819Y-93289428D01*
X195399819Y-92384666D02*
X195352200Y-92479904D01*
X195352200Y-92479904D02*
X195256961Y-92527523D01*
X195256961Y-92527523D02*
X194399819Y-92527523D01*
X195495057Y-92241809D02*
X195495057Y-91479904D01*
X194876009Y-90908475D02*
X194923628Y-90765618D01*
X194923628Y-90765618D02*
X194971247Y-90717999D01*
X194971247Y-90717999D02*
X195066485Y-90670380D01*
X195066485Y-90670380D02*
X195209342Y-90670380D01*
X195209342Y-90670380D02*
X195304580Y-90717999D01*
X195304580Y-90717999D02*
X195352200Y-90765618D01*
X195352200Y-90765618D02*
X195399819Y-90860856D01*
X195399819Y-90860856D02*
X195399819Y-91241808D01*
X195399819Y-91241808D02*
X194399819Y-91241808D01*
X194399819Y-91241808D02*
X194399819Y-90908475D01*
X194399819Y-90908475D02*
X194447438Y-90813237D01*
X194447438Y-90813237D02*
X194495057Y-90765618D01*
X194495057Y-90765618D02*
X194590295Y-90717999D01*
X194590295Y-90717999D02*
X194685533Y-90717999D01*
X194685533Y-90717999D02*
X194780771Y-90765618D01*
X194780771Y-90765618D02*
X194828390Y-90813237D01*
X194828390Y-90813237D02*
X194876009Y-90908475D01*
X194876009Y-90908475D02*
X194876009Y-91241808D01*
X194733152Y-89813237D02*
X195399819Y-89813237D01*
X194733152Y-90241808D02*
X195256961Y-90241808D01*
X195256961Y-90241808D02*
X195352200Y-90194189D01*
X195352200Y-90194189D02*
X195399819Y-90098951D01*
X195399819Y-90098951D02*
X195399819Y-89956094D01*
X195399819Y-89956094D02*
X195352200Y-89860856D01*
X195352200Y-89860856D02*
X195304580Y-89813237D01*
X195352200Y-89384665D02*
X195399819Y-89289427D01*
X195399819Y-89289427D02*
X195399819Y-89098951D01*
X195399819Y-89098951D02*
X195352200Y-89003713D01*
X195352200Y-89003713D02*
X195256961Y-88956094D01*
X195256961Y-88956094D02*
X195209342Y-88956094D01*
X195209342Y-88956094D02*
X195114104Y-89003713D01*
X195114104Y-89003713D02*
X195066485Y-89098951D01*
X195066485Y-89098951D02*
X195066485Y-89241808D01*
X195066485Y-89241808D02*
X195018866Y-89337046D01*
X195018866Y-89337046D02*
X194923628Y-89384665D01*
X194923628Y-89384665D02*
X194876009Y-89384665D01*
X194876009Y-89384665D02*
X194780771Y-89337046D01*
X194780771Y-89337046D02*
X194733152Y-89241808D01*
X194733152Y-89241808D02*
X194733152Y-89098951D01*
X194733152Y-89098951D02*
X194780771Y-89003713D01*
X196786667Y-53921819D02*
X196786667Y-52921819D01*
X196786667Y-52921819D02*
X197167619Y-52921819D01*
X197167619Y-52921819D02*
X197262857Y-52969438D01*
X197262857Y-52969438D02*
X197310476Y-53017057D01*
X197310476Y-53017057D02*
X197358095Y-53112295D01*
X197358095Y-53112295D02*
X197358095Y-53255152D01*
X197358095Y-53255152D02*
X197310476Y-53350390D01*
X197310476Y-53350390D02*
X197262857Y-53398009D01*
X197262857Y-53398009D02*
X197167619Y-53445628D01*
X197167619Y-53445628D02*
X196786667Y-53445628D01*
X197691429Y-52921819D02*
X197929524Y-53921819D01*
X197929524Y-53921819D02*
X198120000Y-53207533D01*
X198120000Y-53207533D02*
X198310476Y-53921819D01*
X198310476Y-53921819D02*
X198548572Y-52921819D01*
X199500952Y-53921819D02*
X199167619Y-53445628D01*
X198929524Y-53921819D02*
X198929524Y-52921819D01*
X198929524Y-52921819D02*
X199310476Y-52921819D01*
X199310476Y-52921819D02*
X199405714Y-52969438D01*
X199405714Y-52969438D02*
X199453333Y-53017057D01*
X199453333Y-53017057D02*
X199500952Y-53112295D01*
X199500952Y-53112295D02*
X199500952Y-53255152D01*
X199500952Y-53255152D02*
X199453333Y-53350390D01*
X199453333Y-53350390D02*
X199405714Y-53398009D01*
X199405714Y-53398009D02*
X199310476Y-53445628D01*
X199310476Y-53445628D02*
X198929524Y-53445628D01*
X174003095Y-75864819D02*
X174003095Y-76674342D01*
X174003095Y-76674342D02*
X174050714Y-76769580D01*
X174050714Y-76769580D02*
X174098333Y-76817200D01*
X174098333Y-76817200D02*
X174193571Y-76864819D01*
X174193571Y-76864819D02*
X174384047Y-76864819D01*
X174384047Y-76864819D02*
X174479285Y-76817200D01*
X174479285Y-76817200D02*
X174526904Y-76769580D01*
X174526904Y-76769580D02*
X174574523Y-76674342D01*
X174574523Y-76674342D02*
X174574523Y-75864819D01*
X175479285Y-76198152D02*
X175479285Y-76864819D01*
X175241190Y-75817200D02*
X175003095Y-76531485D01*
X175003095Y-76531485D02*
X175622142Y-76531485D01*
X171598333Y-95764819D02*
X172264999Y-95764819D01*
X172264999Y-95764819D02*
X171836428Y-96764819D01*
X173074523Y-96098152D02*
X173074523Y-96764819D01*
X172836428Y-95717200D02*
X172598333Y-96431485D01*
X172598333Y-96431485D02*
X173217380Y-96431485D01*
X173598333Y-96764819D02*
X173598333Y-95764819D01*
X173598333Y-96241009D02*
X174169761Y-96241009D01*
X174169761Y-96764819D02*
X174169761Y-95764819D01*
X175217380Y-96669580D02*
X175169761Y-96717200D01*
X175169761Y-96717200D02*
X175026904Y-96764819D01*
X175026904Y-96764819D02*
X174931666Y-96764819D01*
X174931666Y-96764819D02*
X174788809Y-96717200D01*
X174788809Y-96717200D02*
X174693571Y-96621961D01*
X174693571Y-96621961D02*
X174645952Y-96526723D01*
X174645952Y-96526723D02*
X174598333Y-96336247D01*
X174598333Y-96336247D02*
X174598333Y-96193390D01*
X174598333Y-96193390D02*
X174645952Y-96002914D01*
X174645952Y-96002914D02*
X174693571Y-95907676D01*
X174693571Y-95907676D02*
X174788809Y-95812438D01*
X174788809Y-95812438D02*
X174931666Y-95764819D01*
X174931666Y-95764819D02*
X175026904Y-95764819D01*
X175026904Y-95764819D02*
X175169761Y-95812438D01*
X175169761Y-95812438D02*
X175217380Y-95860057D01*
X175503095Y-95764819D02*
X176074523Y-95764819D01*
X175788809Y-96764819D02*
X175788809Y-95764819D01*
X176598333Y-95764819D02*
X176693571Y-95764819D01*
X176693571Y-95764819D02*
X176788809Y-95812438D01*
X176788809Y-95812438D02*
X176836428Y-95860057D01*
X176836428Y-95860057D02*
X176884047Y-95955295D01*
X176884047Y-95955295D02*
X176931666Y-96145771D01*
X176931666Y-96145771D02*
X176931666Y-96383866D01*
X176931666Y-96383866D02*
X176884047Y-96574342D01*
X176884047Y-96574342D02*
X176836428Y-96669580D01*
X176836428Y-96669580D02*
X176788809Y-96717200D01*
X176788809Y-96717200D02*
X176693571Y-96764819D01*
X176693571Y-96764819D02*
X176598333Y-96764819D01*
X176598333Y-96764819D02*
X176503095Y-96717200D01*
X176503095Y-96717200D02*
X176455476Y-96669580D01*
X176455476Y-96669580D02*
X176407857Y-96574342D01*
X176407857Y-96574342D02*
X176360238Y-96383866D01*
X176360238Y-96383866D02*
X176360238Y-96145771D01*
X176360238Y-96145771D02*
X176407857Y-95955295D01*
X176407857Y-95955295D02*
X176455476Y-95860057D01*
X176455476Y-95860057D02*
X176503095Y-95812438D01*
X176503095Y-95812438D02*
X176598333Y-95764819D01*
X177312619Y-95860057D02*
X177360238Y-95812438D01*
X177360238Y-95812438D02*
X177455476Y-95764819D01*
X177455476Y-95764819D02*
X177693571Y-95764819D01*
X177693571Y-95764819D02*
X177788809Y-95812438D01*
X177788809Y-95812438D02*
X177836428Y-95860057D01*
X177836428Y-95860057D02*
X177884047Y-95955295D01*
X177884047Y-95955295D02*
X177884047Y-96050533D01*
X177884047Y-96050533D02*
X177836428Y-96193390D01*
X177836428Y-96193390D02*
X177265000Y-96764819D01*
X177265000Y-96764819D02*
X177884047Y-96764819D01*
D13*
%TO.C,LED_SEL*%
X197404000Y-86027000D02*
X196804000Y-86027000D01*
X198604000Y-85477000D02*
X198604000Y-84877000D01*
X196104000Y-85377000D02*
X196104000Y-82577000D01*
X198304000Y-85177000D02*
X198604000Y-85477000D01*
X198304000Y-85177000D02*
X198604000Y-84877000D01*
X198104000Y-82577000D02*
X198104000Y-85377000D01*
X196804000Y-81927000D02*
X197404000Y-81927000D01*
X196804000Y-86027000D02*
G75*
G02*
X196104000Y-85327000I-1J699999D01*
G01*
X198104000Y-85327000D02*
G75*
G02*
X197404000Y-86027000I-699999J-1D01*
G01*
X196104000Y-82627000D02*
G75*
G02*
X196804000Y-81927000I700000J0D01*
G01*
X197404000Y-81927000D02*
G75*
G02*
X198104000Y-82627000I0J-700000D01*
G01*
%TO.C,U5*%
X187195000Y-77410000D02*
G75*
G02*
X185195000Y-77410000I-1000000J0D01*
G01*
X188845000Y-95310000D02*
X188845000Y-77410000D01*
X188845000Y-77410000D02*
X187195000Y-77410000D01*
X185195000Y-77410000D02*
X183545000Y-77410000D01*
X183545000Y-95310000D02*
X188845000Y-95310000D01*
X183545000Y-77410000D02*
X183545000Y-95310000D01*
%TO.C,U3*%
X171390000Y-66310000D02*
G75*
G02*
X171390000Y-68310000I0J-1000000D01*
G01*
X181670000Y-64660000D02*
X171390000Y-64660000D01*
X171390000Y-64660000D02*
X171390000Y-66310000D01*
X171390000Y-68310000D02*
X171390000Y-69960000D01*
X181670000Y-69960000D02*
X181670000Y-64660000D01*
X171390000Y-69960000D02*
X181670000Y-69960000D01*
%TO.C,U2*%
X132030000Y-69950000D02*
X142310000Y-69950000D01*
X142310000Y-69950000D02*
X142310000Y-64650000D01*
X132030000Y-68300000D02*
X132030000Y-69950000D01*
X132030000Y-64650000D02*
X132030000Y-66300000D01*
X142310000Y-64650000D02*
X132030000Y-64650000D01*
X132030000Y-66300000D02*
G75*
G02*
X132030000Y-68300000I0J-1000000D01*
G01*
%TO.C,U1*%
X100270000Y-69960000D02*
X110550000Y-69960000D01*
X110550000Y-69960000D02*
X110550000Y-64660000D01*
X100270000Y-68310000D02*
X100270000Y-69960000D01*
X100270000Y-64660000D02*
X100270000Y-66310000D01*
X110550000Y-64660000D02*
X100270000Y-64660000D01*
X100270000Y-66310000D02*
G75*
G02*
X100270000Y-68310000I0J-1000000D01*
G01*
%TO.C,SW2*%
X156776000Y-86006000D02*
X166216000Y-86006000D01*
X156776000Y-86006000D02*
X156776000Y-75966000D01*
X166216000Y-86006000D02*
X166216000Y-75966000D01*
X159896000Y-82836000D02*
X159896000Y-79036000D01*
X163196000Y-82836000D02*
X159896000Y-82836000D01*
X163196000Y-82836000D02*
X163196000Y-79036000D01*
X163196000Y-79036000D02*
X159896000Y-79036000D01*
X166466000Y-76716000D02*
X166466000Y-75716000D01*
X156776000Y-75966000D02*
X166216000Y-75966000D01*
X165466000Y-75716000D02*
X166466000Y-75716000D01*
%TO.C,SW1*%
X134160000Y-85490000D02*
X135660000Y-85490000D01*
X138160000Y-84240000D02*
X138160000Y-79740000D01*
X131660000Y-79740000D02*
X131660000Y-84240000D01*
X135660000Y-78490000D02*
X134160000Y-78490000D01*
%TO.C,RV1*%
X101490000Y-97560000D02*
X91550000Y-97560000D01*
X91550000Y-93695000D02*
X91550000Y-97560000D01*
X101490000Y-93695000D02*
X101490000Y-97560000D01*
X91550000Y-85320000D02*
X91550000Y-89185000D01*
X93150000Y-85320000D02*
X91550000Y-85320000D01*
X95649000Y-85320000D02*
X94890000Y-85320000D01*
X98149000Y-85320000D02*
X97390000Y-85320000D01*
X101490000Y-85320000D02*
X101490000Y-89185000D01*
X101490000Y-85320000D02*
X99891000Y-85320000D01*
%TO.C,R7*%
X187730000Y-71120000D02*
X188420000Y-71120000D01*
X188420000Y-69400000D02*
X188420000Y-72840000D01*
X188420000Y-72840000D02*
X197660000Y-72840000D01*
X197660000Y-69400000D02*
X188420000Y-69400000D01*
X197660000Y-72840000D02*
X197660000Y-69400000D01*
X198350000Y-71120000D02*
X197660000Y-71120000D01*
%TO.C,R6*%
X97560000Y-76200000D02*
X98250000Y-76200000D01*
X98250000Y-74480000D02*
X98250000Y-77920000D01*
X98250000Y-77920000D02*
X107490000Y-77920000D01*
X107490000Y-74480000D02*
X98250000Y-74480000D01*
X107490000Y-77920000D02*
X107490000Y-74480000D01*
X108180000Y-76200000D02*
X107490000Y-76200000D01*
%TO.C,R5*%
X108180000Y-81280000D02*
X107490000Y-81280000D01*
X107490000Y-83000000D02*
X107490000Y-79560000D01*
X107490000Y-79560000D02*
X98250000Y-79560000D01*
X98250000Y-83000000D02*
X107490000Y-83000000D01*
X98250000Y-79560000D02*
X98250000Y-83000000D01*
X97560000Y-81280000D02*
X98250000Y-81280000D01*
%TO.C,R4*%
X147320000Y-56920000D02*
X147320000Y-57610000D01*
X149040000Y-57610000D02*
X145600000Y-57610000D01*
X145600000Y-57610000D02*
X145600000Y-66850000D01*
X149040000Y-66850000D02*
X149040000Y-57610000D01*
X145600000Y-66850000D02*
X149040000Y-66850000D01*
X147320000Y-67540000D02*
X147320000Y-66850000D01*
%TO.C,R3*%
X127000000Y-56920000D02*
X127000000Y-57610000D01*
X128720000Y-57610000D02*
X125280000Y-57610000D01*
X125280000Y-57610000D02*
X125280000Y-66850000D01*
X128720000Y-66850000D02*
X128720000Y-57610000D01*
X125280000Y-66850000D02*
X128720000Y-66850000D01*
X127000000Y-67540000D02*
X127000000Y-66850000D01*
%TO.C,R2*%
X162560000Y-56920000D02*
X162560000Y-57610000D01*
X164280000Y-57610000D02*
X160840000Y-57610000D01*
X160840000Y-57610000D02*
X160840000Y-66850000D01*
X164280000Y-66850000D02*
X164280000Y-57610000D01*
X160840000Y-66850000D02*
X164280000Y-66850000D01*
X162560000Y-67540000D02*
X162560000Y-66850000D01*
%TO.C,R1*%
X167640000Y-56920000D02*
X167640000Y-57610000D01*
X169360000Y-57610000D02*
X165920000Y-57610000D01*
X165920000Y-57610000D02*
X165920000Y-66850000D01*
X169360000Y-66850000D02*
X169360000Y-57610000D01*
X165920000Y-66850000D02*
X169360000Y-66850000D01*
X167640000Y-67540000D02*
X167640000Y-66850000D01*
%TO.C,D1*%
X197125000Y-74910000D02*
X194035000Y-74910000D01*
X197124830Y-74910000D02*
G75*
G02*
X195579538Y-80460000I-1544830J-2560000D01*
G01*
X195580462Y-80460000D02*
G75*
G02*
X194035170Y-74910000I-462J2990000D01*
G01*
X198080000Y-77470000D02*
G75*
G02*
X193080000Y-77470000I-2500000J0D01*
G01*
X193080000Y-77470000D02*
G75*
G02*
X198080000Y-77470000I2500000J0D01*
G01*
%TO.C,C7*%
X95045000Y-72924775D02*
X95045000Y-72424775D01*
X94795000Y-72674775D02*
X95295000Y-72674775D01*
X93940000Y-70120000D02*
X95480000Y-70120000D01*
X97560000Y-70120000D02*
X99100000Y-70120000D01*
X93940000Y-70080000D02*
X95480000Y-70080000D01*
X97560000Y-70080000D02*
X99100000Y-70080000D01*
X93941000Y-70040000D02*
X95480000Y-70040000D01*
X97560000Y-70040000D02*
X99099000Y-70040000D01*
X93942000Y-70000000D02*
X95480000Y-70000000D01*
X97560000Y-70000000D02*
X99098000Y-70000000D01*
X93944000Y-69960000D02*
X95480000Y-69960000D01*
X97560000Y-69960000D02*
X99096000Y-69960000D01*
X93947000Y-69920000D02*
X95480000Y-69920000D01*
X97560000Y-69920000D02*
X99093000Y-69920000D01*
X93951000Y-69880000D02*
X95480000Y-69880000D01*
X97560000Y-69880000D02*
X99089000Y-69880000D01*
X93955000Y-69840000D02*
X95480000Y-69840000D01*
X97560000Y-69840000D02*
X99085000Y-69840000D01*
X93959000Y-69800000D02*
X95480000Y-69800000D01*
X97560000Y-69800000D02*
X99081000Y-69800000D01*
X93964000Y-69760000D02*
X95480000Y-69760000D01*
X97560000Y-69760000D02*
X99076000Y-69760000D01*
X93970000Y-69720000D02*
X95480000Y-69720000D01*
X97560000Y-69720000D02*
X99070000Y-69720000D01*
X93977000Y-69680000D02*
X95480000Y-69680000D01*
X97560000Y-69680000D02*
X99063000Y-69680000D01*
X93984000Y-69640000D02*
X95480000Y-69640000D01*
X97560000Y-69640000D02*
X99056000Y-69640000D01*
X93992000Y-69600000D02*
X95480000Y-69600000D01*
X97560000Y-69600000D02*
X99048000Y-69600000D01*
X94000000Y-69560000D02*
X95480000Y-69560000D01*
X97560000Y-69560000D02*
X99040000Y-69560000D01*
X94009000Y-69520000D02*
X95480000Y-69520000D01*
X97560000Y-69520000D02*
X99031000Y-69520000D01*
X94019000Y-69480000D02*
X95480000Y-69480000D01*
X97560000Y-69480000D02*
X99021000Y-69480000D01*
X94029000Y-69440000D02*
X95480000Y-69440000D01*
X97560000Y-69440000D02*
X99011000Y-69440000D01*
X94040000Y-69399000D02*
X95480000Y-69399000D01*
X97560000Y-69399000D02*
X99000000Y-69399000D01*
X94052000Y-69359000D02*
X95480000Y-69359000D01*
X97560000Y-69359000D02*
X98988000Y-69359000D01*
X94065000Y-69319000D02*
X95480000Y-69319000D01*
X97560000Y-69319000D02*
X98975000Y-69319000D01*
X94078000Y-69279000D02*
X95480000Y-69279000D01*
X97560000Y-69279000D02*
X98962000Y-69279000D01*
X94092000Y-69239000D02*
X95480000Y-69239000D01*
X97560000Y-69239000D02*
X98948000Y-69239000D01*
X94106000Y-69199000D02*
X95480000Y-69199000D01*
X97560000Y-69199000D02*
X98934000Y-69199000D01*
X94122000Y-69159000D02*
X95480000Y-69159000D01*
X97560000Y-69159000D02*
X98918000Y-69159000D01*
X94138000Y-69119000D02*
X95480000Y-69119000D01*
X97560000Y-69119000D02*
X98902000Y-69119000D01*
X94155000Y-69079000D02*
X95480000Y-69079000D01*
X97560000Y-69079000D02*
X98885000Y-69079000D01*
X94172000Y-69039000D02*
X95480000Y-69039000D01*
X97560000Y-69039000D02*
X98868000Y-69039000D01*
X94191000Y-68999000D02*
X95480000Y-68999000D01*
X97560000Y-68999000D02*
X98849000Y-68999000D01*
X94210000Y-68959000D02*
X95480000Y-68959000D01*
X97560000Y-68959000D02*
X98830000Y-68959000D01*
X94230000Y-68919000D02*
X95480000Y-68919000D01*
X97560000Y-68919000D02*
X98810000Y-68919000D01*
X94252000Y-68879000D02*
X95480000Y-68879000D01*
X97560000Y-68879000D02*
X98788000Y-68879000D01*
X94273000Y-68839000D02*
X95480000Y-68839000D01*
X97560000Y-68839000D02*
X98767000Y-68839000D01*
X94296000Y-68799000D02*
X95480000Y-68799000D01*
X97560000Y-68799000D02*
X98744000Y-68799000D01*
X94320000Y-68759000D02*
X95480000Y-68759000D01*
X97560000Y-68759000D02*
X98720000Y-68759000D01*
X94345000Y-68719000D02*
X95480000Y-68719000D01*
X97560000Y-68719000D02*
X98695000Y-68719000D01*
X94371000Y-68679000D02*
X95480000Y-68679000D01*
X97560000Y-68679000D02*
X98669000Y-68679000D01*
X94398000Y-68639000D02*
X95480000Y-68639000D01*
X97560000Y-68639000D02*
X98642000Y-68639000D01*
X94425000Y-68599000D02*
X95480000Y-68599000D01*
X97560000Y-68599000D02*
X98615000Y-68599000D01*
X94455000Y-68559000D02*
X95480000Y-68559000D01*
X97560000Y-68559000D02*
X98585000Y-68559000D01*
X94485000Y-68519000D02*
X95480000Y-68519000D01*
X97560000Y-68519000D02*
X98555000Y-68519000D01*
X94516000Y-68479000D02*
X95480000Y-68479000D01*
X97560000Y-68479000D02*
X98524000Y-68479000D01*
X94549000Y-68439000D02*
X95480000Y-68439000D01*
X97560000Y-68439000D02*
X98491000Y-68439000D01*
X94583000Y-68399000D02*
X95480000Y-68399000D01*
X97560000Y-68399000D02*
X98457000Y-68399000D01*
X94619000Y-68359000D02*
X95480000Y-68359000D01*
X97560000Y-68359000D02*
X98421000Y-68359000D01*
X94656000Y-68319000D02*
X95480000Y-68319000D01*
X97560000Y-68319000D02*
X98384000Y-68319000D01*
X94694000Y-68279000D02*
X95480000Y-68279000D01*
X97560000Y-68279000D02*
X98346000Y-68279000D01*
X94735000Y-68239000D02*
X95480000Y-68239000D01*
X97560000Y-68239000D02*
X98305000Y-68239000D01*
X94777000Y-68199000D02*
X95480000Y-68199000D01*
X97560000Y-68199000D02*
X98263000Y-68199000D01*
X94821000Y-68159000D02*
X95480000Y-68159000D01*
X97560000Y-68159000D02*
X98219000Y-68159000D01*
X94867000Y-68119000D02*
X95480000Y-68119000D01*
X97560000Y-68119000D02*
X98173000Y-68119000D01*
X94915000Y-68079000D02*
X98125000Y-68079000D01*
X94966000Y-68039000D02*
X98074000Y-68039000D01*
X95020000Y-67999000D02*
X98020000Y-67999000D01*
X95077000Y-67959000D02*
X97963000Y-67959000D01*
X95137000Y-67919000D02*
X97903000Y-67919000D01*
X95201000Y-67879000D02*
X97839000Y-67879000D01*
X95269000Y-67839000D02*
X97771000Y-67839000D01*
X95342000Y-67799000D02*
X97698000Y-67799000D01*
X95422000Y-67759000D02*
X97618000Y-67759000D01*
X95509000Y-67719000D02*
X97531000Y-67719000D01*
X95605000Y-67679000D02*
X97435000Y-67679000D01*
X95715000Y-67639000D02*
X97325000Y-67639000D01*
X95843000Y-67599000D02*
X97197000Y-67599000D01*
X96002000Y-67559000D02*
X97038000Y-67559000D01*
X96236000Y-67519000D02*
X96804000Y-67519000D01*
X99140000Y-70120000D02*
G75*
G02*
X93900000Y-70120000I-2620000J0D01*
G01*
X93900000Y-70120000D02*
G75*
G02*
X99140000Y-70120000I2620000J0D01*
G01*
%TO.C,C6*%
X114180000Y-62130000D02*
X114180000Y-62445000D01*
X114180000Y-62130000D02*
X119420000Y-62130000D01*
X114180000Y-64555000D02*
X114180000Y-64870000D01*
X114180000Y-64870000D02*
X119420000Y-64870000D01*
X119420000Y-62130000D02*
X119420000Y-62445000D01*
X119420000Y-64555000D02*
X119420000Y-64870000D01*
%TO.C,C5*%
X153770000Y-71080000D02*
X153455000Y-71080000D01*
X153770000Y-71080000D02*
X153770000Y-76320000D01*
X151345000Y-71080000D02*
X151030000Y-71080000D01*
X151030000Y-71080000D02*
X151030000Y-76320000D01*
X153770000Y-76320000D02*
X153455000Y-76320000D01*
X151345000Y-76320000D02*
X151030000Y-76320000D01*
%TO.C,C4*%
X148690000Y-71080000D02*
X148375000Y-71080000D01*
X148690000Y-71080000D02*
X148690000Y-76320000D01*
X146265000Y-71080000D02*
X145950000Y-71080000D01*
X145950000Y-71080000D02*
X145950000Y-76320000D01*
X148690000Y-76320000D02*
X148375000Y-76320000D01*
X146265000Y-76320000D02*
X145950000Y-76320000D01*
%TO.C,C3*%
X194270000Y-64670000D02*
X194270000Y-64985000D01*
X194270000Y-64670000D02*
X199510000Y-64670000D01*
X194270000Y-67095000D02*
X194270000Y-67410000D01*
X194270000Y-67410000D02*
X199510000Y-67410000D01*
X199510000Y-64670000D02*
X199510000Y-64985000D01*
X199510000Y-67095000D02*
X199510000Y-67410000D01*
%TO.C,C2*%
X191670000Y-59815000D02*
X191985000Y-59815000D01*
X191670000Y-59815000D02*
X191670000Y-54575000D01*
X194095000Y-59815000D02*
X194410000Y-59815000D01*
X194410000Y-59815000D02*
X194410000Y-54575000D01*
X191670000Y-54575000D02*
X191985000Y-54575000D01*
X194095000Y-54575000D02*
X194410000Y-54575000D01*
%TO.C,C1*%
X186905000Y-59775000D02*
X186590000Y-59775000D01*
X189330000Y-59775000D02*
X189015000Y-59775000D01*
X186590000Y-54535000D02*
X186590000Y-59775000D01*
X186905000Y-54535000D02*
X186590000Y-54535000D01*
X189330000Y-54535000D02*
X189330000Y-59775000D01*
X189330000Y-54535000D02*
X189015000Y-54535000D01*
%TO.C,Control_Bus*%
X196155000Y-94488000D02*
X196155000Y-89348000D01*
X198815000Y-89348000D02*
X196155000Y-89348000D01*
X198815000Y-94488000D02*
X196155000Y-94488000D01*
X198815000Y-94488000D02*
X198815000Y-89348000D01*
X198815000Y-95758000D02*
X198815000Y-97088000D01*
X198815000Y-97088000D02*
X197485000Y-97088000D01*
%TO.C,PWR*%
X199450000Y-57150000D02*
X199450000Y-59750000D01*
X196790000Y-59750000D02*
X199450000Y-59750000D01*
X196790000Y-57150000D02*
X199450000Y-57150000D01*
X196790000Y-57150000D02*
X196790000Y-59750000D01*
X196790000Y-55880000D02*
X196790000Y-54550000D01*
X196790000Y-54550000D02*
X198120000Y-54550000D01*
%TO.C,U4*%
X175765000Y-77410000D02*
G75*
G02*
X173765000Y-77410000I-1000000J0D01*
G01*
X177415000Y-95310000D02*
X177415000Y-77410000D01*
X177415000Y-77410000D02*
X175765000Y-77410000D01*
X173765000Y-77410000D02*
X172115000Y-77410000D01*
X172115000Y-95310000D02*
X177415000Y-95310000D01*
X172115000Y-77410000D02*
X172115000Y-95310000D01*
%TD*%
M02*
