%TF.GenerationSoftware,KiCad,Pcbnew,8.0.5*%
%TF.CreationDate,2024-10-04T10:44:53+02:00*%
%TF.ProjectId,8-bit computer,382d6269-7420-4636-9f6d-70757465722e,rev?*%
%TF.SameCoordinates,Original*%
%TF.FileFunction,Copper,L2,Bot*%
%TF.FilePolarity,Positive*%
%FSLAX46Y46*%
G04 Gerber Fmt 4.6, Leading zero omitted, Abs format (unit mm)*
G04 Created by KiCad (PCBNEW 8.0.5) date 2024-10-04 10:44:53*
%MOMM*%
%LPD*%
G01*
G04 APERTURE LIST*
%TA.AperFunction,ComponentPad*%
%ADD10O,1.600000X1.600000*%
%TD*%
%TA.AperFunction,ComponentPad*%
%ADD11R,1.600000X1.600000*%
%TD*%
%TA.AperFunction,ComponentPad*%
%ADD12C,1.800000*%
%TD*%
%TA.AperFunction,ComponentPad*%
%ADD13R,1.800000X1.800000*%
%TD*%
%TA.AperFunction,ComponentPad*%
%ADD14C,2.000000*%
%TD*%
%TA.AperFunction,WasherPad*%
%ADD15C,4.000000*%
%TD*%
%TA.AperFunction,ComponentPad*%
%ADD16C,1.600000*%
%TD*%
%TA.AperFunction,ComponentPad*%
%ADD17O,1.700000X1.700000*%
%TD*%
%TA.AperFunction,ComponentPad*%
%ADD18R,1.700000X1.700000*%
%TD*%
G04 APERTURE END LIST*
D10*
%TO.P,U5,14*%
%TO.N,VCC*%
X190005000Y-78740000D03*
%TO.P,U5,13*%
%TO.N,/CLK*%
X190005000Y-81280000D03*
%TO.P,U5,12*%
%TO.N,/~{CLK}*%
X190005000Y-83820000D03*
%TO.P,U5,11*%
X190005000Y-86360000D03*
%TO.P,U5,10*%
%TO.N,Net-(U5-Pad10)*%
X190005000Y-88900000D03*
%TO.P,U5,9*%
%TO.N,/HLT*%
X190005000Y-91440000D03*
%TO.P,U5,8*%
X190005000Y-93980000D03*
%TO.P,U5,7*%
%TO.N,GND*%
X182385000Y-93980000D03*
%TO.P,U5,6*%
%TO.N,Net-(U5-Pad10)*%
X182385000Y-91440000D03*
%TO.P,U5,5*%
%TO.N,Net-(U4-Pad10)*%
X182385000Y-88900000D03*
%TO.P,U5,4*%
%TO.N,/~{CLK}*%
X182385000Y-86360000D03*
%TO.P,U5,3*%
%TO.N,N/C*%
X182385000Y-83820000D03*
%TO.P,U5,2*%
X182385000Y-81280000D03*
D11*
%TO.P,U5,1*%
X182385000Y-78740000D03*
%TD*%
D10*
%TO.P,U3,8,VCC*%
%TO.N,VCC*%
X172720000Y-63500000D03*
%TO.P,U3,7,DIS*%
%TO.N,unconnected-(U3-DIS-Pad7)*%
X175260000Y-63500000D03*
%TO.P,U3,6,THR*%
%TO.N,GND*%
X177800000Y-63500000D03*
%TO.P,U3,5,CV*%
%TO.N,Net-(U3-CV)*%
X180340000Y-63500000D03*
%TO.P,U3,4,R*%
%TO.N,Net-(SW2-C)*%
X180340000Y-71120000D03*
%TO.P,U3,3,Q*%
%TO.N,Net-(U3-Q)*%
X177800000Y-71120000D03*
%TO.P,U3,2,TR*%
%TO.N,Net-(SW2-A)*%
X175260000Y-71120000D03*
D11*
%TO.P,U3,1,GND*%
%TO.N,GND*%
X172720000Y-71120000D03*
%TD*%
%TO.P,U2,1,GND*%
%TO.N,GND*%
X133360000Y-71110000D03*
D10*
%TO.P,U2,2,TR*%
%TO.N,Net-(U2-TR)*%
X135900000Y-71110000D03*
%TO.P,U2,3,Q*%
%TO.N,Net-(U2-Q)*%
X138440000Y-71110000D03*
%TO.P,U2,4,R*%
%TO.N,VCC*%
X140980000Y-71110000D03*
%TO.P,U2,5,CV*%
%TO.N,Net-(U2-CV)*%
X140980000Y-63490000D03*
%TO.P,U2,6,THR*%
%TO.N,Net-(U2-DIS)*%
X138440000Y-63490000D03*
%TO.P,U2,7,DIS*%
X135900000Y-63490000D03*
%TO.P,U2,8,VCC*%
%TO.N,VCC*%
X133360000Y-63490000D03*
%TD*%
D11*
%TO.P,U1,1,GND*%
%TO.N,GND*%
X101600000Y-71120000D03*
D10*
%TO.P,U1,2,TR*%
%TO.N,VCC*%
X104140000Y-71120000D03*
%TO.P,U1,3,Q*%
%TO.N,Net-(U1-Q)*%
X106680000Y-71120000D03*
%TO.P,U1,4,R*%
%TO.N,VCC*%
X109220000Y-71120000D03*
%TO.P,U1,5,CV*%
%TO.N,Net-(U1-CV)*%
X109220000Y-63500000D03*
%TO.P,U1,6,THR*%
%TO.N,VCC*%
X106680000Y-63500000D03*
%TO.P,U1,7,DIS*%
%TO.N,Net-(U1-DIS)*%
X104140000Y-63500000D03*
%TO.P,U1,8,VCC*%
%TO.N,VCC*%
X101600000Y-63500000D03*
%TD*%
D12*
%TO.P,SW2,6*%
%TO.N,N/C*%
X158496000Y-83486000D03*
%TO.P,SW2,5*%
X158496000Y-80986000D03*
%TO.P,SW2,4*%
X158496000Y-78486000D03*
%TO.P,SW2,3,C*%
%TO.N,Net-(SW2-C)*%
X164496000Y-83486000D03*
%TO.P,SW2,2,B*%
%TO.N,GND*%
X164496000Y-80986000D03*
D13*
%TO.P,SW2,1,A*%
%TO.N,Net-(SW2-A)*%
X164496000Y-78486000D03*
%TD*%
D14*
%TO.P,SW1,1,1*%
%TO.N,GND*%
X132660000Y-85240000D03*
X132660000Y-78740000D03*
%TO.P,SW1,2,2*%
%TO.N,Net-(U2-TR)*%
X137160000Y-85240000D03*
X137160000Y-78740000D03*
%TD*%
D12*
%TO.P,RV1,3,3*%
%TO.N,unconnected-(RV1-Pad3)*%
X99020000Y-84440000D03*
%TO.P,RV1,2,2*%
%TO.N,Net-(R6-Pad1)*%
X96520000Y-84440000D03*
%TO.P,RV1,1,1*%
%TO.N,VCC*%
X94020000Y-84440000D03*
D15*
%TO.P,RV1,*%
%TO.N,*%
X92120000Y-91440000D03*
X100920000Y-91440000D03*
%TD*%
D16*
%TO.P,R7,1*%
%TO.N,Net-(D1-K)*%
X186690000Y-71120000D03*
D10*
%TO.P,R7,2*%
%TO.N,GND*%
X199390000Y-71120000D03*
%TD*%
D16*
%TO.P,R6,1*%
%TO.N,Net-(R6-Pad1)*%
X96520000Y-76200000D03*
D10*
%TO.P,R6,2*%
%TO.N,Net-(U1-DIS)*%
X109220000Y-76200000D03*
%TD*%
%TO.P,R5,2*%
%TO.N,Net-(U1-DIS)*%
X109220000Y-81280000D03*
D16*
%TO.P,R5,1*%
%TO.N,VCC*%
X96520000Y-81280000D03*
%TD*%
%TO.P,R4,1*%
%TO.N,VCC*%
X147320000Y-55880000D03*
D10*
%TO.P,R4,2*%
%TO.N,Net-(U2-DIS)*%
X147320000Y-68580000D03*
%TD*%
D16*
%TO.P,R3,1*%
%TO.N,VCC*%
X127000000Y-55880000D03*
D10*
%TO.P,R3,2*%
%TO.N,Net-(U2-TR)*%
X127000000Y-68580000D03*
%TD*%
D16*
%TO.P,R2,1*%
%TO.N,VCC*%
X162560000Y-55880000D03*
D10*
%TO.P,R2,2*%
%TO.N,Net-(SW2-C)*%
X162560000Y-68580000D03*
%TD*%
D16*
%TO.P,R1,1*%
%TO.N,VCC*%
X167640000Y-55880000D03*
D10*
%TO.P,R1,2*%
%TO.N,Net-(SW2-A)*%
X167640000Y-68580000D03*
%TD*%
D13*
%TO.P,D1,1,K*%
%TO.N,Net-(D1-K)*%
X195580000Y-76200000D03*
D12*
%TO.P,D1,2,A*%
%TO.N,LED_SEL*%
X195580000Y-78740000D03*
%TD*%
D11*
%TO.P,C7,1*%
%TO.N,VCC*%
X96520000Y-71120000D03*
D16*
%TO.P,C7,2*%
%TO.N,GND*%
X96520000Y-69120000D03*
%TD*%
%TO.P,C6,1*%
%TO.N,Net-(U1-CV)*%
X114300000Y-63500000D03*
%TO.P,C6,2*%
%TO.N,GND*%
X119300000Y-63500000D03*
%TD*%
%TO.P,C5,1*%
%TO.N,Net-(U2-DIS)*%
X152400000Y-71200000D03*
%TO.P,C5,2*%
%TO.N,GND*%
X152400000Y-76200000D03*
%TD*%
%TO.P,C4,1*%
%TO.N,Net-(U2-CV)*%
X147320000Y-71200000D03*
%TO.P,C4,2*%
%TO.N,GND*%
X147320000Y-76200000D03*
%TD*%
%TO.P,C3,1*%
%TO.N,Net-(U3-CV)*%
X194390000Y-66040000D03*
%TO.P,C3,2*%
%TO.N,GND*%
X199390000Y-66040000D03*
%TD*%
%TO.P,C2,1*%
%TO.N,VCC*%
X193040000Y-59695000D03*
%TO.P,C2,2*%
%TO.N,GND*%
X193040000Y-54695000D03*
%TD*%
%TO.P,C1,2*%
%TO.N,VCC*%
X187960000Y-59655000D03*
%TO.P,C1,1*%
%TO.N,GND*%
X187960000Y-54655000D03*
%TD*%
D17*
%TO.P,Control_Bus,3*%
%TO.N,/CLK*%
X197485000Y-90678000D03*
%TO.P,Control_Bus,2*%
%TO.N,/~{CLK}*%
X197485000Y-93218000D03*
D18*
%TO.P,Control_Bus,1*%
%TO.N,/HLT*%
X197485000Y-95758000D03*
%TD*%
D17*
%TO.P,PWR,2*%
%TO.N,VCC*%
X198120000Y-58420000D03*
D18*
%TO.P,PWR,1*%
%TO.N,GND*%
X198120000Y-55880000D03*
%TD*%
D10*
%TO.P,U4,14*%
%TO.N,VCC*%
X178575000Y-78740000D03*
%TO.P,U4,13*%
%TO.N,Net-(U4-Pad13)*%
X178575000Y-81280000D03*
%TO.P,U4,12*%
%TO.N,Net-(U3-Q)*%
X178575000Y-83820000D03*
%TO.P,U4,11*%
X178575000Y-86360000D03*
%TO.P,U4,10*%
%TO.N,Net-(U4-Pad10)*%
X178575000Y-88900000D03*
%TO.P,U4,9*%
%TO.N,Net-(U4-Pad1)*%
X178575000Y-91440000D03*
%TO.P,U4,8*%
%TO.N,Net-(U4-Pad4)*%
X178575000Y-93980000D03*
%TO.P,U4,7*%
%TO.N,GND*%
X170955000Y-93980000D03*
%TO.P,U4,6*%
%TO.N,Net-(U3-Q)*%
X170955000Y-91440000D03*
%TO.P,U4,5*%
%TO.N,Net-(U1-Q)*%
X170955000Y-88900000D03*
%TO.P,U4,4*%
%TO.N,Net-(U4-Pad4)*%
X170955000Y-86360000D03*
%TO.P,U4,3*%
%TO.N,Net-(U2-Q)*%
X170955000Y-83820000D03*
%TO.P,U4,2*%
%TO.N,Net-(U4-Pad13)*%
X170955000Y-81280000D03*
D11*
%TO.P,U4,1*%
%TO.N,Net-(U4-Pad1)*%
X170955000Y-78740000D03*
%TD*%
M02*
