%TF.GenerationSoftware,KiCad,Pcbnew,8.0.5*%
%TF.CreationDate,2024-10-04T10:44:53+02:00*%
%TF.ProjectId,8-bit computer,382d6269-7420-4636-9f6d-70757465722e,rev?*%
%TF.SameCoordinates,Original*%
%TF.FileFunction,Soldermask,Top*%
%TF.FilePolarity,Negative*%
%FSLAX46Y46*%
G04 Gerber Fmt 4.6, Leading zero omitted, Abs format (unit mm)*
G04 Created by KiCad (PCBNEW 8.0.5) date 2024-10-04 10:44:53*
%MOMM*%
%LPD*%
G01*
G04 APERTURE LIST*
G04 Aperture macros list*
%AMFreePoly0*
4,1,19,0.550000,-0.750000,0.000000,-0.750000,0.000000,-0.744911,-0.071157,-0.744911,-0.207708,-0.704816,-0.327430,-0.627875,-0.420627,-0.520320,-0.479746,-0.390866,-0.500000,-0.250000,-0.500000,0.250000,-0.479746,0.390866,-0.420627,0.520320,-0.327430,0.627875,-0.207708,0.704816,-0.071157,0.744911,0.000000,0.744911,0.000000,0.750000,0.550000,0.750000,0.550000,-0.750000,0.550000,-0.750000,
$1*%
%AMFreePoly1*
4,1,19,0.000000,0.744911,0.071157,0.744911,0.207708,0.704816,0.327430,0.627875,0.420627,0.520320,0.479746,0.390866,0.500000,0.250000,0.500000,-0.250000,0.479746,-0.390866,0.420627,-0.520320,0.327430,-0.627875,0.207708,-0.704816,0.071157,-0.744911,0.000000,-0.744911,0.000000,-0.750000,-0.550000,-0.750000,-0.550000,0.750000,0.000000,0.750000,0.000000,0.744911,0.000000,0.744911,
$1*%
G04 Aperture macros list end*
%ADD10FreePoly0,90.000000*%
%ADD11R,1.500000X1.000000*%
%ADD12FreePoly1,90.000000*%
%ADD13O,1.600000X1.600000*%
%ADD14R,1.600000X1.600000*%
%ADD15C,1.800000*%
%ADD16R,1.800000X1.800000*%
%ADD17C,2.000000*%
%ADD18C,4.000000*%
%ADD19C,1.600000*%
%ADD20O,1.700000X1.700000*%
%ADD21R,1.700000X1.700000*%
G04 APERTURE END LIST*
D10*
%TO.C,LED_SEL*%
X197104000Y-85277000D03*
D11*
X197104000Y-83977000D03*
D12*
X197104000Y-82677000D03*
%TD*%
D13*
%TO.C,U5*%
X190005000Y-78740000D03*
X190005000Y-81280000D03*
X190005000Y-83820000D03*
X190005000Y-86360000D03*
X190005000Y-88900000D03*
X190005000Y-91440000D03*
X190005000Y-93980000D03*
X182385000Y-93980000D03*
X182385000Y-91440000D03*
X182385000Y-88900000D03*
X182385000Y-86360000D03*
X182385000Y-83820000D03*
X182385000Y-81280000D03*
D14*
X182385000Y-78740000D03*
%TD*%
D13*
%TO.C,U3*%
X172720000Y-63500000D03*
X175260000Y-63500000D03*
X177800000Y-63500000D03*
X180340000Y-63500000D03*
X180340000Y-71120000D03*
X177800000Y-71120000D03*
X175260000Y-71120000D03*
D14*
X172720000Y-71120000D03*
%TD*%
%TO.C,U2*%
X133360000Y-71110000D03*
D13*
X135900000Y-71110000D03*
X138440000Y-71110000D03*
X140980000Y-71110000D03*
X140980000Y-63490000D03*
X138440000Y-63490000D03*
X135900000Y-63490000D03*
X133360000Y-63490000D03*
%TD*%
D14*
%TO.C,U1*%
X101600000Y-71120000D03*
D13*
X104140000Y-71120000D03*
X106680000Y-71120000D03*
X109220000Y-71120000D03*
X109220000Y-63500000D03*
X106680000Y-63500000D03*
X104140000Y-63500000D03*
X101600000Y-63500000D03*
%TD*%
D15*
%TO.C,SW2*%
X158496000Y-83486000D03*
X158496000Y-80986000D03*
X158496000Y-78486000D03*
X164496000Y-83486000D03*
X164496000Y-80986000D03*
D16*
X164496000Y-78486000D03*
%TD*%
D17*
%TO.C,SW1*%
X132660000Y-85240000D03*
X132660000Y-78740000D03*
X137160000Y-85240000D03*
X137160000Y-78740000D03*
%TD*%
D15*
%TO.C,RV1*%
X99020000Y-84440000D03*
X96520000Y-84440000D03*
X94020000Y-84440000D03*
D18*
X92120000Y-91440000D03*
X100920000Y-91440000D03*
%TD*%
D19*
%TO.C,R7*%
X186690000Y-71120000D03*
D13*
X199390000Y-71120000D03*
%TD*%
D19*
%TO.C,R6*%
X96520000Y-76200000D03*
D13*
X109220000Y-76200000D03*
%TD*%
%TO.C,R5*%
X109220000Y-81280000D03*
D19*
X96520000Y-81280000D03*
%TD*%
%TO.C,R4*%
X147320000Y-55880000D03*
D13*
X147320000Y-68580000D03*
%TD*%
D19*
%TO.C,R3*%
X127000000Y-55880000D03*
D13*
X127000000Y-68580000D03*
%TD*%
D19*
%TO.C,R2*%
X162560000Y-55880000D03*
D13*
X162560000Y-68580000D03*
%TD*%
D19*
%TO.C,R1*%
X167640000Y-55880000D03*
D13*
X167640000Y-68580000D03*
%TD*%
D16*
%TO.C,D1*%
X195580000Y-76200000D03*
D15*
X195580000Y-78740000D03*
%TD*%
D14*
%TO.C,C7*%
X96520000Y-71120000D03*
D19*
X96520000Y-69120000D03*
%TD*%
%TO.C,C6*%
X114300000Y-63500000D03*
X119300000Y-63500000D03*
%TD*%
%TO.C,C5*%
X152400000Y-71200000D03*
X152400000Y-76200000D03*
%TD*%
%TO.C,C4*%
X147320000Y-71200000D03*
X147320000Y-76200000D03*
%TD*%
%TO.C,C3*%
X194390000Y-66040000D03*
X199390000Y-66040000D03*
%TD*%
%TO.C,C2*%
X193040000Y-59695000D03*
X193040000Y-54695000D03*
%TD*%
%TO.C,C1*%
X187960000Y-59655000D03*
X187960000Y-54655000D03*
%TD*%
D20*
%TO.C,Control_Bus*%
X197485000Y-90678000D03*
X197485000Y-93218000D03*
D21*
X197485000Y-95758000D03*
%TD*%
D20*
%TO.C,PWR*%
X198120000Y-58420000D03*
D21*
X198120000Y-55880000D03*
%TD*%
D13*
%TO.C,U4*%
X178575000Y-78740000D03*
X178575000Y-81280000D03*
X178575000Y-83820000D03*
X178575000Y-86360000D03*
X178575000Y-88900000D03*
X178575000Y-91440000D03*
X178575000Y-93980000D03*
X170955000Y-93980000D03*
X170955000Y-91440000D03*
X170955000Y-88900000D03*
X170955000Y-86360000D03*
X170955000Y-83820000D03*
X170955000Y-81280000D03*
D14*
X170955000Y-78740000D03*
%TD*%
M02*
