M48
; DRILL file {KiCad 8.0.5} date 2024-10-04T10:47:06+0200
; FORMAT={-:-/ absolute / inch / decimal}
; #@! TF.CreationDate,2024-10-04T10:47:06+02:00
; #@! TF.GenerationSoftware,Kicad,Pcbnew,8.0.5
; #@! TF.FileFunction,Plated,1,2,PTH
FMAT,2
INCH
; #@! TA.AperFunction,Plated,PTH,ComponentDrill
T1C0.0315
; #@! TA.AperFunction,Plated,PTH,ComponentDrill
T2C0.0354
; #@! TA.AperFunction,Plated,PTH,ComponentDrill
T3C0.0394
; #@! TA.AperFunction,Plated,PTH,ComponentDrill
T4C0.0433
%
G90
G05
T1
X3.8Y-2.7213
X3.8Y-2.8
X3.8Y-3.0
X3.8Y-3.2
X4.0Y-2.5
X4.0Y-2.8
X4.1Y-2.5
X4.1Y-2.8
X4.2Y-2.5
X4.2Y-2.8
X4.3Y-2.5
X4.3Y-2.8
X4.3Y-3.0
X4.3Y-3.2
X4.5Y-2.5
X4.6969Y-2.5
X5.0Y-2.2
X5.0Y-2.7
X5.2504Y-2.4996
X5.2504Y-2.7996
X5.3504Y-2.4996
X5.3504Y-2.7996
X5.4504Y-2.4996
X5.4504Y-2.7996
X5.5504Y-2.4996
X5.5504Y-2.7996
X5.8Y-2.2
X5.8Y-2.7
X5.8Y-2.8031
X5.8Y-3.0
X6.0Y-2.8031
X6.0Y-3.0
X6.4Y-2.2
X6.4Y-2.7
X6.6Y-2.2
X6.6Y-2.7
X6.7305Y-3.1
X6.7305Y-3.2
X6.7305Y-3.3
X6.7305Y-3.4
X6.7305Y-3.5
X6.7305Y-3.6
X6.7305Y-3.7
X6.8Y-2.5
X6.8Y-2.8
X6.9Y-2.5
X6.9Y-2.8
X7.0Y-2.5
X7.0Y-2.8
X7.0305Y-3.1
X7.0305Y-3.2
X7.0305Y-3.3
X7.0305Y-3.4
X7.0305Y-3.5
X7.0305Y-3.6
X7.0305Y-3.7
X7.1Y-2.5
X7.1Y-2.8
X7.1805Y-3.1
X7.1805Y-3.2
X7.1805Y-3.3
X7.1805Y-3.4
X7.1805Y-3.5
X7.1805Y-3.6
X7.1805Y-3.7
X7.35Y-2.8
X7.4Y-2.1518
X7.4Y-2.3486
X7.4805Y-3.1
X7.4805Y-3.2
X7.4805Y-3.3
X7.4805Y-3.4
X7.4805Y-3.5
X7.4805Y-3.6
X7.4805Y-3.7
X7.6Y-2.1533
X7.6Y-2.3502
X7.6531Y-2.6
X7.85Y-2.6
X7.85Y-2.8
T2
X6.24Y-3.09
X6.24Y-3.1884
X6.24Y-3.2869
X6.4762Y-3.09
X6.4762Y-3.1884
X6.4762Y-3.2869
X7.7Y-3.0
X7.7Y-3.1
T3
X3.7016Y-3.3244
X3.8Y-3.3244
X3.8984Y-3.3244
X7.775Y-3.57
X7.775Y-3.67
X7.775Y-3.77
X7.8Y-2.2
X7.8Y-2.3
T4
X5.2228Y-3.1
X5.2228Y-3.3559
X5.4Y-3.1
X5.4Y-3.3559
M30
