M48
; DRILL file {KiCad 8.0.5} date 2024-10-04T12:51:14+0200
; FORMAT={-:-/ absolute / inch / decimal}
; #@! TF.CreationDate,2024-10-04T12:51:14+02:00
; #@! TF.GenerationSoftware,Kicad,Pcbnew,8.0.5
; #@! TF.FileFunction,MixedPlating,1,2
FMAT,2
INCH
; #@! TA.AperFunction,Plated,PTH,ComponentDrill
T1C0.0315
%
G90
G05
T1
X1.6Y-1.3
X1.6Y-1.4
X1.6Y-1.6
X1.6Y-1.7
X1.6Y-1.7969
X1.6Y-1.8969
X1.6Y-2.0
X1.6Y-2.3
X1.6Y-2.4
X1.6Y-2.4969
X1.6Y-2.5969
X1.6Y-2.7
X1.6Y-2.9
X1.6Y-3.0
X1.7Y-1.3
X1.7Y-1.4
X1.7Y-1.6
X1.7Y-1.7
X1.7Y-1.7969
X1.7Y-1.8969
X1.7Y-2.0
X1.7Y-2.3
X1.7Y-2.4
X1.7Y-2.4969
X1.7Y-2.5969
X1.7Y-2.7
X1.7Y-2.9
X1.7Y-3.0
X1.8Y-1.3
X1.8Y-1.4
X1.8Y-1.6
X1.8Y-1.7
X1.8Y-1.7969
X1.8Y-1.8969
X1.8Y-2.0
X1.8Y-2.3
X1.8Y-2.4
X1.8Y-2.4969
X1.8Y-2.5969
X1.8Y-2.7
X1.8Y-2.9
X1.8Y-3.0
X1.9Y-1.3
X1.9Y-1.4
X1.9Y-1.6
X1.9Y-1.7
X1.9Y-1.7969
X1.9Y-1.8969
X1.9Y-2.0
X1.9Y-2.3
X1.9Y-2.4
X1.9Y-2.4969
X1.9Y-2.5969
X1.9Y-2.7
X1.9Y-2.9
X1.9Y-3.0
X2.0Y-1.3
X2.0Y-1.4
X2.0Y-1.6
X2.0Y-1.7
X2.0Y-1.7969
X2.0Y-1.8969
X2.0Y-2.0
X2.0Y-2.3
X2.0Y-2.4
X2.0Y-2.4969
X2.0Y-2.5969
X2.0Y-2.7
X2.0Y-2.9
X2.0Y-3.0
X2.1Y-1.3
X2.1Y-1.4
X2.1Y-1.6
X2.1Y-1.7
X2.1Y-1.7969
X2.1Y-1.8969
X2.1Y-2.0
X2.1Y-2.3
X2.1Y-2.4
X2.1Y-2.4969
X2.1Y-2.5969
X2.1Y-2.7
X2.1Y-2.9
X2.1Y-3.0
X2.2Y-1.3
X2.2Y-1.4
X2.2Y-1.6
X2.2Y-1.7
X2.2Y-1.7969
X2.2Y-1.8969
X2.2Y-2.0
X2.2Y-2.3
X2.2Y-2.4
X2.2Y-2.4969
X2.2Y-2.5969
X2.2Y-2.7
X2.2Y-2.9
X2.2Y-3.0
X2.3Y-1.3
X2.3Y-1.4
X2.3Y-1.6
X2.3Y-1.7
X2.3Y-1.7969
X2.3Y-1.8969
X2.3Y-2.0
X2.3Y-2.3
X2.3Y-2.4
X2.3Y-2.4969
X2.3Y-2.5969
X2.3Y-2.7
X2.3Y-2.9
X2.3Y-3.0
X2.3945Y-1.3
X2.3945Y-1.4
X2.4Y-1.6
X2.4Y-1.7
X2.4Y-1.7969
X2.4Y-1.8969
X2.4Y-2.0
X2.4Y-2.3
X2.4Y-2.4
X2.4Y-2.4969
X2.4Y-2.5969
X2.4Y-2.7
X2.4Y-2.9
X2.4Y-3.0
X2.4945Y-1.3
X2.4945Y-1.4
X2.5Y-1.6
X2.5Y-1.7
X2.5Y-1.7969
X2.5Y-1.8969
X2.5Y-2.0
X2.5Y-2.3
X2.5Y-2.4
X2.5Y-2.4969
X2.5Y-2.5969
X2.5Y-2.7
X2.5Y-2.9
X2.5Y-3.0
X2.5945Y-1.3
X2.5945Y-1.4
X2.6Y-1.6
X2.6Y-1.7
X2.6Y-1.7969
X2.6Y-1.8969
X2.6Y-2.0
X2.6Y-2.3
X2.6Y-2.4
X2.6Y-2.4969
X2.6Y-2.5969
X2.6Y-2.7
X2.6Y-2.9
X2.6Y-3.0
X2.7Y-1.3
X2.7Y-1.4
X2.7Y-1.6031
X2.7Y-1.7031
X2.7Y-1.8
X2.7Y-1.9
X2.7Y-2.0031
X2.7Y-2.3031
X2.7Y-2.4031
X2.7Y-2.5
X2.7Y-2.6
X2.7Y-2.7031
X2.7Y-2.9
X2.7Y-3.0
X2.8Y-1.3
X2.8Y-1.4
X2.8Y-1.6
X2.8Y-1.7
X2.8Y-1.7969
X2.8Y-1.8969
X2.8Y-2.0
X2.8Y-2.3
X2.8Y-2.4
X2.8Y-2.4969
X2.8Y-2.5969
X2.8Y-2.7
X2.8Y-2.9
X2.8Y-3.0
X2.9Y-1.3
X2.9Y-1.4
X2.9Y-1.6
X2.9Y-1.7
X2.9Y-1.7969
X2.9Y-1.8969
X2.9Y-2.0
X2.9Y-2.3
X2.9Y-2.4
X2.9Y-2.4969
X2.9Y-2.5969
X2.9Y-2.7
X2.9Y-2.9
X2.9Y-3.0
X3.0Y-1.3
X3.0Y-1.4
X3.0Y-1.6
X3.0Y-1.7
X3.0Y-1.7969
X3.0Y-1.8969
X3.0Y-2.0
X3.0Y-2.3
X3.0Y-2.4
X3.0Y-2.4969
X3.0Y-2.5969
X3.0Y-2.7
X3.0Y-2.9
X3.0Y-3.0
X3.1Y-1.3
X3.1Y-1.4
X3.1Y-1.6
X3.1Y-1.7
X3.1Y-1.7969
X3.1Y-1.8969
X3.1Y-2.0
X3.1Y-2.3
X3.1Y-2.4
X3.1Y-2.4969
X3.1Y-2.5969
X3.1Y-2.7
X3.1Y-2.9
X3.1Y-3.0
X3.2Y-1.3
X3.2Y-1.4
X3.2Y-1.6
X3.2Y-1.7
X3.2Y-1.7969
X3.2Y-1.8969
X3.2Y-2.0
X3.2Y-2.3
X3.2Y-2.4
X3.2Y-2.4969
X3.2Y-2.5969
X3.2Y-2.7
X3.2Y-2.9
X3.2Y-3.0
X3.3Y-1.3
X3.3Y-1.4
X3.3Y-1.6
X3.3Y-1.7
X3.3Y-1.7969
X3.3Y-1.8969
X3.3Y-2.0
X3.3Y-2.3
X3.3Y-2.4
X3.3Y-2.4969
X3.3Y-2.5969
X3.3Y-2.7
X3.3Y-2.9
X3.3Y-3.0
X3.4Y-1.3
X3.4Y-1.4
X3.4Y-1.6
X3.4Y-1.7
X3.4Y-1.7969
X3.4Y-1.8969
X3.4Y-2.0
X3.4Y-2.3
X3.4Y-2.4
X3.4Y-2.4969
X3.4Y-2.5969
X3.4Y-2.7
X3.4Y-2.9
X3.4Y-3.0
X3.5Y-1.3
X3.5Y-1.4
X3.5Y-1.6
X3.5Y-1.7
X3.5Y-1.7969
X3.5Y-1.8969
X3.5Y-2.0
X3.5Y-2.3
X3.5Y-2.4
X3.5Y-2.4969
X3.5Y-2.5969
X3.5Y-2.7
X3.5Y-2.9
X3.5Y-3.0
X3.6Y-1.3
X3.6Y-1.4
X3.6Y-1.6
X3.6Y-1.7
X3.6Y-1.7969
X3.6Y-1.8969
X3.6Y-2.0
X3.6Y-2.3
X3.6Y-2.4
X3.6Y-2.4969
X3.6Y-2.5969
X3.6Y-2.7
X3.6Y-2.9
X3.6Y-3.0
X3.7Y-1.3
X3.7Y-1.4
X3.7Y-1.6
X3.7Y-1.7
X3.7Y-1.7969
X3.7Y-1.8969
X3.7Y-2.0
X3.7Y-2.3
X3.7Y-2.4
X3.7Y-2.4969
X3.7Y-2.5969
X3.7Y-2.7
X3.7Y-2.9
X3.7Y-3.0
X3.8Y-1.3
X3.8Y-1.4
X3.8Y-1.6
X3.8Y-1.7
X3.8Y-1.7969
X3.8Y-1.8969
X3.8Y-2.0
X3.8Y-2.3
X3.8Y-2.4
X3.8Y-2.4969
X3.8Y-2.5969
X3.8Y-2.7
X3.8Y-2.9
X3.8Y-3.0
X3.9Y-1.3
X3.9Y-1.4
X3.9Y-1.6
X3.9Y-1.7
X3.9Y-1.7969
X3.9Y-1.8969
X3.9Y-2.0
X3.9Y-2.3
X3.9Y-2.4
X3.9Y-2.4969
X3.9Y-2.5969
X3.9Y-2.7
X3.9Y-2.9
X3.9Y-3.0
X4.0Y-1.3
X4.0Y-1.4
X4.0Y-1.6
X4.0Y-1.7
X4.0Y-1.7969
X4.0Y-1.8969
X4.0Y-2.0
X4.0Y-2.3
X4.0Y-2.4
X4.0Y-2.4969
X4.0Y-2.5969
X4.0Y-2.7
X4.0Y-2.9
X4.0Y-3.0
X4.1Y-1.3
X4.1Y-1.4
X4.1Y-1.6
X4.1Y-1.7
X4.1Y-1.7969
X4.1Y-1.8969
X4.1Y-2.0
X4.1Y-2.3
X4.1Y-2.4
X4.1Y-2.4969
X4.1Y-2.5969
X4.1Y-2.7
X4.1Y-2.9
X4.1Y-3.0
X4.2Y-1.3
X4.2Y-1.4
X4.2Y-1.6
X4.2Y-1.7
X4.2Y-1.7969
X4.2Y-1.8969
X4.2Y-2.0
X4.2Y-2.3
X4.2Y-2.4
X4.2Y-2.4969
X4.2Y-2.5969
X4.2Y-2.7
X4.2Y-2.9
X4.2Y-3.0
X4.3Y-1.3
X4.3Y-1.4
X4.3Y-1.6
X4.3Y-1.7
X4.3Y-1.7969
X4.3Y-1.8969
X4.3Y-2.0
X4.3Y-2.3
X4.3Y-2.4
X4.3Y-2.4969
X4.3Y-2.5969
X4.3Y-2.7
X4.3Y-2.9
X4.3Y-3.0
X4.4Y-1.3
X4.4Y-1.4
X4.4Y-1.6
X4.4Y-1.7
X4.4Y-1.7969
X4.4Y-1.8969
X4.4Y-2.0
X4.4Y-2.3
X4.4Y-2.4
X4.4Y-2.4969
X4.4Y-2.5969
X4.4Y-2.7
X4.4Y-2.9
X4.4Y-3.0
X4.5Y-1.3
X4.5Y-1.4
X4.5Y-1.6
X4.5Y-1.7
X4.5Y-1.7969
X4.5Y-1.8969
X4.5Y-2.0
X4.5Y-2.3
X4.5Y-2.4
X4.5Y-2.4969
X4.5Y-2.5969
X4.5Y-2.7
X4.5Y-2.9
X4.5Y-3.0
X4.6Y-1.3
X4.6Y-1.4
X4.6Y-1.6
X4.6Y-1.7
X4.6Y-1.7969
X4.6Y-1.8969
X4.6Y-2.0
X4.6Y-2.3
X4.6Y-2.4
X4.6Y-2.4969
X4.6Y-2.5969
X4.6Y-2.7
X4.6Y-2.9
X4.6Y-3.0
X4.7Y-1.3
X4.7Y-1.4
X4.7Y-1.6
X4.7Y-1.7
X4.7Y-1.7969
X4.7Y-1.8969
X4.7Y-2.0
X4.7Y-2.3
X4.7Y-2.4
X4.7Y-2.4969
X4.7Y-2.5969
X4.7Y-2.7
X4.7Y-2.9
X4.7Y-3.0
X4.8Y-1.3
X4.8Y-1.4
X4.8Y-1.6
X4.8Y-1.7
X4.8Y-1.7969
X4.8Y-1.8969
X4.8Y-2.0
X4.8Y-2.3
X4.8Y-2.4
X4.8Y-2.4969
X4.8Y-2.5969
X4.8Y-2.7
X4.8Y-2.9
X4.8Y-3.0
X4.9Y-1.3
X4.9Y-1.4
X4.9Y-1.6
X4.9Y-1.7
X4.9Y-1.7969
X4.9Y-1.8969
X4.9Y-2.0
X4.9Y-2.3
X4.9Y-2.4
X4.9Y-2.4969
X4.9Y-2.5969
X4.9Y-2.7
X4.9Y-2.9
X4.9Y-3.0
X5.0Y-1.3
X5.0Y-1.4
X5.0Y-1.6
X5.0Y-1.7
X5.0Y-1.7969
X5.0Y-1.8969
X5.0Y-2.0
X5.0Y-2.3
X5.0Y-2.4
X5.0Y-2.4969
X5.0Y-2.5969
X5.0Y-2.7
X5.0Y-2.9
X5.0Y-3.0
X5.1Y-1.3
X5.1Y-1.4
X5.1Y-1.6
X5.1Y-1.7
X5.1Y-1.7969
X5.1Y-1.8969
X5.1Y-2.0
X5.1Y-2.3
X5.1Y-2.4
X5.1Y-2.4969
X5.1Y-2.5969
X5.1Y-2.7
X5.1Y-2.9
X5.1Y-3.0
X5.2Y-1.3
X5.2Y-1.4
X5.2Y-1.6
X5.2Y-1.7
X5.2Y-1.7969
X5.2Y-1.8969
X5.2Y-2.0
X5.2Y-2.3
X5.2Y-2.4
X5.2Y-2.4969
X5.2Y-2.5969
X5.2Y-2.7
X5.2Y-2.9
X5.2Y-3.0
X5.3Y-1.3
X5.3Y-1.4
X5.3Y-1.6
X5.3Y-1.7
X5.3Y-1.7969
X5.3Y-1.8969
X5.3Y-2.0
X5.3Y-2.3
X5.3Y-2.4
X5.3Y-2.4969
X5.3Y-2.5969
X5.3Y-2.7
X5.3Y-2.9
X5.3Y-3.0
X5.4Y-1.3
X5.4Y-1.4
X5.4Y-1.6
X5.4Y-1.7
X5.4Y-1.7969
X5.4Y-1.8969
X5.4Y-2.0
X5.4Y-2.3
X5.4Y-2.4
X5.4Y-2.4969
X5.4Y-2.5969
X5.4Y-2.7
X5.4Y-2.9
X5.4Y-3.0
X5.5Y-1.3
X5.5Y-1.4
X5.5Y-1.6
X5.5Y-1.7
X5.5Y-1.7969
X5.5Y-1.8969
X5.5Y-2.0
X5.5Y-2.3
X5.5Y-2.4
X5.5Y-2.4969
X5.5Y-2.5969
X5.5Y-2.7
X5.5Y-2.9
X5.5Y-3.0
X5.5945Y-1.3
X5.5945Y-1.4
X5.6Y-1.6
X5.6Y-1.7
X5.6Y-1.7969
X5.6Y-1.8969
X5.6Y-2.0
X5.6Y-2.3
X5.6Y-2.4
X5.6Y-2.4969
X5.6Y-2.5969
X5.6Y-2.7
X5.6Y-2.9
X5.6Y-3.0
X5.6945Y-1.3
X5.6945Y-1.4
X5.7Y-1.6
X5.7Y-1.7
X5.7Y-1.7969
X5.7Y-1.8969
X5.7Y-2.0
X5.7Y-2.3
X5.7Y-2.4
X5.7Y-2.4969
X5.7Y-2.5969
X5.7Y-2.7
X5.7Y-2.9
X5.7Y-3.0
X5.7945Y-1.3
X5.7945Y-1.4
X5.8Y-1.6
X5.8Y-1.7
X5.8Y-1.7969
X5.8Y-1.8969
X5.8Y-2.0
X5.8Y-2.3
X5.8Y-2.4
X5.8Y-2.4969
X5.8Y-2.5969
X5.8Y-2.7
X5.8Y-2.9
X5.8Y-3.0
X5.9Y-1.3
X5.9Y-1.4
X5.9Y-1.6031
X5.9Y-1.7031
X5.9Y-1.8
X5.9Y-1.9
X5.9Y-2.0031
X5.9Y-2.3031
X5.9Y-2.4031
X5.9Y-2.5
X5.9Y-2.6
X5.9Y-2.7031
X5.9Y-2.9
X5.9Y-3.0
X6.0Y-1.3
X6.0Y-1.4
X6.0Y-1.6
X6.0Y-1.7
X6.0Y-1.7969
X6.0Y-1.8969
X6.0Y-2.0
X6.0Y-2.3
X6.0Y-2.4
X6.0Y-2.4969
X6.0Y-2.5969
X6.0Y-2.7
X6.0Y-2.9
X6.0Y-3.0
X6.1Y-1.3
X6.1Y-1.4
X6.1Y-1.6
X6.1Y-1.7
X6.1Y-1.7969
X6.1Y-1.8969
X6.1Y-2.0
X6.1Y-2.3
X6.1Y-2.4
X6.1Y-2.4969
X6.1Y-2.5969
X6.1Y-2.7
X6.1Y-2.9
X6.1Y-3.0
X6.2Y-1.3
X6.2Y-1.4
X6.2Y-1.6
X6.2Y-1.7
X6.2Y-1.7969
X6.2Y-1.8969
X6.2Y-2.0
X6.2Y-2.3
X6.2Y-2.4
X6.2Y-2.4969
X6.2Y-2.5969
X6.2Y-2.7
X6.2Y-2.9
X6.2Y-3.0
X6.3Y-1.3
X6.3Y-1.4
X6.3Y-1.6
X6.3Y-1.7
X6.3Y-1.7969
X6.3Y-1.8969
X6.3Y-2.0
X6.3Y-2.3
X6.3Y-2.4
X6.3Y-2.4969
X6.3Y-2.5969
X6.3Y-2.7
X6.3Y-2.9
X6.3Y-3.0
X6.4Y-1.3
X6.4Y-1.4
X6.4Y-1.6
X6.4Y-1.7
X6.4Y-1.7969
X6.4Y-1.8969
X6.4Y-2.0
X6.4Y-2.3
X6.4Y-2.4
X6.4Y-2.4969
X6.4Y-2.5969
X6.4Y-2.7
X6.4Y-2.9
X6.4Y-3.0
X6.5Y-1.3
X6.5Y-1.4
X6.5Y-1.6
X6.5Y-1.7
X6.5Y-1.7969
X6.5Y-1.8969
X6.5Y-2.0
X6.5Y-2.3
X6.5Y-2.4
X6.5Y-2.4969
X6.5Y-2.5969
X6.5Y-2.7
X6.5Y-2.9
X6.5Y-3.0
X6.6Y-1.3
X6.6Y-1.4
X6.6Y-1.6
X6.6Y-1.7
X6.6Y-1.7969
X6.6Y-1.8969
X6.6Y-2.0
X6.6Y-2.3
X6.6Y-2.4
X6.6Y-2.4969
X6.6Y-2.5969
X6.6Y-2.7
X6.6Y-2.9
X6.6Y-3.0
X6.7Y-1.3
X6.7Y-1.4
X6.7Y-1.6
X6.7Y-1.7
X6.7Y-1.7969
X6.7Y-1.8969
X6.7Y-2.0
X6.7Y-2.3
X6.7Y-2.4
X6.7Y-2.4969
X6.7Y-2.5969
X6.7Y-2.7
X6.7Y-2.9
X6.7Y-3.0
X6.8Y-1.3
X6.8Y-1.4
X6.8Y-1.6
X6.8Y-1.7
X6.8Y-1.7969
X6.8Y-1.8969
X6.8Y-2.0
X6.8Y-2.3
X6.8Y-2.4
X6.8Y-2.4969
X6.8Y-2.5969
X6.8Y-2.7
X6.8Y-2.9
X6.8Y-3.0
X6.9Y-1.3
X6.9Y-1.4
X6.9Y-1.6
X6.9Y-1.7
X6.9Y-1.7969
X6.9Y-1.8969
X6.9Y-2.0
X6.9Y-2.3
X6.9Y-2.4
X6.9Y-2.4969
X6.9Y-2.5969
X6.9Y-2.7
X6.9Y-2.9
X6.9Y-3.0
X7.0Y-1.3
X7.0Y-1.4
X7.0Y-1.6
X7.0Y-1.7
X7.0Y-1.7969
X7.0Y-1.8969
X7.0Y-2.0
X7.0Y-2.3
X7.0Y-2.4
X7.0Y-2.4969
X7.0Y-2.5969
X7.0Y-2.7
X7.0Y-2.9
X7.0Y-3.0
X7.1Y-1.3
X7.1Y-1.4
X7.1Y-1.6
X7.1Y-1.7
X7.1Y-1.7969
X7.1Y-1.8969
X7.1Y-2.0
X7.1Y-2.3
X7.1Y-2.4
X7.1Y-2.4969
X7.1Y-2.5969
X7.1Y-2.7
X7.1Y-2.9
X7.1Y-3.0
X7.2Y-1.3
X7.2Y-1.4
X7.2Y-1.6
X7.2Y-1.7
X7.2Y-1.7969
X7.2Y-1.8969
X7.2Y-2.0
X7.2Y-2.3
X7.2Y-2.4
X7.2Y-2.4969
X7.2Y-2.5969
X7.2Y-2.7
X7.2Y-2.9
X7.2Y-3.0
X7.3Y-1.3
X7.3Y-1.4
X7.3Y-1.6
X7.3Y-1.7
X7.3Y-1.7969
X7.3Y-1.8969
X7.3Y-2.0
X7.3Y-2.3
X7.3Y-2.4
X7.3Y-2.4969
X7.3Y-2.5969
X7.3Y-2.7
X7.3Y-2.9
X7.3Y-3.0
X7.4Y-1.3
X7.4Y-1.4
X7.4Y-1.6
X7.4Y-1.7
X7.4Y-1.7969
X7.4Y-1.8969
X7.4Y-2.0
X7.4Y-2.3
X7.4Y-2.4
X7.4Y-2.4969
X7.4Y-2.5969
X7.4Y-2.7
X7.4Y-2.9
X7.4Y-3.0
X7.5Y-1.3
X7.5Y-1.4
X7.5Y-1.6
X7.5Y-1.7
X7.5Y-1.7969
X7.5Y-1.8969
X7.5Y-2.0
X7.5Y-2.3
X7.5Y-2.4
X7.5Y-2.4969
X7.5Y-2.5969
X7.5Y-2.7
X7.5Y-2.9
X7.5Y-3.0
X7.6Y-1.3
X7.6Y-1.4
X7.6Y-1.6
X7.6Y-1.7
X7.6Y-1.7969
X7.6Y-1.8969
X7.6Y-2.0
X7.6Y-2.3
X7.6Y-2.4
X7.6Y-2.4969
X7.6Y-2.5969
X7.6Y-2.7
X7.6Y-2.9
X7.6Y-3.0
X7.7Y-1.3
X7.7Y-1.4
X7.7Y-1.6
X7.7Y-1.7
X7.7Y-1.7969
X7.7Y-1.8969
X7.7Y-2.0
X7.7Y-2.3
X7.7Y-2.4
X7.7Y-2.4969
X7.7Y-2.5969
X7.7Y-2.7
X7.7Y-2.9
X7.7Y-3.0
X7.8Y-1.3
X7.8Y-1.4
X7.8Y-1.6
X7.8Y-1.7
X7.8Y-1.7969
X7.8Y-1.8969
X7.8Y-2.0
X7.8Y-2.3
X7.8Y-2.4
X7.8Y-2.4969
X7.8Y-2.5969
X7.8Y-2.7
X7.8Y-2.9
X7.8Y-3.0
X7.9Y-1.3
X7.9Y-1.4
X7.9Y-1.6
X7.9Y-1.7
X7.9Y-1.7969
X7.9Y-1.8969
X7.9Y-2.0
X7.9Y-2.3
X7.9Y-2.4
X7.9Y-2.4969
X7.9Y-2.5969
X7.9Y-2.7
X7.9Y-2.9
X7.9Y-3.0
M30
