%TF.GenerationSoftware,KiCad,Pcbnew,8.0.5*%
%TF.CreationDate,2024-10-04T12:50:49+02:00*%
%TF.ProjectId,Solderable_breadboard,536f6c64-6572-4616-926c-655f62726561,rev?*%
%TF.SameCoordinates,Original*%
%TF.FileFunction,Soldermask,Bot*%
%TF.FilePolarity,Negative*%
%FSLAX46Y46*%
G04 Gerber Fmt 4.6, Leading zero omitted, Abs format (unit mm)*
G04 Created by KiCad (PCBNEW 8.0.5) date 2024-10-04 12:50:49*
%MOMM*%
%LPD*%
G01*
G04 APERTURE LIST*
%ADD10O,1.700000X1.700000*%
G04 APERTURE END LIST*
D10*
%TO.C,J47*%
X137160000Y-58420000D03*
X137160000Y-60960000D03*
X137160000Y-63420000D03*
X137160000Y-65960000D03*
X137160000Y-68580000D03*
%TD*%
%TO.C,J45*%
X132080000Y-58420000D03*
X132080000Y-60960000D03*
X132080000Y-63420000D03*
X132080000Y-65960000D03*
X132080000Y-68580000D03*
%TD*%
%TO.C,J43*%
X127000000Y-58420000D03*
X127000000Y-60960000D03*
X127000000Y-63420000D03*
X127000000Y-65960000D03*
X127000000Y-68580000D03*
%TD*%
%TO.C,J38*%
X175260000Y-33020000D03*
X175260000Y-35560000D03*
%TD*%
%TO.C,J42*%
X124460000Y-58420000D03*
X124460000Y-60960000D03*
X124460000Y-63420000D03*
X124460000Y-65960000D03*
X124460000Y-68580000D03*
%TD*%
%TO.C,J39*%
X177800000Y-33020000D03*
X177800000Y-35560000D03*
%TD*%
%TO.C,J35*%
X167640000Y-33020000D03*
X167640000Y-35560000D03*
%TD*%
%TO.C,J29*%
X152400000Y-33020000D03*
X152400000Y-35560000D03*
%TD*%
%TO.C,J37*%
X172720000Y-33020000D03*
X172720000Y-35560000D03*
%TD*%
%TO.C,J34*%
X165100000Y-33020000D03*
X165100000Y-35560000D03*
%TD*%
%TO.C,J33*%
X162560000Y-33020000D03*
X162560000Y-35560000D03*
%TD*%
%TO.C,J31*%
X157480000Y-33020000D03*
X157480000Y-35560000D03*
%TD*%
%TO.C,J32*%
X160020000Y-33020000D03*
X160020000Y-35560000D03*
%TD*%
%TO.C,J40*%
X180340000Y-33020000D03*
X180340000Y-35560000D03*
%TD*%
%TO.C,J49*%
X142240000Y-58420000D03*
X142240000Y-60960000D03*
X142240000Y-63420000D03*
X142240000Y-65960000D03*
X142240000Y-68580000D03*
%TD*%
%TO.C,J46*%
X134620000Y-58420000D03*
X134620000Y-60960000D03*
X134620000Y-63420000D03*
X134620000Y-65960000D03*
X134620000Y-68580000D03*
%TD*%
%TO.C,J48*%
X139700000Y-58420000D03*
X139700000Y-60960000D03*
X139700000Y-63420000D03*
X139700000Y-65960000D03*
X139700000Y-68580000D03*
%TD*%
%TO.C,J36*%
X170180000Y-33020000D03*
X170180000Y-35560000D03*
%TD*%
%TO.C,J30*%
X154940000Y-33020000D03*
X154940000Y-35560000D03*
%TD*%
%TO.C,J44*%
X129540000Y-58420000D03*
X129540000Y-60960000D03*
X129540000Y-63420000D03*
X129540000Y-65960000D03*
X129540000Y-68580000D03*
%TD*%
%TO.C,J41*%
X121920000Y-58420000D03*
X121920000Y-60960000D03*
X121920000Y-63420000D03*
X121920000Y-65960000D03*
X121920000Y-68580000D03*
%TD*%
%TO.C,J27*%
X157480000Y-40640000D03*
X157480000Y-43180000D03*
X157480000Y-45640000D03*
X157480000Y-48180000D03*
X157480000Y-50800000D03*
%TD*%
%TO.C,J26*%
X154940000Y-40640000D03*
X154940000Y-43180000D03*
X154940000Y-45640000D03*
X154940000Y-48180000D03*
X154940000Y-50800000D03*
%TD*%
%TO.C,J22*%
X144780000Y-40640000D03*
X144780000Y-43180000D03*
X144780000Y-45640000D03*
X144780000Y-48180000D03*
X144780000Y-50800000D03*
%TD*%
%TO.C,J15*%
X139700000Y-40640000D03*
X139700000Y-43180000D03*
X139700000Y-45640000D03*
X139700000Y-48180000D03*
X139700000Y-50800000D03*
%TD*%
%TO.C,J16*%
X139700000Y-33020000D03*
X139700000Y-35560000D03*
%TD*%
%TO.C,J12*%
X134620000Y-33020000D03*
X134620000Y-35560000D03*
%TD*%
%TO.C,J21*%
X142240000Y-40640000D03*
X142240000Y-43180000D03*
X142240000Y-45640000D03*
X142240000Y-48180000D03*
X142240000Y-50800000D03*
%TD*%
%TO.C,J11*%
X134620000Y-40640000D03*
X134620000Y-43180000D03*
X134620000Y-45640000D03*
X134620000Y-48180000D03*
X134620000Y-50800000D03*
%TD*%
%TO.C,J14*%
X137160000Y-40640000D03*
X137160000Y-43180000D03*
X137160000Y-45640000D03*
X137160000Y-48180000D03*
X137160000Y-50800000D03*
%TD*%
%TO.C,J18*%
X144640000Y-33020000D03*
X144640000Y-35560000D03*
%TD*%
%TO.C,J13*%
X137160000Y-33020000D03*
X137160000Y-35560000D03*
%TD*%
%TO.C,J25*%
X152400000Y-40640000D03*
X152400000Y-43180000D03*
X152400000Y-45640000D03*
X152400000Y-48180000D03*
X152400000Y-50800000D03*
%TD*%
%TO.C,J17*%
X142100000Y-33020000D03*
X142100000Y-35560000D03*
%TD*%
%TO.C,J23*%
X147320000Y-40640000D03*
X147320000Y-43180000D03*
X147320000Y-45640000D03*
X147320000Y-48180000D03*
X147320000Y-50800000D03*
%TD*%
%TO.C,J19*%
X147180000Y-33020000D03*
X147180000Y-35560000D03*
%TD*%
%TO.C,J20*%
X149860000Y-33020000D03*
X149860000Y-35560000D03*
%TD*%
%TO.C,J24*%
X149860000Y-40720000D03*
X149860000Y-43260000D03*
X149860000Y-45720000D03*
X149860000Y-48260000D03*
X149860000Y-50880000D03*
%TD*%
%TO.C,J28*%
X160020000Y-40640000D03*
X160020000Y-43180000D03*
X160020000Y-45640000D03*
X160020000Y-48180000D03*
X160020000Y-50800000D03*
%TD*%
%TO.C,J9*%
X132080000Y-33020000D03*
X132080000Y-35560000D03*
%TD*%
%TO.C,J8*%
X129540000Y-33020000D03*
X129540000Y-35560000D03*
%TD*%
%TO.C,J6*%
X127000000Y-40640000D03*
X127000000Y-43180000D03*
X127000000Y-45640000D03*
X127000000Y-48180000D03*
X127000000Y-50800000D03*
%TD*%
%TO.C,J5*%
X127000000Y-33020000D03*
X127000000Y-35560000D03*
%TD*%
%TO.C,J2*%
X124460000Y-40640000D03*
X124460000Y-43180000D03*
X124460000Y-45640000D03*
X124460000Y-48180000D03*
X124460000Y-50800000D03*
%TD*%
%TO.C,J1*%
X121920000Y-40640000D03*
X121920000Y-43180000D03*
X121920000Y-45640000D03*
X121920000Y-48180000D03*
X121920000Y-50800000D03*
%TD*%
%TO.C,J7*%
X129540000Y-40640000D03*
X129540000Y-43180000D03*
X129540000Y-45640000D03*
X129540000Y-48180000D03*
X129540000Y-50800000D03*
%TD*%
%TO.C,J10*%
X132080000Y-40640000D03*
X132080000Y-43180000D03*
X132080000Y-45640000D03*
X132080000Y-48180000D03*
X132080000Y-50800000D03*
%TD*%
%TO.C,J3*%
X121920000Y-33020000D03*
X121920000Y-35560000D03*
%TD*%
%TO.C,J4*%
X124460000Y-33020000D03*
X124460000Y-35560000D03*
%TD*%
%TO.C,J126*%
X195580000Y-73660000D03*
X195580000Y-76200000D03*
%TD*%
%TO.C,J120*%
X180340000Y-73660000D03*
X180340000Y-76200000D03*
%TD*%
%TO.C,J128*%
X200660000Y-73660000D03*
X200660000Y-76200000D03*
%TD*%
%TO.C,J125*%
X193040000Y-73660000D03*
X193040000Y-76200000D03*
%TD*%
%TO.C,J124*%
X190500000Y-73660000D03*
X190500000Y-76200000D03*
%TD*%
%TO.C,J116*%
X170180000Y-73660000D03*
X170180000Y-76200000D03*
%TD*%
%TO.C,J123*%
X187960000Y-73660000D03*
X187960000Y-76200000D03*
%TD*%
%TO.C,J122*%
X185420000Y-73660000D03*
X185420000Y-76200000D03*
%TD*%
%TO.C,J121*%
X182880000Y-73660000D03*
X182880000Y-76200000D03*
%TD*%
%TO.C,J117*%
X172720000Y-73660000D03*
X172720000Y-76200000D03*
%TD*%
%TO.C,J119*%
X177800000Y-73660000D03*
X177800000Y-76200000D03*
%TD*%
%TO.C,J115*%
X167640000Y-73660000D03*
X167640000Y-76200000D03*
%TD*%
%TO.C,J114*%
X165100000Y-73660000D03*
X165100000Y-76200000D03*
%TD*%
%TO.C,J118*%
X175260000Y-73660000D03*
X175260000Y-76200000D03*
%TD*%
%TO.C,J127*%
X198120000Y-73660000D03*
X198120000Y-76200000D03*
%TD*%
%TO.C,J110*%
X195580000Y-58420000D03*
X195580000Y-60960000D03*
X195580000Y-63420000D03*
X195580000Y-65960000D03*
X195580000Y-68580000D03*
%TD*%
%TO.C,J106*%
X185420000Y-58420000D03*
X185420000Y-60960000D03*
X185420000Y-63420000D03*
X185420000Y-65960000D03*
X185420000Y-68580000D03*
%TD*%
%TO.C,J103*%
X177800000Y-58420000D03*
X177800000Y-60960000D03*
X177800000Y-63420000D03*
X177800000Y-65960000D03*
X177800000Y-68580000D03*
%TD*%
%TO.C,J99*%
X167640000Y-58420000D03*
X167640000Y-60960000D03*
X167640000Y-63420000D03*
X167640000Y-65960000D03*
X167640000Y-68580000D03*
%TD*%
%TO.C,J102*%
X175260000Y-58420000D03*
X175260000Y-60960000D03*
X175260000Y-63420000D03*
X175260000Y-65960000D03*
X175260000Y-68580000D03*
%TD*%
%TO.C,J113*%
X162560000Y-73660000D03*
X162560000Y-76200000D03*
%TD*%
%TO.C,J105*%
X182880000Y-58420000D03*
X182880000Y-60960000D03*
X182880000Y-63420000D03*
X182880000Y-65960000D03*
X182880000Y-68580000D03*
%TD*%
%TO.C,J112*%
X200660000Y-58420000D03*
X200660000Y-60960000D03*
X200660000Y-63420000D03*
X200660000Y-65960000D03*
X200660000Y-68580000D03*
%TD*%
%TO.C,J108*%
X190500000Y-58420000D03*
X190500000Y-60960000D03*
X190500000Y-63420000D03*
X190500000Y-65960000D03*
X190500000Y-68580000D03*
%TD*%
%TO.C,J104*%
X180340000Y-58420000D03*
X180340000Y-60960000D03*
X180340000Y-63420000D03*
X180340000Y-65960000D03*
X180340000Y-68580000D03*
%TD*%
%TO.C,J101*%
X172720000Y-58420000D03*
X172720000Y-60960000D03*
X172720000Y-63420000D03*
X172720000Y-65960000D03*
X172720000Y-68580000D03*
%TD*%
%TO.C,J107*%
X187960000Y-58420000D03*
X187960000Y-60960000D03*
X187960000Y-63420000D03*
X187960000Y-65960000D03*
X187960000Y-68580000D03*
%TD*%
%TO.C,J111*%
X198120000Y-58420000D03*
X198120000Y-60960000D03*
X198120000Y-63420000D03*
X198120000Y-65960000D03*
X198120000Y-68580000D03*
%TD*%
%TO.C,J100*%
X170180000Y-58420000D03*
X170180000Y-60960000D03*
X170180000Y-63420000D03*
X170180000Y-65960000D03*
X170180000Y-68580000D03*
%TD*%
%TO.C,J109*%
X193040000Y-58420000D03*
X193040000Y-60960000D03*
X193040000Y-63420000D03*
X193040000Y-65960000D03*
X193040000Y-68580000D03*
%TD*%
%TO.C,J97*%
X162560000Y-58420000D03*
X162560000Y-60960000D03*
X162560000Y-63420000D03*
X162560000Y-65960000D03*
X162560000Y-68580000D03*
%TD*%
%TO.C,J95*%
X198120000Y-40640000D03*
X198120000Y-43180000D03*
X198120000Y-45640000D03*
X198120000Y-48180000D03*
X198120000Y-50800000D03*
%TD*%
%TO.C,J93*%
X193040000Y-40640000D03*
X193040000Y-43180000D03*
X193040000Y-45640000D03*
X193040000Y-48180000D03*
X193040000Y-50800000D03*
%TD*%
%TO.C,J92*%
X190500000Y-40640000D03*
X190500000Y-43180000D03*
X190500000Y-45640000D03*
X190500000Y-48180000D03*
X190500000Y-50800000D03*
%TD*%
%TO.C,J90*%
X185420000Y-40640000D03*
X185420000Y-43180000D03*
X185420000Y-45640000D03*
X185420000Y-48180000D03*
X185420000Y-50800000D03*
%TD*%
%TO.C,J89*%
X182880000Y-40640000D03*
X182880000Y-43180000D03*
X182880000Y-45640000D03*
X182880000Y-48180000D03*
X182880000Y-50800000D03*
%TD*%
%TO.C,J88*%
X180340000Y-40640000D03*
X180340000Y-43180000D03*
X180340000Y-45640000D03*
X180340000Y-48180000D03*
X180340000Y-50800000D03*
%TD*%
%TO.C,J83*%
X167640000Y-40640000D03*
X167640000Y-43180000D03*
X167640000Y-45640000D03*
X167640000Y-48180000D03*
X167640000Y-50800000D03*
%TD*%
%TO.C,J75*%
X147320000Y-73660000D03*
X147320000Y-76200000D03*
%TD*%
%TO.C,J77*%
X152400000Y-73660000D03*
X152400000Y-76200000D03*
%TD*%
%TO.C,J79*%
X157480000Y-73660000D03*
X157480000Y-76200000D03*
%TD*%
%TO.C,J87*%
X177800000Y-40640000D03*
X177800000Y-43180000D03*
X177800000Y-45640000D03*
X177800000Y-48180000D03*
X177800000Y-50800000D03*
%TD*%
%TO.C,J84*%
X170180000Y-40640000D03*
X170180000Y-43180000D03*
X170180000Y-45640000D03*
X170180000Y-48180000D03*
X170180000Y-50800000D03*
%TD*%
%TO.C,J81*%
X162560000Y-40640000D03*
X162560000Y-43180000D03*
X162560000Y-45640000D03*
X162560000Y-48180000D03*
X162560000Y-50800000D03*
%TD*%
%TO.C,J80*%
X160020000Y-73660000D03*
X160020000Y-76200000D03*
%TD*%
%TO.C,J74*%
X144780000Y-73660000D03*
X144780000Y-76200000D03*
%TD*%
%TO.C,J78*%
X154940000Y-73660000D03*
X154940000Y-76200000D03*
%TD*%
%TO.C,J98*%
X165100000Y-58420000D03*
X165100000Y-60960000D03*
X165100000Y-63420000D03*
X165100000Y-65960000D03*
X165100000Y-68580000D03*
%TD*%
%TO.C,J96*%
X200660000Y-40640000D03*
X200660000Y-43180000D03*
X200660000Y-45640000D03*
X200660000Y-48180000D03*
X200660000Y-50800000D03*
%TD*%
%TO.C,J94*%
X195580000Y-40640000D03*
X195580000Y-43180000D03*
X195580000Y-45640000D03*
X195580000Y-48180000D03*
X195580000Y-50800000D03*
%TD*%
%TO.C,J73*%
X142240000Y-73660000D03*
X142240000Y-76200000D03*
%TD*%
%TO.C,J91*%
X187960000Y-40640000D03*
X187960000Y-43180000D03*
X187960000Y-45640000D03*
X187960000Y-48180000D03*
X187960000Y-50800000D03*
%TD*%
%TO.C,J76*%
X149860000Y-73660000D03*
X149860000Y-76200000D03*
%TD*%
%TO.C,J86*%
X175260000Y-40640000D03*
X175260000Y-43180000D03*
X175260000Y-45640000D03*
X175260000Y-48180000D03*
X175260000Y-50800000D03*
%TD*%
%TO.C,J85*%
X172720000Y-40640000D03*
X172720000Y-43180000D03*
X172720000Y-45640000D03*
X172720000Y-48180000D03*
X172720000Y-50800000D03*
%TD*%
%TO.C,J82*%
X165100000Y-40640000D03*
X165100000Y-43180000D03*
X165100000Y-45640000D03*
X165100000Y-48180000D03*
X165100000Y-50800000D03*
%TD*%
%TO.C,J71*%
X137160000Y-73660000D03*
X137160000Y-76200000D03*
%TD*%
%TO.C,J69*%
X132080000Y-73660000D03*
X132080000Y-76200000D03*
%TD*%
%TO.C,J66*%
X124460000Y-73660000D03*
X124460000Y-76200000D03*
%TD*%
%TO.C,J65*%
X121920000Y-73660000D03*
X121920000Y-76200000D03*
%TD*%
%TO.C,J63*%
X198120000Y-33020000D03*
X198120000Y-35560000D03*
%TD*%
%TO.C,J60*%
X190500000Y-33020000D03*
X190500000Y-35560000D03*
%TD*%
%TO.C,J57*%
X182880000Y-33020000D03*
X182880000Y-35560000D03*
%TD*%
%TO.C,J54*%
X154940000Y-58420000D03*
X154940000Y-60960000D03*
X154940000Y-63420000D03*
X154940000Y-65960000D03*
X154940000Y-68580000D03*
%TD*%
%TO.C,J50*%
X144780000Y-58420000D03*
X144780000Y-60960000D03*
X144780000Y-63420000D03*
X144780000Y-65960000D03*
X144780000Y-68580000D03*
%TD*%
%TO.C,J56*%
X160020000Y-58420000D03*
X160020000Y-60960000D03*
X160020000Y-63420000D03*
X160020000Y-65960000D03*
X160020000Y-68580000D03*
%TD*%
%TO.C,J55*%
X157480000Y-58420000D03*
X157480000Y-60960000D03*
X157480000Y-63420000D03*
X157480000Y-65960000D03*
X157480000Y-68580000D03*
%TD*%
%TO.C,J53*%
X152400000Y-58420000D03*
X152400000Y-60960000D03*
X152400000Y-63420000D03*
X152400000Y-65960000D03*
X152400000Y-68580000D03*
%TD*%
%TO.C,J52*%
X149860000Y-58500000D03*
X149860000Y-61040000D03*
X149860000Y-63500000D03*
X149860000Y-66040000D03*
X149860000Y-68660000D03*
%TD*%
%TO.C,J51*%
X147320000Y-58420000D03*
X147320000Y-60960000D03*
X147320000Y-63420000D03*
X147320000Y-65960000D03*
X147320000Y-68580000D03*
%TD*%
%TO.C,J58*%
X185420000Y-33020000D03*
X185420000Y-35560000D03*
%TD*%
%TO.C,J61*%
X193040000Y-33020000D03*
X193040000Y-35560000D03*
%TD*%
%TO.C,J67*%
X127000000Y-73660000D03*
X127000000Y-76200000D03*
%TD*%
%TO.C,J72*%
X139700000Y-73660000D03*
X139700000Y-76200000D03*
%TD*%
%TO.C,J70*%
X134620000Y-73660000D03*
X134620000Y-76200000D03*
%TD*%
%TO.C,J68*%
X129540000Y-73660000D03*
X129540000Y-76200000D03*
%TD*%
%TO.C,J59*%
X187960000Y-33020000D03*
X187960000Y-35560000D03*
%TD*%
%TO.C,J64*%
X200660000Y-33020000D03*
X200660000Y-35560000D03*
%TD*%
%TO.C,J62*%
X195580000Y-33020000D03*
X195580000Y-35560000D03*
%TD*%
%TO.C,J47*%
X55880000Y-58420000D03*
X55880000Y-60960000D03*
X55880000Y-63420000D03*
X55880000Y-65960000D03*
X55880000Y-68580000D03*
%TD*%
%TO.C,J45*%
X50800000Y-58420000D03*
X50800000Y-60960000D03*
X50800000Y-63420000D03*
X50800000Y-65960000D03*
X50800000Y-68580000D03*
%TD*%
%TO.C,J42*%
X43180000Y-58420000D03*
X43180000Y-60960000D03*
X43180000Y-63420000D03*
X43180000Y-65960000D03*
X43180000Y-68580000D03*
%TD*%
%TO.C,J39*%
X96520000Y-33020000D03*
X96520000Y-35560000D03*
%TD*%
%TO.C,J35*%
X86360000Y-33020000D03*
X86360000Y-35560000D03*
%TD*%
%TO.C,J29*%
X71120000Y-33020000D03*
X71120000Y-35560000D03*
%TD*%
%TO.C,J37*%
X91440000Y-33020000D03*
X91440000Y-35560000D03*
%TD*%
%TO.C,J34*%
X83820000Y-33020000D03*
X83820000Y-35560000D03*
%TD*%
%TO.C,J33*%
X81280000Y-33020000D03*
X81280000Y-35560000D03*
%TD*%
%TO.C,J31*%
X76200000Y-33020000D03*
X76200000Y-35560000D03*
%TD*%
%TO.C,J32*%
X78740000Y-33020000D03*
X78740000Y-35560000D03*
%TD*%
%TO.C,J40*%
X99060000Y-33020000D03*
X99060000Y-35560000D03*
%TD*%
%TO.C,J38*%
X93980000Y-33020000D03*
X93980000Y-35560000D03*
%TD*%
%TO.C,J49*%
X60960000Y-58420000D03*
X60960000Y-60960000D03*
X60960000Y-63420000D03*
X60960000Y-65960000D03*
X60960000Y-68580000D03*
%TD*%
%TO.C,J36*%
X88900000Y-33020000D03*
X88900000Y-35560000D03*
%TD*%
%TO.C,J30*%
X73660000Y-33020000D03*
X73660000Y-35560000D03*
%TD*%
%TO.C,J44*%
X48260000Y-58420000D03*
X48260000Y-60960000D03*
X48260000Y-63420000D03*
X48260000Y-65960000D03*
X48260000Y-68580000D03*
%TD*%
%TO.C,J41*%
X40640000Y-58420000D03*
X40640000Y-60960000D03*
X40640000Y-63420000D03*
X40640000Y-65960000D03*
X40640000Y-68580000D03*
%TD*%
%TO.C,J26*%
X73660000Y-40640000D03*
X73660000Y-43180000D03*
X73660000Y-45640000D03*
X73660000Y-48180000D03*
X73660000Y-50800000D03*
%TD*%
%TO.C,J22*%
X63500000Y-40640000D03*
X63500000Y-43180000D03*
X63500000Y-45640000D03*
X63500000Y-48180000D03*
X63500000Y-50800000D03*
%TD*%
%TO.C,J15*%
X58420000Y-40640000D03*
X58420000Y-43180000D03*
X58420000Y-45640000D03*
X58420000Y-48180000D03*
X58420000Y-50800000D03*
%TD*%
%TO.C,J16*%
X58420000Y-33020000D03*
X58420000Y-35560000D03*
%TD*%
%TO.C,J12*%
X53340000Y-33020000D03*
X53340000Y-35560000D03*
%TD*%
%TO.C,J21*%
X60960000Y-40640000D03*
X60960000Y-43180000D03*
X60960000Y-45640000D03*
X60960000Y-48180000D03*
X60960000Y-50800000D03*
%TD*%
%TO.C,J11*%
X53340000Y-40640000D03*
X53340000Y-43180000D03*
X53340000Y-45640000D03*
X53340000Y-48180000D03*
X53340000Y-50800000D03*
%TD*%
%TO.C,J14*%
X55880000Y-40640000D03*
X55880000Y-43180000D03*
X55880000Y-45640000D03*
X55880000Y-48180000D03*
X55880000Y-50800000D03*
%TD*%
%TO.C,J18*%
X63360000Y-33020000D03*
X63360000Y-35560000D03*
%TD*%
%TO.C,J13*%
X55880000Y-33020000D03*
X55880000Y-35560000D03*
%TD*%
%TO.C,J25*%
X71120000Y-40640000D03*
X71120000Y-43180000D03*
X71120000Y-45640000D03*
X71120000Y-48180000D03*
X71120000Y-50800000D03*
%TD*%
%TO.C,J17*%
X60820000Y-33020000D03*
X60820000Y-35560000D03*
%TD*%
%TO.C,J23*%
X66040000Y-40640000D03*
X66040000Y-43180000D03*
X66040000Y-45640000D03*
X66040000Y-48180000D03*
X66040000Y-50800000D03*
%TD*%
%TO.C,J19*%
X65900000Y-33020000D03*
X65900000Y-35560000D03*
%TD*%
%TO.C,J20*%
X68580000Y-33020000D03*
X68580000Y-35560000D03*
%TD*%
%TO.C,J24*%
X68580000Y-40720000D03*
X68580000Y-43260000D03*
X68580000Y-45720000D03*
X68580000Y-48260000D03*
X68580000Y-50880000D03*
%TD*%
%TO.C,J28*%
X78740000Y-40640000D03*
X78740000Y-43180000D03*
X78740000Y-45640000D03*
X78740000Y-48180000D03*
X78740000Y-50800000D03*
%TD*%
%TO.C,J9*%
X50800000Y-33020000D03*
X50800000Y-35560000D03*
%TD*%
%TO.C,J8*%
X48260000Y-33020000D03*
X48260000Y-35560000D03*
%TD*%
%TO.C,J6*%
X45720000Y-40640000D03*
X45720000Y-43180000D03*
X45720000Y-45640000D03*
X45720000Y-48180000D03*
X45720000Y-50800000D03*
%TD*%
%TO.C,J5*%
X45720000Y-33020000D03*
X45720000Y-35560000D03*
%TD*%
%TO.C,J2*%
X43180000Y-40640000D03*
X43180000Y-43180000D03*
X43180000Y-45640000D03*
X43180000Y-48180000D03*
X43180000Y-50800000D03*
%TD*%
%TO.C,J1*%
X40640000Y-40640000D03*
X40640000Y-43180000D03*
X40640000Y-45640000D03*
X40640000Y-48180000D03*
X40640000Y-50800000D03*
%TD*%
%TO.C,J7*%
X48260000Y-40640000D03*
X48260000Y-43180000D03*
X48260000Y-45640000D03*
X48260000Y-48180000D03*
X48260000Y-50800000D03*
%TD*%
%TO.C,J10*%
X50800000Y-40640000D03*
X50800000Y-43180000D03*
X50800000Y-45640000D03*
X50800000Y-48180000D03*
X50800000Y-50800000D03*
%TD*%
%TO.C,J4*%
X43180000Y-33020000D03*
X43180000Y-35560000D03*
%TD*%
%TO.C,J126*%
X114300000Y-73660000D03*
X114300000Y-76200000D03*
%TD*%
%TO.C,J128*%
X119380000Y-73660000D03*
X119380000Y-76200000D03*
%TD*%
%TO.C,J43*%
X45720000Y-58420000D03*
X45720000Y-60960000D03*
X45720000Y-63420000D03*
X45720000Y-65960000D03*
X45720000Y-68580000D03*
%TD*%
%TO.C,J125*%
X111760000Y-73660000D03*
X111760000Y-76200000D03*
%TD*%
%TO.C,J116*%
X88900000Y-73660000D03*
X88900000Y-76200000D03*
%TD*%
%TO.C,J123*%
X106680000Y-73660000D03*
X106680000Y-76200000D03*
%TD*%
%TO.C,J117*%
X91440000Y-73660000D03*
X91440000Y-76200000D03*
%TD*%
%TO.C,J119*%
X96520000Y-73660000D03*
X96520000Y-76200000D03*
%TD*%
%TO.C,J115*%
X86360000Y-73660000D03*
X86360000Y-76200000D03*
%TD*%
%TO.C,J114*%
X83820000Y-73660000D03*
X83820000Y-76200000D03*
%TD*%
%TO.C,J118*%
X93980000Y-73660000D03*
X93980000Y-76200000D03*
%TD*%
%TO.C,J127*%
X116840000Y-73660000D03*
X116840000Y-76200000D03*
%TD*%
%TO.C,J110*%
X114300000Y-58420000D03*
X114300000Y-60960000D03*
X114300000Y-63420000D03*
X114300000Y-65960000D03*
X114300000Y-68580000D03*
%TD*%
%TO.C,J103*%
X96520000Y-58420000D03*
X96520000Y-60960000D03*
X96520000Y-63420000D03*
X96520000Y-65960000D03*
X96520000Y-68580000D03*
%TD*%
%TO.C,J99*%
X86360000Y-58420000D03*
X86360000Y-60960000D03*
X86360000Y-63420000D03*
X86360000Y-65960000D03*
X86360000Y-68580000D03*
%TD*%
%TO.C,J102*%
X93980000Y-58420000D03*
X93980000Y-60960000D03*
X93980000Y-63420000D03*
X93980000Y-65960000D03*
X93980000Y-68580000D03*
%TD*%
%TO.C,J105*%
X101600000Y-58420000D03*
X101600000Y-60960000D03*
X101600000Y-63420000D03*
X101600000Y-65960000D03*
X101600000Y-68580000D03*
%TD*%
%TO.C,J101*%
X91440000Y-58420000D03*
X91440000Y-60960000D03*
X91440000Y-63420000D03*
X91440000Y-65960000D03*
X91440000Y-68580000D03*
%TD*%
%TO.C,J97*%
X81280000Y-58420000D03*
X81280000Y-60960000D03*
X81280000Y-63420000D03*
X81280000Y-65960000D03*
X81280000Y-68580000D03*
%TD*%
%TO.C,J93*%
X111760000Y-40640000D03*
X111760000Y-43180000D03*
X111760000Y-45640000D03*
X111760000Y-48180000D03*
X111760000Y-50800000D03*
%TD*%
%TO.C,J90*%
X104140000Y-40640000D03*
X104140000Y-43180000D03*
X104140000Y-45640000D03*
X104140000Y-48180000D03*
X104140000Y-50800000D03*
%TD*%
%TO.C,J89*%
X101600000Y-40640000D03*
X101600000Y-43180000D03*
X101600000Y-45640000D03*
X101600000Y-48180000D03*
X101600000Y-50800000D03*
%TD*%
%TO.C,J88*%
X99060000Y-40640000D03*
X99060000Y-43180000D03*
X99060000Y-45640000D03*
X99060000Y-48180000D03*
X99060000Y-50800000D03*
%TD*%
%TO.C,J83*%
X86360000Y-40640000D03*
X86360000Y-43180000D03*
X86360000Y-45640000D03*
X86360000Y-48180000D03*
X86360000Y-50800000D03*
%TD*%
%TO.C,J75*%
X66040000Y-73660000D03*
X66040000Y-76200000D03*
%TD*%
%TO.C,J79*%
X76200000Y-73660000D03*
X76200000Y-76200000D03*
%TD*%
%TO.C,J84*%
X88900000Y-40640000D03*
X88900000Y-43180000D03*
X88900000Y-45640000D03*
X88900000Y-48180000D03*
X88900000Y-50800000D03*
%TD*%
%TO.C,J122*%
X104140000Y-73660000D03*
X104140000Y-76200000D03*
%TD*%
%TO.C,J80*%
X78740000Y-73660000D03*
X78740000Y-76200000D03*
%TD*%
%TO.C,J74*%
X63500000Y-73660000D03*
X63500000Y-76200000D03*
%TD*%
%TO.C,J108*%
X109220000Y-58420000D03*
X109220000Y-60960000D03*
X109220000Y-63420000D03*
X109220000Y-65960000D03*
X109220000Y-68580000D03*
%TD*%
%TO.C,J78*%
X73660000Y-73660000D03*
X73660000Y-76200000D03*
%TD*%
%TO.C,J98*%
X83820000Y-58420000D03*
X83820000Y-60960000D03*
X83820000Y-63420000D03*
X83820000Y-65960000D03*
X83820000Y-68580000D03*
%TD*%
%TO.C,J48*%
X58420000Y-58420000D03*
X58420000Y-60960000D03*
X58420000Y-63420000D03*
X58420000Y-65960000D03*
X58420000Y-68580000D03*
%TD*%
%TO.C,J113*%
X81280000Y-73660000D03*
X81280000Y-76200000D03*
%TD*%
%TO.C,J96*%
X119380000Y-40640000D03*
X119380000Y-43180000D03*
X119380000Y-45640000D03*
X119380000Y-48180000D03*
X119380000Y-50800000D03*
%TD*%
%TO.C,J120*%
X99060000Y-73660000D03*
X99060000Y-76200000D03*
%TD*%
%TO.C,J94*%
X114300000Y-40640000D03*
X114300000Y-43180000D03*
X114300000Y-45640000D03*
X114300000Y-48180000D03*
X114300000Y-50800000D03*
%TD*%
%TO.C,J111*%
X116840000Y-58420000D03*
X116840000Y-60960000D03*
X116840000Y-63420000D03*
X116840000Y-65960000D03*
X116840000Y-68580000D03*
%TD*%
%TO.C,J73*%
X60960000Y-73660000D03*
X60960000Y-76200000D03*
%TD*%
%TO.C,J91*%
X106680000Y-40640000D03*
X106680000Y-43180000D03*
X106680000Y-45640000D03*
X106680000Y-48180000D03*
X106680000Y-50800000D03*
%TD*%
%TO.C,J124*%
X109220000Y-73660000D03*
X109220000Y-76200000D03*
%TD*%
%TO.C,J104*%
X99060000Y-58420000D03*
X99060000Y-60960000D03*
X99060000Y-63420000D03*
X99060000Y-65960000D03*
X99060000Y-68580000D03*
%TD*%
%TO.C,J76*%
X68580000Y-73660000D03*
X68580000Y-76200000D03*
%TD*%
%TO.C,J86*%
X93980000Y-40640000D03*
X93980000Y-43180000D03*
X93980000Y-45640000D03*
X93980000Y-48180000D03*
X93980000Y-50800000D03*
%TD*%
%TO.C,J95*%
X116840000Y-40640000D03*
X116840000Y-43180000D03*
X116840000Y-45640000D03*
X116840000Y-48180000D03*
X116840000Y-50800000D03*
%TD*%
%TO.C,J85*%
X91440000Y-40640000D03*
X91440000Y-43180000D03*
X91440000Y-45640000D03*
X91440000Y-48180000D03*
X91440000Y-50800000D03*
%TD*%
%TO.C,J82*%
X83820000Y-40640000D03*
X83820000Y-43180000D03*
X83820000Y-45640000D03*
X83820000Y-48180000D03*
X83820000Y-50800000D03*
%TD*%
%TO.C,J77*%
X71120000Y-73660000D03*
X71120000Y-76200000D03*
%TD*%
%TO.C,J3*%
X40640000Y-33020000D03*
X40640000Y-35560000D03*
%TD*%
%TO.C,J71*%
X55880000Y-73660000D03*
X55880000Y-76200000D03*
%TD*%
%TO.C,J109*%
X111760000Y-58420000D03*
X111760000Y-60960000D03*
X111760000Y-63420000D03*
X111760000Y-65960000D03*
X111760000Y-68580000D03*
%TD*%
%TO.C,J69*%
X50800000Y-73660000D03*
X50800000Y-76200000D03*
%TD*%
%TO.C,J66*%
X43180000Y-73660000D03*
X43180000Y-76200000D03*
%TD*%
%TO.C,J65*%
X40640000Y-73660000D03*
X40640000Y-76200000D03*
%TD*%
%TO.C,J27*%
X76200000Y-40640000D03*
X76200000Y-43180000D03*
X76200000Y-45640000D03*
X76200000Y-48180000D03*
X76200000Y-50800000D03*
%TD*%
%TO.C,J63*%
X116840000Y-33020000D03*
X116840000Y-35560000D03*
%TD*%
%TO.C,J92*%
X109220000Y-40640000D03*
X109220000Y-43180000D03*
X109220000Y-45640000D03*
X109220000Y-48180000D03*
X109220000Y-50800000D03*
%TD*%
%TO.C,J60*%
X109220000Y-33020000D03*
X109220000Y-35560000D03*
%TD*%
%TO.C,J57*%
X101600000Y-33020000D03*
X101600000Y-35560000D03*
%TD*%
%TO.C,J54*%
X73660000Y-58420000D03*
X73660000Y-60960000D03*
X73660000Y-63420000D03*
X73660000Y-65960000D03*
X73660000Y-68580000D03*
%TD*%
%TO.C,J112*%
X119380000Y-58420000D03*
X119380000Y-60960000D03*
X119380000Y-63420000D03*
X119380000Y-65960000D03*
X119380000Y-68580000D03*
%TD*%
%TO.C,J50*%
X63500000Y-58420000D03*
X63500000Y-60960000D03*
X63500000Y-63420000D03*
X63500000Y-65960000D03*
X63500000Y-68580000D03*
%TD*%
%TO.C,J56*%
X78740000Y-58420000D03*
X78740000Y-60960000D03*
X78740000Y-63420000D03*
X78740000Y-65960000D03*
X78740000Y-68580000D03*
%TD*%
%TO.C,J55*%
X76200000Y-58420000D03*
X76200000Y-60960000D03*
X76200000Y-63420000D03*
X76200000Y-65960000D03*
X76200000Y-68580000D03*
%TD*%
%TO.C,J53*%
X71120000Y-58420000D03*
X71120000Y-60960000D03*
X71120000Y-63420000D03*
X71120000Y-65960000D03*
X71120000Y-68580000D03*
%TD*%
%TO.C,J107*%
X106680000Y-58420000D03*
X106680000Y-60960000D03*
X106680000Y-63420000D03*
X106680000Y-65960000D03*
X106680000Y-68580000D03*
%TD*%
%TO.C,J52*%
X68580000Y-58500000D03*
X68580000Y-61040000D03*
X68580000Y-63500000D03*
X68580000Y-66040000D03*
X68580000Y-68660000D03*
%TD*%
%TO.C,J81*%
X81280000Y-40640000D03*
X81280000Y-43180000D03*
X81280000Y-45640000D03*
X81280000Y-48180000D03*
X81280000Y-50800000D03*
%TD*%
%TO.C,J106*%
X104140000Y-58420000D03*
X104140000Y-60960000D03*
X104140000Y-63420000D03*
X104140000Y-65960000D03*
X104140000Y-68580000D03*
%TD*%
%TO.C,J51*%
X66040000Y-58420000D03*
X66040000Y-60960000D03*
X66040000Y-63420000D03*
X66040000Y-65960000D03*
X66040000Y-68580000D03*
%TD*%
%TO.C,J46*%
X53340000Y-58420000D03*
X53340000Y-60960000D03*
X53340000Y-63420000D03*
X53340000Y-65960000D03*
X53340000Y-68580000D03*
%TD*%
%TO.C,J87*%
X96520000Y-40640000D03*
X96520000Y-43180000D03*
X96520000Y-45640000D03*
X96520000Y-48180000D03*
X96520000Y-50800000D03*
%TD*%
%TO.C,J58*%
X104140000Y-33020000D03*
X104140000Y-35560000D03*
%TD*%
%TO.C,J61*%
X111760000Y-33020000D03*
X111760000Y-35560000D03*
%TD*%
%TO.C,J121*%
X101600000Y-73660000D03*
X101600000Y-76200000D03*
%TD*%
%TO.C,J67*%
X45720000Y-73660000D03*
X45720000Y-76200000D03*
%TD*%
%TO.C,J72*%
X58420000Y-73660000D03*
X58420000Y-76200000D03*
%TD*%
%TO.C,J70*%
X53340000Y-73660000D03*
X53340000Y-76200000D03*
%TD*%
%TO.C,J100*%
X88900000Y-58420000D03*
X88900000Y-60960000D03*
X88900000Y-63420000D03*
X88900000Y-65960000D03*
X88900000Y-68580000D03*
%TD*%
%TO.C,J68*%
X48260000Y-73660000D03*
X48260000Y-76200000D03*
%TD*%
%TO.C,J59*%
X106680000Y-33020000D03*
X106680000Y-35560000D03*
%TD*%
%TO.C,J64*%
X119380000Y-33020000D03*
X119380000Y-35560000D03*
%TD*%
%TO.C,J62*%
X114300000Y-33020000D03*
X114300000Y-35560000D03*
%TD*%
M02*
