%TF.GenerationSoftware,KiCad,Pcbnew,8.0.5*%
%TF.CreationDate,2024-10-04T16:18:13+02:00*%
%TF.ProjectId,Solderable_breadboard,536f6c64-6572-4616-926c-655f62726561,rev?*%
%TF.SameCoordinates,Original*%
%TF.FileFunction,Soldermask,Bot*%
%TF.FilePolarity,Negative*%
%FSLAX46Y46*%
G04 Gerber Fmt 4.6, Leading zero omitted, Abs format (unit mm)*
G04 Created by KiCad (PCBNEW 8.0.5) date 2024-10-04 16:18:13*
%MOMM*%
%LPD*%
G01*
G04 APERTURE LIST*
%ADD10C,0.381000*%
%ADD11O,1.700000X1.700000*%
G04 APERTURE END LIST*
D10*
%TO.C,REF\u002A\u002A*%
X203200000Y-96520000D03*
X205740000Y-96520000D03*
X203200000Y-95885000D03*
X205740000Y-95885000D03*
X203200000Y-95250000D03*
X205740000Y-95250000D03*
X203200000Y-94615000D03*
X205740000Y-94615000D03*
X203200000Y-93980000D03*
X205740000Y-93980000D03*
X203200000Y-93345000D03*
X205740000Y-93345000D03*
X203200000Y-92710000D03*
X205740000Y-92710000D03*
X203200000Y-92075000D03*
X205740000Y-92075000D03*
X203200000Y-91440000D03*
X205740000Y-91440000D03*
X203200000Y-90805000D03*
X205740000Y-90805000D03*
X203200000Y-90170000D03*
X205740000Y-90170000D03*
X203200000Y-89535000D03*
X205740000Y-89535000D03*
X203200000Y-88900000D03*
X205740000Y-88900000D03*
%TD*%
%TO.C,REF\u002A\u002A*%
X203200000Y-121920000D03*
X205740000Y-121920000D03*
X203200000Y-121285000D03*
X205740000Y-121285000D03*
X203200000Y-120650000D03*
X205740000Y-120650000D03*
X203200000Y-120015000D03*
X205740000Y-120015000D03*
X203200000Y-119380000D03*
X205740000Y-119380000D03*
X203200000Y-118745000D03*
X205740000Y-118745000D03*
X203200000Y-118110000D03*
X205740000Y-118110000D03*
X203200000Y-117475000D03*
X205740000Y-117475000D03*
X203200000Y-116840000D03*
X205740000Y-116840000D03*
X203200000Y-116205000D03*
X205740000Y-116205000D03*
X203200000Y-115570000D03*
X205740000Y-115570000D03*
X203200000Y-114935000D03*
X205740000Y-114935000D03*
X203200000Y-114300000D03*
X205740000Y-114300000D03*
%TD*%
%TO.C,REF\u002A\u002A*%
X353060000Y-78740000D03*
X353060000Y-81280000D03*
X353695000Y-78740000D03*
X353695000Y-81280000D03*
X354330000Y-78740000D03*
X354330000Y-81280000D03*
X354965000Y-78740000D03*
X354965000Y-81280000D03*
X355600000Y-78740000D03*
X355600000Y-81280000D03*
X356235000Y-78740000D03*
X356235000Y-81280000D03*
X356870000Y-78740000D03*
X356870000Y-81280000D03*
X357505000Y-78740000D03*
X357505000Y-81280000D03*
X358140000Y-78740000D03*
X358140000Y-81280000D03*
X358775000Y-78740000D03*
X358775000Y-81280000D03*
X359410000Y-78740000D03*
X359410000Y-81280000D03*
X360045000Y-78740000D03*
X360045000Y-81280000D03*
X360680000Y-78740000D03*
X360680000Y-81280000D03*
%TD*%
%TO.C,REF\u002A\u002A*%
X312420000Y-78740000D03*
X312420000Y-81280000D03*
X313055000Y-78740000D03*
X313055000Y-81280000D03*
X313690000Y-78740000D03*
X313690000Y-81280000D03*
X314325000Y-78740000D03*
X314325000Y-81280000D03*
X314960000Y-78740000D03*
X314960000Y-81280000D03*
X315595000Y-78740000D03*
X315595000Y-81280000D03*
X316230000Y-78740000D03*
X316230000Y-81280000D03*
X316865000Y-78740000D03*
X316865000Y-81280000D03*
X317500000Y-78740000D03*
X317500000Y-81280000D03*
X318135000Y-78740000D03*
X318135000Y-81280000D03*
X318770000Y-78740000D03*
X318770000Y-81280000D03*
X319405000Y-78740000D03*
X319405000Y-81280000D03*
X320040000Y-78740000D03*
X320040000Y-81280000D03*
%TD*%
%TO.C,REF\u002A\u002A*%
X218440000Y-78740000D03*
X218440000Y-81280000D03*
X219075000Y-78740000D03*
X219075000Y-81280000D03*
X219710000Y-78740000D03*
X219710000Y-81280000D03*
X220345000Y-78740000D03*
X220345000Y-81280000D03*
X220980000Y-78740000D03*
X220980000Y-81280000D03*
X221615000Y-78740000D03*
X221615000Y-81280000D03*
X222250000Y-78740000D03*
X222250000Y-81280000D03*
X222885000Y-78740000D03*
X222885000Y-81280000D03*
X223520000Y-78740000D03*
X223520000Y-81280000D03*
X224155000Y-78740000D03*
X224155000Y-81280000D03*
X224790000Y-78740000D03*
X224790000Y-81280000D03*
X225425000Y-78740000D03*
X225425000Y-81280000D03*
X226060000Y-78740000D03*
X226060000Y-81280000D03*
%TD*%
%TO.C,REF\u002A\u002A*%
X259080000Y-78740000D03*
X259080000Y-81280000D03*
X259715000Y-78740000D03*
X259715000Y-81280000D03*
X260350000Y-78740000D03*
X260350000Y-81280000D03*
X260985000Y-78740000D03*
X260985000Y-81280000D03*
X261620000Y-78740000D03*
X261620000Y-81280000D03*
X262255000Y-78740000D03*
X262255000Y-81280000D03*
X262890000Y-78740000D03*
X262890000Y-81280000D03*
X263525000Y-78740000D03*
X263525000Y-81280000D03*
X264160000Y-78740000D03*
X264160000Y-81280000D03*
X264795000Y-78740000D03*
X264795000Y-81280000D03*
X265430000Y-78740000D03*
X265430000Y-81280000D03*
X266065000Y-78740000D03*
X266065000Y-81280000D03*
X266700000Y-78740000D03*
X266700000Y-81280000D03*
%TD*%
%TO.C,REF\u002A\u002A*%
X144780000Y-78740000D03*
X144780000Y-81280000D03*
X145415000Y-78740000D03*
X145415000Y-81280000D03*
X146050000Y-78740000D03*
X146050000Y-81280000D03*
X146685000Y-78740000D03*
X146685000Y-81280000D03*
X147320000Y-78740000D03*
X147320000Y-81280000D03*
X147955000Y-78740000D03*
X147955000Y-81280000D03*
X148590000Y-78740000D03*
X148590000Y-81280000D03*
X149225000Y-78740000D03*
X149225000Y-81280000D03*
X149860000Y-78740000D03*
X149860000Y-81280000D03*
X150495000Y-78740000D03*
X150495000Y-81280000D03*
X151130000Y-78740000D03*
X151130000Y-81280000D03*
X151765000Y-78740000D03*
X151765000Y-81280000D03*
X152400000Y-78740000D03*
X152400000Y-81280000D03*
%TD*%
%TO.C,REF\u002A\u002A*%
X91440000Y-78740000D03*
X91440000Y-81280000D03*
X92075000Y-78740000D03*
X92075000Y-81280000D03*
X92710000Y-78740000D03*
X92710000Y-81280000D03*
X93345000Y-78740000D03*
X93345000Y-81280000D03*
X93980000Y-78740000D03*
X93980000Y-81280000D03*
X94615000Y-78740000D03*
X94615000Y-81280000D03*
X95250000Y-78740000D03*
X95250000Y-81280000D03*
X95885000Y-78740000D03*
X95885000Y-81280000D03*
X96520000Y-78740000D03*
X96520000Y-81280000D03*
X97155000Y-78740000D03*
X97155000Y-81280000D03*
X97790000Y-78740000D03*
X97790000Y-81280000D03*
X98425000Y-78740000D03*
X98425000Y-81280000D03*
X99060000Y-78740000D03*
X99060000Y-81280000D03*
%TD*%
%TO.C,REF\u002A\u002A*%
X50800000Y-78740000D03*
X50800000Y-81280000D03*
X51435000Y-78740000D03*
X51435000Y-81280000D03*
X52070000Y-78740000D03*
X52070000Y-81280000D03*
X52705000Y-78740000D03*
X52705000Y-81280000D03*
X53340000Y-78740000D03*
X53340000Y-81280000D03*
X53975000Y-78740000D03*
X53975000Y-81280000D03*
X54610000Y-78740000D03*
X54610000Y-81280000D03*
X55245000Y-78740000D03*
X55245000Y-81280000D03*
X55880000Y-78740000D03*
X55880000Y-81280000D03*
X56515000Y-78740000D03*
X56515000Y-81280000D03*
X57150000Y-78740000D03*
X57150000Y-81280000D03*
X57785000Y-78740000D03*
X57785000Y-81280000D03*
X58420000Y-78740000D03*
X58420000Y-81280000D03*
%TD*%
%TO.C,REF\u002A\u002A*%
X203200000Y-71120000D03*
X205740000Y-71120000D03*
X203200000Y-70485000D03*
X205740000Y-70485000D03*
X203200000Y-69850000D03*
X205740000Y-69850000D03*
X203200000Y-69215000D03*
X205740000Y-69215000D03*
X203200000Y-68580000D03*
X205740000Y-68580000D03*
X203200000Y-67945000D03*
X205740000Y-67945000D03*
X203200000Y-67310000D03*
X205740000Y-67310000D03*
X203200000Y-66675000D03*
X205740000Y-66675000D03*
X203200000Y-66040000D03*
X205740000Y-66040000D03*
X203200000Y-65405000D03*
X205740000Y-65405000D03*
X203200000Y-64770000D03*
X205740000Y-64770000D03*
X203200000Y-64135000D03*
X205740000Y-64135000D03*
X203200000Y-63500000D03*
X205740000Y-63500000D03*
%TD*%
%TO.C,REF\u002A\u002A*%
X203200000Y-45720000D03*
X205740000Y-45720000D03*
X203200000Y-45085000D03*
X205740000Y-45085000D03*
X203200000Y-44450000D03*
X205740000Y-44450000D03*
X203200000Y-43815000D03*
X205740000Y-43815000D03*
X203200000Y-43180000D03*
X205740000Y-43180000D03*
X203200000Y-42545000D03*
X205740000Y-42545000D03*
X203200000Y-41910000D03*
X205740000Y-41910000D03*
X203200000Y-41275000D03*
X205740000Y-41275000D03*
X203200000Y-40640000D03*
X205740000Y-40640000D03*
X203200000Y-40005000D03*
X205740000Y-40005000D03*
X203200000Y-39370000D03*
X205740000Y-39370000D03*
X203200000Y-38735000D03*
X205740000Y-38735000D03*
X203200000Y-38100000D03*
X205740000Y-38100000D03*
%TD*%
%TO.C,REF\u002A\u002A*%
X185420000Y-78740000D03*
X185420000Y-81280000D03*
X186055000Y-78740000D03*
X186055000Y-81280000D03*
X186690000Y-78740000D03*
X186690000Y-81280000D03*
X187325000Y-78740000D03*
X187325000Y-81280000D03*
X187960000Y-78740000D03*
X187960000Y-81280000D03*
X188595000Y-78740000D03*
X188595000Y-81280000D03*
X189230000Y-78740000D03*
X189230000Y-81280000D03*
X189865000Y-78740000D03*
X189865000Y-81280000D03*
X190500000Y-78740000D03*
X190500000Y-81280000D03*
X191135000Y-78740000D03*
X191135000Y-81280000D03*
X191770000Y-78740000D03*
X191770000Y-81280000D03*
X192405000Y-78740000D03*
X192405000Y-81280000D03*
X193040000Y-78740000D03*
X193040000Y-81280000D03*
%TD*%
D11*
%TO.C,J41*%
X289560000Y-109220000D03*
X289560000Y-111760000D03*
X289560000Y-114220000D03*
X289560000Y-116760000D03*
X289560000Y-119380000D03*
%TD*%
%TO.C,J15*%
X307340000Y-91440000D03*
X307340000Y-93980000D03*
X307340000Y-96440000D03*
X307340000Y-98980000D03*
X307340000Y-101600000D03*
%TD*%
%TO.C,J89*%
X269240000Y-91440000D03*
X269240000Y-93980000D03*
X269240000Y-96440000D03*
X269240000Y-98980000D03*
X269240000Y-101600000D03*
%TD*%
%TO.C,J20*%
X317500000Y-83820000D03*
X317500000Y-86360000D03*
%TD*%
%TO.C,J103*%
X264160000Y-109220000D03*
X264160000Y-111760000D03*
X264160000Y-114220000D03*
X264160000Y-116760000D03*
X264160000Y-119380000D03*
%TD*%
%TO.C,J21*%
X309880000Y-91440000D03*
X309880000Y-93980000D03*
X309880000Y-96440000D03*
X309880000Y-98980000D03*
X309880000Y-101600000D03*
%TD*%
%TO.C,J26*%
X322580000Y-91440000D03*
X322580000Y-93980000D03*
X322580000Y-96440000D03*
X322580000Y-98980000D03*
X322580000Y-101600000D03*
%TD*%
%TO.C,J49*%
X309880000Y-109220000D03*
X309880000Y-111760000D03*
X309880000Y-114220000D03*
X309880000Y-116760000D03*
X309880000Y-119380000D03*
%TD*%
%TO.C,J19*%
X314820000Y-83820000D03*
X314820000Y-86360000D03*
%TD*%
%TO.C,J27*%
X325120000Y-91440000D03*
X325120000Y-93980000D03*
X325120000Y-96440000D03*
X325120000Y-98980000D03*
X325120000Y-101600000D03*
%TD*%
%TO.C,J17*%
X309740000Y-83820000D03*
X309740000Y-86360000D03*
%TD*%
%TO.C,J102*%
X261620000Y-109220000D03*
X261620000Y-111760000D03*
X261620000Y-114220000D03*
X261620000Y-116760000D03*
X261620000Y-119380000D03*
%TD*%
%TO.C,J99*%
X254000000Y-109220000D03*
X254000000Y-111760000D03*
X254000000Y-114220000D03*
X254000000Y-116760000D03*
X254000000Y-119380000D03*
%TD*%
%TO.C,J32*%
X327660000Y-83820000D03*
X327660000Y-86360000D03*
%TD*%
%TO.C,J78*%
X241300000Y-124460000D03*
X241300000Y-127000000D03*
%TD*%
%TO.C,J16*%
X307340000Y-83820000D03*
X307340000Y-86360000D03*
%TD*%
%TO.C,J101*%
X259080000Y-109220000D03*
X259080000Y-111760000D03*
X259080000Y-114220000D03*
X259080000Y-116760000D03*
X259080000Y-119380000D03*
%TD*%
%TO.C,J84*%
X256540000Y-91440000D03*
X256540000Y-93980000D03*
X256540000Y-96440000D03*
X256540000Y-98980000D03*
X256540000Y-101600000D03*
%TD*%
%TO.C,J14*%
X304800000Y-91440000D03*
X304800000Y-93980000D03*
X304800000Y-96440000D03*
X304800000Y-98980000D03*
X304800000Y-101600000D03*
%TD*%
%TO.C,J105*%
X269240000Y-109220000D03*
X269240000Y-111760000D03*
X269240000Y-114220000D03*
X269240000Y-116760000D03*
X269240000Y-119380000D03*
%TD*%
%TO.C,J61*%
X360680000Y-83820000D03*
X360680000Y-86360000D03*
%TD*%
%TO.C,J108*%
X276860000Y-109220000D03*
X276860000Y-111760000D03*
X276860000Y-114220000D03*
X276860000Y-116760000D03*
X276860000Y-119380000D03*
%TD*%
%TO.C,J75*%
X233680000Y-124460000D03*
X233680000Y-127000000D03*
%TD*%
%TO.C,J74*%
X231140000Y-124460000D03*
X231140000Y-127000000D03*
%TD*%
%TO.C,J80*%
X246380000Y-124460000D03*
X246380000Y-127000000D03*
%TD*%
%TO.C,J97*%
X248920000Y-109220000D03*
X248920000Y-111760000D03*
X248920000Y-114220000D03*
X248920000Y-116760000D03*
X248920000Y-119380000D03*
%TD*%
%TO.C,J67*%
X294640000Y-124460000D03*
X294640000Y-127000000D03*
%TD*%
%TO.C,J2*%
X292100000Y-91440000D03*
X292100000Y-93980000D03*
X292100000Y-96440000D03*
X292100000Y-98980000D03*
X292100000Y-101600000D03*
%TD*%
%TO.C,J13*%
X304800000Y-83820000D03*
X304800000Y-86360000D03*
%TD*%
%TO.C,J5*%
X294640000Y-83820000D03*
X294640000Y-86360000D03*
%TD*%
%TO.C,J28*%
X327660000Y-91440000D03*
X327660000Y-93980000D03*
X327660000Y-96440000D03*
X327660000Y-98980000D03*
X327660000Y-101600000D03*
%TD*%
%TO.C,J7*%
X297180000Y-91440000D03*
X297180000Y-93980000D03*
X297180000Y-96440000D03*
X297180000Y-98980000D03*
X297180000Y-101600000D03*
%TD*%
%TO.C,J120*%
X347980000Y-124460000D03*
X347980000Y-127000000D03*
%TD*%
%TO.C,J112*%
X368300000Y-109220000D03*
X368300000Y-111760000D03*
X368300000Y-114220000D03*
X368300000Y-116760000D03*
X368300000Y-119380000D03*
%TD*%
%TO.C,J9*%
X299720000Y-83820000D03*
X299720000Y-86360000D03*
%TD*%
%TO.C,J128*%
X368300000Y-124460000D03*
X368300000Y-127000000D03*
%TD*%
%TO.C,J124*%
X358140000Y-124460000D03*
X358140000Y-127000000D03*
%TD*%
%TO.C,J24*%
X317500000Y-91520000D03*
X317500000Y-94060000D03*
X317500000Y-96520000D03*
X317500000Y-99060000D03*
X317500000Y-101680000D03*
%TD*%
%TO.C,J102*%
X342900000Y-109220000D03*
X342900000Y-111760000D03*
X342900000Y-114220000D03*
X342900000Y-116760000D03*
X342900000Y-119380000D03*
%TD*%
%TO.C,J8*%
X297180000Y-83820000D03*
X297180000Y-86360000D03*
%TD*%
%TO.C,J6*%
X294640000Y-91440000D03*
X294640000Y-93980000D03*
X294640000Y-96440000D03*
X294640000Y-98980000D03*
X294640000Y-101600000D03*
%TD*%
%TO.C,J1*%
X289560000Y-91440000D03*
X289560000Y-93980000D03*
X289560000Y-96440000D03*
X289560000Y-98980000D03*
X289560000Y-101600000D03*
%TD*%
%TO.C,J110*%
X363220000Y-109220000D03*
X363220000Y-111760000D03*
X363220000Y-114220000D03*
X363220000Y-116760000D03*
X363220000Y-119380000D03*
%TD*%
%TO.C,J10*%
X299720000Y-91440000D03*
X299720000Y-93980000D03*
X299720000Y-96440000D03*
X299720000Y-98980000D03*
X299720000Y-101600000D03*
%TD*%
%TO.C,J4*%
X292100000Y-83820000D03*
X292100000Y-86360000D03*
%TD*%
%TO.C,J127*%
X365760000Y-124460000D03*
X365760000Y-127000000D03*
%TD*%
%TO.C,J69*%
X218440000Y-124460000D03*
X218440000Y-127000000D03*
%TD*%
%TO.C,J123*%
X355600000Y-124460000D03*
X355600000Y-127000000D03*
%TD*%
%TO.C,J110*%
X281940000Y-109220000D03*
X281940000Y-111760000D03*
X281940000Y-114220000D03*
X281940000Y-116760000D03*
X281940000Y-119380000D03*
%TD*%
%TO.C,J24*%
X236220000Y-91520000D03*
X236220000Y-94060000D03*
X236220000Y-96520000D03*
X236220000Y-99060000D03*
X236220000Y-101680000D03*
%TD*%
%TO.C,J127*%
X284480000Y-124460000D03*
X284480000Y-127000000D03*
%TD*%
%TO.C,J3*%
X289560000Y-83820000D03*
X289560000Y-86360000D03*
%TD*%
%TO.C,J2*%
X210820000Y-91440000D03*
X210820000Y-93980000D03*
X210820000Y-96440000D03*
X210820000Y-98980000D03*
X210820000Y-101600000D03*
%TD*%
%TO.C,J116*%
X256540000Y-124460000D03*
X256540000Y-127000000D03*
%TD*%
%TO.C,J118*%
X261620000Y-124460000D03*
X261620000Y-127000000D03*
%TD*%
%TO.C,J116*%
X337820000Y-124460000D03*
X337820000Y-127000000D03*
%TD*%
%TO.C,J1*%
X208280000Y-91440000D03*
X208280000Y-93980000D03*
X208280000Y-96440000D03*
X208280000Y-98980000D03*
X208280000Y-101600000D03*
%TD*%
%TO.C,J9*%
X218440000Y-83820000D03*
X218440000Y-86360000D03*
%TD*%
%TO.C,J125*%
X360680000Y-124460000D03*
X360680000Y-127000000D03*
%TD*%
%TO.C,J115*%
X335280000Y-124460000D03*
X335280000Y-127000000D03*
%TD*%
%TO.C,J126*%
X363220000Y-124460000D03*
X363220000Y-127000000D03*
%TD*%
%TO.C,J20*%
X236220000Y-83820000D03*
X236220000Y-86360000D03*
%TD*%
%TO.C,J91*%
X274320000Y-91440000D03*
X274320000Y-93980000D03*
X274320000Y-96440000D03*
X274320000Y-98980000D03*
X274320000Y-101600000D03*
%TD*%
%TO.C,J82*%
X251460000Y-91440000D03*
X251460000Y-93980000D03*
X251460000Y-96440000D03*
X251460000Y-98980000D03*
X251460000Y-101600000D03*
%TD*%
%TO.C,J120*%
X266700000Y-124460000D03*
X266700000Y-127000000D03*
%TD*%
%TO.C,J109*%
X279400000Y-109220000D03*
X279400000Y-111760000D03*
X279400000Y-114220000D03*
X279400000Y-116760000D03*
X279400000Y-119380000D03*
%TD*%
%TO.C,J71*%
X223520000Y-124460000D03*
X223520000Y-127000000D03*
%TD*%
%TO.C,J112*%
X287020000Y-109220000D03*
X287020000Y-111760000D03*
X287020000Y-114220000D03*
X287020000Y-116760000D03*
X287020000Y-119380000D03*
%TD*%
%TO.C,J66*%
X210820000Y-124460000D03*
X210820000Y-127000000D03*
%TD*%
%TO.C,J60*%
X276860000Y-83820000D03*
X276860000Y-86360000D03*
%TD*%
%TO.C,J86*%
X261620000Y-91440000D03*
X261620000Y-93980000D03*
X261620000Y-96440000D03*
X261620000Y-98980000D03*
X261620000Y-101600000D03*
%TD*%
%TO.C,J57*%
X269240000Y-83820000D03*
X269240000Y-86360000D03*
%TD*%
%TO.C,J51*%
X233680000Y-109220000D03*
X233680000Y-111760000D03*
X233680000Y-114220000D03*
X233680000Y-116760000D03*
X233680000Y-119380000D03*
%TD*%
%TO.C,J77*%
X238760000Y-124460000D03*
X238760000Y-127000000D03*
%TD*%
%TO.C,J85*%
X259080000Y-91440000D03*
X259080000Y-93980000D03*
X259080000Y-96440000D03*
X259080000Y-98980000D03*
X259080000Y-101600000D03*
%TD*%
%TO.C,J65*%
X208280000Y-124460000D03*
X208280000Y-127000000D03*
%TD*%
%TO.C,J55*%
X243840000Y-109220000D03*
X243840000Y-111760000D03*
X243840000Y-114220000D03*
X243840000Y-116760000D03*
X243840000Y-119380000D03*
%TD*%
%TO.C,J58*%
X271780000Y-83820000D03*
X271780000Y-86360000D03*
%TD*%
%TO.C,J92*%
X276860000Y-91440000D03*
X276860000Y-93980000D03*
X276860000Y-96440000D03*
X276860000Y-98980000D03*
X276860000Y-101600000D03*
%TD*%
%TO.C,J111*%
X284480000Y-109220000D03*
X284480000Y-111760000D03*
X284480000Y-114220000D03*
X284480000Y-116760000D03*
X284480000Y-119380000D03*
%TD*%
%TO.C,J95*%
X284480000Y-91440000D03*
X284480000Y-93980000D03*
X284480000Y-96440000D03*
X284480000Y-98980000D03*
X284480000Y-101600000D03*
%TD*%
%TO.C,J67*%
X213360000Y-124460000D03*
X213360000Y-127000000D03*
%TD*%
%TO.C,J96*%
X287020000Y-91440000D03*
X287020000Y-93980000D03*
X287020000Y-96440000D03*
X287020000Y-98980000D03*
X287020000Y-101600000D03*
%TD*%
%TO.C,J121*%
X269240000Y-124460000D03*
X269240000Y-127000000D03*
%TD*%
%TO.C,J104*%
X266700000Y-109220000D03*
X266700000Y-111760000D03*
X266700000Y-114220000D03*
X266700000Y-116760000D03*
X266700000Y-119380000D03*
%TD*%
%TO.C,J98*%
X251460000Y-109220000D03*
X251460000Y-111760000D03*
X251460000Y-114220000D03*
X251460000Y-116760000D03*
X251460000Y-119380000D03*
%TD*%
%TO.C,J94*%
X281940000Y-91440000D03*
X281940000Y-93980000D03*
X281940000Y-96440000D03*
X281940000Y-98980000D03*
X281940000Y-101600000D03*
%TD*%
%TO.C,J87*%
X264160000Y-91440000D03*
X264160000Y-93980000D03*
X264160000Y-96440000D03*
X264160000Y-98980000D03*
X264160000Y-101600000D03*
%TD*%
%TO.C,J76*%
X236220000Y-124460000D03*
X236220000Y-127000000D03*
%TD*%
%TO.C,J63*%
X284480000Y-83820000D03*
X284480000Y-86360000D03*
%TD*%
%TO.C,J61*%
X279400000Y-83820000D03*
X279400000Y-86360000D03*
%TD*%
%TO.C,J52*%
X236220000Y-109300000D03*
X236220000Y-111840000D03*
X236220000Y-114300000D03*
X236220000Y-116840000D03*
X236220000Y-119460000D03*
%TD*%
%TO.C,J68*%
X297180000Y-124460000D03*
X297180000Y-127000000D03*
%TD*%
%TO.C,J81*%
X248920000Y-91440000D03*
X248920000Y-93980000D03*
X248920000Y-96440000D03*
X248920000Y-98980000D03*
X248920000Y-101600000D03*
%TD*%
%TO.C,J62*%
X363220000Y-83820000D03*
X363220000Y-86360000D03*
%TD*%
%TO.C,J59*%
X355600000Y-83820000D03*
X355600000Y-86360000D03*
%TD*%
%TO.C,J106*%
X271780000Y-109220000D03*
X271780000Y-111760000D03*
X271780000Y-114220000D03*
X271780000Y-116760000D03*
X271780000Y-119380000D03*
%TD*%
%TO.C,J27*%
X243840000Y-91440000D03*
X243840000Y-93980000D03*
X243840000Y-96440000D03*
X243840000Y-98980000D03*
X243840000Y-101600000D03*
%TD*%
%TO.C,J47*%
X223520000Y-109220000D03*
X223520000Y-111760000D03*
X223520000Y-114220000D03*
X223520000Y-116760000D03*
X223520000Y-119380000D03*
%TD*%
%TO.C,J50*%
X231140000Y-109220000D03*
X231140000Y-111760000D03*
X231140000Y-114220000D03*
X231140000Y-116760000D03*
X231140000Y-119380000D03*
%TD*%
%TO.C,J53*%
X238760000Y-109220000D03*
X238760000Y-111760000D03*
X238760000Y-114220000D03*
X238760000Y-116760000D03*
X238760000Y-119380000D03*
%TD*%
%TO.C,J59*%
X274320000Y-83820000D03*
X274320000Y-86360000D03*
%TD*%
%TO.C,J72*%
X226060000Y-124460000D03*
X226060000Y-127000000D03*
%TD*%
%TO.C,J70*%
X302260000Y-124460000D03*
X302260000Y-127000000D03*
%TD*%
%TO.C,J29*%
X238760000Y-83820000D03*
X238760000Y-86360000D03*
%TD*%
%TO.C,J45*%
X218440000Y-109220000D03*
X218440000Y-111760000D03*
X218440000Y-114220000D03*
X218440000Y-116760000D03*
X218440000Y-119380000D03*
%TD*%
%TO.C,J54*%
X241300000Y-109220000D03*
X241300000Y-111760000D03*
X241300000Y-114220000D03*
X241300000Y-116760000D03*
X241300000Y-119380000D03*
%TD*%
%TO.C,J68*%
X215900000Y-124460000D03*
X215900000Y-127000000D03*
%TD*%
%TO.C,J56*%
X246380000Y-109220000D03*
X246380000Y-111760000D03*
X246380000Y-114220000D03*
X246380000Y-116760000D03*
X246380000Y-119380000D03*
%TD*%
%TO.C,J46*%
X220980000Y-109220000D03*
X220980000Y-111760000D03*
X220980000Y-114220000D03*
X220980000Y-116760000D03*
X220980000Y-119380000D03*
%TD*%
%TO.C,J107*%
X274320000Y-109220000D03*
X274320000Y-111760000D03*
X274320000Y-114220000D03*
X274320000Y-116760000D03*
X274320000Y-119380000D03*
%TD*%
%TO.C,J64*%
X287020000Y-83820000D03*
X287020000Y-86360000D03*
%TD*%
%TO.C,J32*%
X246380000Y-83820000D03*
X246380000Y-86360000D03*
%TD*%
%TO.C,J38*%
X261620000Y-83820000D03*
X261620000Y-86360000D03*
%TD*%
%TO.C,J36*%
X256540000Y-83820000D03*
X256540000Y-86360000D03*
%TD*%
%TO.C,J33*%
X248920000Y-83820000D03*
X248920000Y-86360000D03*
%TD*%
%TO.C,J25*%
X238760000Y-91440000D03*
X238760000Y-93980000D03*
X238760000Y-96440000D03*
X238760000Y-98980000D03*
X238760000Y-101600000D03*
%TD*%
%TO.C,J26*%
X241300000Y-91440000D03*
X241300000Y-93980000D03*
X241300000Y-96440000D03*
X241300000Y-98980000D03*
X241300000Y-101600000D03*
%TD*%
%TO.C,J44*%
X215900000Y-109220000D03*
X215900000Y-111760000D03*
X215900000Y-114220000D03*
X215900000Y-116760000D03*
X215900000Y-119380000D03*
%TD*%
%TO.C,J40*%
X266700000Y-83820000D03*
X266700000Y-86360000D03*
%TD*%
%TO.C,J19*%
X233540000Y-83820000D03*
X233540000Y-86360000D03*
%TD*%
%TO.C,J100*%
X256540000Y-109220000D03*
X256540000Y-111760000D03*
X256540000Y-114220000D03*
X256540000Y-116760000D03*
X256540000Y-119380000D03*
%TD*%
%TO.C,J64*%
X368300000Y-83820000D03*
X368300000Y-86360000D03*
%TD*%
%TO.C,J72*%
X307340000Y-124460000D03*
X307340000Y-127000000D03*
%TD*%
%TO.C,J70*%
X220980000Y-124460000D03*
X220980000Y-127000000D03*
%TD*%
%TO.C,J34*%
X251460000Y-83820000D03*
X251460000Y-86360000D03*
%TD*%
%TO.C,J39*%
X264160000Y-83820000D03*
X264160000Y-86360000D03*
%TD*%
%TO.C,J35*%
X254000000Y-83820000D03*
X254000000Y-86360000D03*
%TD*%
%TO.C,J62*%
X281940000Y-83820000D03*
X281940000Y-86360000D03*
%TD*%
%TO.C,J16*%
X226060000Y-83820000D03*
X226060000Y-86360000D03*
%TD*%
%TO.C,J21*%
X228600000Y-91440000D03*
X228600000Y-93980000D03*
X228600000Y-96440000D03*
X228600000Y-98980000D03*
X228600000Y-101600000D03*
%TD*%
%TO.C,J41*%
X208280000Y-109220000D03*
X208280000Y-111760000D03*
X208280000Y-114220000D03*
X208280000Y-116760000D03*
X208280000Y-119380000D03*
%TD*%
%TO.C,J4*%
X210820000Y-83820000D03*
X210820000Y-86360000D03*
%TD*%
%TO.C,J117*%
X259080000Y-124460000D03*
X259080000Y-127000000D03*
%TD*%
%TO.C,J17*%
X228460000Y-83820000D03*
X228460000Y-86360000D03*
%TD*%
%TO.C,J23*%
X233680000Y-91440000D03*
X233680000Y-93980000D03*
X233680000Y-96440000D03*
X233680000Y-98980000D03*
X233680000Y-101600000D03*
%TD*%
%TO.C,J12*%
X220980000Y-83820000D03*
X220980000Y-86360000D03*
%TD*%
%TO.C,J43*%
X213360000Y-109220000D03*
X213360000Y-111760000D03*
X213360000Y-114220000D03*
X213360000Y-116760000D03*
X213360000Y-119380000D03*
%TD*%
%TO.C,J15*%
X226060000Y-91440000D03*
X226060000Y-93980000D03*
X226060000Y-96440000D03*
X226060000Y-98980000D03*
X226060000Y-101600000D03*
%TD*%
%TO.C,J42*%
X210820000Y-109220000D03*
X210820000Y-111760000D03*
X210820000Y-114220000D03*
X210820000Y-116760000D03*
X210820000Y-119380000D03*
%TD*%
%TO.C,J31*%
X243840000Y-83820000D03*
X243840000Y-86360000D03*
%TD*%
%TO.C,J30*%
X241300000Y-83820000D03*
X241300000Y-86360000D03*
%TD*%
%TO.C,J18*%
X231000000Y-83820000D03*
X231000000Y-86360000D03*
%TD*%
%TO.C,J125*%
X279400000Y-124460000D03*
X279400000Y-127000000D03*
%TD*%
%TO.C,J115*%
X254000000Y-124460000D03*
X254000000Y-127000000D03*
%TD*%
%TO.C,J5*%
X213360000Y-83820000D03*
X213360000Y-86360000D03*
%TD*%
%TO.C,J49*%
X228600000Y-109220000D03*
X228600000Y-111760000D03*
X228600000Y-114220000D03*
X228600000Y-116760000D03*
X228600000Y-119380000D03*
%TD*%
%TO.C,J13*%
X223520000Y-83820000D03*
X223520000Y-86360000D03*
%TD*%
%TO.C,J37*%
X259080000Y-83820000D03*
X259080000Y-86360000D03*
%TD*%
%TO.C,J6*%
X213360000Y-91440000D03*
X213360000Y-93980000D03*
X213360000Y-96440000D03*
X213360000Y-98980000D03*
X213360000Y-101600000D03*
%TD*%
%TO.C,J10*%
X218440000Y-91440000D03*
X218440000Y-93980000D03*
X218440000Y-96440000D03*
X218440000Y-98980000D03*
X218440000Y-101600000D03*
%TD*%
%TO.C,J114*%
X251460000Y-124460000D03*
X251460000Y-127000000D03*
%TD*%
%TO.C,J14*%
X223520000Y-91440000D03*
X223520000Y-93980000D03*
X223520000Y-96440000D03*
X223520000Y-98980000D03*
X223520000Y-101600000D03*
%TD*%
%TO.C,J8*%
X215900000Y-83820000D03*
X215900000Y-86360000D03*
%TD*%
%TO.C,J22*%
X231140000Y-91440000D03*
X231140000Y-93980000D03*
X231140000Y-96440000D03*
X231140000Y-98980000D03*
X231140000Y-101600000D03*
%TD*%
%TO.C,J128*%
X287020000Y-124460000D03*
X287020000Y-127000000D03*
%TD*%
%TO.C,J123*%
X274320000Y-124460000D03*
X274320000Y-127000000D03*
%TD*%
%TO.C,J126*%
X281940000Y-124460000D03*
X281940000Y-127000000D03*
%TD*%
%TO.C,J3*%
X208280000Y-83820000D03*
X208280000Y-86360000D03*
%TD*%
%TO.C,J90*%
X271780000Y-91440000D03*
X271780000Y-93980000D03*
X271780000Y-96440000D03*
X271780000Y-98980000D03*
X271780000Y-101600000D03*
%TD*%
%TO.C,J28*%
X246380000Y-91440000D03*
X246380000Y-93980000D03*
X246380000Y-96440000D03*
X246380000Y-98980000D03*
X246380000Y-101600000D03*
%TD*%
%TO.C,J124*%
X276860000Y-124460000D03*
X276860000Y-127000000D03*
%TD*%
%TO.C,J113*%
X248920000Y-124460000D03*
X248920000Y-127000000D03*
%TD*%
%TO.C,J83*%
X254000000Y-91440000D03*
X254000000Y-93980000D03*
X254000000Y-96440000D03*
X254000000Y-98980000D03*
X254000000Y-101600000D03*
%TD*%
%TO.C,J119*%
X264160000Y-124460000D03*
X264160000Y-127000000D03*
%TD*%
%TO.C,J11*%
X220980000Y-91440000D03*
X220980000Y-93980000D03*
X220980000Y-96440000D03*
X220980000Y-98980000D03*
X220980000Y-101600000D03*
%TD*%
%TO.C,J73*%
X228600000Y-124460000D03*
X228600000Y-127000000D03*
%TD*%
%TO.C,J93*%
X279400000Y-91440000D03*
X279400000Y-93980000D03*
X279400000Y-96440000D03*
X279400000Y-98980000D03*
X279400000Y-101600000D03*
%TD*%
%TO.C,J122*%
X271780000Y-124460000D03*
X271780000Y-127000000D03*
%TD*%
%TO.C,J48*%
X226060000Y-109220000D03*
X226060000Y-111760000D03*
X226060000Y-114220000D03*
X226060000Y-116760000D03*
X226060000Y-119380000D03*
%TD*%
%TO.C,J88*%
X266700000Y-91440000D03*
X266700000Y-93980000D03*
X266700000Y-96440000D03*
X266700000Y-98980000D03*
X266700000Y-101600000D03*
%TD*%
%TO.C,J79*%
X243840000Y-124460000D03*
X243840000Y-127000000D03*
%TD*%
%TO.C,J7*%
X215900000Y-91440000D03*
X215900000Y-93980000D03*
X215900000Y-96440000D03*
X215900000Y-98980000D03*
X215900000Y-101600000D03*
%TD*%
%TO.C,J25*%
X320040000Y-91440000D03*
X320040000Y-93980000D03*
X320040000Y-96440000D03*
X320040000Y-98980000D03*
X320040000Y-101600000D03*
%TD*%
%TO.C,J103*%
X345440000Y-109220000D03*
X345440000Y-111760000D03*
X345440000Y-114220000D03*
X345440000Y-116760000D03*
X345440000Y-119380000D03*
%TD*%
%TO.C,J106*%
X353060000Y-109220000D03*
X353060000Y-111760000D03*
X353060000Y-114220000D03*
X353060000Y-116760000D03*
X353060000Y-119380000D03*
%TD*%
%TO.C,J108*%
X358140000Y-109220000D03*
X358140000Y-111760000D03*
X358140000Y-114220000D03*
X358140000Y-116760000D03*
X358140000Y-119380000D03*
%TD*%
%TO.C,J119*%
X345440000Y-124460000D03*
X345440000Y-127000000D03*
%TD*%
%TO.C,J113*%
X330200000Y-124460000D03*
X330200000Y-127000000D03*
%TD*%
%TO.C,J111*%
X365760000Y-109220000D03*
X365760000Y-111760000D03*
X365760000Y-114220000D03*
X365760000Y-116760000D03*
X365760000Y-119380000D03*
%TD*%
%TO.C,J109*%
X360680000Y-109220000D03*
X360680000Y-111760000D03*
X360680000Y-114220000D03*
X360680000Y-116760000D03*
X360680000Y-119380000D03*
%TD*%
%TO.C,J122*%
X353060000Y-124460000D03*
X353060000Y-127000000D03*
%TD*%
%TO.C,J117*%
X340360000Y-124460000D03*
X340360000Y-127000000D03*
%TD*%
%TO.C,J93*%
X360680000Y-91440000D03*
X360680000Y-93980000D03*
X360680000Y-96440000D03*
X360680000Y-98980000D03*
X360680000Y-101600000D03*
%TD*%
%TO.C,J104*%
X347980000Y-109220000D03*
X347980000Y-111760000D03*
X347980000Y-114220000D03*
X347980000Y-116760000D03*
X347980000Y-119380000D03*
%TD*%
%TO.C,J97*%
X330200000Y-109220000D03*
X330200000Y-111760000D03*
X330200000Y-114220000D03*
X330200000Y-116760000D03*
X330200000Y-119380000D03*
%TD*%
%TO.C,J100*%
X337820000Y-109220000D03*
X337820000Y-111760000D03*
X337820000Y-114220000D03*
X337820000Y-116760000D03*
X337820000Y-119380000D03*
%TD*%
%TO.C,J101*%
X340360000Y-109220000D03*
X340360000Y-111760000D03*
X340360000Y-114220000D03*
X340360000Y-116760000D03*
X340360000Y-119380000D03*
%TD*%
%TO.C,J114*%
X332740000Y-124460000D03*
X332740000Y-127000000D03*
%TD*%
%TO.C,J118*%
X342900000Y-124460000D03*
X342900000Y-127000000D03*
%TD*%
%TO.C,J99*%
X335280000Y-109220000D03*
X335280000Y-111760000D03*
X335280000Y-114220000D03*
X335280000Y-116760000D03*
X335280000Y-119380000D03*
%TD*%
%TO.C,J121*%
X350520000Y-124460000D03*
X350520000Y-127000000D03*
%TD*%
%TO.C,J105*%
X350520000Y-109220000D03*
X350520000Y-111760000D03*
X350520000Y-114220000D03*
X350520000Y-116760000D03*
X350520000Y-119380000D03*
%TD*%
%TO.C,J95*%
X365760000Y-91440000D03*
X365760000Y-93980000D03*
X365760000Y-96440000D03*
X365760000Y-98980000D03*
X365760000Y-101600000D03*
%TD*%
%TO.C,J78*%
X322580000Y-124460000D03*
X322580000Y-127000000D03*
%TD*%
%TO.C,J107*%
X355600000Y-109220000D03*
X355600000Y-111760000D03*
X355600000Y-114220000D03*
X355600000Y-116760000D03*
X355600000Y-119380000D03*
%TD*%
%TO.C,J82*%
X332740000Y-91440000D03*
X332740000Y-93980000D03*
X332740000Y-96440000D03*
X332740000Y-98980000D03*
X332740000Y-101600000D03*
%TD*%
%TO.C,J94*%
X363220000Y-91440000D03*
X363220000Y-93980000D03*
X363220000Y-96440000D03*
X363220000Y-98980000D03*
X363220000Y-101600000D03*
%TD*%
%TO.C,J90*%
X353060000Y-91440000D03*
X353060000Y-93980000D03*
X353060000Y-96440000D03*
X353060000Y-98980000D03*
X353060000Y-101600000D03*
%TD*%
%TO.C,J77*%
X320040000Y-124460000D03*
X320040000Y-127000000D03*
%TD*%
%TO.C,J98*%
X332740000Y-109220000D03*
X332740000Y-111760000D03*
X332740000Y-114220000D03*
X332740000Y-116760000D03*
X332740000Y-119380000D03*
%TD*%
%TO.C,J86*%
X342900000Y-91440000D03*
X342900000Y-93980000D03*
X342900000Y-96440000D03*
X342900000Y-98980000D03*
X342900000Y-101600000D03*
%TD*%
%TO.C,J79*%
X325120000Y-124460000D03*
X325120000Y-127000000D03*
%TD*%
%TO.C,J75*%
X314960000Y-124460000D03*
X314960000Y-127000000D03*
%TD*%
%TO.C,J84*%
X337820000Y-91440000D03*
X337820000Y-93980000D03*
X337820000Y-96440000D03*
X337820000Y-98980000D03*
X337820000Y-101600000D03*
%TD*%
%TO.C,J92*%
X358140000Y-91440000D03*
X358140000Y-93980000D03*
X358140000Y-96440000D03*
X358140000Y-98980000D03*
X358140000Y-101600000D03*
%TD*%
%TO.C,J89*%
X350520000Y-91440000D03*
X350520000Y-93980000D03*
X350520000Y-96440000D03*
X350520000Y-98980000D03*
X350520000Y-101600000D03*
%TD*%
%TO.C,J91*%
X355600000Y-91440000D03*
X355600000Y-93980000D03*
X355600000Y-96440000D03*
X355600000Y-98980000D03*
X355600000Y-101600000D03*
%TD*%
%TO.C,J74*%
X312420000Y-124460000D03*
X312420000Y-127000000D03*
%TD*%
%TO.C,J88*%
X347980000Y-91440000D03*
X347980000Y-93980000D03*
X347980000Y-96440000D03*
X347980000Y-98980000D03*
X347980000Y-101600000D03*
%TD*%
%TO.C,J73*%
X309880000Y-124460000D03*
X309880000Y-127000000D03*
%TD*%
%TO.C,J83*%
X335280000Y-91440000D03*
X335280000Y-93980000D03*
X335280000Y-96440000D03*
X335280000Y-98980000D03*
X335280000Y-101600000D03*
%TD*%
%TO.C,J96*%
X368300000Y-91440000D03*
X368300000Y-93980000D03*
X368300000Y-96440000D03*
X368300000Y-98980000D03*
X368300000Y-101600000D03*
%TD*%
%TO.C,J85*%
X340360000Y-91440000D03*
X340360000Y-93980000D03*
X340360000Y-96440000D03*
X340360000Y-98980000D03*
X340360000Y-101600000D03*
%TD*%
%TO.C,J80*%
X327660000Y-124460000D03*
X327660000Y-127000000D03*
%TD*%
%TO.C,J66*%
X292100000Y-124460000D03*
X292100000Y-127000000D03*
%TD*%
%TO.C,J51*%
X314960000Y-109220000D03*
X314960000Y-111760000D03*
X314960000Y-114220000D03*
X314960000Y-116760000D03*
X314960000Y-119380000D03*
%TD*%
%TO.C,J65*%
X289560000Y-124460000D03*
X289560000Y-127000000D03*
%TD*%
%TO.C,J56*%
X327660000Y-109220000D03*
X327660000Y-111760000D03*
X327660000Y-114220000D03*
X327660000Y-116760000D03*
X327660000Y-119380000D03*
%TD*%
%TO.C,J55*%
X325120000Y-109220000D03*
X325120000Y-111760000D03*
X325120000Y-114220000D03*
X325120000Y-116760000D03*
X325120000Y-119380000D03*
%TD*%
%TO.C,J63*%
X365760000Y-83820000D03*
X365760000Y-86360000D03*
%TD*%
%TO.C,J71*%
X304800000Y-124460000D03*
X304800000Y-127000000D03*
%TD*%
%TO.C,J42*%
X292100000Y-109220000D03*
X292100000Y-111760000D03*
X292100000Y-114220000D03*
X292100000Y-116760000D03*
X292100000Y-119380000D03*
%TD*%
%TO.C,J35*%
X335280000Y-83820000D03*
X335280000Y-86360000D03*
%TD*%
%TO.C,J69*%
X299720000Y-124460000D03*
X299720000Y-127000000D03*
%TD*%
%TO.C,J50*%
X312420000Y-109220000D03*
X312420000Y-111760000D03*
X312420000Y-114220000D03*
X312420000Y-116760000D03*
X312420000Y-119380000D03*
%TD*%
%TO.C,J52*%
X317500000Y-109300000D03*
X317500000Y-111840000D03*
X317500000Y-114300000D03*
X317500000Y-116840000D03*
X317500000Y-119460000D03*
%TD*%
%TO.C,J54*%
X322580000Y-109220000D03*
X322580000Y-111760000D03*
X322580000Y-114220000D03*
X322580000Y-116760000D03*
X322580000Y-119380000D03*
%TD*%
%TO.C,J57*%
X350520000Y-83820000D03*
X350520000Y-86360000D03*
%TD*%
%TO.C,J81*%
X330200000Y-91440000D03*
X330200000Y-93980000D03*
X330200000Y-96440000D03*
X330200000Y-98980000D03*
X330200000Y-101600000D03*
%TD*%
%TO.C,J76*%
X317500000Y-124460000D03*
X317500000Y-127000000D03*
%TD*%
%TO.C,J60*%
X358140000Y-83820000D03*
X358140000Y-86360000D03*
%TD*%
%TO.C,J87*%
X345440000Y-91440000D03*
X345440000Y-93980000D03*
X345440000Y-96440000D03*
X345440000Y-98980000D03*
X345440000Y-101600000D03*
%TD*%
%TO.C,J58*%
X353060000Y-83820000D03*
X353060000Y-86360000D03*
%TD*%
%TO.C,J45*%
X299720000Y-109220000D03*
X299720000Y-111760000D03*
X299720000Y-114220000D03*
X299720000Y-116760000D03*
X299720000Y-119380000D03*
%TD*%
%TO.C,J39*%
X345440000Y-83820000D03*
X345440000Y-86360000D03*
%TD*%
%TO.C,J48*%
X307340000Y-109220000D03*
X307340000Y-111760000D03*
X307340000Y-114220000D03*
X307340000Y-116760000D03*
X307340000Y-119380000D03*
%TD*%
%TO.C,J46*%
X302260000Y-109220000D03*
X302260000Y-111760000D03*
X302260000Y-114220000D03*
X302260000Y-116760000D03*
X302260000Y-119380000D03*
%TD*%
%TO.C,J43*%
X294640000Y-109220000D03*
X294640000Y-111760000D03*
X294640000Y-114220000D03*
X294640000Y-116760000D03*
X294640000Y-119380000D03*
%TD*%
%TO.C,J12*%
X302260000Y-83820000D03*
X302260000Y-86360000D03*
%TD*%
%TO.C,J31*%
X325120000Y-83820000D03*
X325120000Y-86360000D03*
%TD*%
%TO.C,J11*%
X302260000Y-91440000D03*
X302260000Y-93980000D03*
X302260000Y-96440000D03*
X302260000Y-98980000D03*
X302260000Y-101600000D03*
%TD*%
%TO.C,J30*%
X322580000Y-83820000D03*
X322580000Y-86360000D03*
%TD*%
%TO.C,J36*%
X337820000Y-83820000D03*
X337820000Y-86360000D03*
%TD*%
%TO.C,J33*%
X330200000Y-83820000D03*
X330200000Y-86360000D03*
%TD*%
%TO.C,J44*%
X297180000Y-109220000D03*
X297180000Y-111760000D03*
X297180000Y-114220000D03*
X297180000Y-116760000D03*
X297180000Y-119380000D03*
%TD*%
%TO.C,J22*%
X312420000Y-91440000D03*
X312420000Y-93980000D03*
X312420000Y-96440000D03*
X312420000Y-98980000D03*
X312420000Y-101600000D03*
%TD*%
%TO.C,J47*%
X304800000Y-109220000D03*
X304800000Y-111760000D03*
X304800000Y-114220000D03*
X304800000Y-116760000D03*
X304800000Y-119380000D03*
%TD*%
%TO.C,J38*%
X342900000Y-83820000D03*
X342900000Y-86360000D03*
%TD*%
%TO.C,J34*%
X332740000Y-83820000D03*
X332740000Y-86360000D03*
%TD*%
%TO.C,J29*%
X320040000Y-83820000D03*
X320040000Y-86360000D03*
%TD*%
%TO.C,J18*%
X312280000Y-83820000D03*
X312280000Y-86360000D03*
%TD*%
%TO.C,J53*%
X320040000Y-109220000D03*
X320040000Y-111760000D03*
X320040000Y-114220000D03*
X320040000Y-116760000D03*
X320040000Y-119380000D03*
%TD*%
%TO.C,J37*%
X340360000Y-83820000D03*
X340360000Y-86360000D03*
%TD*%
%TO.C,J40*%
X347980000Y-83820000D03*
X347980000Y-86360000D03*
%TD*%
%TO.C,J23*%
X314960000Y-91440000D03*
X314960000Y-93980000D03*
X314960000Y-96440000D03*
X314960000Y-98980000D03*
X314960000Y-101600000D03*
%TD*%
%TO.C,J103*%
X177800000Y-119380000D03*
X177800000Y-116760000D03*
X177800000Y-114220000D03*
X177800000Y-111760000D03*
X177800000Y-109220000D03*
%TD*%
%TO.C,J106*%
X185420000Y-119380000D03*
X185420000Y-116760000D03*
X185420000Y-114220000D03*
X185420000Y-111760000D03*
X185420000Y-109220000D03*
%TD*%
%TO.C,J108*%
X190500000Y-119380000D03*
X190500000Y-116760000D03*
X190500000Y-114220000D03*
X190500000Y-111760000D03*
X190500000Y-109220000D03*
%TD*%
%TO.C,J122*%
X185420000Y-127000000D03*
X185420000Y-124460000D03*
%TD*%
%TO.C,J117*%
X172720000Y-127000000D03*
X172720000Y-124460000D03*
%TD*%
%TO.C,J119*%
X177800000Y-127000000D03*
X177800000Y-124460000D03*
%TD*%
%TO.C,J111*%
X198120000Y-119380000D03*
X198120000Y-116760000D03*
X198120000Y-114220000D03*
X198120000Y-111760000D03*
X198120000Y-109220000D03*
%TD*%
%TO.C,J121*%
X182880000Y-127000000D03*
X182880000Y-124460000D03*
%TD*%
%TO.C,J109*%
X193040000Y-119380000D03*
X193040000Y-116760000D03*
X193040000Y-114220000D03*
X193040000Y-111760000D03*
X193040000Y-109220000D03*
%TD*%
%TO.C,J101*%
X172720000Y-119380000D03*
X172720000Y-116760000D03*
X172720000Y-114220000D03*
X172720000Y-111760000D03*
X172720000Y-109220000D03*
%TD*%
%TO.C,J99*%
X167640000Y-119380000D03*
X167640000Y-116760000D03*
X167640000Y-114220000D03*
X167640000Y-111760000D03*
X167640000Y-109220000D03*
%TD*%
%TO.C,J114*%
X165100000Y-127000000D03*
X165100000Y-124460000D03*
%TD*%
%TO.C,J93*%
X193040000Y-101600000D03*
X193040000Y-98980000D03*
X193040000Y-96440000D03*
X193040000Y-93980000D03*
X193040000Y-91440000D03*
%TD*%
%TO.C,J113*%
X162560000Y-127000000D03*
X162560000Y-124460000D03*
%TD*%
%TO.C,J104*%
X180340000Y-119380000D03*
X180340000Y-116760000D03*
X180340000Y-114220000D03*
X180340000Y-111760000D03*
X180340000Y-109220000D03*
%TD*%
%TO.C,J118*%
X175260000Y-127000000D03*
X175260000Y-124460000D03*
%TD*%
%TO.C,J97*%
X162560000Y-119380000D03*
X162560000Y-116760000D03*
X162560000Y-114220000D03*
X162560000Y-111760000D03*
X162560000Y-109220000D03*
%TD*%
%TO.C,J100*%
X170180000Y-119380000D03*
X170180000Y-116760000D03*
X170180000Y-114220000D03*
X170180000Y-111760000D03*
X170180000Y-109220000D03*
%TD*%
%TO.C,J105*%
X182880000Y-119380000D03*
X182880000Y-116760000D03*
X182880000Y-114220000D03*
X182880000Y-111760000D03*
X182880000Y-109220000D03*
%TD*%
%TO.C,J95*%
X198120000Y-101600000D03*
X198120000Y-98980000D03*
X198120000Y-96440000D03*
X198120000Y-93980000D03*
X198120000Y-91440000D03*
%TD*%
%TO.C,J83*%
X167640000Y-101600000D03*
X167640000Y-98980000D03*
X167640000Y-96440000D03*
X167640000Y-93980000D03*
X167640000Y-91440000D03*
%TD*%
%TO.C,J78*%
X154940000Y-127000000D03*
X154940000Y-124460000D03*
%TD*%
%TO.C,J96*%
X200660000Y-101600000D03*
X200660000Y-98980000D03*
X200660000Y-96440000D03*
X200660000Y-93980000D03*
X200660000Y-91440000D03*
%TD*%
%TO.C,J98*%
X165100000Y-119380000D03*
X165100000Y-116760000D03*
X165100000Y-114220000D03*
X165100000Y-111760000D03*
X165100000Y-109220000D03*
%TD*%
%TO.C,J107*%
X187960000Y-119380000D03*
X187960000Y-116760000D03*
X187960000Y-114220000D03*
X187960000Y-111760000D03*
X187960000Y-109220000D03*
%TD*%
%TO.C,J82*%
X165100000Y-101600000D03*
X165100000Y-98980000D03*
X165100000Y-96440000D03*
X165100000Y-93980000D03*
X165100000Y-91440000D03*
%TD*%
%TO.C,J80*%
X160020000Y-127000000D03*
X160020000Y-124460000D03*
%TD*%
%TO.C,J94*%
X195580000Y-101600000D03*
X195580000Y-98980000D03*
X195580000Y-96440000D03*
X195580000Y-93980000D03*
X195580000Y-91440000D03*
%TD*%
%TO.C,J73*%
X142240000Y-127000000D03*
X142240000Y-124460000D03*
%TD*%
%TO.C,J86*%
X175260000Y-101600000D03*
X175260000Y-98980000D03*
X175260000Y-96440000D03*
X175260000Y-93980000D03*
X175260000Y-91440000D03*
%TD*%
%TO.C,J79*%
X157480000Y-127000000D03*
X157480000Y-124460000D03*
%TD*%
%TO.C,J84*%
X170180000Y-101600000D03*
X170180000Y-98980000D03*
X170180000Y-96440000D03*
X170180000Y-93980000D03*
X170180000Y-91440000D03*
%TD*%
%TO.C,J85*%
X172720000Y-101600000D03*
X172720000Y-98980000D03*
X172720000Y-96440000D03*
X172720000Y-93980000D03*
X172720000Y-91440000D03*
%TD*%
%TO.C,J90*%
X185420000Y-101600000D03*
X185420000Y-98980000D03*
X185420000Y-96440000D03*
X185420000Y-93980000D03*
X185420000Y-91440000D03*
%TD*%
%TO.C,J92*%
X190500000Y-101600000D03*
X190500000Y-98980000D03*
X190500000Y-96440000D03*
X190500000Y-93980000D03*
X190500000Y-91440000D03*
%TD*%
%TO.C,J75*%
X147320000Y-127000000D03*
X147320000Y-124460000D03*
%TD*%
%TO.C,J77*%
X152400000Y-127000000D03*
X152400000Y-124460000D03*
%TD*%
%TO.C,J89*%
X182880000Y-101600000D03*
X182880000Y-98980000D03*
X182880000Y-96440000D03*
X182880000Y-93980000D03*
X182880000Y-91440000D03*
%TD*%
%TO.C,J91*%
X187960000Y-101600000D03*
X187960000Y-98980000D03*
X187960000Y-96440000D03*
X187960000Y-93980000D03*
X187960000Y-91440000D03*
%TD*%
%TO.C,J88*%
X180340000Y-101600000D03*
X180340000Y-98980000D03*
X180340000Y-96440000D03*
X180340000Y-93980000D03*
X180340000Y-91440000D03*
%TD*%
%TO.C,J74*%
X144780000Y-127000000D03*
X144780000Y-124460000D03*
%TD*%
%TO.C,J87*%
X177800000Y-101600000D03*
X177800000Y-98980000D03*
X177800000Y-96440000D03*
X177800000Y-93980000D03*
X177800000Y-91440000D03*
%TD*%
%TO.C,J81*%
X162560000Y-101600000D03*
X162560000Y-98980000D03*
X162560000Y-96440000D03*
X162560000Y-93980000D03*
X162560000Y-91440000D03*
%TD*%
%TO.C,J66*%
X124460000Y-127000000D03*
X124460000Y-124460000D03*
%TD*%
%TO.C,J56*%
X160020000Y-119380000D03*
X160020000Y-116760000D03*
X160020000Y-114220000D03*
X160020000Y-111760000D03*
X160020000Y-109220000D03*
%TD*%
%TO.C,J51*%
X147320000Y-119380000D03*
X147320000Y-116760000D03*
X147320000Y-114220000D03*
X147320000Y-111760000D03*
X147320000Y-109220000D03*
%TD*%
%TO.C,J55*%
X157480000Y-119380000D03*
X157480000Y-116760000D03*
X157480000Y-114220000D03*
X157480000Y-111760000D03*
X157480000Y-109220000D03*
%TD*%
%TO.C,J58*%
X185420000Y-86360000D03*
X185420000Y-83820000D03*
%TD*%
%TO.C,J45*%
X132080000Y-119380000D03*
X132080000Y-116760000D03*
X132080000Y-114220000D03*
X132080000Y-111760000D03*
X132080000Y-109220000D03*
%TD*%
%TO.C,J63*%
X198120000Y-86360000D03*
X198120000Y-83820000D03*
%TD*%
%TO.C,J54*%
X154940000Y-119380000D03*
X154940000Y-116760000D03*
X154940000Y-114220000D03*
X154940000Y-111760000D03*
X154940000Y-109220000D03*
%TD*%
%TO.C,J42*%
X124460000Y-119380000D03*
X124460000Y-116760000D03*
X124460000Y-114220000D03*
X124460000Y-111760000D03*
X124460000Y-109220000D03*
%TD*%
%TO.C,J35*%
X167640000Y-86360000D03*
X167640000Y-83820000D03*
%TD*%
%TO.C,J69*%
X132080000Y-127000000D03*
X132080000Y-124460000D03*
%TD*%
%TO.C,J65*%
X121920000Y-127000000D03*
X121920000Y-124460000D03*
%TD*%
%TO.C,J57*%
X182880000Y-86360000D03*
X182880000Y-83820000D03*
%TD*%
%TO.C,J71*%
X137160000Y-127000000D03*
X137160000Y-124460000D03*
%TD*%
%TO.C,J50*%
X144780000Y-119380000D03*
X144780000Y-116760000D03*
X144780000Y-114220000D03*
X144780000Y-111760000D03*
X144780000Y-109220000D03*
%TD*%
%TO.C,J52*%
X149860000Y-119460000D03*
X149860000Y-116840000D03*
X149860000Y-114300000D03*
X149860000Y-111840000D03*
X149860000Y-109300000D03*
%TD*%
%TO.C,J76*%
X149860000Y-127000000D03*
X149860000Y-124460000D03*
%TD*%
%TO.C,J60*%
X190500000Y-86360000D03*
X190500000Y-83820000D03*
%TD*%
%TO.C,J53*%
X152400000Y-119380000D03*
X152400000Y-116760000D03*
X152400000Y-114220000D03*
X152400000Y-111760000D03*
X152400000Y-109220000D03*
%TD*%
%TO.C,J39*%
X177800000Y-86360000D03*
X177800000Y-83820000D03*
%TD*%
%TO.C,J37*%
X172720000Y-86360000D03*
X172720000Y-83820000D03*
%TD*%
%TO.C,J48*%
X139700000Y-119380000D03*
X139700000Y-116760000D03*
X139700000Y-114220000D03*
X139700000Y-111760000D03*
X139700000Y-109220000D03*
%TD*%
%TO.C,J40*%
X180340000Y-86360000D03*
X180340000Y-83820000D03*
%TD*%
%TO.C,J46*%
X134620000Y-119380000D03*
X134620000Y-116760000D03*
X134620000Y-114220000D03*
X134620000Y-111760000D03*
X134620000Y-109220000D03*
%TD*%
%TO.C,J23*%
X147320000Y-101600000D03*
X147320000Y-98980000D03*
X147320000Y-96440000D03*
X147320000Y-93980000D03*
X147320000Y-91440000D03*
%TD*%
%TO.C,J18*%
X144640000Y-86360000D03*
X144640000Y-83820000D03*
%TD*%
%TO.C,J11*%
X134620000Y-101600000D03*
X134620000Y-98980000D03*
X134620000Y-96440000D03*
X134620000Y-93980000D03*
X134620000Y-91440000D03*
%TD*%
%TO.C,J30*%
X154940000Y-86360000D03*
X154940000Y-83820000D03*
%TD*%
%TO.C,J36*%
X170180000Y-86360000D03*
X170180000Y-83820000D03*
%TD*%
%TO.C,J43*%
X127000000Y-119380000D03*
X127000000Y-116760000D03*
X127000000Y-114220000D03*
X127000000Y-111760000D03*
X127000000Y-109220000D03*
%TD*%
%TO.C,J12*%
X134620000Y-86360000D03*
X134620000Y-83820000D03*
%TD*%
%TO.C,J44*%
X129540000Y-119380000D03*
X129540000Y-116760000D03*
X129540000Y-114220000D03*
X129540000Y-111760000D03*
X129540000Y-109220000D03*
%TD*%
%TO.C,J34*%
X165100000Y-86360000D03*
X165100000Y-83820000D03*
%TD*%
%TO.C,J31*%
X157480000Y-86360000D03*
X157480000Y-83820000D03*
%TD*%
%TO.C,J38*%
X175260000Y-86360000D03*
X175260000Y-83820000D03*
%TD*%
%TO.C,J47*%
X137160000Y-119380000D03*
X137160000Y-116760000D03*
X137160000Y-114220000D03*
X137160000Y-111760000D03*
X137160000Y-109220000D03*
%TD*%
%TO.C,J29*%
X152400000Y-86360000D03*
X152400000Y-83820000D03*
%TD*%
%TO.C,J22*%
X144780000Y-101600000D03*
X144780000Y-98980000D03*
X144780000Y-96440000D03*
X144780000Y-93980000D03*
X144780000Y-91440000D03*
%TD*%
%TO.C,J33*%
X162560000Y-86360000D03*
X162560000Y-83820000D03*
%TD*%
%TO.C,J13*%
X137160000Y-86360000D03*
X137160000Y-83820000D03*
%TD*%
%TO.C,J2*%
X124460000Y-101600000D03*
X124460000Y-98980000D03*
X124460000Y-96440000D03*
X124460000Y-93980000D03*
X124460000Y-91440000D03*
%TD*%
%TO.C,J5*%
X127000000Y-86360000D03*
X127000000Y-83820000D03*
%TD*%
%TO.C,J1*%
X121920000Y-101600000D03*
X121920000Y-98980000D03*
X121920000Y-96440000D03*
X121920000Y-93980000D03*
X121920000Y-91440000D03*
%TD*%
%TO.C,J7*%
X129540000Y-101600000D03*
X129540000Y-98980000D03*
X129540000Y-96440000D03*
X129540000Y-93980000D03*
X129540000Y-91440000D03*
%TD*%
%TO.C,J10*%
X132080000Y-101600000D03*
X132080000Y-98980000D03*
X132080000Y-96440000D03*
X132080000Y-93980000D03*
X132080000Y-91440000D03*
%TD*%
%TO.C,J128*%
X200660000Y-127000000D03*
X200660000Y-124460000D03*
%TD*%
%TO.C,J4*%
X124460000Y-86360000D03*
X124460000Y-83820000D03*
%TD*%
%TO.C,J102*%
X175260000Y-119380000D03*
X175260000Y-116760000D03*
X175260000Y-114220000D03*
X175260000Y-111760000D03*
X175260000Y-109220000D03*
%TD*%
%TO.C,J120*%
X180340000Y-127000000D03*
X180340000Y-124460000D03*
%TD*%
%TO.C,J124*%
X190500000Y-127000000D03*
X190500000Y-124460000D03*
%TD*%
%TO.C,J6*%
X127000000Y-101600000D03*
X127000000Y-98980000D03*
X127000000Y-96440000D03*
X127000000Y-93980000D03*
X127000000Y-91440000D03*
%TD*%
%TO.C,J110*%
X195580000Y-119380000D03*
X195580000Y-116760000D03*
X195580000Y-114220000D03*
X195580000Y-111760000D03*
X195580000Y-109220000D03*
%TD*%
%TO.C,J127*%
X198120000Y-127000000D03*
X198120000Y-124460000D03*
%TD*%
%TO.C,J112*%
X200660000Y-119380000D03*
X200660000Y-116760000D03*
X200660000Y-114220000D03*
X200660000Y-111760000D03*
X200660000Y-109220000D03*
%TD*%
%TO.C,J28*%
X160020000Y-101600000D03*
X160020000Y-98980000D03*
X160020000Y-96440000D03*
X160020000Y-93980000D03*
X160020000Y-91440000D03*
%TD*%
%TO.C,J8*%
X129540000Y-86360000D03*
X129540000Y-83820000D03*
%TD*%
%TO.C,J9*%
X132080000Y-86360000D03*
X132080000Y-83820000D03*
%TD*%
%TO.C,J24*%
X149860000Y-101680000D03*
X149860000Y-99060000D03*
X149860000Y-96520000D03*
X149860000Y-94060000D03*
X149860000Y-91520000D03*
%TD*%
%TO.C,J116*%
X170180000Y-127000000D03*
X170180000Y-124460000D03*
%TD*%
%TO.C,J3*%
X121920000Y-86360000D03*
X121920000Y-83820000D03*
%TD*%
%TO.C,J125*%
X193040000Y-127000000D03*
X193040000Y-124460000D03*
%TD*%
%TO.C,J126*%
X195580000Y-127000000D03*
X195580000Y-124460000D03*
%TD*%
%TO.C,J123*%
X187960000Y-127000000D03*
X187960000Y-124460000D03*
%TD*%
%TO.C,J115*%
X167640000Y-127000000D03*
X167640000Y-124460000D03*
%TD*%
%TO.C,J2*%
X43180000Y-101600000D03*
X43180000Y-98980000D03*
X43180000Y-96440000D03*
X43180000Y-93980000D03*
X43180000Y-91440000D03*
%TD*%
%TO.C,J116*%
X88900000Y-127000000D03*
X88900000Y-124460000D03*
%TD*%
%TO.C,J20*%
X68580000Y-86360000D03*
X68580000Y-83820000D03*
%TD*%
%TO.C,J24*%
X68580000Y-101680000D03*
X68580000Y-99060000D03*
X68580000Y-96520000D03*
X68580000Y-94060000D03*
X68580000Y-91520000D03*
%TD*%
%TO.C,J9*%
X50800000Y-86360000D03*
X50800000Y-83820000D03*
%TD*%
%TO.C,J1*%
X40640000Y-101600000D03*
X40640000Y-98980000D03*
X40640000Y-96440000D03*
X40640000Y-93980000D03*
X40640000Y-91440000D03*
%TD*%
%TO.C,J110*%
X114300000Y-119380000D03*
X114300000Y-116760000D03*
X114300000Y-114220000D03*
X114300000Y-111760000D03*
X114300000Y-109220000D03*
%TD*%
%TO.C,J118*%
X93980000Y-127000000D03*
X93980000Y-124460000D03*
%TD*%
%TO.C,J127*%
X116840000Y-127000000D03*
X116840000Y-124460000D03*
%TD*%
%TO.C,J69*%
X50800000Y-127000000D03*
X50800000Y-124460000D03*
%TD*%
%TO.C,J111*%
X116840000Y-119380000D03*
X116840000Y-116760000D03*
X116840000Y-114220000D03*
X116840000Y-111760000D03*
X116840000Y-109220000D03*
%TD*%
%TO.C,J91*%
X106680000Y-101600000D03*
X106680000Y-98980000D03*
X106680000Y-96440000D03*
X106680000Y-93980000D03*
X106680000Y-91440000D03*
%TD*%
%TO.C,J82*%
X83820000Y-101600000D03*
X83820000Y-98980000D03*
X83820000Y-96440000D03*
X83820000Y-93980000D03*
X83820000Y-91440000D03*
%TD*%
%TO.C,J120*%
X99060000Y-127000000D03*
X99060000Y-124460000D03*
%TD*%
%TO.C,J96*%
X119380000Y-101600000D03*
X119380000Y-98980000D03*
X119380000Y-96440000D03*
X119380000Y-93980000D03*
X119380000Y-91440000D03*
%TD*%
%TO.C,J109*%
X111760000Y-119380000D03*
X111760000Y-116760000D03*
X111760000Y-114220000D03*
X111760000Y-111760000D03*
X111760000Y-109220000D03*
%TD*%
%TO.C,J71*%
X55880000Y-127000000D03*
X55880000Y-124460000D03*
%TD*%
%TO.C,J112*%
X119380000Y-119380000D03*
X119380000Y-116760000D03*
X119380000Y-114220000D03*
X119380000Y-111760000D03*
X119380000Y-109220000D03*
%TD*%
%TO.C,J98*%
X83820000Y-119380000D03*
X83820000Y-116760000D03*
X83820000Y-114220000D03*
X83820000Y-111760000D03*
X83820000Y-109220000D03*
%TD*%
%TO.C,J66*%
X43180000Y-127000000D03*
X43180000Y-124460000D03*
%TD*%
%TO.C,J94*%
X114300000Y-101600000D03*
X114300000Y-98980000D03*
X114300000Y-96440000D03*
X114300000Y-93980000D03*
X114300000Y-91440000D03*
%TD*%
%TO.C,J60*%
X109220000Y-86360000D03*
X109220000Y-83820000D03*
%TD*%
%TO.C,J104*%
X99060000Y-119380000D03*
X99060000Y-116760000D03*
X99060000Y-114220000D03*
X99060000Y-111760000D03*
X99060000Y-109220000D03*
%TD*%
%TO.C,J86*%
X93980000Y-101600000D03*
X93980000Y-98980000D03*
X93980000Y-96440000D03*
X93980000Y-93980000D03*
X93980000Y-91440000D03*
%TD*%
%TO.C,J76*%
X68580000Y-127000000D03*
X68580000Y-124460000D03*
%TD*%
%TO.C,J95*%
X116840000Y-101600000D03*
X116840000Y-98980000D03*
X116840000Y-96440000D03*
X116840000Y-93980000D03*
X116840000Y-91440000D03*
%TD*%
%TO.C,J57*%
X101600000Y-86360000D03*
X101600000Y-83820000D03*
%TD*%
%TO.C,J77*%
X71120000Y-127000000D03*
X71120000Y-124460000D03*
%TD*%
%TO.C,J85*%
X91440000Y-101600000D03*
X91440000Y-98980000D03*
X91440000Y-96440000D03*
X91440000Y-93980000D03*
X91440000Y-91440000D03*
%TD*%
%TO.C,J55*%
X76200000Y-119380000D03*
X76200000Y-116760000D03*
X76200000Y-114220000D03*
X76200000Y-111760000D03*
X76200000Y-109220000D03*
%TD*%
%TO.C,J51*%
X66040000Y-119380000D03*
X66040000Y-116760000D03*
X66040000Y-114220000D03*
X66040000Y-111760000D03*
X66040000Y-109220000D03*
%TD*%
%TO.C,J87*%
X96520000Y-101600000D03*
X96520000Y-98980000D03*
X96520000Y-96440000D03*
X96520000Y-93980000D03*
X96520000Y-91440000D03*
%TD*%
%TO.C,J121*%
X101600000Y-127000000D03*
X101600000Y-124460000D03*
%TD*%
%TO.C,J58*%
X104140000Y-86360000D03*
X104140000Y-83820000D03*
%TD*%
%TO.C,J67*%
X45720000Y-127000000D03*
X45720000Y-124460000D03*
%TD*%
%TO.C,J92*%
X109220000Y-101600000D03*
X109220000Y-98980000D03*
X109220000Y-96440000D03*
X109220000Y-93980000D03*
X109220000Y-91440000D03*
%TD*%
%TO.C,J65*%
X40640000Y-127000000D03*
X40640000Y-124460000D03*
%TD*%
%TO.C,J54*%
X73660000Y-119380000D03*
X73660000Y-116760000D03*
X73660000Y-114220000D03*
X73660000Y-111760000D03*
X73660000Y-109220000D03*
%TD*%
%TO.C,J63*%
X116840000Y-86360000D03*
X116840000Y-83820000D03*
%TD*%
%TO.C,J61*%
X111760000Y-86360000D03*
X111760000Y-83820000D03*
%TD*%
%TO.C,J56*%
X78740000Y-119380000D03*
X78740000Y-116760000D03*
X78740000Y-114220000D03*
X78740000Y-111760000D03*
X78740000Y-109220000D03*
%TD*%
%TO.C,J52*%
X68580000Y-119460000D03*
X68580000Y-116840000D03*
X68580000Y-114300000D03*
X68580000Y-111840000D03*
X68580000Y-109300000D03*
%TD*%
%TO.C,J46*%
X53340000Y-119380000D03*
X53340000Y-116760000D03*
X53340000Y-114220000D03*
X53340000Y-111760000D03*
X53340000Y-109220000D03*
%TD*%
%TO.C,J106*%
X104140000Y-119380000D03*
X104140000Y-116760000D03*
X104140000Y-114220000D03*
X104140000Y-111760000D03*
X104140000Y-109220000D03*
%TD*%
%TO.C,J27*%
X76200000Y-101600000D03*
X76200000Y-98980000D03*
X76200000Y-96440000D03*
X76200000Y-93980000D03*
X76200000Y-91440000D03*
%TD*%
%TO.C,J81*%
X81280000Y-101600000D03*
X81280000Y-98980000D03*
X81280000Y-96440000D03*
X81280000Y-93980000D03*
X81280000Y-91440000D03*
%TD*%
%TO.C,J50*%
X63500000Y-119380000D03*
X63500000Y-116760000D03*
X63500000Y-114220000D03*
X63500000Y-111760000D03*
X63500000Y-109220000D03*
%TD*%
%TO.C,J53*%
X71120000Y-119380000D03*
X71120000Y-116760000D03*
X71120000Y-114220000D03*
X71120000Y-111760000D03*
X71120000Y-109220000D03*
%TD*%
%TO.C,J68*%
X48260000Y-127000000D03*
X48260000Y-124460000D03*
%TD*%
%TO.C,J59*%
X106680000Y-86360000D03*
X106680000Y-83820000D03*
%TD*%
%TO.C,J72*%
X58420000Y-127000000D03*
X58420000Y-124460000D03*
%TD*%
%TO.C,J59*%
X187960000Y-86360000D03*
X187960000Y-83820000D03*
%TD*%
%TO.C,J68*%
X129540000Y-127000000D03*
X129540000Y-124460000D03*
%TD*%
%TO.C,J70*%
X134620000Y-127000000D03*
X134620000Y-124460000D03*
%TD*%
%TO.C,J45*%
X50800000Y-119380000D03*
X50800000Y-116760000D03*
X50800000Y-114220000D03*
X50800000Y-111760000D03*
X50800000Y-109220000D03*
%TD*%
%TO.C,J62*%
X195580000Y-86360000D03*
X195580000Y-83820000D03*
%TD*%
%TO.C,J29*%
X71120000Y-86360000D03*
X71120000Y-83820000D03*
%TD*%
%TO.C,J47*%
X55880000Y-119380000D03*
X55880000Y-116760000D03*
X55880000Y-114220000D03*
X55880000Y-111760000D03*
X55880000Y-109220000D03*
%TD*%
%TO.C,J64*%
X200660000Y-86360000D03*
X200660000Y-83820000D03*
%TD*%
%TO.C,J72*%
X139700000Y-127000000D03*
X139700000Y-124460000D03*
%TD*%
%TO.C,J70*%
X53340000Y-127000000D03*
X53340000Y-124460000D03*
%TD*%
%TO.C,J39*%
X96520000Y-86360000D03*
X96520000Y-83820000D03*
%TD*%
%TO.C,J35*%
X86360000Y-86360000D03*
X86360000Y-83820000D03*
%TD*%
%TO.C,J107*%
X106680000Y-119380000D03*
X106680000Y-116760000D03*
X106680000Y-114220000D03*
X106680000Y-111760000D03*
X106680000Y-109220000D03*
%TD*%
%TO.C,J62*%
X114300000Y-86360000D03*
X114300000Y-83820000D03*
%TD*%
%TO.C,J100*%
X88900000Y-119380000D03*
X88900000Y-116760000D03*
X88900000Y-114220000D03*
X88900000Y-111760000D03*
X88900000Y-109220000D03*
%TD*%
%TO.C,J34*%
X83820000Y-86360000D03*
X83820000Y-83820000D03*
%TD*%
%TO.C,J64*%
X119380000Y-86360000D03*
X119380000Y-83820000D03*
%TD*%
%TO.C,J32*%
X78740000Y-86360000D03*
X78740000Y-83820000D03*
%TD*%
%TO.C,J21*%
X60960000Y-101600000D03*
X60960000Y-98980000D03*
X60960000Y-96440000D03*
X60960000Y-93980000D03*
X60960000Y-91440000D03*
%TD*%
%TO.C,J26*%
X73660000Y-101600000D03*
X73660000Y-98980000D03*
X73660000Y-96440000D03*
X73660000Y-93980000D03*
X73660000Y-91440000D03*
%TD*%
%TO.C,J25*%
X71120000Y-101600000D03*
X71120000Y-98980000D03*
X71120000Y-96440000D03*
X71120000Y-93980000D03*
X71120000Y-91440000D03*
%TD*%
%TO.C,J40*%
X99060000Y-86360000D03*
X99060000Y-83820000D03*
%TD*%
%TO.C,J44*%
X48260000Y-119380000D03*
X48260000Y-116760000D03*
X48260000Y-114220000D03*
X48260000Y-111760000D03*
X48260000Y-109220000D03*
%TD*%
%TO.C,J36*%
X88900000Y-86360000D03*
X88900000Y-83820000D03*
%TD*%
%TO.C,J33*%
X81280000Y-86360000D03*
X81280000Y-83820000D03*
%TD*%
%TO.C,J19*%
X65900000Y-86360000D03*
X65900000Y-83820000D03*
%TD*%
%TO.C,J16*%
X58420000Y-86360000D03*
X58420000Y-83820000D03*
%TD*%
%TO.C,J38*%
X93980000Y-86360000D03*
X93980000Y-83820000D03*
%TD*%
%TO.C,J37*%
X91440000Y-86360000D03*
X91440000Y-83820000D03*
%TD*%
%TO.C,J17*%
X60820000Y-86360000D03*
X60820000Y-83820000D03*
%TD*%
%TO.C,J23*%
X66040000Y-101600000D03*
X66040000Y-98980000D03*
X66040000Y-96440000D03*
X66040000Y-93980000D03*
X66040000Y-91440000D03*
%TD*%
%TO.C,J12*%
X53340000Y-86360000D03*
X53340000Y-83820000D03*
%TD*%
%TO.C,J42*%
X43180000Y-119380000D03*
X43180000Y-116760000D03*
X43180000Y-114220000D03*
X43180000Y-111760000D03*
X43180000Y-109220000D03*
%TD*%
%TO.C,J15*%
X58420000Y-101600000D03*
X58420000Y-98980000D03*
X58420000Y-96440000D03*
X58420000Y-93980000D03*
X58420000Y-91440000D03*
%TD*%
%TO.C,J31*%
X76200000Y-86360000D03*
X76200000Y-83820000D03*
%TD*%
%TO.C,J49*%
X60960000Y-119380000D03*
X60960000Y-116760000D03*
X60960000Y-114220000D03*
X60960000Y-111760000D03*
X60960000Y-109220000D03*
%TD*%
%TO.C,J13*%
X55880000Y-86360000D03*
X55880000Y-83820000D03*
%TD*%
%TO.C,J41*%
X40640000Y-119380000D03*
X40640000Y-116760000D03*
X40640000Y-114220000D03*
X40640000Y-111760000D03*
X40640000Y-109220000D03*
%TD*%
%TO.C,J30*%
X73660000Y-86360000D03*
X73660000Y-83820000D03*
%TD*%
%TO.C,J18*%
X63360000Y-86360000D03*
X63360000Y-83820000D03*
%TD*%
%TO.C,J4*%
X43180000Y-86360000D03*
X43180000Y-83820000D03*
%TD*%
%TO.C,J43*%
X45720000Y-119380000D03*
X45720000Y-116760000D03*
X45720000Y-114220000D03*
X45720000Y-111760000D03*
X45720000Y-109220000D03*
%TD*%
%TO.C,J117*%
X91440000Y-127000000D03*
X91440000Y-124460000D03*
%TD*%
%TO.C,J125*%
X111760000Y-127000000D03*
X111760000Y-124460000D03*
%TD*%
%TO.C,J6*%
X45720000Y-101600000D03*
X45720000Y-98980000D03*
X45720000Y-96440000D03*
X45720000Y-93980000D03*
X45720000Y-91440000D03*
%TD*%
%TO.C,J5*%
X45720000Y-86360000D03*
X45720000Y-83820000D03*
%TD*%
%TO.C,J115*%
X86360000Y-127000000D03*
X86360000Y-124460000D03*
%TD*%
%TO.C,J119*%
X96520000Y-127000000D03*
X96520000Y-124460000D03*
%TD*%
%TO.C,J10*%
X50800000Y-101600000D03*
X50800000Y-98980000D03*
X50800000Y-96440000D03*
X50800000Y-93980000D03*
X50800000Y-91440000D03*
%TD*%
%TO.C,J114*%
X83820000Y-127000000D03*
X83820000Y-124460000D03*
%TD*%
%TO.C,J14*%
X55880000Y-101600000D03*
X55880000Y-98980000D03*
X55880000Y-96440000D03*
X55880000Y-93980000D03*
X55880000Y-91440000D03*
%TD*%
%TO.C,J11*%
X53340000Y-101600000D03*
X53340000Y-98980000D03*
X53340000Y-96440000D03*
X53340000Y-93980000D03*
X53340000Y-91440000D03*
%TD*%
%TO.C,J8*%
X48260000Y-86360000D03*
X48260000Y-83820000D03*
%TD*%
%TO.C,J22*%
X63500000Y-101600000D03*
X63500000Y-98980000D03*
X63500000Y-96440000D03*
X63500000Y-93980000D03*
X63500000Y-91440000D03*
%TD*%
%TO.C,J7*%
X48260000Y-101600000D03*
X48260000Y-98980000D03*
X48260000Y-96440000D03*
X48260000Y-93980000D03*
X48260000Y-91440000D03*
%TD*%
%TO.C,J123*%
X106680000Y-127000000D03*
X106680000Y-124460000D03*
%TD*%
%TO.C,J128*%
X119380000Y-127000000D03*
X119380000Y-124460000D03*
%TD*%
%TO.C,J28*%
X78740000Y-101600000D03*
X78740000Y-98980000D03*
X78740000Y-96440000D03*
X78740000Y-93980000D03*
X78740000Y-91440000D03*
%TD*%
%TO.C,J126*%
X114300000Y-127000000D03*
X114300000Y-124460000D03*
%TD*%
%TO.C,J93*%
X111760000Y-101600000D03*
X111760000Y-98980000D03*
X111760000Y-96440000D03*
X111760000Y-93980000D03*
X111760000Y-91440000D03*
%TD*%
%TO.C,J3*%
X40640000Y-86360000D03*
X40640000Y-83820000D03*
%TD*%
%TO.C,J122*%
X104140000Y-127000000D03*
X104140000Y-124460000D03*
%TD*%
%TO.C,J88*%
X99060000Y-101600000D03*
X99060000Y-98980000D03*
X99060000Y-96440000D03*
X99060000Y-93980000D03*
X99060000Y-91440000D03*
%TD*%
%TO.C,J113*%
X81280000Y-127000000D03*
X81280000Y-124460000D03*
%TD*%
%TO.C,J48*%
X58420000Y-119380000D03*
X58420000Y-116760000D03*
X58420000Y-114220000D03*
X58420000Y-111760000D03*
X58420000Y-109220000D03*
%TD*%
%TO.C,J73*%
X60960000Y-127000000D03*
X60960000Y-124460000D03*
%TD*%
%TO.C,J124*%
X109220000Y-127000000D03*
X109220000Y-124460000D03*
%TD*%
%TO.C,J90*%
X104140000Y-101600000D03*
X104140000Y-98980000D03*
X104140000Y-96440000D03*
X104140000Y-93980000D03*
X104140000Y-91440000D03*
%TD*%
%TO.C,J83*%
X86360000Y-101600000D03*
X86360000Y-98980000D03*
X86360000Y-96440000D03*
X86360000Y-93980000D03*
X86360000Y-91440000D03*
%TD*%
%TO.C,J79*%
X76200000Y-127000000D03*
X76200000Y-124460000D03*
%TD*%
%TO.C,J25*%
X152400000Y-101600000D03*
X152400000Y-98980000D03*
X152400000Y-96440000D03*
X152400000Y-93980000D03*
X152400000Y-91440000D03*
%TD*%
%TO.C,J26*%
X154940000Y-101600000D03*
X154940000Y-98980000D03*
X154940000Y-96440000D03*
X154940000Y-93980000D03*
X154940000Y-91440000D03*
%TD*%
%TO.C,J19*%
X147180000Y-86360000D03*
X147180000Y-83820000D03*
%TD*%
%TO.C,J27*%
X157480000Y-101600000D03*
X157480000Y-98980000D03*
X157480000Y-96440000D03*
X157480000Y-93980000D03*
X157480000Y-91440000D03*
%TD*%
%TO.C,J17*%
X142100000Y-86360000D03*
X142100000Y-83820000D03*
%TD*%
%TO.C,J41*%
X121920000Y-119380000D03*
X121920000Y-116760000D03*
X121920000Y-114220000D03*
X121920000Y-111760000D03*
X121920000Y-109220000D03*
%TD*%
%TO.C,J16*%
X139700000Y-86360000D03*
X139700000Y-83820000D03*
%TD*%
%TO.C,J14*%
X137160000Y-101600000D03*
X137160000Y-98980000D03*
X137160000Y-96440000D03*
X137160000Y-93980000D03*
X137160000Y-91440000D03*
%TD*%
%TO.C,J21*%
X142240000Y-101600000D03*
X142240000Y-98980000D03*
X142240000Y-96440000D03*
X142240000Y-93980000D03*
X142240000Y-91440000D03*
%TD*%
%TO.C,J15*%
X139700000Y-101600000D03*
X139700000Y-98980000D03*
X139700000Y-96440000D03*
X139700000Y-93980000D03*
X139700000Y-91440000D03*
%TD*%
%TO.C,J32*%
X160020000Y-86360000D03*
X160020000Y-83820000D03*
%TD*%
%TO.C,J49*%
X142240000Y-119380000D03*
X142240000Y-116760000D03*
X142240000Y-114220000D03*
X142240000Y-111760000D03*
X142240000Y-109220000D03*
%TD*%
%TO.C,J20*%
X149860000Y-86360000D03*
X149860000Y-83820000D03*
%TD*%
%TO.C,J103*%
X96520000Y-119380000D03*
X96520000Y-116760000D03*
X96520000Y-114220000D03*
X96520000Y-111760000D03*
X96520000Y-109220000D03*
%TD*%
%TO.C,J101*%
X91440000Y-119380000D03*
X91440000Y-116760000D03*
X91440000Y-114220000D03*
X91440000Y-111760000D03*
X91440000Y-109220000D03*
%TD*%
%TO.C,J99*%
X86360000Y-119380000D03*
X86360000Y-116760000D03*
X86360000Y-114220000D03*
X86360000Y-111760000D03*
X86360000Y-109220000D03*
%TD*%
%TO.C,J84*%
X88900000Y-101600000D03*
X88900000Y-98980000D03*
X88900000Y-96440000D03*
X88900000Y-93980000D03*
X88900000Y-91440000D03*
%TD*%
%TO.C,J78*%
X73660000Y-127000000D03*
X73660000Y-124460000D03*
%TD*%
%TO.C,J102*%
X93980000Y-119380000D03*
X93980000Y-116760000D03*
X93980000Y-114220000D03*
X93980000Y-111760000D03*
X93980000Y-109220000D03*
%TD*%
%TO.C,J105*%
X101600000Y-119380000D03*
X101600000Y-116760000D03*
X101600000Y-114220000D03*
X101600000Y-111760000D03*
X101600000Y-109220000D03*
%TD*%
%TO.C,J89*%
X101600000Y-101600000D03*
X101600000Y-98980000D03*
X101600000Y-96440000D03*
X101600000Y-93980000D03*
X101600000Y-91440000D03*
%TD*%
%TO.C,J67*%
X127000000Y-127000000D03*
X127000000Y-124460000D03*
%TD*%
%TO.C,J74*%
X63500000Y-127000000D03*
X63500000Y-124460000D03*
%TD*%
%TO.C,J61*%
X193040000Y-86360000D03*
X193040000Y-83820000D03*
%TD*%
%TO.C,J80*%
X78740000Y-127000000D03*
X78740000Y-124460000D03*
%TD*%
%TO.C,J108*%
X109220000Y-119380000D03*
X109220000Y-116760000D03*
X109220000Y-114220000D03*
X109220000Y-111760000D03*
X109220000Y-109220000D03*
%TD*%
%TO.C,J75*%
X66040000Y-127000000D03*
X66040000Y-124460000D03*
%TD*%
%TO.C,J97*%
X81280000Y-119380000D03*
X81280000Y-116760000D03*
X81280000Y-114220000D03*
X81280000Y-111760000D03*
X81280000Y-109220000D03*
%TD*%
%TO.C,J2*%
X292100000Y-40640000D03*
X292100000Y-43180000D03*
X292100000Y-45640000D03*
X292100000Y-48180000D03*
X292100000Y-50800000D03*
%TD*%
%TO.C,J116*%
X337820000Y-73660000D03*
X337820000Y-76200000D03*
%TD*%
%TO.C,J5*%
X294640000Y-33020000D03*
X294640000Y-35560000D03*
%TD*%
%TO.C,J1*%
X289560000Y-40640000D03*
X289560000Y-43180000D03*
X289560000Y-45640000D03*
X289560000Y-48180000D03*
X289560000Y-50800000D03*
%TD*%
%TO.C,J7*%
X297180000Y-40640000D03*
X297180000Y-43180000D03*
X297180000Y-45640000D03*
X297180000Y-48180000D03*
X297180000Y-50800000D03*
%TD*%
%TO.C,J126*%
X363220000Y-73660000D03*
X363220000Y-76200000D03*
%TD*%
%TO.C,J125*%
X360680000Y-73660000D03*
X360680000Y-76200000D03*
%TD*%
%TO.C,J10*%
X299720000Y-40640000D03*
X299720000Y-43180000D03*
X299720000Y-45640000D03*
X299720000Y-48180000D03*
X299720000Y-50800000D03*
%TD*%
%TO.C,J128*%
X368300000Y-73660000D03*
X368300000Y-76200000D03*
%TD*%
%TO.C,J4*%
X292100000Y-33020000D03*
X292100000Y-35560000D03*
%TD*%
%TO.C,J3*%
X289560000Y-33020000D03*
X289560000Y-35560000D03*
%TD*%
%TO.C,J120*%
X347980000Y-73660000D03*
X347980000Y-76200000D03*
%TD*%
%TO.C,J124*%
X358140000Y-73660000D03*
X358140000Y-76200000D03*
%TD*%
%TO.C,J9*%
X299720000Y-33020000D03*
X299720000Y-35560000D03*
%TD*%
%TO.C,J8*%
X297180000Y-33020000D03*
X297180000Y-35560000D03*
%TD*%
%TO.C,J24*%
X317500000Y-40720000D03*
X317500000Y-43260000D03*
X317500000Y-45720000D03*
X317500000Y-48260000D03*
X317500000Y-50880000D03*
%TD*%
%TO.C,J28*%
X327660000Y-40640000D03*
X327660000Y-43180000D03*
X327660000Y-45640000D03*
X327660000Y-48180000D03*
X327660000Y-50800000D03*
%TD*%
%TO.C,J6*%
X294640000Y-40640000D03*
X294640000Y-43180000D03*
X294640000Y-45640000D03*
X294640000Y-48180000D03*
X294640000Y-50800000D03*
%TD*%
%TO.C,J123*%
X355600000Y-73660000D03*
X355600000Y-76200000D03*
%TD*%
%TO.C,J115*%
X335280000Y-73660000D03*
X335280000Y-76200000D03*
%TD*%
%TO.C,J127*%
X365760000Y-73660000D03*
X365760000Y-76200000D03*
%TD*%
%TO.C,J110*%
X363220000Y-58420000D03*
X363220000Y-60960000D03*
X363220000Y-63420000D03*
X363220000Y-65960000D03*
X363220000Y-68580000D03*
%TD*%
%TO.C,J102*%
X342900000Y-58420000D03*
X342900000Y-60960000D03*
X342900000Y-63420000D03*
X342900000Y-65960000D03*
X342900000Y-68580000D03*
%TD*%
%TO.C,J112*%
X368300000Y-58420000D03*
X368300000Y-60960000D03*
X368300000Y-63420000D03*
X368300000Y-65960000D03*
X368300000Y-68580000D03*
%TD*%
%TO.C,J101*%
X340360000Y-58420000D03*
X340360000Y-60960000D03*
X340360000Y-63420000D03*
X340360000Y-65960000D03*
X340360000Y-68580000D03*
%TD*%
%TO.C,J113*%
X330200000Y-73660000D03*
X330200000Y-76200000D03*
%TD*%
%TO.C,J106*%
X353060000Y-58420000D03*
X353060000Y-60960000D03*
X353060000Y-63420000D03*
X353060000Y-65960000D03*
X353060000Y-68580000D03*
%TD*%
%TO.C,J103*%
X345440000Y-58420000D03*
X345440000Y-60960000D03*
X345440000Y-63420000D03*
X345440000Y-65960000D03*
X345440000Y-68580000D03*
%TD*%
%TO.C,J108*%
X358140000Y-58420000D03*
X358140000Y-60960000D03*
X358140000Y-63420000D03*
X358140000Y-65960000D03*
X358140000Y-68580000D03*
%TD*%
%TO.C,J122*%
X353060000Y-73660000D03*
X353060000Y-76200000D03*
%TD*%
%TO.C,J117*%
X340360000Y-73660000D03*
X340360000Y-76200000D03*
%TD*%
%TO.C,J114*%
X332740000Y-73660000D03*
X332740000Y-76200000D03*
%TD*%
%TO.C,J105*%
X350520000Y-58420000D03*
X350520000Y-60960000D03*
X350520000Y-63420000D03*
X350520000Y-65960000D03*
X350520000Y-68580000D03*
%TD*%
%TO.C,J121*%
X350520000Y-73660000D03*
X350520000Y-76200000D03*
%TD*%
%TO.C,J119*%
X345440000Y-73660000D03*
X345440000Y-76200000D03*
%TD*%
%TO.C,J99*%
X335280000Y-58420000D03*
X335280000Y-60960000D03*
X335280000Y-63420000D03*
X335280000Y-65960000D03*
X335280000Y-68580000D03*
%TD*%
%TO.C,J104*%
X347980000Y-58420000D03*
X347980000Y-60960000D03*
X347980000Y-63420000D03*
X347980000Y-65960000D03*
X347980000Y-68580000D03*
%TD*%
%TO.C,J118*%
X342900000Y-73660000D03*
X342900000Y-76200000D03*
%TD*%
%TO.C,J111*%
X365760000Y-58420000D03*
X365760000Y-60960000D03*
X365760000Y-63420000D03*
X365760000Y-65960000D03*
X365760000Y-68580000D03*
%TD*%
%TO.C,J100*%
X337820000Y-58420000D03*
X337820000Y-60960000D03*
X337820000Y-63420000D03*
X337820000Y-65960000D03*
X337820000Y-68580000D03*
%TD*%
%TO.C,J109*%
X360680000Y-58420000D03*
X360680000Y-60960000D03*
X360680000Y-63420000D03*
X360680000Y-65960000D03*
X360680000Y-68580000D03*
%TD*%
%TO.C,J97*%
X330200000Y-58420000D03*
X330200000Y-60960000D03*
X330200000Y-63420000D03*
X330200000Y-65960000D03*
X330200000Y-68580000D03*
%TD*%
%TO.C,J93*%
X360680000Y-40640000D03*
X360680000Y-43180000D03*
X360680000Y-45640000D03*
X360680000Y-48180000D03*
X360680000Y-50800000D03*
%TD*%
%TO.C,J95*%
X365760000Y-40640000D03*
X365760000Y-43180000D03*
X365760000Y-45640000D03*
X365760000Y-48180000D03*
X365760000Y-50800000D03*
%TD*%
%TO.C,J90*%
X353060000Y-40640000D03*
X353060000Y-43180000D03*
X353060000Y-45640000D03*
X353060000Y-48180000D03*
X353060000Y-50800000D03*
%TD*%
%TO.C,J83*%
X335280000Y-40640000D03*
X335280000Y-43180000D03*
X335280000Y-45640000D03*
X335280000Y-48180000D03*
X335280000Y-50800000D03*
%TD*%
%TO.C,J78*%
X322580000Y-73660000D03*
X322580000Y-76200000D03*
%TD*%
%TO.C,J96*%
X368300000Y-40640000D03*
X368300000Y-43180000D03*
X368300000Y-45640000D03*
X368300000Y-48180000D03*
X368300000Y-50800000D03*
%TD*%
%TO.C,J75*%
X314960000Y-73660000D03*
X314960000Y-76200000D03*
%TD*%
%TO.C,J77*%
X320040000Y-73660000D03*
X320040000Y-76200000D03*
%TD*%
%TO.C,J98*%
X332740000Y-58420000D03*
X332740000Y-60960000D03*
X332740000Y-63420000D03*
X332740000Y-65960000D03*
X332740000Y-68580000D03*
%TD*%
%TO.C,J94*%
X363220000Y-40640000D03*
X363220000Y-43180000D03*
X363220000Y-45640000D03*
X363220000Y-48180000D03*
X363220000Y-50800000D03*
%TD*%
%TO.C,J84*%
X337820000Y-40640000D03*
X337820000Y-43180000D03*
X337820000Y-45640000D03*
X337820000Y-48180000D03*
X337820000Y-50800000D03*
%TD*%
%TO.C,J74*%
X312420000Y-73660000D03*
X312420000Y-76200000D03*
%TD*%
%TO.C,J91*%
X355600000Y-40640000D03*
X355600000Y-43180000D03*
X355600000Y-45640000D03*
X355600000Y-48180000D03*
X355600000Y-50800000D03*
%TD*%
%TO.C,J107*%
X355600000Y-58420000D03*
X355600000Y-60960000D03*
X355600000Y-63420000D03*
X355600000Y-65960000D03*
X355600000Y-68580000D03*
%TD*%
%TO.C,J89*%
X350520000Y-40640000D03*
X350520000Y-43180000D03*
X350520000Y-45640000D03*
X350520000Y-48180000D03*
X350520000Y-50800000D03*
%TD*%
%TO.C,J79*%
X325120000Y-73660000D03*
X325120000Y-76200000D03*
%TD*%
%TO.C,J81*%
X330200000Y-40640000D03*
X330200000Y-43180000D03*
X330200000Y-45640000D03*
X330200000Y-48180000D03*
X330200000Y-50800000D03*
%TD*%
%TO.C,J87*%
X345440000Y-40640000D03*
X345440000Y-43180000D03*
X345440000Y-45640000D03*
X345440000Y-48180000D03*
X345440000Y-50800000D03*
%TD*%
%TO.C,J80*%
X327660000Y-73660000D03*
X327660000Y-76200000D03*
%TD*%
%TO.C,J92*%
X358140000Y-40640000D03*
X358140000Y-43180000D03*
X358140000Y-45640000D03*
X358140000Y-48180000D03*
X358140000Y-50800000D03*
%TD*%
%TO.C,J88*%
X347980000Y-40640000D03*
X347980000Y-43180000D03*
X347980000Y-45640000D03*
X347980000Y-48180000D03*
X347980000Y-50800000D03*
%TD*%
%TO.C,J73*%
X309880000Y-73660000D03*
X309880000Y-76200000D03*
%TD*%
%TO.C,J86*%
X342900000Y-40640000D03*
X342900000Y-43180000D03*
X342900000Y-45640000D03*
X342900000Y-48180000D03*
X342900000Y-50800000D03*
%TD*%
%TO.C,J82*%
X332740000Y-40640000D03*
X332740000Y-43180000D03*
X332740000Y-45640000D03*
X332740000Y-48180000D03*
X332740000Y-50800000D03*
%TD*%
%TO.C,J85*%
X340360000Y-40640000D03*
X340360000Y-43180000D03*
X340360000Y-45640000D03*
X340360000Y-48180000D03*
X340360000Y-50800000D03*
%TD*%
%TO.C,J60*%
X358140000Y-33020000D03*
X358140000Y-35560000D03*
%TD*%
%TO.C,J66*%
X292100000Y-73660000D03*
X292100000Y-76200000D03*
%TD*%
%TO.C,J56*%
X327660000Y-58420000D03*
X327660000Y-60960000D03*
X327660000Y-63420000D03*
X327660000Y-65960000D03*
X327660000Y-68580000D03*
%TD*%
%TO.C,J55*%
X325120000Y-58420000D03*
X325120000Y-60960000D03*
X325120000Y-63420000D03*
X325120000Y-65960000D03*
X325120000Y-68580000D03*
%TD*%
%TO.C,J58*%
X353060000Y-33020000D03*
X353060000Y-35560000D03*
%TD*%
%TO.C,J71*%
X304800000Y-73660000D03*
X304800000Y-76200000D03*
%TD*%
%TO.C,J69*%
X299720000Y-73660000D03*
X299720000Y-76200000D03*
%TD*%
%TO.C,J65*%
X289560000Y-73660000D03*
X289560000Y-76200000D03*
%TD*%
%TO.C,J63*%
X365760000Y-33020000D03*
X365760000Y-35560000D03*
%TD*%
%TO.C,J57*%
X350520000Y-33020000D03*
X350520000Y-35560000D03*
%TD*%
%TO.C,J51*%
X314960000Y-58420000D03*
X314960000Y-60960000D03*
X314960000Y-63420000D03*
X314960000Y-65960000D03*
X314960000Y-68580000D03*
%TD*%
%TO.C,J50*%
X312420000Y-58420000D03*
X312420000Y-60960000D03*
X312420000Y-63420000D03*
X312420000Y-65960000D03*
X312420000Y-68580000D03*
%TD*%
%TO.C,J53*%
X320040000Y-58420000D03*
X320040000Y-60960000D03*
X320040000Y-63420000D03*
X320040000Y-65960000D03*
X320040000Y-68580000D03*
%TD*%
%TO.C,J52*%
X317500000Y-58500000D03*
X317500000Y-61040000D03*
X317500000Y-63500000D03*
X317500000Y-66040000D03*
X317500000Y-68660000D03*
%TD*%
%TO.C,J76*%
X317500000Y-73660000D03*
X317500000Y-76200000D03*
%TD*%
%TO.C,J54*%
X322580000Y-58420000D03*
X322580000Y-60960000D03*
X322580000Y-63420000D03*
X322580000Y-65960000D03*
X322580000Y-68580000D03*
%TD*%
%TO.C,J45*%
X299720000Y-58420000D03*
X299720000Y-60960000D03*
X299720000Y-63420000D03*
X299720000Y-65960000D03*
X299720000Y-68580000D03*
%TD*%
%TO.C,J42*%
X292100000Y-58420000D03*
X292100000Y-60960000D03*
X292100000Y-63420000D03*
X292100000Y-65960000D03*
X292100000Y-68580000D03*
%TD*%
%TO.C,J35*%
X335280000Y-33020000D03*
X335280000Y-35560000D03*
%TD*%
%TO.C,J34*%
X332740000Y-33020000D03*
X332740000Y-35560000D03*
%TD*%
%TO.C,J31*%
X325120000Y-33020000D03*
X325120000Y-35560000D03*
%TD*%
%TO.C,J29*%
X320040000Y-33020000D03*
X320040000Y-35560000D03*
%TD*%
%TO.C,J37*%
X340360000Y-33020000D03*
X340360000Y-35560000D03*
%TD*%
%TO.C,J39*%
X345440000Y-33020000D03*
X345440000Y-35560000D03*
%TD*%
%TO.C,J43*%
X294640000Y-58420000D03*
X294640000Y-60960000D03*
X294640000Y-63420000D03*
X294640000Y-65960000D03*
X294640000Y-68580000D03*
%TD*%
%TO.C,J33*%
X330200000Y-33020000D03*
X330200000Y-35560000D03*
%TD*%
%TO.C,J47*%
X304800000Y-58420000D03*
X304800000Y-60960000D03*
X304800000Y-63420000D03*
X304800000Y-65960000D03*
X304800000Y-68580000D03*
%TD*%
%TO.C,J38*%
X342900000Y-33020000D03*
X342900000Y-35560000D03*
%TD*%
%TO.C,J40*%
X347980000Y-33020000D03*
X347980000Y-35560000D03*
%TD*%
%TO.C,J46*%
X302260000Y-58420000D03*
X302260000Y-60960000D03*
X302260000Y-63420000D03*
X302260000Y-65960000D03*
X302260000Y-68580000D03*
%TD*%
%TO.C,J30*%
X322580000Y-33020000D03*
X322580000Y-35560000D03*
%TD*%
%TO.C,J22*%
X312420000Y-40640000D03*
X312420000Y-43180000D03*
X312420000Y-45640000D03*
X312420000Y-48180000D03*
X312420000Y-50800000D03*
%TD*%
%TO.C,J48*%
X307340000Y-58420000D03*
X307340000Y-60960000D03*
X307340000Y-63420000D03*
X307340000Y-65960000D03*
X307340000Y-68580000D03*
%TD*%
%TO.C,J36*%
X337820000Y-33020000D03*
X337820000Y-35560000D03*
%TD*%
%TO.C,J44*%
X297180000Y-58420000D03*
X297180000Y-60960000D03*
X297180000Y-63420000D03*
X297180000Y-65960000D03*
X297180000Y-68580000D03*
%TD*%
%TO.C,J12*%
X302260000Y-33020000D03*
X302260000Y-35560000D03*
%TD*%
%TO.C,J11*%
X302260000Y-40640000D03*
X302260000Y-43180000D03*
X302260000Y-45640000D03*
X302260000Y-48180000D03*
X302260000Y-50800000D03*
%TD*%
%TO.C,J23*%
X314960000Y-40640000D03*
X314960000Y-43180000D03*
X314960000Y-45640000D03*
X314960000Y-48180000D03*
X314960000Y-50800000D03*
%TD*%
%TO.C,J18*%
X312280000Y-33020000D03*
X312280000Y-35560000D03*
%TD*%
%TO.C,J13*%
X304800000Y-33020000D03*
X304800000Y-35560000D03*
%TD*%
%TO.C,J25*%
X320040000Y-40640000D03*
X320040000Y-43180000D03*
X320040000Y-45640000D03*
X320040000Y-48180000D03*
X320040000Y-50800000D03*
%TD*%
%TO.C,J17*%
X309740000Y-33020000D03*
X309740000Y-35560000D03*
%TD*%
%TO.C,J26*%
X322580000Y-40640000D03*
X322580000Y-43180000D03*
X322580000Y-45640000D03*
X322580000Y-48180000D03*
X322580000Y-50800000D03*
%TD*%
%TO.C,J19*%
X314820000Y-33020000D03*
X314820000Y-35560000D03*
%TD*%
%TO.C,J27*%
X325120000Y-40640000D03*
X325120000Y-43180000D03*
X325120000Y-45640000D03*
X325120000Y-48180000D03*
X325120000Y-50800000D03*
%TD*%
%TO.C,J32*%
X327660000Y-33020000D03*
X327660000Y-35560000D03*
%TD*%
%TO.C,J49*%
X309880000Y-58420000D03*
X309880000Y-60960000D03*
X309880000Y-63420000D03*
X309880000Y-65960000D03*
X309880000Y-68580000D03*
%TD*%
%TO.C,J41*%
X289560000Y-58420000D03*
X289560000Y-60960000D03*
X289560000Y-63420000D03*
X289560000Y-65960000D03*
X289560000Y-68580000D03*
%TD*%
%TO.C,J20*%
X317500000Y-33020000D03*
X317500000Y-35560000D03*
%TD*%
%TO.C,J16*%
X307340000Y-33020000D03*
X307340000Y-35560000D03*
%TD*%
%TO.C,J14*%
X304800000Y-40640000D03*
X304800000Y-43180000D03*
X304800000Y-45640000D03*
X304800000Y-48180000D03*
X304800000Y-50800000D03*
%TD*%
%TO.C,J21*%
X309880000Y-40640000D03*
X309880000Y-43180000D03*
X309880000Y-45640000D03*
X309880000Y-48180000D03*
X309880000Y-50800000D03*
%TD*%
%TO.C,J15*%
X307340000Y-40640000D03*
X307340000Y-43180000D03*
X307340000Y-45640000D03*
X307340000Y-48180000D03*
X307340000Y-50800000D03*
%TD*%
%TO.C,J61*%
X360680000Y-33020000D03*
X360680000Y-35560000D03*
%TD*%
%TO.C,J67*%
X294640000Y-73660000D03*
X294640000Y-76200000D03*
%TD*%
%TO.C,J103*%
X264160000Y-58420000D03*
X264160000Y-60960000D03*
X264160000Y-63420000D03*
X264160000Y-65960000D03*
X264160000Y-68580000D03*
%TD*%
%TO.C,J101*%
X259080000Y-58420000D03*
X259080000Y-60960000D03*
X259080000Y-63420000D03*
X259080000Y-65960000D03*
X259080000Y-68580000D03*
%TD*%
%TO.C,J108*%
X276860000Y-58420000D03*
X276860000Y-60960000D03*
X276860000Y-63420000D03*
X276860000Y-65960000D03*
X276860000Y-68580000D03*
%TD*%
%TO.C,J99*%
X254000000Y-58420000D03*
X254000000Y-60960000D03*
X254000000Y-63420000D03*
X254000000Y-65960000D03*
X254000000Y-68580000D03*
%TD*%
%TO.C,J75*%
X233680000Y-73660000D03*
X233680000Y-76200000D03*
%TD*%
%TO.C,J84*%
X256540000Y-40640000D03*
X256540000Y-43180000D03*
X256540000Y-45640000D03*
X256540000Y-48180000D03*
X256540000Y-50800000D03*
%TD*%
%TO.C,J80*%
X246380000Y-73660000D03*
X246380000Y-76200000D03*
%TD*%
%TO.C,J74*%
X231140000Y-73660000D03*
X231140000Y-76200000D03*
%TD*%
%TO.C,J78*%
X241300000Y-73660000D03*
X241300000Y-76200000D03*
%TD*%
%TO.C,J102*%
X261620000Y-58420000D03*
X261620000Y-60960000D03*
X261620000Y-63420000D03*
X261620000Y-65960000D03*
X261620000Y-68580000D03*
%TD*%
%TO.C,J89*%
X269240000Y-40640000D03*
X269240000Y-43180000D03*
X269240000Y-45640000D03*
X269240000Y-48180000D03*
X269240000Y-50800000D03*
%TD*%
%TO.C,J105*%
X269240000Y-58420000D03*
X269240000Y-60960000D03*
X269240000Y-63420000D03*
X269240000Y-65960000D03*
X269240000Y-68580000D03*
%TD*%
%TO.C,J97*%
X248920000Y-58420000D03*
X248920000Y-60960000D03*
X248920000Y-63420000D03*
X248920000Y-65960000D03*
X248920000Y-68580000D03*
%TD*%
%TO.C,J93*%
X279400000Y-40640000D03*
X279400000Y-43180000D03*
X279400000Y-45640000D03*
X279400000Y-48180000D03*
X279400000Y-50800000D03*
%TD*%
%TO.C,J90*%
X271780000Y-40640000D03*
X271780000Y-43180000D03*
X271780000Y-45640000D03*
X271780000Y-48180000D03*
X271780000Y-50800000D03*
%TD*%
%TO.C,J83*%
X254000000Y-40640000D03*
X254000000Y-43180000D03*
X254000000Y-45640000D03*
X254000000Y-48180000D03*
X254000000Y-50800000D03*
%TD*%
%TO.C,J79*%
X243840000Y-73660000D03*
X243840000Y-76200000D03*
%TD*%
%TO.C,J122*%
X271780000Y-73660000D03*
X271780000Y-76200000D03*
%TD*%
%TO.C,J88*%
X266700000Y-40640000D03*
X266700000Y-43180000D03*
X266700000Y-45640000D03*
X266700000Y-48180000D03*
X266700000Y-50800000D03*
%TD*%
%TO.C,J113*%
X248920000Y-73660000D03*
X248920000Y-76200000D03*
%TD*%
%TO.C,J73*%
X228600000Y-73660000D03*
X228600000Y-76200000D03*
%TD*%
%TO.C,J124*%
X276860000Y-73660000D03*
X276860000Y-76200000D03*
%TD*%
%TO.C,J3*%
X208280000Y-33020000D03*
X208280000Y-35560000D03*
%TD*%
%TO.C,J48*%
X226060000Y-58420000D03*
X226060000Y-60960000D03*
X226060000Y-63420000D03*
X226060000Y-65960000D03*
X226060000Y-68580000D03*
%TD*%
%TO.C,J111*%
X284480000Y-58420000D03*
X284480000Y-60960000D03*
X284480000Y-63420000D03*
X284480000Y-65960000D03*
X284480000Y-68580000D03*
%TD*%
%TO.C,J91*%
X274320000Y-40640000D03*
X274320000Y-43180000D03*
X274320000Y-45640000D03*
X274320000Y-48180000D03*
X274320000Y-50800000D03*
%TD*%
%TO.C,J82*%
X251460000Y-40640000D03*
X251460000Y-43180000D03*
X251460000Y-45640000D03*
X251460000Y-48180000D03*
X251460000Y-50800000D03*
%TD*%
%TO.C,J69*%
X218440000Y-73660000D03*
X218440000Y-76200000D03*
%TD*%
%TO.C,J96*%
X287020000Y-40640000D03*
X287020000Y-43180000D03*
X287020000Y-45640000D03*
X287020000Y-48180000D03*
X287020000Y-50800000D03*
%TD*%
%TO.C,J120*%
X266700000Y-73660000D03*
X266700000Y-76200000D03*
%TD*%
%TO.C,J77*%
X238760000Y-73660000D03*
X238760000Y-76200000D03*
%TD*%
%TO.C,J98*%
X251460000Y-58420000D03*
X251460000Y-60960000D03*
X251460000Y-63420000D03*
X251460000Y-65960000D03*
X251460000Y-68580000D03*
%TD*%
%TO.C,J66*%
X210820000Y-73660000D03*
X210820000Y-76200000D03*
%TD*%
%TO.C,J94*%
X281940000Y-40640000D03*
X281940000Y-43180000D03*
X281940000Y-45640000D03*
X281940000Y-48180000D03*
X281940000Y-50800000D03*
%TD*%
%TO.C,J104*%
X266700000Y-58420000D03*
X266700000Y-60960000D03*
X266700000Y-63420000D03*
X266700000Y-65960000D03*
X266700000Y-68580000D03*
%TD*%
%TO.C,J76*%
X236220000Y-73660000D03*
X236220000Y-76200000D03*
%TD*%
%TO.C,J109*%
X279400000Y-58420000D03*
X279400000Y-60960000D03*
X279400000Y-63420000D03*
X279400000Y-65960000D03*
X279400000Y-68580000D03*
%TD*%
%TO.C,J95*%
X284480000Y-40640000D03*
X284480000Y-43180000D03*
X284480000Y-45640000D03*
X284480000Y-48180000D03*
X284480000Y-50800000D03*
%TD*%
%TO.C,J85*%
X259080000Y-40640000D03*
X259080000Y-43180000D03*
X259080000Y-45640000D03*
X259080000Y-48180000D03*
X259080000Y-50800000D03*
%TD*%
%TO.C,J86*%
X261620000Y-40640000D03*
X261620000Y-43180000D03*
X261620000Y-45640000D03*
X261620000Y-48180000D03*
X261620000Y-50800000D03*
%TD*%
%TO.C,J71*%
X223520000Y-73660000D03*
X223520000Y-76200000D03*
%TD*%
%TO.C,J60*%
X276860000Y-33020000D03*
X276860000Y-35560000D03*
%TD*%
%TO.C,J57*%
X269240000Y-33020000D03*
X269240000Y-35560000D03*
%TD*%
%TO.C,J112*%
X287020000Y-58420000D03*
X287020000Y-60960000D03*
X287020000Y-63420000D03*
X287020000Y-65960000D03*
X287020000Y-68580000D03*
%TD*%
%TO.C,J56*%
X246380000Y-58420000D03*
X246380000Y-60960000D03*
X246380000Y-63420000D03*
X246380000Y-65960000D03*
X246380000Y-68580000D03*
%TD*%
%TO.C,J55*%
X243840000Y-58420000D03*
X243840000Y-60960000D03*
X243840000Y-63420000D03*
X243840000Y-65960000D03*
X243840000Y-68580000D03*
%TD*%
%TO.C,J52*%
X236220000Y-58500000D03*
X236220000Y-61040000D03*
X236220000Y-63500000D03*
X236220000Y-66040000D03*
X236220000Y-68660000D03*
%TD*%
%TO.C,J51*%
X233680000Y-58420000D03*
X233680000Y-60960000D03*
X233680000Y-63420000D03*
X233680000Y-65960000D03*
X233680000Y-68580000D03*
%TD*%
%TO.C,J87*%
X264160000Y-40640000D03*
X264160000Y-43180000D03*
X264160000Y-45640000D03*
X264160000Y-48180000D03*
X264160000Y-50800000D03*
%TD*%
%TO.C,J61*%
X279400000Y-33020000D03*
X279400000Y-35560000D03*
%TD*%
%TO.C,J121*%
X269240000Y-73660000D03*
X269240000Y-76200000D03*
%TD*%
%TO.C,J106*%
X271780000Y-58420000D03*
X271780000Y-60960000D03*
X271780000Y-63420000D03*
X271780000Y-65960000D03*
X271780000Y-68580000D03*
%TD*%
%TO.C,J58*%
X271780000Y-33020000D03*
X271780000Y-35560000D03*
%TD*%
%TO.C,J67*%
X213360000Y-73660000D03*
X213360000Y-76200000D03*
%TD*%
%TO.C,J92*%
X276860000Y-40640000D03*
X276860000Y-43180000D03*
X276860000Y-45640000D03*
X276860000Y-48180000D03*
X276860000Y-50800000D03*
%TD*%
%TO.C,J27*%
X243840000Y-40640000D03*
X243840000Y-43180000D03*
X243840000Y-45640000D03*
X243840000Y-48180000D03*
X243840000Y-50800000D03*
%TD*%
%TO.C,J81*%
X248920000Y-40640000D03*
X248920000Y-43180000D03*
X248920000Y-45640000D03*
X248920000Y-48180000D03*
X248920000Y-50800000D03*
%TD*%
%TO.C,J63*%
X284480000Y-33020000D03*
X284480000Y-35560000D03*
%TD*%
%TO.C,J65*%
X208280000Y-73660000D03*
X208280000Y-76200000D03*
%TD*%
%TO.C,J46*%
X220980000Y-58420000D03*
X220980000Y-60960000D03*
X220980000Y-63420000D03*
X220980000Y-65960000D03*
X220980000Y-68580000D03*
%TD*%
%TO.C,J54*%
X241300000Y-58420000D03*
X241300000Y-60960000D03*
X241300000Y-63420000D03*
X241300000Y-65960000D03*
X241300000Y-68580000D03*
%TD*%
%TO.C,J50*%
X231140000Y-58420000D03*
X231140000Y-60960000D03*
X231140000Y-63420000D03*
X231140000Y-65960000D03*
X231140000Y-68580000D03*
%TD*%
%TO.C,J53*%
X238760000Y-58420000D03*
X238760000Y-60960000D03*
X238760000Y-63420000D03*
X238760000Y-65960000D03*
X238760000Y-68580000D03*
%TD*%
%TO.C,J107*%
X274320000Y-58420000D03*
X274320000Y-60960000D03*
X274320000Y-63420000D03*
X274320000Y-65960000D03*
X274320000Y-68580000D03*
%TD*%
%TO.C,J100*%
X256540000Y-58420000D03*
X256540000Y-60960000D03*
X256540000Y-63420000D03*
X256540000Y-65960000D03*
X256540000Y-68580000D03*
%TD*%
%TO.C,J68*%
X215900000Y-73660000D03*
X215900000Y-76200000D03*
%TD*%
%TO.C,J59*%
X274320000Y-33020000D03*
X274320000Y-35560000D03*
%TD*%
%TO.C,J64*%
X287020000Y-33020000D03*
X287020000Y-35560000D03*
%TD*%
%TO.C,J62*%
X281940000Y-33020000D03*
X281940000Y-35560000D03*
%TD*%
%TO.C,J70*%
X220980000Y-73660000D03*
X220980000Y-76200000D03*
%TD*%
%TO.C,J72*%
X226060000Y-73660000D03*
X226060000Y-76200000D03*
%TD*%
%TO.C,J59*%
X355600000Y-33020000D03*
X355600000Y-35560000D03*
%TD*%
%TO.C,J45*%
X218440000Y-58420000D03*
X218440000Y-60960000D03*
X218440000Y-63420000D03*
X218440000Y-65960000D03*
X218440000Y-68580000D03*
%TD*%
%TO.C,J35*%
X254000000Y-33020000D03*
X254000000Y-35560000D03*
%TD*%
%TO.C,J39*%
X264160000Y-33020000D03*
X264160000Y-35560000D03*
%TD*%
%TO.C,J68*%
X297180000Y-73660000D03*
X297180000Y-76200000D03*
%TD*%
%TO.C,J72*%
X307340000Y-73660000D03*
X307340000Y-76200000D03*
%TD*%
%TO.C,J70*%
X302260000Y-73660000D03*
X302260000Y-76200000D03*
%TD*%
%TO.C,J64*%
X368300000Y-33020000D03*
X368300000Y-35560000D03*
%TD*%
%TO.C,J62*%
X363220000Y-33020000D03*
X363220000Y-35560000D03*
%TD*%
%TO.C,J29*%
X238760000Y-33020000D03*
X238760000Y-35560000D03*
%TD*%
%TO.C,J47*%
X223520000Y-58420000D03*
X223520000Y-60960000D03*
X223520000Y-63420000D03*
X223520000Y-65960000D03*
X223520000Y-68580000D03*
%TD*%
%TO.C,J42*%
X210820000Y-58420000D03*
X210820000Y-60960000D03*
X210820000Y-63420000D03*
X210820000Y-65960000D03*
X210820000Y-68580000D03*
%TD*%
%TO.C,J34*%
X251460000Y-33020000D03*
X251460000Y-35560000D03*
%TD*%
%TO.C,J31*%
X243840000Y-33020000D03*
X243840000Y-35560000D03*
%TD*%
%TO.C,J32*%
X246380000Y-33020000D03*
X246380000Y-35560000D03*
%TD*%
%TO.C,J40*%
X266700000Y-33020000D03*
X266700000Y-35560000D03*
%TD*%
%TO.C,J49*%
X228600000Y-58420000D03*
X228600000Y-60960000D03*
X228600000Y-63420000D03*
X228600000Y-65960000D03*
X228600000Y-68580000D03*
%TD*%
%TO.C,J38*%
X261620000Y-33020000D03*
X261620000Y-35560000D03*
%TD*%
%TO.C,J44*%
X215900000Y-58420000D03*
X215900000Y-60960000D03*
X215900000Y-63420000D03*
X215900000Y-65960000D03*
X215900000Y-68580000D03*
%TD*%
%TO.C,J12*%
X220980000Y-33020000D03*
X220980000Y-35560000D03*
%TD*%
%TO.C,J26*%
X241300000Y-40640000D03*
X241300000Y-43180000D03*
X241300000Y-45640000D03*
X241300000Y-48180000D03*
X241300000Y-50800000D03*
%TD*%
%TO.C,J15*%
X226060000Y-40640000D03*
X226060000Y-43180000D03*
X226060000Y-45640000D03*
X226060000Y-48180000D03*
X226060000Y-50800000D03*
%TD*%
%TO.C,J17*%
X228460000Y-33020000D03*
X228460000Y-35560000D03*
%TD*%
%TO.C,J19*%
X233540000Y-33020000D03*
X233540000Y-35560000D03*
%TD*%
%TO.C,J16*%
X226060000Y-33020000D03*
X226060000Y-35560000D03*
%TD*%
%TO.C,J21*%
X228600000Y-40640000D03*
X228600000Y-43180000D03*
X228600000Y-45640000D03*
X228600000Y-48180000D03*
X228600000Y-50800000D03*
%TD*%
%TO.C,J25*%
X238760000Y-40640000D03*
X238760000Y-43180000D03*
X238760000Y-45640000D03*
X238760000Y-48180000D03*
X238760000Y-50800000D03*
%TD*%
%TO.C,J23*%
X233680000Y-40640000D03*
X233680000Y-43180000D03*
X233680000Y-45640000D03*
X233680000Y-48180000D03*
X233680000Y-50800000D03*
%TD*%
%TO.C,J36*%
X256540000Y-33020000D03*
X256540000Y-35560000D03*
%TD*%
%TO.C,J37*%
X259080000Y-33020000D03*
X259080000Y-35560000D03*
%TD*%
%TO.C,J33*%
X248920000Y-33020000D03*
X248920000Y-35560000D03*
%TD*%
%TO.C,J22*%
X231140000Y-40640000D03*
X231140000Y-43180000D03*
X231140000Y-45640000D03*
X231140000Y-48180000D03*
X231140000Y-50800000D03*
%TD*%
%TO.C,J14*%
X223520000Y-40640000D03*
X223520000Y-43180000D03*
X223520000Y-45640000D03*
X223520000Y-48180000D03*
X223520000Y-50800000D03*
%TD*%
%TO.C,J13*%
X223520000Y-33020000D03*
X223520000Y-35560000D03*
%TD*%
%TO.C,J41*%
X208280000Y-58420000D03*
X208280000Y-60960000D03*
X208280000Y-63420000D03*
X208280000Y-65960000D03*
X208280000Y-68580000D03*
%TD*%
%TO.C,J30*%
X241300000Y-33020000D03*
X241300000Y-35560000D03*
%TD*%
%TO.C,J18*%
X231000000Y-33020000D03*
X231000000Y-35560000D03*
%TD*%
%TO.C,J11*%
X220980000Y-40640000D03*
X220980000Y-43180000D03*
X220980000Y-45640000D03*
X220980000Y-48180000D03*
X220980000Y-50800000D03*
%TD*%
%TO.C,J28*%
X246380000Y-40640000D03*
X246380000Y-43180000D03*
X246380000Y-45640000D03*
X246380000Y-48180000D03*
X246380000Y-50800000D03*
%TD*%
%TO.C,J8*%
X215900000Y-33020000D03*
X215900000Y-35560000D03*
%TD*%
%TO.C,J6*%
X213360000Y-40640000D03*
X213360000Y-43180000D03*
X213360000Y-45640000D03*
X213360000Y-48180000D03*
X213360000Y-50800000D03*
%TD*%
%TO.C,J5*%
X213360000Y-33020000D03*
X213360000Y-35560000D03*
%TD*%
%TO.C,J7*%
X215900000Y-40640000D03*
X215900000Y-43180000D03*
X215900000Y-45640000D03*
X215900000Y-48180000D03*
X215900000Y-50800000D03*
%TD*%
%TO.C,J4*%
X210820000Y-33020000D03*
X210820000Y-35560000D03*
%TD*%
%TO.C,J126*%
X281940000Y-73660000D03*
X281940000Y-76200000D03*
%TD*%
%TO.C,J128*%
X287020000Y-73660000D03*
X287020000Y-76200000D03*
%TD*%
%TO.C,J43*%
X213360000Y-58420000D03*
X213360000Y-60960000D03*
X213360000Y-63420000D03*
X213360000Y-65960000D03*
X213360000Y-68580000D03*
%TD*%
%TO.C,J123*%
X274320000Y-73660000D03*
X274320000Y-76200000D03*
%TD*%
%TO.C,J119*%
X264160000Y-73660000D03*
X264160000Y-76200000D03*
%TD*%
%TO.C,J125*%
X279400000Y-73660000D03*
X279400000Y-76200000D03*
%TD*%
%TO.C,J114*%
X251460000Y-73660000D03*
X251460000Y-76200000D03*
%TD*%
%TO.C,J115*%
X254000000Y-73660000D03*
X254000000Y-76200000D03*
%TD*%
%TO.C,J10*%
X218440000Y-40640000D03*
X218440000Y-43180000D03*
X218440000Y-45640000D03*
X218440000Y-48180000D03*
X218440000Y-50800000D03*
%TD*%
%TO.C,J117*%
X259080000Y-73660000D03*
X259080000Y-76200000D03*
%TD*%
%TO.C,J20*%
X236220000Y-33020000D03*
X236220000Y-35560000D03*
%TD*%
%TO.C,J24*%
X236220000Y-40720000D03*
X236220000Y-43260000D03*
X236220000Y-45720000D03*
X236220000Y-48260000D03*
X236220000Y-50880000D03*
%TD*%
%TO.C,J9*%
X218440000Y-33020000D03*
X218440000Y-35560000D03*
%TD*%
%TO.C,J1*%
X208280000Y-40640000D03*
X208280000Y-43180000D03*
X208280000Y-45640000D03*
X208280000Y-48180000D03*
X208280000Y-50800000D03*
%TD*%
%TO.C,J118*%
X261620000Y-73660000D03*
X261620000Y-76200000D03*
%TD*%
%TO.C,J2*%
X210820000Y-40640000D03*
X210820000Y-43180000D03*
X210820000Y-45640000D03*
X210820000Y-48180000D03*
X210820000Y-50800000D03*
%TD*%
%TO.C,J127*%
X284480000Y-73660000D03*
X284480000Y-76200000D03*
%TD*%
%TO.C,J110*%
X281940000Y-58420000D03*
X281940000Y-60960000D03*
X281940000Y-63420000D03*
X281940000Y-65960000D03*
X281940000Y-68580000D03*
%TD*%
%TO.C,J116*%
X256540000Y-73660000D03*
X256540000Y-76200000D03*
%TD*%
%TO.C,J47*%
X137160000Y-58420000D03*
X137160000Y-60960000D03*
X137160000Y-63420000D03*
X137160000Y-65960000D03*
X137160000Y-68580000D03*
%TD*%
%TO.C,J45*%
X132080000Y-58420000D03*
X132080000Y-60960000D03*
X132080000Y-63420000D03*
X132080000Y-65960000D03*
X132080000Y-68580000D03*
%TD*%
%TO.C,J43*%
X127000000Y-58420000D03*
X127000000Y-60960000D03*
X127000000Y-63420000D03*
X127000000Y-65960000D03*
X127000000Y-68580000D03*
%TD*%
%TO.C,J38*%
X175260000Y-33020000D03*
X175260000Y-35560000D03*
%TD*%
%TO.C,J42*%
X124460000Y-58420000D03*
X124460000Y-60960000D03*
X124460000Y-63420000D03*
X124460000Y-65960000D03*
X124460000Y-68580000D03*
%TD*%
%TO.C,J39*%
X177800000Y-33020000D03*
X177800000Y-35560000D03*
%TD*%
%TO.C,J35*%
X167640000Y-33020000D03*
X167640000Y-35560000D03*
%TD*%
%TO.C,J29*%
X152400000Y-33020000D03*
X152400000Y-35560000D03*
%TD*%
%TO.C,J37*%
X172720000Y-33020000D03*
X172720000Y-35560000D03*
%TD*%
%TO.C,J34*%
X165100000Y-33020000D03*
X165100000Y-35560000D03*
%TD*%
%TO.C,J33*%
X162560000Y-33020000D03*
X162560000Y-35560000D03*
%TD*%
%TO.C,J31*%
X157480000Y-33020000D03*
X157480000Y-35560000D03*
%TD*%
%TO.C,J32*%
X160020000Y-33020000D03*
X160020000Y-35560000D03*
%TD*%
%TO.C,J40*%
X180340000Y-33020000D03*
X180340000Y-35560000D03*
%TD*%
%TO.C,J49*%
X142240000Y-58420000D03*
X142240000Y-60960000D03*
X142240000Y-63420000D03*
X142240000Y-65960000D03*
X142240000Y-68580000D03*
%TD*%
%TO.C,J46*%
X134620000Y-58420000D03*
X134620000Y-60960000D03*
X134620000Y-63420000D03*
X134620000Y-65960000D03*
X134620000Y-68580000D03*
%TD*%
%TO.C,J48*%
X139700000Y-58420000D03*
X139700000Y-60960000D03*
X139700000Y-63420000D03*
X139700000Y-65960000D03*
X139700000Y-68580000D03*
%TD*%
%TO.C,J36*%
X170180000Y-33020000D03*
X170180000Y-35560000D03*
%TD*%
%TO.C,J30*%
X154940000Y-33020000D03*
X154940000Y-35560000D03*
%TD*%
%TO.C,J44*%
X129540000Y-58420000D03*
X129540000Y-60960000D03*
X129540000Y-63420000D03*
X129540000Y-65960000D03*
X129540000Y-68580000D03*
%TD*%
%TO.C,J41*%
X121920000Y-58420000D03*
X121920000Y-60960000D03*
X121920000Y-63420000D03*
X121920000Y-65960000D03*
X121920000Y-68580000D03*
%TD*%
%TO.C,J27*%
X157480000Y-40640000D03*
X157480000Y-43180000D03*
X157480000Y-45640000D03*
X157480000Y-48180000D03*
X157480000Y-50800000D03*
%TD*%
%TO.C,J26*%
X154940000Y-40640000D03*
X154940000Y-43180000D03*
X154940000Y-45640000D03*
X154940000Y-48180000D03*
X154940000Y-50800000D03*
%TD*%
%TO.C,J22*%
X144780000Y-40640000D03*
X144780000Y-43180000D03*
X144780000Y-45640000D03*
X144780000Y-48180000D03*
X144780000Y-50800000D03*
%TD*%
%TO.C,J15*%
X139700000Y-40640000D03*
X139700000Y-43180000D03*
X139700000Y-45640000D03*
X139700000Y-48180000D03*
X139700000Y-50800000D03*
%TD*%
%TO.C,J16*%
X139700000Y-33020000D03*
X139700000Y-35560000D03*
%TD*%
%TO.C,J12*%
X134620000Y-33020000D03*
X134620000Y-35560000D03*
%TD*%
%TO.C,J21*%
X142240000Y-40640000D03*
X142240000Y-43180000D03*
X142240000Y-45640000D03*
X142240000Y-48180000D03*
X142240000Y-50800000D03*
%TD*%
%TO.C,J11*%
X134620000Y-40640000D03*
X134620000Y-43180000D03*
X134620000Y-45640000D03*
X134620000Y-48180000D03*
X134620000Y-50800000D03*
%TD*%
%TO.C,J14*%
X137160000Y-40640000D03*
X137160000Y-43180000D03*
X137160000Y-45640000D03*
X137160000Y-48180000D03*
X137160000Y-50800000D03*
%TD*%
%TO.C,J18*%
X144640000Y-33020000D03*
X144640000Y-35560000D03*
%TD*%
%TO.C,J13*%
X137160000Y-33020000D03*
X137160000Y-35560000D03*
%TD*%
%TO.C,J25*%
X152400000Y-40640000D03*
X152400000Y-43180000D03*
X152400000Y-45640000D03*
X152400000Y-48180000D03*
X152400000Y-50800000D03*
%TD*%
%TO.C,J17*%
X142100000Y-33020000D03*
X142100000Y-35560000D03*
%TD*%
%TO.C,J23*%
X147320000Y-40640000D03*
X147320000Y-43180000D03*
X147320000Y-45640000D03*
X147320000Y-48180000D03*
X147320000Y-50800000D03*
%TD*%
%TO.C,J19*%
X147180000Y-33020000D03*
X147180000Y-35560000D03*
%TD*%
%TO.C,J20*%
X149860000Y-33020000D03*
X149860000Y-35560000D03*
%TD*%
%TO.C,J24*%
X149860000Y-40720000D03*
X149860000Y-43260000D03*
X149860000Y-45720000D03*
X149860000Y-48260000D03*
X149860000Y-50880000D03*
%TD*%
%TO.C,J28*%
X160020000Y-40640000D03*
X160020000Y-43180000D03*
X160020000Y-45640000D03*
X160020000Y-48180000D03*
X160020000Y-50800000D03*
%TD*%
%TO.C,J9*%
X132080000Y-33020000D03*
X132080000Y-35560000D03*
%TD*%
%TO.C,J8*%
X129540000Y-33020000D03*
X129540000Y-35560000D03*
%TD*%
%TO.C,J6*%
X127000000Y-40640000D03*
X127000000Y-43180000D03*
X127000000Y-45640000D03*
X127000000Y-48180000D03*
X127000000Y-50800000D03*
%TD*%
%TO.C,J5*%
X127000000Y-33020000D03*
X127000000Y-35560000D03*
%TD*%
%TO.C,J2*%
X124460000Y-40640000D03*
X124460000Y-43180000D03*
X124460000Y-45640000D03*
X124460000Y-48180000D03*
X124460000Y-50800000D03*
%TD*%
%TO.C,J1*%
X121920000Y-40640000D03*
X121920000Y-43180000D03*
X121920000Y-45640000D03*
X121920000Y-48180000D03*
X121920000Y-50800000D03*
%TD*%
%TO.C,J7*%
X129540000Y-40640000D03*
X129540000Y-43180000D03*
X129540000Y-45640000D03*
X129540000Y-48180000D03*
X129540000Y-50800000D03*
%TD*%
%TO.C,J10*%
X132080000Y-40640000D03*
X132080000Y-43180000D03*
X132080000Y-45640000D03*
X132080000Y-48180000D03*
X132080000Y-50800000D03*
%TD*%
%TO.C,J3*%
X121920000Y-33020000D03*
X121920000Y-35560000D03*
%TD*%
%TO.C,J4*%
X124460000Y-33020000D03*
X124460000Y-35560000D03*
%TD*%
%TO.C,J126*%
X195580000Y-73660000D03*
X195580000Y-76200000D03*
%TD*%
%TO.C,J120*%
X180340000Y-73660000D03*
X180340000Y-76200000D03*
%TD*%
%TO.C,J128*%
X200660000Y-73660000D03*
X200660000Y-76200000D03*
%TD*%
%TO.C,J125*%
X193040000Y-73660000D03*
X193040000Y-76200000D03*
%TD*%
%TO.C,J124*%
X190500000Y-73660000D03*
X190500000Y-76200000D03*
%TD*%
%TO.C,J116*%
X170180000Y-73660000D03*
X170180000Y-76200000D03*
%TD*%
%TO.C,J123*%
X187960000Y-73660000D03*
X187960000Y-76200000D03*
%TD*%
%TO.C,J122*%
X185420000Y-73660000D03*
X185420000Y-76200000D03*
%TD*%
%TO.C,J121*%
X182880000Y-73660000D03*
X182880000Y-76200000D03*
%TD*%
%TO.C,J117*%
X172720000Y-73660000D03*
X172720000Y-76200000D03*
%TD*%
%TO.C,J119*%
X177800000Y-73660000D03*
X177800000Y-76200000D03*
%TD*%
%TO.C,J115*%
X167640000Y-73660000D03*
X167640000Y-76200000D03*
%TD*%
%TO.C,J114*%
X165100000Y-73660000D03*
X165100000Y-76200000D03*
%TD*%
%TO.C,J118*%
X175260000Y-73660000D03*
X175260000Y-76200000D03*
%TD*%
%TO.C,J127*%
X198120000Y-73660000D03*
X198120000Y-76200000D03*
%TD*%
%TO.C,J110*%
X195580000Y-58420000D03*
X195580000Y-60960000D03*
X195580000Y-63420000D03*
X195580000Y-65960000D03*
X195580000Y-68580000D03*
%TD*%
%TO.C,J106*%
X185420000Y-58420000D03*
X185420000Y-60960000D03*
X185420000Y-63420000D03*
X185420000Y-65960000D03*
X185420000Y-68580000D03*
%TD*%
%TO.C,J103*%
X177800000Y-58420000D03*
X177800000Y-60960000D03*
X177800000Y-63420000D03*
X177800000Y-65960000D03*
X177800000Y-68580000D03*
%TD*%
%TO.C,J99*%
X167640000Y-58420000D03*
X167640000Y-60960000D03*
X167640000Y-63420000D03*
X167640000Y-65960000D03*
X167640000Y-68580000D03*
%TD*%
%TO.C,J102*%
X175260000Y-58420000D03*
X175260000Y-60960000D03*
X175260000Y-63420000D03*
X175260000Y-65960000D03*
X175260000Y-68580000D03*
%TD*%
%TO.C,J113*%
X162560000Y-73660000D03*
X162560000Y-76200000D03*
%TD*%
%TO.C,J105*%
X182880000Y-58420000D03*
X182880000Y-60960000D03*
X182880000Y-63420000D03*
X182880000Y-65960000D03*
X182880000Y-68580000D03*
%TD*%
%TO.C,J112*%
X200660000Y-58420000D03*
X200660000Y-60960000D03*
X200660000Y-63420000D03*
X200660000Y-65960000D03*
X200660000Y-68580000D03*
%TD*%
%TO.C,J108*%
X190500000Y-58420000D03*
X190500000Y-60960000D03*
X190500000Y-63420000D03*
X190500000Y-65960000D03*
X190500000Y-68580000D03*
%TD*%
%TO.C,J104*%
X180340000Y-58420000D03*
X180340000Y-60960000D03*
X180340000Y-63420000D03*
X180340000Y-65960000D03*
X180340000Y-68580000D03*
%TD*%
%TO.C,J101*%
X172720000Y-58420000D03*
X172720000Y-60960000D03*
X172720000Y-63420000D03*
X172720000Y-65960000D03*
X172720000Y-68580000D03*
%TD*%
%TO.C,J107*%
X187960000Y-58420000D03*
X187960000Y-60960000D03*
X187960000Y-63420000D03*
X187960000Y-65960000D03*
X187960000Y-68580000D03*
%TD*%
%TO.C,J111*%
X198120000Y-58420000D03*
X198120000Y-60960000D03*
X198120000Y-63420000D03*
X198120000Y-65960000D03*
X198120000Y-68580000D03*
%TD*%
%TO.C,J100*%
X170180000Y-58420000D03*
X170180000Y-60960000D03*
X170180000Y-63420000D03*
X170180000Y-65960000D03*
X170180000Y-68580000D03*
%TD*%
%TO.C,J109*%
X193040000Y-58420000D03*
X193040000Y-60960000D03*
X193040000Y-63420000D03*
X193040000Y-65960000D03*
X193040000Y-68580000D03*
%TD*%
%TO.C,J97*%
X162560000Y-58420000D03*
X162560000Y-60960000D03*
X162560000Y-63420000D03*
X162560000Y-65960000D03*
X162560000Y-68580000D03*
%TD*%
%TO.C,J95*%
X198120000Y-40640000D03*
X198120000Y-43180000D03*
X198120000Y-45640000D03*
X198120000Y-48180000D03*
X198120000Y-50800000D03*
%TD*%
%TO.C,J93*%
X193040000Y-40640000D03*
X193040000Y-43180000D03*
X193040000Y-45640000D03*
X193040000Y-48180000D03*
X193040000Y-50800000D03*
%TD*%
%TO.C,J92*%
X190500000Y-40640000D03*
X190500000Y-43180000D03*
X190500000Y-45640000D03*
X190500000Y-48180000D03*
X190500000Y-50800000D03*
%TD*%
%TO.C,J90*%
X185420000Y-40640000D03*
X185420000Y-43180000D03*
X185420000Y-45640000D03*
X185420000Y-48180000D03*
X185420000Y-50800000D03*
%TD*%
%TO.C,J89*%
X182880000Y-40640000D03*
X182880000Y-43180000D03*
X182880000Y-45640000D03*
X182880000Y-48180000D03*
X182880000Y-50800000D03*
%TD*%
%TO.C,J88*%
X180340000Y-40640000D03*
X180340000Y-43180000D03*
X180340000Y-45640000D03*
X180340000Y-48180000D03*
X180340000Y-50800000D03*
%TD*%
%TO.C,J83*%
X167640000Y-40640000D03*
X167640000Y-43180000D03*
X167640000Y-45640000D03*
X167640000Y-48180000D03*
X167640000Y-50800000D03*
%TD*%
%TO.C,J75*%
X147320000Y-73660000D03*
X147320000Y-76200000D03*
%TD*%
%TO.C,J77*%
X152400000Y-73660000D03*
X152400000Y-76200000D03*
%TD*%
%TO.C,J79*%
X157480000Y-73660000D03*
X157480000Y-76200000D03*
%TD*%
%TO.C,J87*%
X177800000Y-40640000D03*
X177800000Y-43180000D03*
X177800000Y-45640000D03*
X177800000Y-48180000D03*
X177800000Y-50800000D03*
%TD*%
%TO.C,J84*%
X170180000Y-40640000D03*
X170180000Y-43180000D03*
X170180000Y-45640000D03*
X170180000Y-48180000D03*
X170180000Y-50800000D03*
%TD*%
%TO.C,J81*%
X162560000Y-40640000D03*
X162560000Y-43180000D03*
X162560000Y-45640000D03*
X162560000Y-48180000D03*
X162560000Y-50800000D03*
%TD*%
%TO.C,J80*%
X160020000Y-73660000D03*
X160020000Y-76200000D03*
%TD*%
%TO.C,J74*%
X144780000Y-73660000D03*
X144780000Y-76200000D03*
%TD*%
%TO.C,J78*%
X154940000Y-73660000D03*
X154940000Y-76200000D03*
%TD*%
%TO.C,J98*%
X165100000Y-58420000D03*
X165100000Y-60960000D03*
X165100000Y-63420000D03*
X165100000Y-65960000D03*
X165100000Y-68580000D03*
%TD*%
%TO.C,J96*%
X200660000Y-40640000D03*
X200660000Y-43180000D03*
X200660000Y-45640000D03*
X200660000Y-48180000D03*
X200660000Y-50800000D03*
%TD*%
%TO.C,J94*%
X195580000Y-40640000D03*
X195580000Y-43180000D03*
X195580000Y-45640000D03*
X195580000Y-48180000D03*
X195580000Y-50800000D03*
%TD*%
%TO.C,J73*%
X142240000Y-73660000D03*
X142240000Y-76200000D03*
%TD*%
%TO.C,J91*%
X187960000Y-40640000D03*
X187960000Y-43180000D03*
X187960000Y-45640000D03*
X187960000Y-48180000D03*
X187960000Y-50800000D03*
%TD*%
%TO.C,J76*%
X149860000Y-73660000D03*
X149860000Y-76200000D03*
%TD*%
%TO.C,J86*%
X175260000Y-40640000D03*
X175260000Y-43180000D03*
X175260000Y-45640000D03*
X175260000Y-48180000D03*
X175260000Y-50800000D03*
%TD*%
%TO.C,J85*%
X172720000Y-40640000D03*
X172720000Y-43180000D03*
X172720000Y-45640000D03*
X172720000Y-48180000D03*
X172720000Y-50800000D03*
%TD*%
%TO.C,J82*%
X165100000Y-40640000D03*
X165100000Y-43180000D03*
X165100000Y-45640000D03*
X165100000Y-48180000D03*
X165100000Y-50800000D03*
%TD*%
%TO.C,J71*%
X137160000Y-73660000D03*
X137160000Y-76200000D03*
%TD*%
%TO.C,J69*%
X132080000Y-73660000D03*
X132080000Y-76200000D03*
%TD*%
%TO.C,J66*%
X124460000Y-73660000D03*
X124460000Y-76200000D03*
%TD*%
%TO.C,J65*%
X121920000Y-73660000D03*
X121920000Y-76200000D03*
%TD*%
%TO.C,J63*%
X198120000Y-33020000D03*
X198120000Y-35560000D03*
%TD*%
%TO.C,J60*%
X190500000Y-33020000D03*
X190500000Y-35560000D03*
%TD*%
%TO.C,J57*%
X182880000Y-33020000D03*
X182880000Y-35560000D03*
%TD*%
%TO.C,J54*%
X154940000Y-58420000D03*
X154940000Y-60960000D03*
X154940000Y-63420000D03*
X154940000Y-65960000D03*
X154940000Y-68580000D03*
%TD*%
%TO.C,J50*%
X144780000Y-58420000D03*
X144780000Y-60960000D03*
X144780000Y-63420000D03*
X144780000Y-65960000D03*
X144780000Y-68580000D03*
%TD*%
%TO.C,J56*%
X160020000Y-58420000D03*
X160020000Y-60960000D03*
X160020000Y-63420000D03*
X160020000Y-65960000D03*
X160020000Y-68580000D03*
%TD*%
%TO.C,J55*%
X157480000Y-58420000D03*
X157480000Y-60960000D03*
X157480000Y-63420000D03*
X157480000Y-65960000D03*
X157480000Y-68580000D03*
%TD*%
%TO.C,J53*%
X152400000Y-58420000D03*
X152400000Y-60960000D03*
X152400000Y-63420000D03*
X152400000Y-65960000D03*
X152400000Y-68580000D03*
%TD*%
%TO.C,J52*%
X149860000Y-58500000D03*
X149860000Y-61040000D03*
X149860000Y-63500000D03*
X149860000Y-66040000D03*
X149860000Y-68660000D03*
%TD*%
%TO.C,J51*%
X147320000Y-58420000D03*
X147320000Y-60960000D03*
X147320000Y-63420000D03*
X147320000Y-65960000D03*
X147320000Y-68580000D03*
%TD*%
%TO.C,J58*%
X185420000Y-33020000D03*
X185420000Y-35560000D03*
%TD*%
%TO.C,J61*%
X193040000Y-33020000D03*
X193040000Y-35560000D03*
%TD*%
%TO.C,J67*%
X127000000Y-73660000D03*
X127000000Y-76200000D03*
%TD*%
%TO.C,J72*%
X139700000Y-73660000D03*
X139700000Y-76200000D03*
%TD*%
%TO.C,J70*%
X134620000Y-73660000D03*
X134620000Y-76200000D03*
%TD*%
%TO.C,J68*%
X129540000Y-73660000D03*
X129540000Y-76200000D03*
%TD*%
%TO.C,J59*%
X187960000Y-33020000D03*
X187960000Y-35560000D03*
%TD*%
%TO.C,J64*%
X200660000Y-33020000D03*
X200660000Y-35560000D03*
%TD*%
%TO.C,J62*%
X195580000Y-33020000D03*
X195580000Y-35560000D03*
%TD*%
%TO.C,J47*%
X55880000Y-58420000D03*
X55880000Y-60960000D03*
X55880000Y-63420000D03*
X55880000Y-65960000D03*
X55880000Y-68580000D03*
%TD*%
%TO.C,J45*%
X50800000Y-58420000D03*
X50800000Y-60960000D03*
X50800000Y-63420000D03*
X50800000Y-65960000D03*
X50800000Y-68580000D03*
%TD*%
%TO.C,J42*%
X43180000Y-58420000D03*
X43180000Y-60960000D03*
X43180000Y-63420000D03*
X43180000Y-65960000D03*
X43180000Y-68580000D03*
%TD*%
%TO.C,J39*%
X96520000Y-33020000D03*
X96520000Y-35560000D03*
%TD*%
%TO.C,J35*%
X86360000Y-33020000D03*
X86360000Y-35560000D03*
%TD*%
%TO.C,J29*%
X71120000Y-33020000D03*
X71120000Y-35560000D03*
%TD*%
%TO.C,J37*%
X91440000Y-33020000D03*
X91440000Y-35560000D03*
%TD*%
%TO.C,J34*%
X83820000Y-33020000D03*
X83820000Y-35560000D03*
%TD*%
%TO.C,J33*%
X81280000Y-33020000D03*
X81280000Y-35560000D03*
%TD*%
%TO.C,J31*%
X76200000Y-33020000D03*
X76200000Y-35560000D03*
%TD*%
%TO.C,J32*%
X78740000Y-33020000D03*
X78740000Y-35560000D03*
%TD*%
%TO.C,J40*%
X99060000Y-33020000D03*
X99060000Y-35560000D03*
%TD*%
%TO.C,J38*%
X93980000Y-33020000D03*
X93980000Y-35560000D03*
%TD*%
%TO.C,J49*%
X60960000Y-58420000D03*
X60960000Y-60960000D03*
X60960000Y-63420000D03*
X60960000Y-65960000D03*
X60960000Y-68580000D03*
%TD*%
%TO.C,J36*%
X88900000Y-33020000D03*
X88900000Y-35560000D03*
%TD*%
%TO.C,J30*%
X73660000Y-33020000D03*
X73660000Y-35560000D03*
%TD*%
%TO.C,J44*%
X48260000Y-58420000D03*
X48260000Y-60960000D03*
X48260000Y-63420000D03*
X48260000Y-65960000D03*
X48260000Y-68580000D03*
%TD*%
%TO.C,J41*%
X40640000Y-58420000D03*
X40640000Y-60960000D03*
X40640000Y-63420000D03*
X40640000Y-65960000D03*
X40640000Y-68580000D03*
%TD*%
%TO.C,J26*%
X73660000Y-40640000D03*
X73660000Y-43180000D03*
X73660000Y-45640000D03*
X73660000Y-48180000D03*
X73660000Y-50800000D03*
%TD*%
%TO.C,J22*%
X63500000Y-40640000D03*
X63500000Y-43180000D03*
X63500000Y-45640000D03*
X63500000Y-48180000D03*
X63500000Y-50800000D03*
%TD*%
%TO.C,J15*%
X58420000Y-40640000D03*
X58420000Y-43180000D03*
X58420000Y-45640000D03*
X58420000Y-48180000D03*
X58420000Y-50800000D03*
%TD*%
%TO.C,J16*%
X58420000Y-33020000D03*
X58420000Y-35560000D03*
%TD*%
%TO.C,J12*%
X53340000Y-33020000D03*
X53340000Y-35560000D03*
%TD*%
%TO.C,J21*%
X60960000Y-40640000D03*
X60960000Y-43180000D03*
X60960000Y-45640000D03*
X60960000Y-48180000D03*
X60960000Y-50800000D03*
%TD*%
%TO.C,J11*%
X53340000Y-40640000D03*
X53340000Y-43180000D03*
X53340000Y-45640000D03*
X53340000Y-48180000D03*
X53340000Y-50800000D03*
%TD*%
%TO.C,J14*%
X55880000Y-40640000D03*
X55880000Y-43180000D03*
X55880000Y-45640000D03*
X55880000Y-48180000D03*
X55880000Y-50800000D03*
%TD*%
%TO.C,J18*%
X63360000Y-33020000D03*
X63360000Y-35560000D03*
%TD*%
%TO.C,J13*%
X55880000Y-33020000D03*
X55880000Y-35560000D03*
%TD*%
%TO.C,J25*%
X71120000Y-40640000D03*
X71120000Y-43180000D03*
X71120000Y-45640000D03*
X71120000Y-48180000D03*
X71120000Y-50800000D03*
%TD*%
%TO.C,J17*%
X60820000Y-33020000D03*
X60820000Y-35560000D03*
%TD*%
%TO.C,J23*%
X66040000Y-40640000D03*
X66040000Y-43180000D03*
X66040000Y-45640000D03*
X66040000Y-48180000D03*
X66040000Y-50800000D03*
%TD*%
%TO.C,J19*%
X65900000Y-33020000D03*
X65900000Y-35560000D03*
%TD*%
%TO.C,J20*%
X68580000Y-33020000D03*
X68580000Y-35560000D03*
%TD*%
%TO.C,J24*%
X68580000Y-40720000D03*
X68580000Y-43260000D03*
X68580000Y-45720000D03*
X68580000Y-48260000D03*
X68580000Y-50880000D03*
%TD*%
%TO.C,J28*%
X78740000Y-40640000D03*
X78740000Y-43180000D03*
X78740000Y-45640000D03*
X78740000Y-48180000D03*
X78740000Y-50800000D03*
%TD*%
%TO.C,J9*%
X50800000Y-33020000D03*
X50800000Y-35560000D03*
%TD*%
%TO.C,J8*%
X48260000Y-33020000D03*
X48260000Y-35560000D03*
%TD*%
%TO.C,J6*%
X45720000Y-40640000D03*
X45720000Y-43180000D03*
X45720000Y-45640000D03*
X45720000Y-48180000D03*
X45720000Y-50800000D03*
%TD*%
%TO.C,J5*%
X45720000Y-33020000D03*
X45720000Y-35560000D03*
%TD*%
%TO.C,J2*%
X43180000Y-40640000D03*
X43180000Y-43180000D03*
X43180000Y-45640000D03*
X43180000Y-48180000D03*
X43180000Y-50800000D03*
%TD*%
%TO.C,J1*%
X40640000Y-40640000D03*
X40640000Y-43180000D03*
X40640000Y-45640000D03*
X40640000Y-48180000D03*
X40640000Y-50800000D03*
%TD*%
%TO.C,J7*%
X48260000Y-40640000D03*
X48260000Y-43180000D03*
X48260000Y-45640000D03*
X48260000Y-48180000D03*
X48260000Y-50800000D03*
%TD*%
%TO.C,J10*%
X50800000Y-40640000D03*
X50800000Y-43180000D03*
X50800000Y-45640000D03*
X50800000Y-48180000D03*
X50800000Y-50800000D03*
%TD*%
%TO.C,J4*%
X43180000Y-33020000D03*
X43180000Y-35560000D03*
%TD*%
%TO.C,J126*%
X114300000Y-73660000D03*
X114300000Y-76200000D03*
%TD*%
%TO.C,J128*%
X119380000Y-73660000D03*
X119380000Y-76200000D03*
%TD*%
%TO.C,J43*%
X45720000Y-58420000D03*
X45720000Y-60960000D03*
X45720000Y-63420000D03*
X45720000Y-65960000D03*
X45720000Y-68580000D03*
%TD*%
%TO.C,J125*%
X111760000Y-73660000D03*
X111760000Y-76200000D03*
%TD*%
%TO.C,J116*%
X88900000Y-73660000D03*
X88900000Y-76200000D03*
%TD*%
%TO.C,J123*%
X106680000Y-73660000D03*
X106680000Y-76200000D03*
%TD*%
%TO.C,J117*%
X91440000Y-73660000D03*
X91440000Y-76200000D03*
%TD*%
%TO.C,J119*%
X96520000Y-73660000D03*
X96520000Y-76200000D03*
%TD*%
%TO.C,J115*%
X86360000Y-73660000D03*
X86360000Y-76200000D03*
%TD*%
%TO.C,J114*%
X83820000Y-73660000D03*
X83820000Y-76200000D03*
%TD*%
%TO.C,J118*%
X93980000Y-73660000D03*
X93980000Y-76200000D03*
%TD*%
%TO.C,J127*%
X116840000Y-73660000D03*
X116840000Y-76200000D03*
%TD*%
%TO.C,J110*%
X114300000Y-58420000D03*
X114300000Y-60960000D03*
X114300000Y-63420000D03*
X114300000Y-65960000D03*
X114300000Y-68580000D03*
%TD*%
%TO.C,J103*%
X96520000Y-58420000D03*
X96520000Y-60960000D03*
X96520000Y-63420000D03*
X96520000Y-65960000D03*
X96520000Y-68580000D03*
%TD*%
%TO.C,J99*%
X86360000Y-58420000D03*
X86360000Y-60960000D03*
X86360000Y-63420000D03*
X86360000Y-65960000D03*
X86360000Y-68580000D03*
%TD*%
%TO.C,J102*%
X93980000Y-58420000D03*
X93980000Y-60960000D03*
X93980000Y-63420000D03*
X93980000Y-65960000D03*
X93980000Y-68580000D03*
%TD*%
%TO.C,J105*%
X101600000Y-58420000D03*
X101600000Y-60960000D03*
X101600000Y-63420000D03*
X101600000Y-65960000D03*
X101600000Y-68580000D03*
%TD*%
%TO.C,J101*%
X91440000Y-58420000D03*
X91440000Y-60960000D03*
X91440000Y-63420000D03*
X91440000Y-65960000D03*
X91440000Y-68580000D03*
%TD*%
%TO.C,J97*%
X81280000Y-58420000D03*
X81280000Y-60960000D03*
X81280000Y-63420000D03*
X81280000Y-65960000D03*
X81280000Y-68580000D03*
%TD*%
%TO.C,J93*%
X111760000Y-40640000D03*
X111760000Y-43180000D03*
X111760000Y-45640000D03*
X111760000Y-48180000D03*
X111760000Y-50800000D03*
%TD*%
%TO.C,J90*%
X104140000Y-40640000D03*
X104140000Y-43180000D03*
X104140000Y-45640000D03*
X104140000Y-48180000D03*
X104140000Y-50800000D03*
%TD*%
%TO.C,J89*%
X101600000Y-40640000D03*
X101600000Y-43180000D03*
X101600000Y-45640000D03*
X101600000Y-48180000D03*
X101600000Y-50800000D03*
%TD*%
%TO.C,J88*%
X99060000Y-40640000D03*
X99060000Y-43180000D03*
X99060000Y-45640000D03*
X99060000Y-48180000D03*
X99060000Y-50800000D03*
%TD*%
%TO.C,J83*%
X86360000Y-40640000D03*
X86360000Y-43180000D03*
X86360000Y-45640000D03*
X86360000Y-48180000D03*
X86360000Y-50800000D03*
%TD*%
%TO.C,J75*%
X66040000Y-73660000D03*
X66040000Y-76200000D03*
%TD*%
%TO.C,J79*%
X76200000Y-73660000D03*
X76200000Y-76200000D03*
%TD*%
%TO.C,J84*%
X88900000Y-40640000D03*
X88900000Y-43180000D03*
X88900000Y-45640000D03*
X88900000Y-48180000D03*
X88900000Y-50800000D03*
%TD*%
%TO.C,J122*%
X104140000Y-73660000D03*
X104140000Y-76200000D03*
%TD*%
%TO.C,J80*%
X78740000Y-73660000D03*
X78740000Y-76200000D03*
%TD*%
%TO.C,J74*%
X63500000Y-73660000D03*
X63500000Y-76200000D03*
%TD*%
%TO.C,J108*%
X109220000Y-58420000D03*
X109220000Y-60960000D03*
X109220000Y-63420000D03*
X109220000Y-65960000D03*
X109220000Y-68580000D03*
%TD*%
%TO.C,J78*%
X73660000Y-73660000D03*
X73660000Y-76200000D03*
%TD*%
%TO.C,J98*%
X83820000Y-58420000D03*
X83820000Y-60960000D03*
X83820000Y-63420000D03*
X83820000Y-65960000D03*
X83820000Y-68580000D03*
%TD*%
%TO.C,J48*%
X58420000Y-58420000D03*
X58420000Y-60960000D03*
X58420000Y-63420000D03*
X58420000Y-65960000D03*
X58420000Y-68580000D03*
%TD*%
%TO.C,J113*%
X81280000Y-73660000D03*
X81280000Y-76200000D03*
%TD*%
%TO.C,J96*%
X119380000Y-40640000D03*
X119380000Y-43180000D03*
X119380000Y-45640000D03*
X119380000Y-48180000D03*
X119380000Y-50800000D03*
%TD*%
%TO.C,J120*%
X99060000Y-73660000D03*
X99060000Y-76200000D03*
%TD*%
%TO.C,J94*%
X114300000Y-40640000D03*
X114300000Y-43180000D03*
X114300000Y-45640000D03*
X114300000Y-48180000D03*
X114300000Y-50800000D03*
%TD*%
%TO.C,J111*%
X116840000Y-58420000D03*
X116840000Y-60960000D03*
X116840000Y-63420000D03*
X116840000Y-65960000D03*
X116840000Y-68580000D03*
%TD*%
%TO.C,J73*%
X60960000Y-73660000D03*
X60960000Y-76200000D03*
%TD*%
%TO.C,J91*%
X106680000Y-40640000D03*
X106680000Y-43180000D03*
X106680000Y-45640000D03*
X106680000Y-48180000D03*
X106680000Y-50800000D03*
%TD*%
%TO.C,J124*%
X109220000Y-73660000D03*
X109220000Y-76200000D03*
%TD*%
%TO.C,J104*%
X99060000Y-58420000D03*
X99060000Y-60960000D03*
X99060000Y-63420000D03*
X99060000Y-65960000D03*
X99060000Y-68580000D03*
%TD*%
%TO.C,J76*%
X68580000Y-73660000D03*
X68580000Y-76200000D03*
%TD*%
%TO.C,J86*%
X93980000Y-40640000D03*
X93980000Y-43180000D03*
X93980000Y-45640000D03*
X93980000Y-48180000D03*
X93980000Y-50800000D03*
%TD*%
%TO.C,J95*%
X116840000Y-40640000D03*
X116840000Y-43180000D03*
X116840000Y-45640000D03*
X116840000Y-48180000D03*
X116840000Y-50800000D03*
%TD*%
%TO.C,J85*%
X91440000Y-40640000D03*
X91440000Y-43180000D03*
X91440000Y-45640000D03*
X91440000Y-48180000D03*
X91440000Y-50800000D03*
%TD*%
%TO.C,J82*%
X83820000Y-40640000D03*
X83820000Y-43180000D03*
X83820000Y-45640000D03*
X83820000Y-48180000D03*
X83820000Y-50800000D03*
%TD*%
%TO.C,J77*%
X71120000Y-73660000D03*
X71120000Y-76200000D03*
%TD*%
%TO.C,J3*%
X40640000Y-33020000D03*
X40640000Y-35560000D03*
%TD*%
%TO.C,J71*%
X55880000Y-73660000D03*
X55880000Y-76200000D03*
%TD*%
%TO.C,J109*%
X111760000Y-58420000D03*
X111760000Y-60960000D03*
X111760000Y-63420000D03*
X111760000Y-65960000D03*
X111760000Y-68580000D03*
%TD*%
%TO.C,J69*%
X50800000Y-73660000D03*
X50800000Y-76200000D03*
%TD*%
%TO.C,J66*%
X43180000Y-73660000D03*
X43180000Y-76200000D03*
%TD*%
%TO.C,J65*%
X40640000Y-73660000D03*
X40640000Y-76200000D03*
%TD*%
%TO.C,J27*%
X76200000Y-40640000D03*
X76200000Y-43180000D03*
X76200000Y-45640000D03*
X76200000Y-48180000D03*
X76200000Y-50800000D03*
%TD*%
%TO.C,J63*%
X116840000Y-33020000D03*
X116840000Y-35560000D03*
%TD*%
%TO.C,J92*%
X109220000Y-40640000D03*
X109220000Y-43180000D03*
X109220000Y-45640000D03*
X109220000Y-48180000D03*
X109220000Y-50800000D03*
%TD*%
%TO.C,J60*%
X109220000Y-33020000D03*
X109220000Y-35560000D03*
%TD*%
%TO.C,J57*%
X101600000Y-33020000D03*
X101600000Y-35560000D03*
%TD*%
%TO.C,J54*%
X73660000Y-58420000D03*
X73660000Y-60960000D03*
X73660000Y-63420000D03*
X73660000Y-65960000D03*
X73660000Y-68580000D03*
%TD*%
%TO.C,J112*%
X119380000Y-58420000D03*
X119380000Y-60960000D03*
X119380000Y-63420000D03*
X119380000Y-65960000D03*
X119380000Y-68580000D03*
%TD*%
%TO.C,J50*%
X63500000Y-58420000D03*
X63500000Y-60960000D03*
X63500000Y-63420000D03*
X63500000Y-65960000D03*
X63500000Y-68580000D03*
%TD*%
%TO.C,J56*%
X78740000Y-58420000D03*
X78740000Y-60960000D03*
X78740000Y-63420000D03*
X78740000Y-65960000D03*
X78740000Y-68580000D03*
%TD*%
%TO.C,J55*%
X76200000Y-58420000D03*
X76200000Y-60960000D03*
X76200000Y-63420000D03*
X76200000Y-65960000D03*
X76200000Y-68580000D03*
%TD*%
%TO.C,J53*%
X71120000Y-58420000D03*
X71120000Y-60960000D03*
X71120000Y-63420000D03*
X71120000Y-65960000D03*
X71120000Y-68580000D03*
%TD*%
%TO.C,J107*%
X106680000Y-58420000D03*
X106680000Y-60960000D03*
X106680000Y-63420000D03*
X106680000Y-65960000D03*
X106680000Y-68580000D03*
%TD*%
%TO.C,J52*%
X68580000Y-58500000D03*
X68580000Y-61040000D03*
X68580000Y-63500000D03*
X68580000Y-66040000D03*
X68580000Y-68660000D03*
%TD*%
%TO.C,J81*%
X81280000Y-40640000D03*
X81280000Y-43180000D03*
X81280000Y-45640000D03*
X81280000Y-48180000D03*
X81280000Y-50800000D03*
%TD*%
%TO.C,J106*%
X104140000Y-58420000D03*
X104140000Y-60960000D03*
X104140000Y-63420000D03*
X104140000Y-65960000D03*
X104140000Y-68580000D03*
%TD*%
%TO.C,J51*%
X66040000Y-58420000D03*
X66040000Y-60960000D03*
X66040000Y-63420000D03*
X66040000Y-65960000D03*
X66040000Y-68580000D03*
%TD*%
%TO.C,J46*%
X53340000Y-58420000D03*
X53340000Y-60960000D03*
X53340000Y-63420000D03*
X53340000Y-65960000D03*
X53340000Y-68580000D03*
%TD*%
%TO.C,J87*%
X96520000Y-40640000D03*
X96520000Y-43180000D03*
X96520000Y-45640000D03*
X96520000Y-48180000D03*
X96520000Y-50800000D03*
%TD*%
%TO.C,J58*%
X104140000Y-33020000D03*
X104140000Y-35560000D03*
%TD*%
%TO.C,J61*%
X111760000Y-33020000D03*
X111760000Y-35560000D03*
%TD*%
%TO.C,J121*%
X101600000Y-73660000D03*
X101600000Y-76200000D03*
%TD*%
%TO.C,J67*%
X45720000Y-73660000D03*
X45720000Y-76200000D03*
%TD*%
%TO.C,J72*%
X58420000Y-73660000D03*
X58420000Y-76200000D03*
%TD*%
%TO.C,J70*%
X53340000Y-73660000D03*
X53340000Y-76200000D03*
%TD*%
%TO.C,J100*%
X88900000Y-58420000D03*
X88900000Y-60960000D03*
X88900000Y-63420000D03*
X88900000Y-65960000D03*
X88900000Y-68580000D03*
%TD*%
%TO.C,J68*%
X48260000Y-73660000D03*
X48260000Y-76200000D03*
%TD*%
%TO.C,J59*%
X106680000Y-33020000D03*
X106680000Y-35560000D03*
%TD*%
%TO.C,J64*%
X119380000Y-33020000D03*
X119380000Y-35560000D03*
%TD*%
%TO.C,J62*%
X114300000Y-33020000D03*
X114300000Y-35560000D03*
%TD*%
M02*
