M48
; DRILL file {KiCad 8.0.5} date 2024-10-04T16:18:20+0200
; FORMAT={-:-/ absolute / inch / decimal}
; #@! TF.CreationDate,2024-10-04T16:18:20+02:00
; #@! TF.GenerationSoftware,Kicad,Pcbnew,8.0.5
; #@! TF.FileFunction,MixedPlating,1,2
FMAT,2
INCH
; #@! TA.AperFunction,Plated,PTH,ComponentDrill
T1C0.0315
; #@! TA.AperFunction,NonPlated,NPTH,ComponentDrill
T2C0.0150
%
G90
G05
T1
X1.6Y-1.3
X1.6Y-1.4
X1.6Y-1.6
X1.6Y-1.7
X1.6Y-1.7969
X1.6Y-1.8969
X1.6Y-2.0
X1.6Y-2.3
X1.6Y-2.4
X1.6Y-2.4969
X1.6Y-2.5969
X1.6Y-2.7
X1.6Y-2.9
X1.6Y-3.0
X1.6Y-3.3
X1.6Y-3.4
X1.6Y-3.6
X1.6Y-3.7
X1.6Y-3.7969
X1.6Y-3.8969
X1.6Y-4.0
X1.6Y-4.3
X1.6Y-4.4
X1.6Y-4.4969
X1.6Y-4.5969
X1.6Y-4.7
X1.6Y-4.9
X1.6Y-5.0
X1.7Y-1.3
X1.7Y-1.4
X1.7Y-1.6
X1.7Y-1.7
X1.7Y-1.7969
X1.7Y-1.8969
X1.7Y-2.0
X1.7Y-2.3
X1.7Y-2.4
X1.7Y-2.4969
X1.7Y-2.5969
X1.7Y-2.7
X1.7Y-2.9
X1.7Y-3.0
X1.7Y-3.3
X1.7Y-3.4
X1.7Y-3.6
X1.7Y-3.7
X1.7Y-3.7969
X1.7Y-3.8969
X1.7Y-4.0
X1.7Y-4.3
X1.7Y-4.4
X1.7Y-4.4969
X1.7Y-4.5969
X1.7Y-4.7
X1.7Y-4.9
X1.7Y-5.0
X1.8Y-1.3
X1.8Y-1.4
X1.8Y-1.6
X1.8Y-1.7
X1.8Y-1.7969
X1.8Y-1.8969
X1.8Y-2.0
X1.8Y-2.3
X1.8Y-2.4
X1.8Y-2.4969
X1.8Y-2.5969
X1.8Y-2.7
X1.8Y-2.9
X1.8Y-3.0
X1.8Y-3.3
X1.8Y-3.4
X1.8Y-3.6
X1.8Y-3.7
X1.8Y-3.7969
X1.8Y-3.8969
X1.8Y-4.0
X1.8Y-4.3
X1.8Y-4.4
X1.8Y-4.4969
X1.8Y-4.5969
X1.8Y-4.7
X1.8Y-4.9
X1.8Y-5.0
X1.9Y-1.3
X1.9Y-1.4
X1.9Y-1.6
X1.9Y-1.7
X1.9Y-1.7969
X1.9Y-1.8969
X1.9Y-2.0
X1.9Y-2.3
X1.9Y-2.4
X1.9Y-2.4969
X1.9Y-2.5969
X1.9Y-2.7
X1.9Y-2.9
X1.9Y-3.0
X1.9Y-3.3
X1.9Y-3.4
X1.9Y-3.6
X1.9Y-3.7
X1.9Y-3.7969
X1.9Y-3.8969
X1.9Y-4.0
X1.9Y-4.3
X1.9Y-4.4
X1.9Y-4.4969
X1.9Y-4.5969
X1.9Y-4.7
X1.9Y-4.9
X1.9Y-5.0
X2.0Y-1.3
X2.0Y-1.4
X2.0Y-1.6
X2.0Y-1.7
X2.0Y-1.7969
X2.0Y-1.8969
X2.0Y-2.0
X2.0Y-2.3
X2.0Y-2.4
X2.0Y-2.4969
X2.0Y-2.5969
X2.0Y-2.7
X2.0Y-2.9
X2.0Y-3.0
X2.0Y-3.3
X2.0Y-3.4
X2.0Y-3.6
X2.0Y-3.7
X2.0Y-3.7969
X2.0Y-3.8969
X2.0Y-4.0
X2.0Y-4.3
X2.0Y-4.4
X2.0Y-4.4969
X2.0Y-4.5969
X2.0Y-4.7
X2.0Y-4.9
X2.0Y-5.0
X2.1Y-1.3
X2.1Y-1.4
X2.1Y-1.6
X2.1Y-1.7
X2.1Y-1.7969
X2.1Y-1.8969
X2.1Y-2.0
X2.1Y-2.3
X2.1Y-2.4
X2.1Y-2.4969
X2.1Y-2.5969
X2.1Y-2.7
X2.1Y-2.9
X2.1Y-3.0
X2.1Y-3.3
X2.1Y-3.4
X2.1Y-3.6
X2.1Y-3.7
X2.1Y-3.7969
X2.1Y-3.8969
X2.1Y-4.0
X2.1Y-4.3
X2.1Y-4.4
X2.1Y-4.4969
X2.1Y-4.5969
X2.1Y-4.7
X2.1Y-4.9
X2.1Y-5.0
X2.2Y-1.3
X2.2Y-1.4
X2.2Y-1.6
X2.2Y-1.7
X2.2Y-1.7969
X2.2Y-1.8969
X2.2Y-2.0
X2.2Y-2.3
X2.2Y-2.4
X2.2Y-2.4969
X2.2Y-2.5969
X2.2Y-2.7
X2.2Y-2.9
X2.2Y-3.0
X2.2Y-3.3
X2.2Y-3.4
X2.2Y-3.6
X2.2Y-3.7
X2.2Y-3.7969
X2.2Y-3.8969
X2.2Y-4.0
X2.2Y-4.3
X2.2Y-4.4
X2.2Y-4.4969
X2.2Y-4.5969
X2.2Y-4.7
X2.2Y-4.9
X2.2Y-5.0
X2.3Y-1.3
X2.3Y-1.4
X2.3Y-1.6
X2.3Y-1.7
X2.3Y-1.7969
X2.3Y-1.8969
X2.3Y-2.0
X2.3Y-2.3
X2.3Y-2.4
X2.3Y-2.4969
X2.3Y-2.5969
X2.3Y-2.7
X2.3Y-2.9
X2.3Y-3.0
X2.3Y-3.3
X2.3Y-3.4
X2.3Y-3.6
X2.3Y-3.7
X2.3Y-3.7969
X2.3Y-3.8969
X2.3Y-4.0
X2.3Y-4.3
X2.3Y-4.4
X2.3Y-4.4969
X2.3Y-4.5969
X2.3Y-4.7
X2.3Y-4.9
X2.3Y-5.0
X2.3945Y-1.3
X2.3945Y-1.4
X2.3945Y-3.3
X2.3945Y-3.4
X2.4Y-1.6
X2.4Y-1.7
X2.4Y-1.7969
X2.4Y-1.8969
X2.4Y-2.0
X2.4Y-2.3
X2.4Y-2.4
X2.4Y-2.4969
X2.4Y-2.5969
X2.4Y-2.7
X2.4Y-2.9
X2.4Y-3.0
X2.4Y-3.6
X2.4Y-3.7
X2.4Y-3.7969
X2.4Y-3.8969
X2.4Y-4.0
X2.4Y-4.3
X2.4Y-4.4
X2.4Y-4.4969
X2.4Y-4.5969
X2.4Y-4.7
X2.4Y-4.9
X2.4Y-5.0
X2.4945Y-1.3
X2.4945Y-1.4
X2.4945Y-3.3
X2.4945Y-3.4
X2.5Y-1.6
X2.5Y-1.7
X2.5Y-1.7969
X2.5Y-1.8969
X2.5Y-2.0
X2.5Y-2.3
X2.5Y-2.4
X2.5Y-2.4969
X2.5Y-2.5969
X2.5Y-2.7
X2.5Y-2.9
X2.5Y-3.0
X2.5Y-3.6
X2.5Y-3.7
X2.5Y-3.7969
X2.5Y-3.8969
X2.5Y-4.0
X2.5Y-4.3
X2.5Y-4.4
X2.5Y-4.4969
X2.5Y-4.5969
X2.5Y-4.7
X2.5Y-4.9
X2.5Y-5.0
X2.5945Y-1.3
X2.5945Y-1.4
X2.5945Y-3.3
X2.5945Y-3.4
X2.6Y-1.6
X2.6Y-1.7
X2.6Y-1.7969
X2.6Y-1.8969
X2.6Y-2.0
X2.6Y-2.3
X2.6Y-2.4
X2.6Y-2.4969
X2.6Y-2.5969
X2.6Y-2.7
X2.6Y-2.9
X2.6Y-3.0
X2.6Y-3.6
X2.6Y-3.7
X2.6Y-3.7969
X2.6Y-3.8969
X2.6Y-4.0
X2.6Y-4.3
X2.6Y-4.4
X2.6Y-4.4969
X2.6Y-4.5969
X2.6Y-4.7
X2.6Y-4.9
X2.6Y-5.0
X2.7Y-1.3
X2.7Y-1.4
X2.7Y-1.6031
X2.7Y-1.7031
X2.7Y-1.8
X2.7Y-1.9
X2.7Y-2.0031
X2.7Y-2.3031
X2.7Y-2.4031
X2.7Y-2.5
X2.7Y-2.6
X2.7Y-2.7031
X2.7Y-2.9
X2.7Y-3.0
X2.7Y-3.3
X2.7Y-3.4
X2.7Y-3.6031
X2.7Y-3.7031
X2.7Y-3.8
X2.7Y-3.9
X2.7Y-4.0031
X2.7Y-4.3031
X2.7Y-4.4031
X2.7Y-4.5
X2.7Y-4.6
X2.7Y-4.7031
X2.7Y-4.9
X2.7Y-5.0
X2.8Y-1.3
X2.8Y-1.4
X2.8Y-1.6
X2.8Y-1.7
X2.8Y-1.7969
X2.8Y-1.8969
X2.8Y-2.0
X2.8Y-2.3
X2.8Y-2.4
X2.8Y-2.4969
X2.8Y-2.5969
X2.8Y-2.7
X2.8Y-2.9
X2.8Y-3.0
X2.8Y-3.3
X2.8Y-3.4
X2.8Y-3.6
X2.8Y-3.7
X2.8Y-3.7969
X2.8Y-3.8969
X2.8Y-4.0
X2.8Y-4.3
X2.8Y-4.4
X2.8Y-4.4969
X2.8Y-4.5969
X2.8Y-4.7
X2.8Y-4.9
X2.8Y-5.0
X2.9Y-1.3
X2.9Y-1.4
X2.9Y-1.6
X2.9Y-1.7
X2.9Y-1.7969
X2.9Y-1.8969
X2.9Y-2.0
X2.9Y-2.3
X2.9Y-2.4
X2.9Y-2.4969
X2.9Y-2.5969
X2.9Y-2.7
X2.9Y-2.9
X2.9Y-3.0
X2.9Y-3.3
X2.9Y-3.4
X2.9Y-3.6
X2.9Y-3.7
X2.9Y-3.7969
X2.9Y-3.8969
X2.9Y-4.0
X2.9Y-4.3
X2.9Y-4.4
X2.9Y-4.4969
X2.9Y-4.5969
X2.9Y-4.7
X2.9Y-4.9
X2.9Y-5.0
X3.0Y-1.3
X3.0Y-1.4
X3.0Y-1.6
X3.0Y-1.7
X3.0Y-1.7969
X3.0Y-1.8969
X3.0Y-2.0
X3.0Y-2.3
X3.0Y-2.4
X3.0Y-2.4969
X3.0Y-2.5969
X3.0Y-2.7
X3.0Y-2.9
X3.0Y-3.0
X3.0Y-3.3
X3.0Y-3.4
X3.0Y-3.6
X3.0Y-3.7
X3.0Y-3.7969
X3.0Y-3.8969
X3.0Y-4.0
X3.0Y-4.3
X3.0Y-4.4
X3.0Y-4.4969
X3.0Y-4.5969
X3.0Y-4.7
X3.0Y-4.9
X3.0Y-5.0
X3.1Y-1.3
X3.1Y-1.4
X3.1Y-1.6
X3.1Y-1.7
X3.1Y-1.7969
X3.1Y-1.8969
X3.1Y-2.0
X3.1Y-2.3
X3.1Y-2.4
X3.1Y-2.4969
X3.1Y-2.5969
X3.1Y-2.7
X3.1Y-2.9
X3.1Y-3.0
X3.1Y-3.3
X3.1Y-3.4
X3.1Y-3.6
X3.1Y-3.7
X3.1Y-3.7969
X3.1Y-3.8969
X3.1Y-4.0
X3.1Y-4.3
X3.1Y-4.4
X3.1Y-4.4969
X3.1Y-4.5969
X3.1Y-4.7
X3.1Y-4.9
X3.1Y-5.0
X3.2Y-1.3
X3.2Y-1.4
X3.2Y-1.6
X3.2Y-1.7
X3.2Y-1.7969
X3.2Y-1.8969
X3.2Y-2.0
X3.2Y-2.3
X3.2Y-2.4
X3.2Y-2.4969
X3.2Y-2.5969
X3.2Y-2.7
X3.2Y-2.9
X3.2Y-3.0
X3.2Y-3.3
X3.2Y-3.4
X3.2Y-3.6
X3.2Y-3.7
X3.2Y-3.7969
X3.2Y-3.8969
X3.2Y-4.0
X3.2Y-4.3
X3.2Y-4.4
X3.2Y-4.4969
X3.2Y-4.5969
X3.2Y-4.7
X3.2Y-4.9
X3.2Y-5.0
X3.3Y-1.3
X3.3Y-1.4
X3.3Y-1.6
X3.3Y-1.7
X3.3Y-1.7969
X3.3Y-1.8969
X3.3Y-2.0
X3.3Y-2.3
X3.3Y-2.4
X3.3Y-2.4969
X3.3Y-2.5969
X3.3Y-2.7
X3.3Y-2.9
X3.3Y-3.0
X3.3Y-3.3
X3.3Y-3.4
X3.3Y-3.6
X3.3Y-3.7
X3.3Y-3.7969
X3.3Y-3.8969
X3.3Y-4.0
X3.3Y-4.3
X3.3Y-4.4
X3.3Y-4.4969
X3.3Y-4.5969
X3.3Y-4.7
X3.3Y-4.9
X3.3Y-5.0
X3.4Y-1.3
X3.4Y-1.4
X3.4Y-1.6
X3.4Y-1.7
X3.4Y-1.7969
X3.4Y-1.8969
X3.4Y-2.0
X3.4Y-2.3
X3.4Y-2.4
X3.4Y-2.4969
X3.4Y-2.5969
X3.4Y-2.7
X3.4Y-2.9
X3.4Y-3.0
X3.4Y-3.3
X3.4Y-3.4
X3.4Y-3.6
X3.4Y-3.7
X3.4Y-3.7969
X3.4Y-3.8969
X3.4Y-4.0
X3.4Y-4.3
X3.4Y-4.4
X3.4Y-4.4969
X3.4Y-4.5969
X3.4Y-4.7
X3.4Y-4.9
X3.4Y-5.0
X3.5Y-1.3
X3.5Y-1.4
X3.5Y-1.6
X3.5Y-1.7
X3.5Y-1.7969
X3.5Y-1.8969
X3.5Y-2.0
X3.5Y-2.3
X3.5Y-2.4
X3.5Y-2.4969
X3.5Y-2.5969
X3.5Y-2.7
X3.5Y-2.9
X3.5Y-3.0
X3.5Y-3.3
X3.5Y-3.4
X3.5Y-3.6
X3.5Y-3.7
X3.5Y-3.7969
X3.5Y-3.8969
X3.5Y-4.0
X3.5Y-4.3
X3.5Y-4.4
X3.5Y-4.4969
X3.5Y-4.5969
X3.5Y-4.7
X3.5Y-4.9
X3.5Y-5.0
X3.6Y-1.3
X3.6Y-1.4
X3.6Y-1.6
X3.6Y-1.7
X3.6Y-1.7969
X3.6Y-1.8969
X3.6Y-2.0
X3.6Y-2.3
X3.6Y-2.4
X3.6Y-2.4969
X3.6Y-2.5969
X3.6Y-2.7
X3.6Y-2.9
X3.6Y-3.0
X3.6Y-3.3
X3.6Y-3.4
X3.6Y-3.6
X3.6Y-3.7
X3.6Y-3.7969
X3.6Y-3.8969
X3.6Y-4.0
X3.6Y-4.3
X3.6Y-4.4
X3.6Y-4.4969
X3.6Y-4.5969
X3.6Y-4.7
X3.6Y-4.9
X3.6Y-5.0
X3.7Y-1.3
X3.7Y-1.4
X3.7Y-1.6
X3.7Y-1.7
X3.7Y-1.7969
X3.7Y-1.8969
X3.7Y-2.0
X3.7Y-2.3
X3.7Y-2.4
X3.7Y-2.4969
X3.7Y-2.5969
X3.7Y-2.7
X3.7Y-2.9
X3.7Y-3.0
X3.7Y-3.3
X3.7Y-3.4
X3.7Y-3.6
X3.7Y-3.7
X3.7Y-3.7969
X3.7Y-3.8969
X3.7Y-4.0
X3.7Y-4.3
X3.7Y-4.4
X3.7Y-4.4969
X3.7Y-4.5969
X3.7Y-4.7
X3.7Y-4.9
X3.7Y-5.0
X3.8Y-1.3
X3.8Y-1.4
X3.8Y-1.6
X3.8Y-1.7
X3.8Y-1.7969
X3.8Y-1.8969
X3.8Y-2.0
X3.8Y-2.3
X3.8Y-2.4
X3.8Y-2.4969
X3.8Y-2.5969
X3.8Y-2.7
X3.8Y-2.9
X3.8Y-3.0
X3.8Y-3.3
X3.8Y-3.4
X3.8Y-3.6
X3.8Y-3.7
X3.8Y-3.7969
X3.8Y-3.8969
X3.8Y-4.0
X3.8Y-4.3
X3.8Y-4.4
X3.8Y-4.4969
X3.8Y-4.5969
X3.8Y-4.7
X3.8Y-4.9
X3.8Y-5.0
X3.9Y-1.3
X3.9Y-1.4
X3.9Y-1.6
X3.9Y-1.7
X3.9Y-1.7969
X3.9Y-1.8969
X3.9Y-2.0
X3.9Y-2.3
X3.9Y-2.4
X3.9Y-2.4969
X3.9Y-2.5969
X3.9Y-2.7
X3.9Y-2.9
X3.9Y-3.0
X3.9Y-3.3
X3.9Y-3.4
X3.9Y-3.6
X3.9Y-3.7
X3.9Y-3.7969
X3.9Y-3.8969
X3.9Y-4.0
X3.9Y-4.3
X3.9Y-4.4
X3.9Y-4.4969
X3.9Y-4.5969
X3.9Y-4.7
X3.9Y-4.9
X3.9Y-5.0
X4.0Y-1.3
X4.0Y-1.4
X4.0Y-1.6
X4.0Y-1.7
X4.0Y-1.7969
X4.0Y-1.8969
X4.0Y-2.0
X4.0Y-2.3
X4.0Y-2.4
X4.0Y-2.4969
X4.0Y-2.5969
X4.0Y-2.7
X4.0Y-2.9
X4.0Y-3.0
X4.0Y-3.3
X4.0Y-3.4
X4.0Y-3.6
X4.0Y-3.7
X4.0Y-3.7969
X4.0Y-3.8969
X4.0Y-4.0
X4.0Y-4.3
X4.0Y-4.4
X4.0Y-4.4969
X4.0Y-4.5969
X4.0Y-4.7
X4.0Y-4.9
X4.0Y-5.0
X4.1Y-1.3
X4.1Y-1.4
X4.1Y-1.6
X4.1Y-1.7
X4.1Y-1.7969
X4.1Y-1.8969
X4.1Y-2.0
X4.1Y-2.3
X4.1Y-2.4
X4.1Y-2.4969
X4.1Y-2.5969
X4.1Y-2.7
X4.1Y-2.9
X4.1Y-3.0
X4.1Y-3.3
X4.1Y-3.4
X4.1Y-3.6
X4.1Y-3.7
X4.1Y-3.7969
X4.1Y-3.8969
X4.1Y-4.0
X4.1Y-4.3
X4.1Y-4.4
X4.1Y-4.4969
X4.1Y-4.5969
X4.1Y-4.7
X4.1Y-4.9
X4.1Y-5.0
X4.2Y-1.3
X4.2Y-1.4
X4.2Y-1.6
X4.2Y-1.7
X4.2Y-1.7969
X4.2Y-1.8969
X4.2Y-2.0
X4.2Y-2.3
X4.2Y-2.4
X4.2Y-2.4969
X4.2Y-2.5969
X4.2Y-2.7
X4.2Y-2.9
X4.2Y-3.0
X4.2Y-3.3
X4.2Y-3.4
X4.2Y-3.6
X4.2Y-3.7
X4.2Y-3.7969
X4.2Y-3.8969
X4.2Y-4.0
X4.2Y-4.3
X4.2Y-4.4
X4.2Y-4.4969
X4.2Y-4.5969
X4.2Y-4.7
X4.2Y-4.9
X4.2Y-5.0
X4.3Y-1.3
X4.3Y-1.4
X4.3Y-1.6
X4.3Y-1.7
X4.3Y-1.7969
X4.3Y-1.8969
X4.3Y-2.0
X4.3Y-2.3
X4.3Y-2.4
X4.3Y-2.4969
X4.3Y-2.5969
X4.3Y-2.7
X4.3Y-2.9
X4.3Y-3.0
X4.3Y-3.3
X4.3Y-3.4
X4.3Y-3.6
X4.3Y-3.7
X4.3Y-3.7969
X4.3Y-3.8969
X4.3Y-4.0
X4.3Y-4.3
X4.3Y-4.4
X4.3Y-4.4969
X4.3Y-4.5969
X4.3Y-4.7
X4.3Y-4.9
X4.3Y-5.0
X4.4Y-1.3
X4.4Y-1.4
X4.4Y-1.6
X4.4Y-1.7
X4.4Y-1.7969
X4.4Y-1.8969
X4.4Y-2.0
X4.4Y-2.3
X4.4Y-2.4
X4.4Y-2.4969
X4.4Y-2.5969
X4.4Y-2.7
X4.4Y-2.9
X4.4Y-3.0
X4.4Y-3.3
X4.4Y-3.4
X4.4Y-3.6
X4.4Y-3.7
X4.4Y-3.7969
X4.4Y-3.8969
X4.4Y-4.0
X4.4Y-4.3
X4.4Y-4.4
X4.4Y-4.4969
X4.4Y-4.5969
X4.4Y-4.7
X4.4Y-4.9
X4.4Y-5.0
X4.5Y-1.3
X4.5Y-1.4
X4.5Y-1.6
X4.5Y-1.7
X4.5Y-1.7969
X4.5Y-1.8969
X4.5Y-2.0
X4.5Y-2.3
X4.5Y-2.4
X4.5Y-2.4969
X4.5Y-2.5969
X4.5Y-2.7
X4.5Y-2.9
X4.5Y-3.0
X4.5Y-3.3
X4.5Y-3.4
X4.5Y-3.6
X4.5Y-3.7
X4.5Y-3.7969
X4.5Y-3.8969
X4.5Y-4.0
X4.5Y-4.3
X4.5Y-4.4
X4.5Y-4.4969
X4.5Y-4.5969
X4.5Y-4.7
X4.5Y-4.9
X4.5Y-5.0
X4.6Y-1.3
X4.6Y-1.4
X4.6Y-1.6
X4.6Y-1.7
X4.6Y-1.7969
X4.6Y-1.8969
X4.6Y-2.0
X4.6Y-2.3
X4.6Y-2.4
X4.6Y-2.4969
X4.6Y-2.5969
X4.6Y-2.7
X4.6Y-2.9
X4.6Y-3.0
X4.6Y-3.3
X4.6Y-3.4
X4.6Y-3.6
X4.6Y-3.7
X4.6Y-3.7969
X4.6Y-3.8969
X4.6Y-4.0
X4.6Y-4.3
X4.6Y-4.4
X4.6Y-4.4969
X4.6Y-4.5969
X4.6Y-4.7
X4.6Y-4.9
X4.6Y-5.0
X4.7Y-1.3
X4.7Y-1.4
X4.7Y-1.6
X4.7Y-1.7
X4.7Y-1.7969
X4.7Y-1.8969
X4.7Y-2.0
X4.7Y-2.3
X4.7Y-2.4
X4.7Y-2.4969
X4.7Y-2.5969
X4.7Y-2.7
X4.7Y-2.9
X4.7Y-3.0
X4.7Y-3.3
X4.7Y-3.4
X4.7Y-3.6
X4.7Y-3.7
X4.7Y-3.7969
X4.7Y-3.8969
X4.7Y-4.0
X4.7Y-4.3
X4.7Y-4.4
X4.7Y-4.4969
X4.7Y-4.5969
X4.7Y-4.7
X4.7Y-4.9
X4.7Y-5.0
X4.8Y-1.3
X4.8Y-1.4
X4.8Y-1.6
X4.8Y-1.7
X4.8Y-1.7969
X4.8Y-1.8969
X4.8Y-2.0
X4.8Y-2.3
X4.8Y-2.4
X4.8Y-2.4969
X4.8Y-2.5969
X4.8Y-2.7
X4.8Y-2.9
X4.8Y-3.0
X4.8Y-3.3
X4.8Y-3.4
X4.8Y-3.6
X4.8Y-3.7
X4.8Y-3.7969
X4.8Y-3.8969
X4.8Y-4.0
X4.8Y-4.3
X4.8Y-4.4
X4.8Y-4.4969
X4.8Y-4.5969
X4.8Y-4.7
X4.8Y-4.9
X4.8Y-5.0
X4.9Y-1.3
X4.9Y-1.4
X4.9Y-1.6
X4.9Y-1.7
X4.9Y-1.7969
X4.9Y-1.8969
X4.9Y-2.0
X4.9Y-2.3
X4.9Y-2.4
X4.9Y-2.4969
X4.9Y-2.5969
X4.9Y-2.7
X4.9Y-2.9
X4.9Y-3.0
X4.9Y-3.3
X4.9Y-3.4
X4.9Y-3.6
X4.9Y-3.7
X4.9Y-3.7969
X4.9Y-3.8969
X4.9Y-4.0
X4.9Y-4.3
X4.9Y-4.4
X4.9Y-4.4969
X4.9Y-4.5969
X4.9Y-4.7
X4.9Y-4.9
X4.9Y-5.0
X5.0Y-1.3
X5.0Y-1.4
X5.0Y-1.6
X5.0Y-1.7
X5.0Y-1.7969
X5.0Y-1.8969
X5.0Y-2.0
X5.0Y-2.3
X5.0Y-2.4
X5.0Y-2.4969
X5.0Y-2.5969
X5.0Y-2.7
X5.0Y-2.9
X5.0Y-3.0
X5.0Y-3.3
X5.0Y-3.4
X5.0Y-3.6
X5.0Y-3.7
X5.0Y-3.7969
X5.0Y-3.8969
X5.0Y-4.0
X5.0Y-4.3
X5.0Y-4.4
X5.0Y-4.4969
X5.0Y-4.5969
X5.0Y-4.7
X5.0Y-4.9
X5.0Y-5.0
X5.1Y-1.3
X5.1Y-1.4
X5.1Y-1.6
X5.1Y-1.7
X5.1Y-1.7969
X5.1Y-1.8969
X5.1Y-2.0
X5.1Y-2.3
X5.1Y-2.4
X5.1Y-2.4969
X5.1Y-2.5969
X5.1Y-2.7
X5.1Y-2.9
X5.1Y-3.0
X5.1Y-3.3
X5.1Y-3.4
X5.1Y-3.6
X5.1Y-3.7
X5.1Y-3.7969
X5.1Y-3.8969
X5.1Y-4.0
X5.1Y-4.3
X5.1Y-4.4
X5.1Y-4.4969
X5.1Y-4.5969
X5.1Y-4.7
X5.1Y-4.9
X5.1Y-5.0
X5.2Y-1.3
X5.2Y-1.4
X5.2Y-1.6
X5.2Y-1.7
X5.2Y-1.7969
X5.2Y-1.8969
X5.2Y-2.0
X5.2Y-2.3
X5.2Y-2.4
X5.2Y-2.4969
X5.2Y-2.5969
X5.2Y-2.7
X5.2Y-2.9
X5.2Y-3.0
X5.2Y-3.3
X5.2Y-3.4
X5.2Y-3.6
X5.2Y-3.7
X5.2Y-3.7969
X5.2Y-3.8969
X5.2Y-4.0
X5.2Y-4.3
X5.2Y-4.4
X5.2Y-4.4969
X5.2Y-4.5969
X5.2Y-4.7
X5.2Y-4.9
X5.2Y-5.0
X5.3Y-1.3
X5.3Y-1.4
X5.3Y-1.6
X5.3Y-1.7
X5.3Y-1.7969
X5.3Y-1.8969
X5.3Y-2.0
X5.3Y-2.3
X5.3Y-2.4
X5.3Y-2.4969
X5.3Y-2.5969
X5.3Y-2.7
X5.3Y-2.9
X5.3Y-3.0
X5.3Y-3.3
X5.3Y-3.4
X5.3Y-3.6
X5.3Y-3.7
X5.3Y-3.7969
X5.3Y-3.8969
X5.3Y-4.0
X5.3Y-4.3
X5.3Y-4.4
X5.3Y-4.4969
X5.3Y-4.5969
X5.3Y-4.7
X5.3Y-4.9
X5.3Y-5.0
X5.4Y-1.3
X5.4Y-1.4
X5.4Y-1.6
X5.4Y-1.7
X5.4Y-1.7969
X5.4Y-1.8969
X5.4Y-2.0
X5.4Y-2.3
X5.4Y-2.4
X5.4Y-2.4969
X5.4Y-2.5969
X5.4Y-2.7
X5.4Y-2.9
X5.4Y-3.0
X5.4Y-3.3
X5.4Y-3.4
X5.4Y-3.6
X5.4Y-3.7
X5.4Y-3.7969
X5.4Y-3.8969
X5.4Y-4.0
X5.4Y-4.3
X5.4Y-4.4
X5.4Y-4.4969
X5.4Y-4.5969
X5.4Y-4.7
X5.4Y-4.9
X5.4Y-5.0
X5.5Y-1.3
X5.5Y-1.4
X5.5Y-1.6
X5.5Y-1.7
X5.5Y-1.7969
X5.5Y-1.8969
X5.5Y-2.0
X5.5Y-2.3
X5.5Y-2.4
X5.5Y-2.4969
X5.5Y-2.5969
X5.5Y-2.7
X5.5Y-2.9
X5.5Y-3.0
X5.5Y-3.3
X5.5Y-3.4
X5.5Y-3.6
X5.5Y-3.7
X5.5Y-3.7969
X5.5Y-3.8969
X5.5Y-4.0
X5.5Y-4.3
X5.5Y-4.4
X5.5Y-4.4969
X5.5Y-4.5969
X5.5Y-4.7
X5.5Y-4.9
X5.5Y-5.0
X5.5945Y-1.3
X5.5945Y-1.4
X5.5945Y-3.3
X5.5945Y-3.4
X5.6Y-1.6
X5.6Y-1.7
X5.6Y-1.7969
X5.6Y-1.8969
X5.6Y-2.0
X5.6Y-2.3
X5.6Y-2.4
X5.6Y-2.4969
X5.6Y-2.5969
X5.6Y-2.7
X5.6Y-2.9
X5.6Y-3.0
X5.6Y-3.6
X5.6Y-3.7
X5.6Y-3.7969
X5.6Y-3.8969
X5.6Y-4.0
X5.6Y-4.3
X5.6Y-4.4
X5.6Y-4.4969
X5.6Y-4.5969
X5.6Y-4.7
X5.6Y-4.9
X5.6Y-5.0
X5.6945Y-1.3
X5.6945Y-1.4
X5.6945Y-3.3
X5.6945Y-3.4
X5.7Y-1.6
X5.7Y-1.7
X5.7Y-1.7969
X5.7Y-1.8969
X5.7Y-2.0
X5.7Y-2.3
X5.7Y-2.4
X5.7Y-2.4969
X5.7Y-2.5969
X5.7Y-2.7
X5.7Y-2.9
X5.7Y-3.0
X5.7Y-3.6
X5.7Y-3.7
X5.7Y-3.7969
X5.7Y-3.8969
X5.7Y-4.0
X5.7Y-4.3
X5.7Y-4.4
X5.7Y-4.4969
X5.7Y-4.5969
X5.7Y-4.7
X5.7Y-4.9
X5.7Y-5.0
X5.7945Y-1.3
X5.7945Y-1.4
X5.7945Y-3.3
X5.7945Y-3.4
X5.8Y-1.6
X5.8Y-1.7
X5.8Y-1.7969
X5.8Y-1.8969
X5.8Y-2.0
X5.8Y-2.3
X5.8Y-2.4
X5.8Y-2.4969
X5.8Y-2.5969
X5.8Y-2.7
X5.8Y-2.9
X5.8Y-3.0
X5.8Y-3.6
X5.8Y-3.7
X5.8Y-3.7969
X5.8Y-3.8969
X5.8Y-4.0
X5.8Y-4.3
X5.8Y-4.4
X5.8Y-4.4969
X5.8Y-4.5969
X5.8Y-4.7
X5.8Y-4.9
X5.8Y-5.0
X5.9Y-1.3
X5.9Y-1.4
X5.9Y-1.6031
X5.9Y-1.7031
X5.9Y-1.8
X5.9Y-1.9
X5.9Y-2.0031
X5.9Y-2.3031
X5.9Y-2.4031
X5.9Y-2.5
X5.9Y-2.6
X5.9Y-2.7031
X5.9Y-2.9
X5.9Y-3.0
X5.9Y-3.3
X5.9Y-3.4
X5.9Y-3.6031
X5.9Y-3.7031
X5.9Y-3.8
X5.9Y-3.9
X5.9Y-4.0031
X5.9Y-4.3031
X5.9Y-4.4031
X5.9Y-4.5
X5.9Y-4.6
X5.9Y-4.7031
X5.9Y-4.9
X5.9Y-5.0
X6.0Y-1.3
X6.0Y-1.4
X6.0Y-1.6
X6.0Y-1.7
X6.0Y-1.7969
X6.0Y-1.8969
X6.0Y-2.0
X6.0Y-2.3
X6.0Y-2.4
X6.0Y-2.4969
X6.0Y-2.5969
X6.0Y-2.7
X6.0Y-2.9
X6.0Y-3.0
X6.0Y-3.3
X6.0Y-3.4
X6.0Y-3.6
X6.0Y-3.7
X6.0Y-3.7969
X6.0Y-3.8969
X6.0Y-4.0
X6.0Y-4.3
X6.0Y-4.4
X6.0Y-4.4969
X6.0Y-4.5969
X6.0Y-4.7
X6.0Y-4.9
X6.0Y-5.0
X6.1Y-1.3
X6.1Y-1.4
X6.1Y-1.6
X6.1Y-1.7
X6.1Y-1.7969
X6.1Y-1.8969
X6.1Y-2.0
X6.1Y-2.3
X6.1Y-2.4
X6.1Y-2.4969
X6.1Y-2.5969
X6.1Y-2.7
X6.1Y-2.9
X6.1Y-3.0
X6.1Y-3.3
X6.1Y-3.4
X6.1Y-3.6
X6.1Y-3.7
X6.1Y-3.7969
X6.1Y-3.8969
X6.1Y-4.0
X6.1Y-4.3
X6.1Y-4.4
X6.1Y-4.4969
X6.1Y-4.5969
X6.1Y-4.7
X6.1Y-4.9
X6.1Y-5.0
X6.2Y-1.3
X6.2Y-1.4
X6.2Y-1.6
X6.2Y-1.7
X6.2Y-1.7969
X6.2Y-1.8969
X6.2Y-2.0
X6.2Y-2.3
X6.2Y-2.4
X6.2Y-2.4969
X6.2Y-2.5969
X6.2Y-2.7
X6.2Y-2.9
X6.2Y-3.0
X6.2Y-3.3
X6.2Y-3.4
X6.2Y-3.6
X6.2Y-3.7
X6.2Y-3.7969
X6.2Y-3.8969
X6.2Y-4.0
X6.2Y-4.3
X6.2Y-4.4
X6.2Y-4.4969
X6.2Y-4.5969
X6.2Y-4.7
X6.2Y-4.9
X6.2Y-5.0
X6.3Y-1.3
X6.3Y-1.4
X6.3Y-1.6
X6.3Y-1.7
X6.3Y-1.7969
X6.3Y-1.8969
X6.3Y-2.0
X6.3Y-2.3
X6.3Y-2.4
X6.3Y-2.4969
X6.3Y-2.5969
X6.3Y-2.7
X6.3Y-2.9
X6.3Y-3.0
X6.3Y-3.3
X6.3Y-3.4
X6.3Y-3.6
X6.3Y-3.7
X6.3Y-3.7969
X6.3Y-3.8969
X6.3Y-4.0
X6.3Y-4.3
X6.3Y-4.4
X6.3Y-4.4969
X6.3Y-4.5969
X6.3Y-4.7
X6.3Y-4.9
X6.3Y-5.0
X6.4Y-1.3
X6.4Y-1.4
X6.4Y-1.6
X6.4Y-1.7
X6.4Y-1.7969
X6.4Y-1.8969
X6.4Y-2.0
X6.4Y-2.3
X6.4Y-2.4
X6.4Y-2.4969
X6.4Y-2.5969
X6.4Y-2.7
X6.4Y-2.9
X6.4Y-3.0
X6.4Y-3.3
X6.4Y-3.4
X6.4Y-3.6
X6.4Y-3.7
X6.4Y-3.7969
X6.4Y-3.8969
X6.4Y-4.0
X6.4Y-4.3
X6.4Y-4.4
X6.4Y-4.4969
X6.4Y-4.5969
X6.4Y-4.7
X6.4Y-4.9
X6.4Y-5.0
X6.5Y-1.3
X6.5Y-1.4
X6.5Y-1.6
X6.5Y-1.7
X6.5Y-1.7969
X6.5Y-1.8969
X6.5Y-2.0
X6.5Y-2.3
X6.5Y-2.4
X6.5Y-2.4969
X6.5Y-2.5969
X6.5Y-2.7
X6.5Y-2.9
X6.5Y-3.0
X6.5Y-3.3
X6.5Y-3.4
X6.5Y-3.6
X6.5Y-3.7
X6.5Y-3.7969
X6.5Y-3.8969
X6.5Y-4.0
X6.5Y-4.3
X6.5Y-4.4
X6.5Y-4.4969
X6.5Y-4.5969
X6.5Y-4.7
X6.5Y-4.9
X6.5Y-5.0
X6.6Y-1.3
X6.6Y-1.4
X6.6Y-1.6
X6.6Y-1.7
X6.6Y-1.7969
X6.6Y-1.8969
X6.6Y-2.0
X6.6Y-2.3
X6.6Y-2.4
X6.6Y-2.4969
X6.6Y-2.5969
X6.6Y-2.7
X6.6Y-2.9
X6.6Y-3.0
X6.6Y-3.3
X6.6Y-3.4
X6.6Y-3.6
X6.6Y-3.7
X6.6Y-3.7969
X6.6Y-3.8969
X6.6Y-4.0
X6.6Y-4.3
X6.6Y-4.4
X6.6Y-4.4969
X6.6Y-4.5969
X6.6Y-4.7
X6.6Y-4.9
X6.6Y-5.0
X6.7Y-1.3
X6.7Y-1.4
X6.7Y-1.6
X6.7Y-1.7
X6.7Y-1.7969
X6.7Y-1.8969
X6.7Y-2.0
X6.7Y-2.3
X6.7Y-2.4
X6.7Y-2.4969
X6.7Y-2.5969
X6.7Y-2.7
X6.7Y-2.9
X6.7Y-3.0
X6.7Y-3.3
X6.7Y-3.4
X6.7Y-3.6
X6.7Y-3.7
X6.7Y-3.7969
X6.7Y-3.8969
X6.7Y-4.0
X6.7Y-4.3
X6.7Y-4.4
X6.7Y-4.4969
X6.7Y-4.5969
X6.7Y-4.7
X6.7Y-4.9
X6.7Y-5.0
X6.8Y-1.3
X6.8Y-1.4
X6.8Y-1.6
X6.8Y-1.7
X6.8Y-1.7969
X6.8Y-1.8969
X6.8Y-2.0
X6.8Y-2.3
X6.8Y-2.4
X6.8Y-2.4969
X6.8Y-2.5969
X6.8Y-2.7
X6.8Y-2.9
X6.8Y-3.0
X6.8Y-3.3
X6.8Y-3.4
X6.8Y-3.6
X6.8Y-3.7
X6.8Y-3.7969
X6.8Y-3.8969
X6.8Y-4.0
X6.8Y-4.3
X6.8Y-4.4
X6.8Y-4.4969
X6.8Y-4.5969
X6.8Y-4.7
X6.8Y-4.9
X6.8Y-5.0
X6.9Y-1.3
X6.9Y-1.4
X6.9Y-1.6
X6.9Y-1.7
X6.9Y-1.7969
X6.9Y-1.8969
X6.9Y-2.0
X6.9Y-2.3
X6.9Y-2.4
X6.9Y-2.4969
X6.9Y-2.5969
X6.9Y-2.7
X6.9Y-2.9
X6.9Y-3.0
X6.9Y-3.3
X6.9Y-3.4
X6.9Y-3.6
X6.9Y-3.7
X6.9Y-3.7969
X6.9Y-3.8969
X6.9Y-4.0
X6.9Y-4.3
X6.9Y-4.4
X6.9Y-4.4969
X6.9Y-4.5969
X6.9Y-4.7
X6.9Y-4.9
X6.9Y-5.0
X7.0Y-1.3
X7.0Y-1.4
X7.0Y-1.6
X7.0Y-1.7
X7.0Y-1.7969
X7.0Y-1.8969
X7.0Y-2.0
X7.0Y-2.3
X7.0Y-2.4
X7.0Y-2.4969
X7.0Y-2.5969
X7.0Y-2.7
X7.0Y-2.9
X7.0Y-3.0
X7.0Y-3.3
X7.0Y-3.4
X7.0Y-3.6
X7.0Y-3.7
X7.0Y-3.7969
X7.0Y-3.8969
X7.0Y-4.0
X7.0Y-4.3
X7.0Y-4.4
X7.0Y-4.4969
X7.0Y-4.5969
X7.0Y-4.7
X7.0Y-4.9
X7.0Y-5.0
X7.1Y-1.3
X7.1Y-1.4
X7.1Y-1.6
X7.1Y-1.7
X7.1Y-1.7969
X7.1Y-1.8969
X7.1Y-2.0
X7.1Y-2.3
X7.1Y-2.4
X7.1Y-2.4969
X7.1Y-2.5969
X7.1Y-2.7
X7.1Y-2.9
X7.1Y-3.0
X7.1Y-3.3
X7.1Y-3.4
X7.1Y-3.6
X7.1Y-3.7
X7.1Y-3.7969
X7.1Y-3.8969
X7.1Y-4.0
X7.1Y-4.3
X7.1Y-4.4
X7.1Y-4.4969
X7.1Y-4.5969
X7.1Y-4.7
X7.1Y-4.9
X7.1Y-5.0
X7.2Y-1.3
X7.2Y-1.4
X7.2Y-1.6
X7.2Y-1.7
X7.2Y-1.7969
X7.2Y-1.8969
X7.2Y-2.0
X7.2Y-2.3
X7.2Y-2.4
X7.2Y-2.4969
X7.2Y-2.5969
X7.2Y-2.7
X7.2Y-2.9
X7.2Y-3.0
X7.2Y-3.3
X7.2Y-3.4
X7.2Y-3.6
X7.2Y-3.7
X7.2Y-3.7969
X7.2Y-3.8969
X7.2Y-4.0
X7.2Y-4.3
X7.2Y-4.4
X7.2Y-4.4969
X7.2Y-4.5969
X7.2Y-4.7
X7.2Y-4.9
X7.2Y-5.0
X7.3Y-1.3
X7.3Y-1.4
X7.3Y-1.6
X7.3Y-1.7
X7.3Y-1.7969
X7.3Y-1.8969
X7.3Y-2.0
X7.3Y-2.3
X7.3Y-2.4
X7.3Y-2.4969
X7.3Y-2.5969
X7.3Y-2.7
X7.3Y-2.9
X7.3Y-3.0
X7.3Y-3.3
X7.3Y-3.4
X7.3Y-3.6
X7.3Y-3.7
X7.3Y-3.7969
X7.3Y-3.8969
X7.3Y-4.0
X7.3Y-4.3
X7.3Y-4.4
X7.3Y-4.4969
X7.3Y-4.5969
X7.3Y-4.7
X7.3Y-4.9
X7.3Y-5.0
X7.4Y-1.3
X7.4Y-1.4
X7.4Y-1.6
X7.4Y-1.7
X7.4Y-1.7969
X7.4Y-1.8969
X7.4Y-2.0
X7.4Y-2.3
X7.4Y-2.4
X7.4Y-2.4969
X7.4Y-2.5969
X7.4Y-2.7
X7.4Y-2.9
X7.4Y-3.0
X7.4Y-3.3
X7.4Y-3.4
X7.4Y-3.6
X7.4Y-3.7
X7.4Y-3.7969
X7.4Y-3.8969
X7.4Y-4.0
X7.4Y-4.3
X7.4Y-4.4
X7.4Y-4.4969
X7.4Y-4.5969
X7.4Y-4.7
X7.4Y-4.9
X7.4Y-5.0
X7.5Y-1.3
X7.5Y-1.4
X7.5Y-1.6
X7.5Y-1.7
X7.5Y-1.7969
X7.5Y-1.8969
X7.5Y-2.0
X7.5Y-2.3
X7.5Y-2.4
X7.5Y-2.4969
X7.5Y-2.5969
X7.5Y-2.7
X7.5Y-2.9
X7.5Y-3.0
X7.5Y-3.3
X7.5Y-3.4
X7.5Y-3.6
X7.5Y-3.7
X7.5Y-3.7969
X7.5Y-3.8969
X7.5Y-4.0
X7.5Y-4.3
X7.5Y-4.4
X7.5Y-4.4969
X7.5Y-4.5969
X7.5Y-4.7
X7.5Y-4.9
X7.5Y-5.0
X7.6Y-1.3
X7.6Y-1.4
X7.6Y-1.6
X7.6Y-1.7
X7.6Y-1.7969
X7.6Y-1.8969
X7.6Y-2.0
X7.6Y-2.3
X7.6Y-2.4
X7.6Y-2.4969
X7.6Y-2.5969
X7.6Y-2.7
X7.6Y-2.9
X7.6Y-3.0
X7.6Y-3.3
X7.6Y-3.4
X7.6Y-3.6
X7.6Y-3.7
X7.6Y-3.7969
X7.6Y-3.8969
X7.6Y-4.0
X7.6Y-4.3
X7.6Y-4.4
X7.6Y-4.4969
X7.6Y-4.5969
X7.6Y-4.7
X7.6Y-4.9
X7.6Y-5.0
X7.7Y-1.3
X7.7Y-1.4
X7.7Y-1.6
X7.7Y-1.7
X7.7Y-1.7969
X7.7Y-1.8969
X7.7Y-2.0
X7.7Y-2.3
X7.7Y-2.4
X7.7Y-2.4969
X7.7Y-2.5969
X7.7Y-2.7
X7.7Y-2.9
X7.7Y-3.0
X7.7Y-3.3
X7.7Y-3.4
X7.7Y-3.6
X7.7Y-3.7
X7.7Y-3.7969
X7.7Y-3.8969
X7.7Y-4.0
X7.7Y-4.3
X7.7Y-4.4
X7.7Y-4.4969
X7.7Y-4.5969
X7.7Y-4.7
X7.7Y-4.9
X7.7Y-5.0
X7.8Y-1.3
X7.8Y-1.4
X7.8Y-1.6
X7.8Y-1.7
X7.8Y-1.7969
X7.8Y-1.8969
X7.8Y-2.0
X7.8Y-2.3
X7.8Y-2.4
X7.8Y-2.4969
X7.8Y-2.5969
X7.8Y-2.7
X7.8Y-2.9
X7.8Y-3.0
X7.8Y-3.3
X7.8Y-3.4
X7.8Y-3.6
X7.8Y-3.7
X7.8Y-3.7969
X7.8Y-3.8969
X7.8Y-4.0
X7.8Y-4.3
X7.8Y-4.4
X7.8Y-4.4969
X7.8Y-4.5969
X7.8Y-4.7
X7.8Y-4.9
X7.8Y-5.0
X7.9Y-1.3
X7.9Y-1.4
X7.9Y-1.6
X7.9Y-1.7
X7.9Y-1.7969
X7.9Y-1.8969
X7.9Y-2.0
X7.9Y-2.3
X7.9Y-2.4
X7.9Y-2.4969
X7.9Y-2.5969
X7.9Y-2.7
X7.9Y-2.9
X7.9Y-3.0
X7.9Y-3.3
X7.9Y-3.4
X7.9Y-3.6
X7.9Y-3.7
X7.9Y-3.7969
X7.9Y-3.8969
X7.9Y-4.0
X7.9Y-4.3
X7.9Y-4.4
X7.9Y-4.4969
X7.9Y-4.5969
X7.9Y-4.7
X7.9Y-4.9
X7.9Y-5.0
X8.2Y-1.3
X8.2Y-1.4
X8.2Y-1.6
X8.2Y-1.7
X8.2Y-1.7969
X8.2Y-1.8969
X8.2Y-2.0
X8.2Y-2.3
X8.2Y-2.4
X8.2Y-2.4969
X8.2Y-2.5969
X8.2Y-2.7
X8.2Y-2.9
X8.2Y-3.0
X8.2Y-3.3
X8.2Y-3.4
X8.2Y-3.6
X8.2Y-3.7
X8.2Y-3.7969
X8.2Y-3.8969
X8.2Y-4.0
X8.2Y-4.3
X8.2Y-4.4
X8.2Y-4.4969
X8.2Y-4.5969
X8.2Y-4.7
X8.2Y-4.9
X8.2Y-5.0
X8.3Y-1.3
X8.3Y-1.4
X8.3Y-1.6
X8.3Y-1.7
X8.3Y-1.7969
X8.3Y-1.8969
X8.3Y-2.0
X8.3Y-2.3
X8.3Y-2.4
X8.3Y-2.4969
X8.3Y-2.5969
X8.3Y-2.7
X8.3Y-2.9
X8.3Y-3.0
X8.3Y-3.3
X8.3Y-3.4
X8.3Y-3.6
X8.3Y-3.7
X8.3Y-3.7969
X8.3Y-3.8969
X8.3Y-4.0
X8.3Y-4.3
X8.3Y-4.4
X8.3Y-4.4969
X8.3Y-4.5969
X8.3Y-4.7
X8.3Y-4.9
X8.3Y-5.0
X8.4Y-1.3
X8.4Y-1.4
X8.4Y-1.6
X8.4Y-1.7
X8.4Y-1.7969
X8.4Y-1.8969
X8.4Y-2.0
X8.4Y-2.3
X8.4Y-2.4
X8.4Y-2.4969
X8.4Y-2.5969
X8.4Y-2.7
X8.4Y-2.9
X8.4Y-3.0
X8.4Y-3.3
X8.4Y-3.4
X8.4Y-3.6
X8.4Y-3.7
X8.4Y-3.7969
X8.4Y-3.8969
X8.4Y-4.0
X8.4Y-4.3
X8.4Y-4.4
X8.4Y-4.4969
X8.4Y-4.5969
X8.4Y-4.7
X8.4Y-4.9
X8.4Y-5.0
X8.5Y-1.3
X8.5Y-1.4
X8.5Y-1.6
X8.5Y-1.7
X8.5Y-1.7969
X8.5Y-1.8969
X8.5Y-2.0
X8.5Y-2.3
X8.5Y-2.4
X8.5Y-2.4969
X8.5Y-2.5969
X8.5Y-2.7
X8.5Y-2.9
X8.5Y-3.0
X8.5Y-3.3
X8.5Y-3.4
X8.5Y-3.6
X8.5Y-3.7
X8.5Y-3.7969
X8.5Y-3.8969
X8.5Y-4.0
X8.5Y-4.3
X8.5Y-4.4
X8.5Y-4.4969
X8.5Y-4.5969
X8.5Y-4.7
X8.5Y-4.9
X8.5Y-5.0
X8.6Y-1.3
X8.6Y-1.4
X8.6Y-1.6
X8.6Y-1.7
X8.6Y-1.7969
X8.6Y-1.8969
X8.6Y-2.0
X8.6Y-2.3
X8.6Y-2.4
X8.6Y-2.4969
X8.6Y-2.5969
X8.6Y-2.7
X8.6Y-2.9
X8.6Y-3.0
X8.6Y-3.3
X8.6Y-3.4
X8.6Y-3.6
X8.6Y-3.7
X8.6Y-3.7969
X8.6Y-3.8969
X8.6Y-4.0
X8.6Y-4.3
X8.6Y-4.4
X8.6Y-4.4969
X8.6Y-4.5969
X8.6Y-4.7
X8.6Y-4.9
X8.6Y-5.0
X8.7Y-1.3
X8.7Y-1.4
X8.7Y-1.6
X8.7Y-1.7
X8.7Y-1.7969
X8.7Y-1.8969
X8.7Y-2.0
X8.7Y-2.3
X8.7Y-2.4
X8.7Y-2.4969
X8.7Y-2.5969
X8.7Y-2.7
X8.7Y-2.9
X8.7Y-3.0
X8.7Y-3.3
X8.7Y-3.4
X8.7Y-3.6
X8.7Y-3.7
X8.7Y-3.7969
X8.7Y-3.8969
X8.7Y-4.0
X8.7Y-4.3
X8.7Y-4.4
X8.7Y-4.4969
X8.7Y-4.5969
X8.7Y-4.7
X8.7Y-4.9
X8.7Y-5.0
X8.8Y-1.3
X8.8Y-1.4
X8.8Y-1.6
X8.8Y-1.7
X8.8Y-1.7969
X8.8Y-1.8969
X8.8Y-2.0
X8.8Y-2.3
X8.8Y-2.4
X8.8Y-2.4969
X8.8Y-2.5969
X8.8Y-2.7
X8.8Y-2.9
X8.8Y-3.0
X8.8Y-3.3
X8.8Y-3.4
X8.8Y-3.6
X8.8Y-3.7
X8.8Y-3.7969
X8.8Y-3.8969
X8.8Y-4.0
X8.8Y-4.3
X8.8Y-4.4
X8.8Y-4.4969
X8.8Y-4.5969
X8.8Y-4.7
X8.8Y-4.9
X8.8Y-5.0
X8.9Y-1.3
X8.9Y-1.4
X8.9Y-1.6
X8.9Y-1.7
X8.9Y-1.7969
X8.9Y-1.8969
X8.9Y-2.0
X8.9Y-2.3
X8.9Y-2.4
X8.9Y-2.4969
X8.9Y-2.5969
X8.9Y-2.7
X8.9Y-2.9
X8.9Y-3.0
X8.9Y-3.3
X8.9Y-3.4
X8.9Y-3.6
X8.9Y-3.7
X8.9Y-3.7969
X8.9Y-3.8969
X8.9Y-4.0
X8.9Y-4.3
X8.9Y-4.4
X8.9Y-4.4969
X8.9Y-4.5969
X8.9Y-4.7
X8.9Y-4.9
X8.9Y-5.0
X8.9945Y-1.3
X8.9945Y-1.4
X8.9945Y-3.3
X8.9945Y-3.4
X9.0Y-1.6
X9.0Y-1.7
X9.0Y-1.7969
X9.0Y-1.8969
X9.0Y-2.0
X9.0Y-2.3
X9.0Y-2.4
X9.0Y-2.4969
X9.0Y-2.5969
X9.0Y-2.7
X9.0Y-2.9
X9.0Y-3.0
X9.0Y-3.6
X9.0Y-3.7
X9.0Y-3.7969
X9.0Y-3.8969
X9.0Y-4.0
X9.0Y-4.3
X9.0Y-4.4
X9.0Y-4.4969
X9.0Y-4.5969
X9.0Y-4.7
X9.0Y-4.9
X9.0Y-5.0
X9.0945Y-1.3
X9.0945Y-1.4
X9.0945Y-3.3
X9.0945Y-3.4
X9.1Y-1.6
X9.1Y-1.7
X9.1Y-1.7969
X9.1Y-1.8969
X9.1Y-2.0
X9.1Y-2.3
X9.1Y-2.4
X9.1Y-2.4969
X9.1Y-2.5969
X9.1Y-2.7
X9.1Y-2.9
X9.1Y-3.0
X9.1Y-3.6
X9.1Y-3.7
X9.1Y-3.7969
X9.1Y-3.8969
X9.1Y-4.0
X9.1Y-4.3
X9.1Y-4.4
X9.1Y-4.4969
X9.1Y-4.5969
X9.1Y-4.7
X9.1Y-4.9
X9.1Y-5.0
X9.1945Y-1.3
X9.1945Y-1.4
X9.1945Y-3.3
X9.1945Y-3.4
X9.2Y-1.6
X9.2Y-1.7
X9.2Y-1.7969
X9.2Y-1.8969
X9.2Y-2.0
X9.2Y-2.3
X9.2Y-2.4
X9.2Y-2.4969
X9.2Y-2.5969
X9.2Y-2.7
X9.2Y-2.9
X9.2Y-3.0
X9.2Y-3.6
X9.2Y-3.7
X9.2Y-3.7969
X9.2Y-3.8969
X9.2Y-4.0
X9.2Y-4.3
X9.2Y-4.4
X9.2Y-4.4969
X9.2Y-4.5969
X9.2Y-4.7
X9.2Y-4.9
X9.2Y-5.0
X9.3Y-1.3
X9.3Y-1.4
X9.3Y-1.6031
X9.3Y-1.7031
X9.3Y-1.8
X9.3Y-1.9
X9.3Y-2.0031
X9.3Y-2.3031
X9.3Y-2.4031
X9.3Y-2.5
X9.3Y-2.6
X9.3Y-2.7031
X9.3Y-2.9
X9.3Y-3.0
X9.3Y-3.3
X9.3Y-3.4
X9.3Y-3.6031
X9.3Y-3.7031
X9.3Y-3.8
X9.3Y-3.9
X9.3Y-4.0031
X9.3Y-4.3031
X9.3Y-4.4031
X9.3Y-4.5
X9.3Y-4.6
X9.3Y-4.7031
X9.3Y-4.9
X9.3Y-5.0
X9.4Y-1.3
X9.4Y-1.4
X9.4Y-1.6
X9.4Y-1.7
X9.4Y-1.7969
X9.4Y-1.8969
X9.4Y-2.0
X9.4Y-2.3
X9.4Y-2.4
X9.4Y-2.4969
X9.4Y-2.5969
X9.4Y-2.7
X9.4Y-2.9
X9.4Y-3.0
X9.4Y-3.3
X9.4Y-3.4
X9.4Y-3.6
X9.4Y-3.7
X9.4Y-3.7969
X9.4Y-3.8969
X9.4Y-4.0
X9.4Y-4.3
X9.4Y-4.4
X9.4Y-4.4969
X9.4Y-4.5969
X9.4Y-4.7
X9.4Y-4.9
X9.4Y-5.0
X9.5Y-1.3
X9.5Y-1.4
X9.5Y-1.6
X9.5Y-1.7
X9.5Y-1.7969
X9.5Y-1.8969
X9.5Y-2.0
X9.5Y-2.3
X9.5Y-2.4
X9.5Y-2.4969
X9.5Y-2.5969
X9.5Y-2.7
X9.5Y-2.9
X9.5Y-3.0
X9.5Y-3.3
X9.5Y-3.4
X9.5Y-3.6
X9.5Y-3.7
X9.5Y-3.7969
X9.5Y-3.8969
X9.5Y-4.0
X9.5Y-4.3
X9.5Y-4.4
X9.5Y-4.4969
X9.5Y-4.5969
X9.5Y-4.7
X9.5Y-4.9
X9.5Y-5.0
X9.6Y-1.3
X9.6Y-1.4
X9.6Y-1.6
X9.6Y-1.7
X9.6Y-1.7969
X9.6Y-1.8969
X9.6Y-2.0
X9.6Y-2.3
X9.6Y-2.4
X9.6Y-2.4969
X9.6Y-2.5969
X9.6Y-2.7
X9.6Y-2.9
X9.6Y-3.0
X9.6Y-3.3
X9.6Y-3.4
X9.6Y-3.6
X9.6Y-3.7
X9.6Y-3.7969
X9.6Y-3.8969
X9.6Y-4.0
X9.6Y-4.3
X9.6Y-4.4
X9.6Y-4.4969
X9.6Y-4.5969
X9.6Y-4.7
X9.6Y-4.9
X9.6Y-5.0
X9.7Y-1.3
X9.7Y-1.4
X9.7Y-1.6
X9.7Y-1.7
X9.7Y-1.7969
X9.7Y-1.8969
X9.7Y-2.0
X9.7Y-2.3
X9.7Y-2.4
X9.7Y-2.4969
X9.7Y-2.5969
X9.7Y-2.7
X9.7Y-2.9
X9.7Y-3.0
X9.7Y-3.3
X9.7Y-3.4
X9.7Y-3.6
X9.7Y-3.7
X9.7Y-3.7969
X9.7Y-3.8969
X9.7Y-4.0
X9.7Y-4.3
X9.7Y-4.4
X9.7Y-4.4969
X9.7Y-4.5969
X9.7Y-4.7
X9.7Y-4.9
X9.7Y-5.0
X9.8Y-1.3
X9.8Y-1.4
X9.8Y-1.6
X9.8Y-1.7
X9.8Y-1.7969
X9.8Y-1.8969
X9.8Y-2.0
X9.8Y-2.3
X9.8Y-2.4
X9.8Y-2.4969
X9.8Y-2.5969
X9.8Y-2.7
X9.8Y-2.9
X9.8Y-3.0
X9.8Y-3.3
X9.8Y-3.4
X9.8Y-3.6
X9.8Y-3.7
X9.8Y-3.7969
X9.8Y-3.8969
X9.8Y-4.0
X9.8Y-4.3
X9.8Y-4.4
X9.8Y-4.4969
X9.8Y-4.5969
X9.8Y-4.7
X9.8Y-4.9
X9.8Y-5.0
X9.9Y-1.3
X9.9Y-1.4
X9.9Y-1.6
X9.9Y-1.7
X9.9Y-1.7969
X9.9Y-1.8969
X9.9Y-2.0
X9.9Y-2.3
X9.9Y-2.4
X9.9Y-2.4969
X9.9Y-2.5969
X9.9Y-2.7
X9.9Y-2.9
X9.9Y-3.0
X9.9Y-3.3
X9.9Y-3.4
X9.9Y-3.6
X9.9Y-3.7
X9.9Y-3.7969
X9.9Y-3.8969
X9.9Y-4.0
X9.9Y-4.3
X9.9Y-4.4
X9.9Y-4.4969
X9.9Y-4.5969
X9.9Y-4.7
X9.9Y-4.9
X9.9Y-5.0
X10.0Y-1.3
X10.0Y-1.4
X10.0Y-1.6
X10.0Y-1.7
X10.0Y-1.7969
X10.0Y-1.8969
X10.0Y-2.0
X10.0Y-2.3
X10.0Y-2.4
X10.0Y-2.4969
X10.0Y-2.5969
X10.0Y-2.7
X10.0Y-2.9
X10.0Y-3.0
X10.0Y-3.3
X10.0Y-3.4
X10.0Y-3.6
X10.0Y-3.7
X10.0Y-3.7969
X10.0Y-3.8969
X10.0Y-4.0
X10.0Y-4.3
X10.0Y-4.4
X10.0Y-4.4969
X10.0Y-4.5969
X10.0Y-4.7
X10.0Y-4.9
X10.0Y-5.0
X10.1Y-1.3
X10.1Y-1.4
X10.1Y-1.6
X10.1Y-1.7
X10.1Y-1.7969
X10.1Y-1.8969
X10.1Y-2.0
X10.1Y-2.3
X10.1Y-2.4
X10.1Y-2.4969
X10.1Y-2.5969
X10.1Y-2.7
X10.1Y-2.9
X10.1Y-3.0
X10.1Y-3.3
X10.1Y-3.4
X10.1Y-3.6
X10.1Y-3.7
X10.1Y-3.7969
X10.1Y-3.8969
X10.1Y-4.0
X10.1Y-4.3
X10.1Y-4.4
X10.1Y-4.4969
X10.1Y-4.5969
X10.1Y-4.7
X10.1Y-4.9
X10.1Y-5.0
X10.2Y-1.3
X10.2Y-1.4
X10.2Y-1.6
X10.2Y-1.7
X10.2Y-1.7969
X10.2Y-1.8969
X10.2Y-2.0
X10.2Y-2.3
X10.2Y-2.4
X10.2Y-2.4969
X10.2Y-2.5969
X10.2Y-2.7
X10.2Y-2.9
X10.2Y-3.0
X10.2Y-3.3
X10.2Y-3.4
X10.2Y-3.6
X10.2Y-3.7
X10.2Y-3.7969
X10.2Y-3.8969
X10.2Y-4.0
X10.2Y-4.3
X10.2Y-4.4
X10.2Y-4.4969
X10.2Y-4.5969
X10.2Y-4.7
X10.2Y-4.9
X10.2Y-5.0
X10.3Y-1.3
X10.3Y-1.4
X10.3Y-1.6
X10.3Y-1.7
X10.3Y-1.7969
X10.3Y-1.8969
X10.3Y-2.0
X10.3Y-2.3
X10.3Y-2.4
X10.3Y-2.4969
X10.3Y-2.5969
X10.3Y-2.7
X10.3Y-2.9
X10.3Y-3.0
X10.3Y-3.3
X10.3Y-3.4
X10.3Y-3.6
X10.3Y-3.7
X10.3Y-3.7969
X10.3Y-3.8969
X10.3Y-4.0
X10.3Y-4.3
X10.3Y-4.4
X10.3Y-4.4969
X10.3Y-4.5969
X10.3Y-4.7
X10.3Y-4.9
X10.3Y-5.0
X10.4Y-1.3
X10.4Y-1.4
X10.4Y-1.6
X10.4Y-1.7
X10.4Y-1.7969
X10.4Y-1.8969
X10.4Y-2.0
X10.4Y-2.3
X10.4Y-2.4
X10.4Y-2.4969
X10.4Y-2.5969
X10.4Y-2.7
X10.4Y-2.9
X10.4Y-3.0
X10.4Y-3.3
X10.4Y-3.4
X10.4Y-3.6
X10.4Y-3.7
X10.4Y-3.7969
X10.4Y-3.8969
X10.4Y-4.0
X10.4Y-4.3
X10.4Y-4.4
X10.4Y-4.4969
X10.4Y-4.5969
X10.4Y-4.7
X10.4Y-4.9
X10.4Y-5.0
X10.5Y-1.3
X10.5Y-1.4
X10.5Y-1.6
X10.5Y-1.7
X10.5Y-1.7969
X10.5Y-1.8969
X10.5Y-2.0
X10.5Y-2.3
X10.5Y-2.4
X10.5Y-2.4969
X10.5Y-2.5969
X10.5Y-2.7
X10.5Y-2.9
X10.5Y-3.0
X10.5Y-3.3
X10.5Y-3.4
X10.5Y-3.6
X10.5Y-3.7
X10.5Y-3.7969
X10.5Y-3.8969
X10.5Y-4.0
X10.5Y-4.3
X10.5Y-4.4
X10.5Y-4.4969
X10.5Y-4.5969
X10.5Y-4.7
X10.5Y-4.9
X10.5Y-5.0
X10.6Y-1.3
X10.6Y-1.4
X10.6Y-1.6
X10.6Y-1.7
X10.6Y-1.7969
X10.6Y-1.8969
X10.6Y-2.0
X10.6Y-2.3
X10.6Y-2.4
X10.6Y-2.4969
X10.6Y-2.5969
X10.6Y-2.7
X10.6Y-2.9
X10.6Y-3.0
X10.6Y-3.3
X10.6Y-3.4
X10.6Y-3.6
X10.6Y-3.7
X10.6Y-3.7969
X10.6Y-3.8969
X10.6Y-4.0
X10.6Y-4.3
X10.6Y-4.4
X10.6Y-4.4969
X10.6Y-4.5969
X10.6Y-4.7
X10.6Y-4.9
X10.6Y-5.0
X10.7Y-1.3
X10.7Y-1.4
X10.7Y-1.6
X10.7Y-1.7
X10.7Y-1.7969
X10.7Y-1.8969
X10.7Y-2.0
X10.7Y-2.3
X10.7Y-2.4
X10.7Y-2.4969
X10.7Y-2.5969
X10.7Y-2.7
X10.7Y-2.9
X10.7Y-3.0
X10.7Y-3.3
X10.7Y-3.4
X10.7Y-3.6
X10.7Y-3.7
X10.7Y-3.7969
X10.7Y-3.8969
X10.7Y-4.0
X10.7Y-4.3
X10.7Y-4.4
X10.7Y-4.4969
X10.7Y-4.5969
X10.7Y-4.7
X10.7Y-4.9
X10.7Y-5.0
X10.8Y-1.3
X10.8Y-1.4
X10.8Y-1.6
X10.8Y-1.7
X10.8Y-1.7969
X10.8Y-1.8969
X10.8Y-2.0
X10.8Y-2.3
X10.8Y-2.4
X10.8Y-2.4969
X10.8Y-2.5969
X10.8Y-2.7
X10.8Y-2.9
X10.8Y-3.0
X10.8Y-3.3
X10.8Y-3.4
X10.8Y-3.6
X10.8Y-3.7
X10.8Y-3.7969
X10.8Y-3.8969
X10.8Y-4.0
X10.8Y-4.3
X10.8Y-4.4
X10.8Y-4.4969
X10.8Y-4.5969
X10.8Y-4.7
X10.8Y-4.9
X10.8Y-5.0
X10.9Y-1.3
X10.9Y-1.4
X10.9Y-1.6
X10.9Y-1.7
X10.9Y-1.7969
X10.9Y-1.8969
X10.9Y-2.0
X10.9Y-2.3
X10.9Y-2.4
X10.9Y-2.4969
X10.9Y-2.5969
X10.9Y-2.7
X10.9Y-2.9
X10.9Y-3.0
X10.9Y-3.3
X10.9Y-3.4
X10.9Y-3.6
X10.9Y-3.7
X10.9Y-3.7969
X10.9Y-3.8969
X10.9Y-4.0
X10.9Y-4.3
X10.9Y-4.4
X10.9Y-4.4969
X10.9Y-4.5969
X10.9Y-4.7
X10.9Y-4.9
X10.9Y-5.0
X11.0Y-1.3
X11.0Y-1.4
X11.0Y-1.6
X11.0Y-1.7
X11.0Y-1.7969
X11.0Y-1.8969
X11.0Y-2.0
X11.0Y-2.3
X11.0Y-2.4
X11.0Y-2.4969
X11.0Y-2.5969
X11.0Y-2.7
X11.0Y-2.9
X11.0Y-3.0
X11.0Y-3.3
X11.0Y-3.4
X11.0Y-3.6
X11.0Y-3.7
X11.0Y-3.7969
X11.0Y-3.8969
X11.0Y-4.0
X11.0Y-4.3
X11.0Y-4.4
X11.0Y-4.4969
X11.0Y-4.5969
X11.0Y-4.7
X11.0Y-4.9
X11.0Y-5.0
X11.1Y-1.3
X11.1Y-1.4
X11.1Y-1.6
X11.1Y-1.7
X11.1Y-1.7969
X11.1Y-1.8969
X11.1Y-2.0
X11.1Y-2.3
X11.1Y-2.4
X11.1Y-2.4969
X11.1Y-2.5969
X11.1Y-2.7
X11.1Y-2.9
X11.1Y-3.0
X11.1Y-3.3
X11.1Y-3.4
X11.1Y-3.6
X11.1Y-3.7
X11.1Y-3.7969
X11.1Y-3.8969
X11.1Y-4.0
X11.1Y-4.3
X11.1Y-4.4
X11.1Y-4.4969
X11.1Y-4.5969
X11.1Y-4.7
X11.1Y-4.9
X11.1Y-5.0
X11.2Y-1.3
X11.2Y-1.4
X11.2Y-1.6
X11.2Y-1.7
X11.2Y-1.7969
X11.2Y-1.8969
X11.2Y-2.0
X11.2Y-2.3
X11.2Y-2.4
X11.2Y-2.4969
X11.2Y-2.5969
X11.2Y-2.7
X11.2Y-2.9
X11.2Y-3.0
X11.2Y-3.3
X11.2Y-3.4
X11.2Y-3.6
X11.2Y-3.7
X11.2Y-3.7969
X11.2Y-3.8969
X11.2Y-4.0
X11.2Y-4.3
X11.2Y-4.4
X11.2Y-4.4969
X11.2Y-4.5969
X11.2Y-4.7
X11.2Y-4.9
X11.2Y-5.0
X11.3Y-1.3
X11.3Y-1.4
X11.3Y-1.6
X11.3Y-1.7
X11.3Y-1.7969
X11.3Y-1.8969
X11.3Y-2.0
X11.3Y-2.3
X11.3Y-2.4
X11.3Y-2.4969
X11.3Y-2.5969
X11.3Y-2.7
X11.3Y-2.9
X11.3Y-3.0
X11.3Y-3.3
X11.3Y-3.4
X11.3Y-3.6
X11.3Y-3.7
X11.3Y-3.7969
X11.3Y-3.8969
X11.3Y-4.0
X11.3Y-4.3
X11.3Y-4.4
X11.3Y-4.4969
X11.3Y-4.5969
X11.3Y-4.7
X11.3Y-4.9
X11.3Y-5.0
X11.4Y-1.3
X11.4Y-1.4
X11.4Y-1.6
X11.4Y-1.7
X11.4Y-1.7969
X11.4Y-1.8969
X11.4Y-2.0
X11.4Y-2.3
X11.4Y-2.4
X11.4Y-2.4969
X11.4Y-2.5969
X11.4Y-2.7
X11.4Y-2.9
X11.4Y-3.0
X11.4Y-3.3
X11.4Y-3.4
X11.4Y-3.6
X11.4Y-3.7
X11.4Y-3.7969
X11.4Y-3.8969
X11.4Y-4.0
X11.4Y-4.3
X11.4Y-4.4
X11.4Y-4.4969
X11.4Y-4.5969
X11.4Y-4.7
X11.4Y-4.9
X11.4Y-5.0
X11.5Y-1.3
X11.5Y-1.4
X11.5Y-1.6
X11.5Y-1.7
X11.5Y-1.7969
X11.5Y-1.8969
X11.5Y-2.0
X11.5Y-2.3
X11.5Y-2.4
X11.5Y-2.4969
X11.5Y-2.5969
X11.5Y-2.7
X11.5Y-2.9
X11.5Y-3.0
X11.5Y-3.3
X11.5Y-3.4
X11.5Y-3.6
X11.5Y-3.7
X11.5Y-3.7969
X11.5Y-3.8969
X11.5Y-4.0
X11.5Y-4.3
X11.5Y-4.4
X11.5Y-4.4969
X11.5Y-4.5969
X11.5Y-4.7
X11.5Y-4.9
X11.5Y-5.0
X11.6Y-1.3
X11.6Y-1.4
X11.6Y-1.6
X11.6Y-1.7
X11.6Y-1.7969
X11.6Y-1.8969
X11.6Y-2.0
X11.6Y-2.3
X11.6Y-2.4
X11.6Y-2.4969
X11.6Y-2.5969
X11.6Y-2.7
X11.6Y-2.9
X11.6Y-3.0
X11.6Y-3.3
X11.6Y-3.4
X11.6Y-3.6
X11.6Y-3.7
X11.6Y-3.7969
X11.6Y-3.8969
X11.6Y-4.0
X11.6Y-4.3
X11.6Y-4.4
X11.6Y-4.4969
X11.6Y-4.5969
X11.6Y-4.7
X11.6Y-4.9
X11.6Y-5.0
X11.7Y-1.3
X11.7Y-1.4
X11.7Y-1.6
X11.7Y-1.7
X11.7Y-1.7969
X11.7Y-1.8969
X11.7Y-2.0
X11.7Y-2.3
X11.7Y-2.4
X11.7Y-2.4969
X11.7Y-2.5969
X11.7Y-2.7
X11.7Y-2.9
X11.7Y-3.0
X11.7Y-3.3
X11.7Y-3.4
X11.7Y-3.6
X11.7Y-3.7
X11.7Y-3.7969
X11.7Y-3.8969
X11.7Y-4.0
X11.7Y-4.3
X11.7Y-4.4
X11.7Y-4.4969
X11.7Y-4.5969
X11.7Y-4.7
X11.7Y-4.9
X11.7Y-5.0
X11.8Y-1.3
X11.8Y-1.4
X11.8Y-1.6
X11.8Y-1.7
X11.8Y-1.7969
X11.8Y-1.8969
X11.8Y-2.0
X11.8Y-2.3
X11.8Y-2.4
X11.8Y-2.4969
X11.8Y-2.5969
X11.8Y-2.7
X11.8Y-2.9
X11.8Y-3.0
X11.8Y-3.3
X11.8Y-3.4
X11.8Y-3.6
X11.8Y-3.7
X11.8Y-3.7969
X11.8Y-3.8969
X11.8Y-4.0
X11.8Y-4.3
X11.8Y-4.4
X11.8Y-4.4969
X11.8Y-4.5969
X11.8Y-4.7
X11.8Y-4.9
X11.8Y-5.0
X11.9Y-1.3
X11.9Y-1.4
X11.9Y-1.6
X11.9Y-1.7
X11.9Y-1.7969
X11.9Y-1.8969
X11.9Y-2.0
X11.9Y-2.3
X11.9Y-2.4
X11.9Y-2.4969
X11.9Y-2.5969
X11.9Y-2.7
X11.9Y-2.9
X11.9Y-3.0
X11.9Y-3.3
X11.9Y-3.4
X11.9Y-3.6
X11.9Y-3.7
X11.9Y-3.7969
X11.9Y-3.8969
X11.9Y-4.0
X11.9Y-4.3
X11.9Y-4.4
X11.9Y-4.4969
X11.9Y-4.5969
X11.9Y-4.7
X11.9Y-4.9
X11.9Y-5.0
X12.0Y-1.3
X12.0Y-1.4
X12.0Y-1.6
X12.0Y-1.7
X12.0Y-1.7969
X12.0Y-1.8969
X12.0Y-2.0
X12.0Y-2.3
X12.0Y-2.4
X12.0Y-2.4969
X12.0Y-2.5969
X12.0Y-2.7
X12.0Y-2.9
X12.0Y-3.0
X12.0Y-3.3
X12.0Y-3.4
X12.0Y-3.6
X12.0Y-3.7
X12.0Y-3.7969
X12.0Y-3.8969
X12.0Y-4.0
X12.0Y-4.3
X12.0Y-4.4
X12.0Y-4.4969
X12.0Y-4.5969
X12.0Y-4.7
X12.0Y-4.9
X12.0Y-5.0
X12.1Y-1.3
X12.1Y-1.4
X12.1Y-1.6
X12.1Y-1.7
X12.1Y-1.7969
X12.1Y-1.8969
X12.1Y-2.0
X12.1Y-2.3
X12.1Y-2.4
X12.1Y-2.4969
X12.1Y-2.5969
X12.1Y-2.7
X12.1Y-2.9
X12.1Y-3.0
X12.1Y-3.3
X12.1Y-3.4
X12.1Y-3.6
X12.1Y-3.7
X12.1Y-3.7969
X12.1Y-3.8969
X12.1Y-4.0
X12.1Y-4.3
X12.1Y-4.4
X12.1Y-4.4969
X12.1Y-4.5969
X12.1Y-4.7
X12.1Y-4.9
X12.1Y-5.0
X12.1945Y-1.3
X12.1945Y-1.4
X12.1945Y-3.3
X12.1945Y-3.4
X12.2Y-1.6
X12.2Y-1.7
X12.2Y-1.7969
X12.2Y-1.8969
X12.2Y-2.0
X12.2Y-2.3
X12.2Y-2.4
X12.2Y-2.4969
X12.2Y-2.5969
X12.2Y-2.7
X12.2Y-2.9
X12.2Y-3.0
X12.2Y-3.6
X12.2Y-3.7
X12.2Y-3.7969
X12.2Y-3.8969
X12.2Y-4.0
X12.2Y-4.3
X12.2Y-4.4
X12.2Y-4.4969
X12.2Y-4.5969
X12.2Y-4.7
X12.2Y-4.9
X12.2Y-5.0
X12.2945Y-1.3
X12.2945Y-1.4
X12.2945Y-3.3
X12.2945Y-3.4
X12.3Y-1.6
X12.3Y-1.7
X12.3Y-1.7969
X12.3Y-1.8969
X12.3Y-2.0
X12.3Y-2.3
X12.3Y-2.4
X12.3Y-2.4969
X12.3Y-2.5969
X12.3Y-2.7
X12.3Y-2.9
X12.3Y-3.0
X12.3Y-3.6
X12.3Y-3.7
X12.3Y-3.7969
X12.3Y-3.8969
X12.3Y-4.0
X12.3Y-4.3
X12.3Y-4.4
X12.3Y-4.4969
X12.3Y-4.5969
X12.3Y-4.7
X12.3Y-4.9
X12.3Y-5.0
X12.3945Y-1.3
X12.3945Y-1.4
X12.3945Y-3.3
X12.3945Y-3.4
X12.4Y-1.6
X12.4Y-1.7
X12.4Y-1.7969
X12.4Y-1.8969
X12.4Y-2.0
X12.4Y-2.3
X12.4Y-2.4
X12.4Y-2.4969
X12.4Y-2.5969
X12.4Y-2.7
X12.4Y-2.9
X12.4Y-3.0
X12.4Y-3.6
X12.4Y-3.7
X12.4Y-3.7969
X12.4Y-3.8969
X12.4Y-4.0
X12.4Y-4.3
X12.4Y-4.4
X12.4Y-4.4969
X12.4Y-4.5969
X12.4Y-4.7
X12.4Y-4.9
X12.4Y-5.0
X12.5Y-1.3
X12.5Y-1.4
X12.5Y-1.6031
X12.5Y-1.7031
X12.5Y-1.8
X12.5Y-1.9
X12.5Y-2.0031
X12.5Y-2.3031
X12.5Y-2.4031
X12.5Y-2.5
X12.5Y-2.6
X12.5Y-2.7031
X12.5Y-2.9
X12.5Y-3.0
X12.5Y-3.3
X12.5Y-3.4
X12.5Y-3.6031
X12.5Y-3.7031
X12.5Y-3.8
X12.5Y-3.9
X12.5Y-4.0031
X12.5Y-4.3031
X12.5Y-4.4031
X12.5Y-4.5
X12.5Y-4.6
X12.5Y-4.7031
X12.5Y-4.9
X12.5Y-5.0
X12.6Y-1.3
X12.6Y-1.4
X12.6Y-1.6
X12.6Y-1.7
X12.6Y-1.7969
X12.6Y-1.8969
X12.6Y-2.0
X12.6Y-2.3
X12.6Y-2.4
X12.6Y-2.4969
X12.6Y-2.5969
X12.6Y-2.7
X12.6Y-2.9
X12.6Y-3.0
X12.6Y-3.3
X12.6Y-3.4
X12.6Y-3.6
X12.6Y-3.7
X12.6Y-3.7969
X12.6Y-3.8969
X12.6Y-4.0
X12.6Y-4.3
X12.6Y-4.4
X12.6Y-4.4969
X12.6Y-4.5969
X12.6Y-4.7
X12.6Y-4.9
X12.6Y-5.0
X12.7Y-1.3
X12.7Y-1.4
X12.7Y-1.6
X12.7Y-1.7
X12.7Y-1.7969
X12.7Y-1.8969
X12.7Y-2.0
X12.7Y-2.3
X12.7Y-2.4
X12.7Y-2.4969
X12.7Y-2.5969
X12.7Y-2.7
X12.7Y-2.9
X12.7Y-3.0
X12.7Y-3.3
X12.7Y-3.4
X12.7Y-3.6
X12.7Y-3.7
X12.7Y-3.7969
X12.7Y-3.8969
X12.7Y-4.0
X12.7Y-4.3
X12.7Y-4.4
X12.7Y-4.4969
X12.7Y-4.5969
X12.7Y-4.7
X12.7Y-4.9
X12.7Y-5.0
X12.8Y-1.3
X12.8Y-1.4
X12.8Y-1.6
X12.8Y-1.7
X12.8Y-1.7969
X12.8Y-1.8969
X12.8Y-2.0
X12.8Y-2.3
X12.8Y-2.4
X12.8Y-2.4969
X12.8Y-2.5969
X12.8Y-2.7
X12.8Y-2.9
X12.8Y-3.0
X12.8Y-3.3
X12.8Y-3.4
X12.8Y-3.6
X12.8Y-3.7
X12.8Y-3.7969
X12.8Y-3.8969
X12.8Y-4.0
X12.8Y-4.3
X12.8Y-4.4
X12.8Y-4.4969
X12.8Y-4.5969
X12.8Y-4.7
X12.8Y-4.9
X12.8Y-5.0
X12.9Y-1.3
X12.9Y-1.4
X12.9Y-1.6
X12.9Y-1.7
X12.9Y-1.7969
X12.9Y-1.8969
X12.9Y-2.0
X12.9Y-2.3
X12.9Y-2.4
X12.9Y-2.4969
X12.9Y-2.5969
X12.9Y-2.7
X12.9Y-2.9
X12.9Y-3.0
X12.9Y-3.3
X12.9Y-3.4
X12.9Y-3.6
X12.9Y-3.7
X12.9Y-3.7969
X12.9Y-3.8969
X12.9Y-4.0
X12.9Y-4.3
X12.9Y-4.4
X12.9Y-4.4969
X12.9Y-4.5969
X12.9Y-4.7
X12.9Y-4.9
X12.9Y-5.0
X13.0Y-1.3
X13.0Y-1.4
X13.0Y-1.6
X13.0Y-1.7
X13.0Y-1.7969
X13.0Y-1.8969
X13.0Y-2.0
X13.0Y-2.3
X13.0Y-2.4
X13.0Y-2.4969
X13.0Y-2.5969
X13.0Y-2.7
X13.0Y-2.9
X13.0Y-3.0
X13.0Y-3.3
X13.0Y-3.4
X13.0Y-3.6
X13.0Y-3.7
X13.0Y-3.7969
X13.0Y-3.8969
X13.0Y-4.0
X13.0Y-4.3
X13.0Y-4.4
X13.0Y-4.4969
X13.0Y-4.5969
X13.0Y-4.7
X13.0Y-4.9
X13.0Y-5.0
X13.1Y-1.3
X13.1Y-1.4
X13.1Y-1.6
X13.1Y-1.7
X13.1Y-1.7969
X13.1Y-1.8969
X13.1Y-2.0
X13.1Y-2.3
X13.1Y-2.4
X13.1Y-2.4969
X13.1Y-2.5969
X13.1Y-2.7
X13.1Y-2.9
X13.1Y-3.0
X13.1Y-3.3
X13.1Y-3.4
X13.1Y-3.6
X13.1Y-3.7
X13.1Y-3.7969
X13.1Y-3.8969
X13.1Y-4.0
X13.1Y-4.3
X13.1Y-4.4
X13.1Y-4.4969
X13.1Y-4.5969
X13.1Y-4.7
X13.1Y-4.9
X13.1Y-5.0
X13.2Y-1.3
X13.2Y-1.4
X13.2Y-1.6
X13.2Y-1.7
X13.2Y-1.7969
X13.2Y-1.8969
X13.2Y-2.0
X13.2Y-2.3
X13.2Y-2.4
X13.2Y-2.4969
X13.2Y-2.5969
X13.2Y-2.7
X13.2Y-2.9
X13.2Y-3.0
X13.2Y-3.3
X13.2Y-3.4
X13.2Y-3.6
X13.2Y-3.7
X13.2Y-3.7969
X13.2Y-3.8969
X13.2Y-4.0
X13.2Y-4.3
X13.2Y-4.4
X13.2Y-4.4969
X13.2Y-4.5969
X13.2Y-4.7
X13.2Y-4.9
X13.2Y-5.0
X13.3Y-1.3
X13.3Y-1.4
X13.3Y-1.6
X13.3Y-1.7
X13.3Y-1.7969
X13.3Y-1.8969
X13.3Y-2.0
X13.3Y-2.3
X13.3Y-2.4
X13.3Y-2.4969
X13.3Y-2.5969
X13.3Y-2.7
X13.3Y-2.9
X13.3Y-3.0
X13.3Y-3.3
X13.3Y-3.4
X13.3Y-3.6
X13.3Y-3.7
X13.3Y-3.7969
X13.3Y-3.8969
X13.3Y-4.0
X13.3Y-4.3
X13.3Y-4.4
X13.3Y-4.4969
X13.3Y-4.5969
X13.3Y-4.7
X13.3Y-4.9
X13.3Y-5.0
X13.4Y-1.3
X13.4Y-1.4
X13.4Y-1.6
X13.4Y-1.7
X13.4Y-1.7969
X13.4Y-1.8969
X13.4Y-2.0
X13.4Y-2.3
X13.4Y-2.4
X13.4Y-2.4969
X13.4Y-2.5969
X13.4Y-2.7
X13.4Y-2.9
X13.4Y-3.0
X13.4Y-3.3
X13.4Y-3.4
X13.4Y-3.6
X13.4Y-3.7
X13.4Y-3.7969
X13.4Y-3.8969
X13.4Y-4.0
X13.4Y-4.3
X13.4Y-4.4
X13.4Y-4.4969
X13.4Y-4.5969
X13.4Y-4.7
X13.4Y-4.9
X13.4Y-5.0
X13.5Y-1.3
X13.5Y-1.4
X13.5Y-1.6
X13.5Y-1.7
X13.5Y-1.7969
X13.5Y-1.8969
X13.5Y-2.0
X13.5Y-2.3
X13.5Y-2.4
X13.5Y-2.4969
X13.5Y-2.5969
X13.5Y-2.7
X13.5Y-2.9
X13.5Y-3.0
X13.5Y-3.3
X13.5Y-3.4
X13.5Y-3.6
X13.5Y-3.7
X13.5Y-3.7969
X13.5Y-3.8969
X13.5Y-4.0
X13.5Y-4.3
X13.5Y-4.4
X13.5Y-4.4969
X13.5Y-4.5969
X13.5Y-4.7
X13.5Y-4.9
X13.5Y-5.0
X13.6Y-1.3
X13.6Y-1.4
X13.6Y-1.6
X13.6Y-1.7
X13.6Y-1.7969
X13.6Y-1.8969
X13.6Y-2.0
X13.6Y-2.3
X13.6Y-2.4
X13.6Y-2.4969
X13.6Y-2.5969
X13.6Y-2.7
X13.6Y-2.9
X13.6Y-3.0
X13.6Y-3.3
X13.6Y-3.4
X13.6Y-3.6
X13.6Y-3.7
X13.6Y-3.7969
X13.6Y-3.8969
X13.6Y-4.0
X13.6Y-4.3
X13.6Y-4.4
X13.6Y-4.4969
X13.6Y-4.5969
X13.6Y-4.7
X13.6Y-4.9
X13.6Y-5.0
X13.7Y-1.3
X13.7Y-1.4
X13.7Y-1.6
X13.7Y-1.7
X13.7Y-1.7969
X13.7Y-1.8969
X13.7Y-2.0
X13.7Y-2.3
X13.7Y-2.4
X13.7Y-2.4969
X13.7Y-2.5969
X13.7Y-2.7
X13.7Y-2.9
X13.7Y-3.0
X13.7Y-3.3
X13.7Y-3.4
X13.7Y-3.6
X13.7Y-3.7
X13.7Y-3.7969
X13.7Y-3.8969
X13.7Y-4.0
X13.7Y-4.3
X13.7Y-4.4
X13.7Y-4.4969
X13.7Y-4.5969
X13.7Y-4.7
X13.7Y-4.9
X13.7Y-5.0
X13.8Y-1.3
X13.8Y-1.4
X13.8Y-1.6
X13.8Y-1.7
X13.8Y-1.7969
X13.8Y-1.8969
X13.8Y-2.0
X13.8Y-2.3
X13.8Y-2.4
X13.8Y-2.4969
X13.8Y-2.5969
X13.8Y-2.7
X13.8Y-2.9
X13.8Y-3.0
X13.8Y-3.3
X13.8Y-3.4
X13.8Y-3.6
X13.8Y-3.7
X13.8Y-3.7969
X13.8Y-3.8969
X13.8Y-4.0
X13.8Y-4.3
X13.8Y-4.4
X13.8Y-4.4969
X13.8Y-4.5969
X13.8Y-4.7
X13.8Y-4.9
X13.8Y-5.0
X13.9Y-1.3
X13.9Y-1.4
X13.9Y-1.6
X13.9Y-1.7
X13.9Y-1.7969
X13.9Y-1.8969
X13.9Y-2.0
X13.9Y-2.3
X13.9Y-2.4
X13.9Y-2.4969
X13.9Y-2.5969
X13.9Y-2.7
X13.9Y-2.9
X13.9Y-3.0
X13.9Y-3.3
X13.9Y-3.4
X13.9Y-3.6
X13.9Y-3.7
X13.9Y-3.7969
X13.9Y-3.8969
X13.9Y-4.0
X13.9Y-4.3
X13.9Y-4.4
X13.9Y-4.4969
X13.9Y-4.5969
X13.9Y-4.7
X13.9Y-4.9
X13.9Y-5.0
X14.0Y-1.3
X14.0Y-1.4
X14.0Y-1.6
X14.0Y-1.7
X14.0Y-1.7969
X14.0Y-1.8969
X14.0Y-2.0
X14.0Y-2.3
X14.0Y-2.4
X14.0Y-2.4969
X14.0Y-2.5969
X14.0Y-2.7
X14.0Y-2.9
X14.0Y-3.0
X14.0Y-3.3
X14.0Y-3.4
X14.0Y-3.6
X14.0Y-3.7
X14.0Y-3.7969
X14.0Y-3.8969
X14.0Y-4.0
X14.0Y-4.3
X14.0Y-4.4
X14.0Y-4.4969
X14.0Y-4.5969
X14.0Y-4.7
X14.0Y-4.9
X14.0Y-5.0
X14.1Y-1.3
X14.1Y-1.4
X14.1Y-1.6
X14.1Y-1.7
X14.1Y-1.7969
X14.1Y-1.8969
X14.1Y-2.0
X14.1Y-2.3
X14.1Y-2.4
X14.1Y-2.4969
X14.1Y-2.5969
X14.1Y-2.7
X14.1Y-2.9
X14.1Y-3.0
X14.1Y-3.3
X14.1Y-3.4
X14.1Y-3.6
X14.1Y-3.7
X14.1Y-3.7969
X14.1Y-3.8969
X14.1Y-4.0
X14.1Y-4.3
X14.1Y-4.4
X14.1Y-4.4969
X14.1Y-4.5969
X14.1Y-4.7
X14.1Y-4.9
X14.1Y-5.0
X14.2Y-1.3
X14.2Y-1.4
X14.2Y-1.6
X14.2Y-1.7
X14.2Y-1.7969
X14.2Y-1.8969
X14.2Y-2.0
X14.2Y-2.3
X14.2Y-2.4
X14.2Y-2.4969
X14.2Y-2.5969
X14.2Y-2.7
X14.2Y-2.9
X14.2Y-3.0
X14.2Y-3.3
X14.2Y-3.4
X14.2Y-3.6
X14.2Y-3.7
X14.2Y-3.7969
X14.2Y-3.8969
X14.2Y-4.0
X14.2Y-4.3
X14.2Y-4.4
X14.2Y-4.4969
X14.2Y-4.5969
X14.2Y-4.7
X14.2Y-4.9
X14.2Y-5.0
X14.3Y-1.3
X14.3Y-1.4
X14.3Y-1.6
X14.3Y-1.7
X14.3Y-1.7969
X14.3Y-1.8969
X14.3Y-2.0
X14.3Y-2.3
X14.3Y-2.4
X14.3Y-2.4969
X14.3Y-2.5969
X14.3Y-2.7
X14.3Y-2.9
X14.3Y-3.0
X14.3Y-3.3
X14.3Y-3.4
X14.3Y-3.6
X14.3Y-3.7
X14.3Y-3.7969
X14.3Y-3.8969
X14.3Y-4.0
X14.3Y-4.3
X14.3Y-4.4
X14.3Y-4.4969
X14.3Y-4.5969
X14.3Y-4.7
X14.3Y-4.9
X14.3Y-5.0
X14.4Y-1.3
X14.4Y-1.4
X14.4Y-1.6
X14.4Y-1.7
X14.4Y-1.7969
X14.4Y-1.8969
X14.4Y-2.0
X14.4Y-2.3
X14.4Y-2.4
X14.4Y-2.4969
X14.4Y-2.5969
X14.4Y-2.7
X14.4Y-2.9
X14.4Y-3.0
X14.4Y-3.3
X14.4Y-3.4
X14.4Y-3.6
X14.4Y-3.7
X14.4Y-3.7969
X14.4Y-3.8969
X14.4Y-4.0
X14.4Y-4.3
X14.4Y-4.4
X14.4Y-4.4969
X14.4Y-4.5969
X14.4Y-4.7
X14.4Y-4.9
X14.4Y-5.0
X14.5Y-1.3
X14.5Y-1.4
X14.5Y-1.6
X14.5Y-1.7
X14.5Y-1.7969
X14.5Y-1.8969
X14.5Y-2.0
X14.5Y-2.3
X14.5Y-2.4
X14.5Y-2.4969
X14.5Y-2.5969
X14.5Y-2.7
X14.5Y-2.9
X14.5Y-3.0
X14.5Y-3.3
X14.5Y-3.4
X14.5Y-3.6
X14.5Y-3.7
X14.5Y-3.7969
X14.5Y-3.8969
X14.5Y-4.0
X14.5Y-4.3
X14.5Y-4.4
X14.5Y-4.4969
X14.5Y-4.5969
X14.5Y-4.7
X14.5Y-4.9
X14.5Y-5.0
T2
X2.0Y-3.1
X2.0Y-3.2
X2.025Y-3.1
X2.025Y-3.2
X2.05Y-3.1
X2.05Y-3.2
X2.075Y-3.1
X2.075Y-3.2
X2.1Y-3.1
X2.1Y-3.2
X2.125Y-3.1
X2.125Y-3.2
X2.15Y-3.1
X2.15Y-3.2
X2.175Y-3.1
X2.175Y-3.2
X2.2Y-3.1
X2.2Y-3.2
X2.225Y-3.1
X2.225Y-3.2
X2.25Y-3.1
X2.25Y-3.2
X2.275Y-3.1
X2.275Y-3.2
X2.3Y-3.1
X2.3Y-3.2
X3.6Y-3.1
X3.6Y-3.2
X3.625Y-3.1
X3.625Y-3.2
X3.65Y-3.1
X3.65Y-3.2
X3.675Y-3.1
X3.675Y-3.2
X3.7Y-3.1
X3.7Y-3.2
X3.725Y-3.1
X3.725Y-3.2
X3.75Y-3.1
X3.75Y-3.2
X3.775Y-3.1
X3.775Y-3.2
X3.8Y-3.1
X3.8Y-3.2
X3.825Y-3.1
X3.825Y-3.2
X3.85Y-3.1
X3.85Y-3.2
X3.875Y-3.1
X3.875Y-3.2
X3.9Y-3.1
X3.9Y-3.2
X5.7Y-3.1
X5.7Y-3.2
X5.725Y-3.1
X5.725Y-3.2
X5.75Y-3.1
X5.75Y-3.2
X5.775Y-3.1
X5.775Y-3.2
X5.8Y-3.1
X5.8Y-3.2
X5.825Y-3.1
X5.825Y-3.2
X5.85Y-3.1
X5.85Y-3.2
X5.875Y-3.1
X5.875Y-3.2
X5.9Y-3.1
X5.9Y-3.2
X5.925Y-3.1
X5.925Y-3.2
X5.95Y-3.1
X5.95Y-3.2
X5.975Y-3.1
X5.975Y-3.2
X6.0Y-3.1
X6.0Y-3.2
X7.3Y-3.1
X7.3Y-3.2
X7.325Y-3.1
X7.325Y-3.2
X7.35Y-3.1
X7.35Y-3.2
X7.375Y-3.1
X7.375Y-3.2
X7.4Y-3.1
X7.4Y-3.2
X7.425Y-3.1
X7.425Y-3.2
X7.45Y-3.1
X7.45Y-3.2
X7.475Y-3.1
X7.475Y-3.2
X7.5Y-3.1
X7.5Y-3.2
X7.525Y-3.1
X7.525Y-3.2
X7.55Y-3.1
X7.55Y-3.2
X7.575Y-3.1
X7.575Y-3.2
X7.6Y-3.1
X7.6Y-3.2
X8.0Y-1.5
X8.0Y-1.525
X8.0Y-1.55
X8.0Y-1.575
X8.0Y-1.6
X8.0Y-1.625
X8.0Y-1.65
X8.0Y-1.675
X8.0Y-1.7
X8.0Y-1.725
X8.0Y-1.75
X8.0Y-1.775
X8.0Y-1.8
X8.0Y-2.5
X8.0Y-2.525
X8.0Y-2.55
X8.0Y-2.575
X8.0Y-2.6
X8.0Y-2.625
X8.0Y-2.65
X8.0Y-2.675
X8.0Y-2.7
X8.0Y-2.725
X8.0Y-2.75
X8.0Y-2.775
X8.0Y-2.8
X8.0Y-3.5
X8.0Y-3.525
X8.0Y-3.55
X8.0Y-3.575
X8.0Y-3.6
X8.0Y-3.625
X8.0Y-3.65
X8.0Y-3.675
X8.0Y-3.7
X8.0Y-3.725
X8.0Y-3.75
X8.0Y-3.775
X8.0Y-3.8
X8.0Y-4.5
X8.0Y-4.525
X8.0Y-4.55
X8.0Y-4.575
X8.0Y-4.6
X8.0Y-4.625
X8.0Y-4.65
X8.0Y-4.675
X8.0Y-4.7
X8.0Y-4.725
X8.0Y-4.75
X8.0Y-4.775
X8.0Y-4.8
X8.1Y-1.5
X8.1Y-1.525
X8.1Y-1.55
X8.1Y-1.575
X8.1Y-1.6
X8.1Y-1.625
X8.1Y-1.65
X8.1Y-1.675
X8.1Y-1.7
X8.1Y-1.725
X8.1Y-1.75
X8.1Y-1.775
X8.1Y-1.8
X8.1Y-2.5
X8.1Y-2.525
X8.1Y-2.55
X8.1Y-2.575
X8.1Y-2.6
X8.1Y-2.625
X8.1Y-2.65
X8.1Y-2.675
X8.1Y-2.7
X8.1Y-2.725
X8.1Y-2.75
X8.1Y-2.775
X8.1Y-2.8
X8.1Y-3.5
X8.1Y-3.525
X8.1Y-3.55
X8.1Y-3.575
X8.1Y-3.6
X8.1Y-3.625
X8.1Y-3.65
X8.1Y-3.675
X8.1Y-3.7
X8.1Y-3.725
X8.1Y-3.75
X8.1Y-3.775
X8.1Y-3.8
X8.1Y-4.5
X8.1Y-4.525
X8.1Y-4.55
X8.1Y-4.575
X8.1Y-4.6
X8.1Y-4.625
X8.1Y-4.65
X8.1Y-4.675
X8.1Y-4.7
X8.1Y-4.725
X8.1Y-4.75
X8.1Y-4.775
X8.1Y-4.8
X8.6Y-3.1
X8.6Y-3.2
X8.625Y-3.1
X8.625Y-3.2
X8.65Y-3.1
X8.65Y-3.2
X8.675Y-3.1
X8.675Y-3.2
X8.7Y-3.1
X8.7Y-3.2
X8.725Y-3.1
X8.725Y-3.2
X8.75Y-3.1
X8.75Y-3.2
X8.775Y-3.1
X8.775Y-3.2
X8.8Y-3.1
X8.8Y-3.2
X8.825Y-3.1
X8.825Y-3.2
X8.85Y-3.1
X8.85Y-3.2
X8.875Y-3.1
X8.875Y-3.2
X8.9Y-3.1
X8.9Y-3.2
X10.2Y-3.1
X10.2Y-3.2
X10.225Y-3.1
X10.225Y-3.2
X10.25Y-3.1
X10.25Y-3.2
X10.275Y-3.1
X10.275Y-3.2
X10.3Y-3.1
X10.3Y-3.2
X10.325Y-3.1
X10.325Y-3.2
X10.35Y-3.1
X10.35Y-3.2
X10.375Y-3.1
X10.375Y-3.2
X10.4Y-3.1
X10.4Y-3.2
X10.425Y-3.1
X10.425Y-3.2
X10.45Y-3.1
X10.45Y-3.2
X10.475Y-3.1
X10.475Y-3.2
X10.5Y-3.1
X10.5Y-3.2
X12.3Y-3.1
X12.3Y-3.2
X12.325Y-3.1
X12.325Y-3.2
X12.35Y-3.1
X12.35Y-3.2
X12.375Y-3.1
X12.375Y-3.2
X12.4Y-3.1
X12.4Y-3.2
X12.425Y-3.1
X12.425Y-3.2
X12.45Y-3.1
X12.45Y-3.2
X12.475Y-3.1
X12.475Y-3.2
X12.5Y-3.1
X12.5Y-3.2
X12.525Y-3.1
X12.525Y-3.2
X12.55Y-3.1
X12.55Y-3.2
X12.575Y-3.1
X12.575Y-3.2
X12.6Y-3.1
X12.6Y-3.2
X13.9Y-3.1
X13.9Y-3.2
X13.925Y-3.1
X13.925Y-3.2
X13.95Y-3.1
X13.95Y-3.2
X13.975Y-3.1
X13.975Y-3.2
X14.0Y-3.1
X14.0Y-3.2
X14.025Y-3.1
X14.025Y-3.2
X14.05Y-3.1
X14.05Y-3.2
X14.075Y-3.1
X14.075Y-3.2
X14.1Y-3.1
X14.1Y-3.2
X14.125Y-3.1
X14.125Y-3.2
X14.15Y-3.1
X14.15Y-3.2
X14.175Y-3.1
X14.175Y-3.2
X14.2Y-3.1
X14.2Y-3.2
M30
