%TF.GenerationSoftware,KiCad,Pcbnew,8.0.5*%
%TF.CreationDate,2024-10-04T16:18:13+02:00*%
%TF.ProjectId,Solderable_breadboard,536f6c64-6572-4616-926c-655f62726561,rev?*%
%TF.SameCoordinates,Original*%
%TF.FileFunction,Profile,NP*%
%FSLAX46Y46*%
G04 Gerber Fmt 4.6, Leading zero omitted, Abs format (unit mm)*
G04 Created by KiCad (PCBNEW 8.0.5) date 2024-10-04 16:18:13*
%MOMM*%
%LPD*%
G01*
G04 APERTURE LIST*
%TA.AperFunction,Profile*%
%ADD10C,0.050000*%
%TD*%
G04 APERTURE END LIST*
D10*
X203200000Y-81280000D02*
X203200000Y-87710000D01*
X205740000Y-81280000D02*
X205740000Y-87710000D01*
X203200000Y-72310000D02*
X203200000Y-78740000D01*
X205740000Y-72310000D02*
X205740000Y-78740000D01*
X203200000Y-46910000D02*
X203200000Y-62310000D01*
X205740000Y-62310000D02*
X205740000Y-46910000D01*
X321230000Y-81280000D02*
X351870000Y-81280000D01*
X321230000Y-78740000D02*
X351870000Y-78740000D01*
X267890000Y-81280000D02*
X311230000Y-81280000D01*
X267890000Y-78740000D02*
X311230000Y-78740000D01*
X227250000Y-81280000D02*
X257890000Y-81280000D01*
X227250000Y-78740000D02*
X257890000Y-78740000D01*
X153590000Y-81280000D02*
X184230000Y-81280000D01*
X153590000Y-78740000D02*
X184230000Y-78740000D01*
X100250000Y-81280000D02*
X143590000Y-81280000D01*
X100250000Y-78740000D02*
X143590000Y-78740000D01*
X59610000Y-78740000D02*
X90250000Y-78740000D01*
X59610000Y-81280000D02*
X90250000Y-81280000D01*
X38100000Y-81280000D02*
X49610000Y-81280000D01*
X38100000Y-129540000D02*
X38100000Y-81280000D01*
X203200000Y-129540000D02*
X38100000Y-129540000D01*
X203200000Y-123110000D02*
X203200000Y-129540000D01*
X203200000Y-113110000D02*
X203200000Y-97710000D01*
X205740000Y-97710000D02*
X205740000Y-113110000D01*
X205740000Y-129540000D02*
X205740000Y-123110000D01*
X370840000Y-129540000D02*
X205740000Y-129540000D01*
X370840000Y-81280000D02*
X370840000Y-129540000D01*
X361870000Y-81280000D02*
X370840000Y-81280000D01*
X370840000Y-78740000D02*
X361870000Y-78740000D01*
X370840000Y-30480000D02*
X370840000Y-78740000D01*
X205740000Y-30480000D02*
X370840000Y-30480000D01*
X205740000Y-36910000D02*
X205740000Y-30480000D01*
X203200000Y-30480000D02*
X203200000Y-36910000D01*
X38100000Y-30480000D02*
X203200000Y-30480000D01*
X38100000Y-78740000D02*
X38100000Y-30480000D01*
X49610000Y-78740000D02*
X38100000Y-78740000D01*
X194230000Y-81280000D02*
X203200000Y-81280000D01*
X194230000Y-78740000D02*
X203200000Y-78740000D01*
X217250000Y-81280000D02*
X205740000Y-81280000D01*
X217250000Y-78740000D02*
X205740000Y-78740000D01*
%TO.C,REF\u002A\u002A*%
X203200000Y-97710000D02*
G75*
G02*
X205740000Y-97710000I1270000J0D01*
G01*
X205740000Y-87710000D02*
G75*
G02*
X203200000Y-87710000I-1270000J0D01*
G01*
X203200000Y-123110000D02*
G75*
G02*
X205740000Y-123110000I1270000J0D01*
G01*
X205740000Y-113110000D02*
G75*
G02*
X203200000Y-113110000I-1270000J0D01*
G01*
X351870000Y-78740000D02*
G75*
G02*
X351870000Y-81280000I0J-1270000D01*
G01*
X361870000Y-81280000D02*
G75*
G02*
X361870000Y-78740000I0J1270000D01*
G01*
X311230000Y-78740000D02*
G75*
G02*
X311230000Y-81280000I0J-1270000D01*
G01*
X321230000Y-81280000D02*
G75*
G02*
X321230000Y-78740000I0J1270000D01*
G01*
X217250000Y-78740000D02*
G75*
G02*
X217250000Y-81280000I0J-1270000D01*
G01*
X227250000Y-81280000D02*
G75*
G02*
X227250000Y-78740000I0J1270000D01*
G01*
X257890000Y-78740000D02*
G75*
G02*
X257890000Y-81280000I0J-1270000D01*
G01*
X267890000Y-81280000D02*
G75*
G02*
X267890000Y-78740000I0J1270000D01*
G01*
X143590000Y-78740000D02*
G75*
G02*
X143590000Y-81280000I0J-1270000D01*
G01*
X153590000Y-81280000D02*
G75*
G02*
X153590000Y-78740000I0J1270000D01*
G01*
X90250000Y-78740000D02*
G75*
G02*
X90250000Y-81280000I0J-1270000D01*
G01*
X100250000Y-81280000D02*
G75*
G02*
X100250000Y-78740000I0J1270000D01*
G01*
X49610000Y-78740000D02*
G75*
G02*
X49610000Y-81280000I0J-1270000D01*
G01*
X59610000Y-81280000D02*
G75*
G02*
X59610000Y-78740000I0J1270000D01*
G01*
X203200000Y-72310000D02*
G75*
G02*
X205740000Y-72310000I1270000J0D01*
G01*
X205740000Y-62310000D02*
G75*
G02*
X203200000Y-62310000I-1270000J0D01*
G01*
X203200000Y-46910000D02*
G75*
G02*
X205740000Y-46910000I1270000J0D01*
G01*
X205740000Y-36910000D02*
G75*
G02*
X203200000Y-36910000I-1270000J0D01*
G01*
X184230000Y-78740000D02*
G75*
G02*
X184230000Y-81280000I0J-1270000D01*
G01*
X194230000Y-81280000D02*
G75*
G02*
X194230000Y-78740000I0J1270000D01*
G01*
%TD*%
M02*
